<?xml version="1.0" encoding="UTF-8"?>
<svg width="65.833mm" height="52.306mm" version="1.1" viewBox="0 0 65.833 52.306" xmlns="http://www.w3.org/2000/svg">
 <g transform="translate(-87.508 -136.42)">
  <path d="m100.76 148.27c.18521.15875.29104.39687.55562.26458.0794-.0265.1323-.13229.0794-.18521-.13229-.18521-.3175-.26458-.635-.0794zm52.44-11.245c-.47625.8202-.79375 1.6933-.92605 2.6458-.0529.55562-.10582 1.1112-.60854 1.5081-.3175.26459-.29103.635-.18521.97896.10583.39688-.0265.66146-.3175.82021-.47625.26458-.79375.52917-.55563 1.1377.0794.15875-.13229.39687-.23812.3175-.44979-.3175-.5027.10583-.66145.3175-.1323.15875-.26459.26458-.4498.34396-.37042.21166-.60854.52916-.71438.9525-.15875.58208-.44979.97896-1.1112.97896-.10582 0-.23812.0529-.29104.13229-.44978.55562-1.0583 1.0054-1.2435 1.7462-.15875.60854-.47625 1.0319-.97896 1.4288-.71438.55562-1.1377 1.3229-.97896 2.2754.0529.29105-.15875.4498-.3175.60855-.50271.52916-.76729 1.1642-.76729 1.905-.0265.15875-.0265.3175-.0529.5027-.0529.0529-.10584.1323-.15875.15875-.4498.23813-.4498.23813-.18521.68792.18521.3175.26458.60854.0794.97896-.18521.34396-.13229.66146.18521.92604.37041.3175.42333.82021.60854 1.2435.23812.52917.66146.97896.82021 1.5346-.37042.29105-.39688-.47625-.68792-.29104-.26458.50271.37042.635.3175 1.0319-.13229 0-.42333-.0265-.29104.15875.15875.21166.3175.47625.50271.66146.23812.23812.26458-.0529.3175-.21167.0529-.0794.13229-.15875.1852-.26458.37042.3175.26459.68791.10584 1.0319 0 .0529 0 .10583-.0265.15875-.10583 0-.23813.0265-.23813.13229 0 .13229.1323.21167.26458.21167.18522.74083.29105 1.5081.9525 2.0108.0794.0529.1323.21167.10584.29104-.13229.79375.37041 1.3494.68791 1.9844.0794.18521.15875.29104-.10583.29104-.21167 0-.1852.23813-.29104.3175-.13229.13229-.26458.3175-.0265.44979.21167.10584.37042 0 .47625-.15875.15875-.21166.10583-.47625.0794-.71437.23812-.13229.4498-.0265.68792.0265-.15875.5027.21166.58208.55563.66145.58207.15875 1.1642.18521 1.7727.18521-.23813.29104-.0529.66146-.1852.9525-.5821-.0794-1.1642-.26458-1.7992-.21166-.55562.0529-1.1377-.29105-1.6933-.4498-.0794-.0265-.21166-.13229-.21166-.21166-.0529-.68792-.68792-.82021-1.1112-1.1377-.1323-.10583-.42334-.0794-.37042-.39688.3175-.21166.58208-.44979.9525-.58208.10583-.0529.26458-.10583.23812-.29104-.0794-.34396-.0794-.74083-.39687-1.0054-.44979-.34396-.82021-.21166-1.0054.34396-.18521.58208 0 1.0583.23813 1.561-.10584.0794-.18521.0265-.29104-.0265-.82021-.47625-1.4817-.13229-2.1167.39688-.55563.44979-1.1906.82021-1.6933 1.3758-.1323.15875-.3175.21167-.50271.21167-.87313-.0265-1.3229.635-1.8785 1.1377-.18521.18521-.10584.37041 0 .58208.39687.76729.39687.9525-.18521 1.561-.39688.39688-.635.87313-.76729 1.4023-.10584.50271-.21167 1.0054-.47625 1.4552-.0529.0794-.10584.21167-.0794.29104.21166.89959-.0529 1.7462-.29105 2.5929-.1852.635.0529 1.1906.29105 1.7198.26458.60854.52916 1.1906.13229 1.8785-.23813.42334.39687.23813.44979.47625v.23813c-.15875-.10583-.29104-.10583-.42333.0529-.15875.23812-.26459.52916-.635.44979-.0529 0-.15875.15875-.15875.15875.34395.47625-.39688.9525 0 1.4023.0529.0529.0794.13229.0265.21167-.3175.42333-.29104 1.0319-.74084 1.4288-.60854.55562-.8202 1.2171-.52916 2.0373h-.66146c.10583-.21167.23812-.47625.15875-.68792-.15875-.60854.15875-1.0319.47625-1.4552.3175-.44979.60854-.87312.68792-1.4288 0-.0794.10583-.15875.0794-.21166-.34395-.7673.21167-1.2965.52917-1.905.29104-.55563.50271-1.1112.15875-1.8256-.29104-.60854-.58208-1.27-.52917-2.0108.0265-.3175-.15875-.39688-.39687-.39688.58208-.74083.635-1.6404.68792-2.54.0529-.58208-.0265-1.1642.39687-1.6669.13229-.15875.21167-.37042.15875-.60854-.0794-.55563.15875-.9525.55563-1.27.23812-.18521.34395-.42334.44979-.74084.13229-.39687-.0265-.55562-.37042-.66146v-.15875c.18521-.0529.47625-.0529.37042-.37041-.18521-.55563.18521-.92604.42333-1.3229.18521-.34396.55563-.3175.87313-.23812.34395.0794.55562-.0265.79375-.23813.55562-.52917 1.1377-.97896 1.7198-1.4817.18521-.15875.34396-.23812.58208-.21166.26458.0265.52917 0 .82021-.0265.23812-.0265.39687-.13229.42333-.39688.0529-.42333.18521-.84666.26459-1.27.0794-.44979.0529-.92604.71437-.97895.18521-.0265.23813-.18521.23813-.37042 0-.37042-.0265-.74083-.23813-1.0848-.21167-.37042-.47625-.71438-.44979-1.1906.0265-.29104-.3175-.34396-.44979-.52916-.0794-.1323.0265-.52917-.37042-.29105-.13229.0794-.18521-.15875-.23812-.26458-.18521-.50271-.47625-.97896-.68792-1.4552-.21167-.50271-.26458-1.0848-.47625-1.5875-.0265-.0529-.0265-.18521.0265-.23812.13229-.0794.50271 0 .34396-.26459-.18521-.34395-.39688-.76729-.79375-.92604-1.1112-.5027-2.2225-.55562-3.3602-.0265-.52917.23813-1.0583.52917-1.6669.635-.68792.1323-1.2171.58209-1.7992.92605-.84667.5027-1.6669.39687-2.4342-.0794-.42333-.26458-.79375-.55562-1.27-.71437-.15875-.0529-.29104-.15875-.37041-.3175-.1323-.26459-.34396-.39688-.60855-.47625-.3175-.0794-.42333-.23813-.47625-.60854-.0529-.4498-.37041-.89959-.68791-1.2436-.21167-.23812-.60854-.3175-.9525-.29104-.13229 0-.23813.0529-.37042-.0529-.635-.52917-1.3494-.52917-2.1167-.39688-.37041.0794-.79375 0-1.1642-.10583-.3175-.10584-.55563-.10584-.84667 0-.55563.21166-1.0848.26458-1.4817-.37042-.13229-.21167-.39687-.23812-.66146-.23812-.21166 0-.47625.0794-.635-.0265-.79375-.50271-1.6933-.42334-2.5664-.44979-.21167 0-.4498.0265-.635-.23813-.15875-.23812-.50271-.0529-.66146.0529-.68792.47625-1.4552.3175-2.196.37041-.39688.0265-.79375.0265-1.1906.0794-.44979.0794-.87312-.21167-1.3494-.23813-.42334-.0265-.82021-.23812-1.2436.0529-.1852.10583-.3175-.0265-.37041-.26458-.0529-.34396-.0794-.34396-.47625-.23813-.21167.0529-.23813-.15875-.18521-.23812.21167-.23813.10583-.47625-.0794-.52917-.44979-.10583-.44979-.42333-.50271-.76729-.0265-.26458-.13229-.52917-.21167-.79375-.0529-.15875-.0794-.39688-.23812-.39688-.55563 0-.79375-.66145-1.3758-.55562-.0794.0265-.18521 0-.21167-.0529-.60854-.52916-1.27-.47625-1.9844-.34396-.34395.0529-.60854.18521-.84666.39688-.29104.23812-.60854.29104-1.0319.29104-.66146-.0265-1.2435-.0529-1.7992-.50271-.39688-.29104-.97896-.29104-1.2965-.82021-.15875-.26458-.58208-.37041-.9525-.3175-1.0319.1323-2.0638.26459-3.0956.42334-.29104.0529-.52917-.0794-.76729-.15875-.50271-.18521-.71438-.0794-.76729.39687-.05292.66146-.23812 1.27-.44979 1.8785-.15875.50271-.10583.87313.21167 1.27h-.07937l-.02646.0794c-.18521.0265-.39688 0-.34396.29104.02646.15875.02646.3175-.05292.47625-.18521-.0265-.37042-.0529-.55562-.0794l.02646-.0265-.02646-.0529c0-.66146.37042-1.2965.3175-1.9844-.02646-.26459.34396-.4498.44979-.74084.13229-.42333.23812-.82021 0-1.2435-.10583-.18521-.15875-.39687-.13229-.635 0-.18521-.02646-.34396-.18521-.42333-.55562-.3175-.9525-.84667-1.5081-1.1642-.42333-.23812-.87312-.29104-1.2171-.0529-.66146.4498-1.3229.58209-2.0638.42334-.10583-.0265-.21167.0265-.3175.0529-.05292-.0529-.10583-.0794-.15875-.13229.18521-.23812.42333-.26458.71438-.21166.60854.10583 1.1906.10583 1.614-.4498.15875-.1852.42333-.23812.58208-.10583.42333.34396.76729.13229 1.1112-.0794.635-.37042 1.1906-.34396 1.7198.21166.05292.0529.15875.0265.13229.10584-.02646.0529-.15875.0264-.21167.0794-.02646.0265-.05292.10583-.05292.13229.21167.37042.47625.71438.66146 1.1112.05292.13229.3175.0529.44979 0 .39688-.13229.74083-.10583 1.0583.18521.07937.0529.15875.18521.26458.10583.52917-.39687 1.2435-.23812 1.7727-.68791.4498-.34396 1.0583-.10584 1.4817.21166.44979.37042.87313.60855 1.4552.60855.44979 0 .74083.29104 1.0583.52916.84667.60854 1.0319.635 1.8256-.0265.47625-.39687 1.0054-.58208 1.6404-.55562.39688 0 .74084.0794 1.0583.34396.10583.0794.21166.18521.34396.21166 1.27.37042 1.6669.42334 1.8256-.97895.0265-.3175.15875-.635.34396-.89959.10583.0265.15875.10584.18521.18521-.15875.60854-.3175 1.1906-.47625 1.7992-.0794.29104-.0529.58208.10583.84666.3175.55563.60854 1.1377.87313 1.7198.15875.39687.39687.68791 1.0054.68791.89959 0 1.8256.15875 2.6988.42334.79375.23812 1.4817.0265 2.196-.21167.44979-.15875.87312-.21167 1.3758-.18521.60854.0265 1.27-.0529 1.8785-.23812.18521-.0529.21167-.21167.23813-.37042.0794-.42333.26458-.82021.47625-1.1906.23812-.5027.37041-1.0319.3175-1.561-.0529-.50271.0264-.97896.23812-1.4023.29104-.60854.18521-1.3494.58208-1.9579.0794 0 .15875-.0265.21167-.0265-.0529.5027-.39687.97895-.0265 1.4817v.0265c-.29104.66146-.58208 1.3229-.58208 2.0638-.0265.55563-.21167 1.1112-.52917 1.614-.26458.42333-.44979.87312-.34396 1.4023.23813.13229.50271.0794.74083.23813.47625.3175 1.0054.5027 1.614.1852.18521-.0794.39688-.10583.37042.29105-.0529.52916.0529.60854.60854.55562.66146-.0529 1.3229-.0794 2.0108.0265.15875.0265.21167.13229.3175.15875.79375.13229 1.4817.50271 2.3019.58208.9525.0794 1.8785.34396 2.196 1.4288.0529.18521.21167.29104.39688.37042.15875.0529.26458.21167.42333.23812.52917.0794-.26458.92605.44979.79375.52917-.0794.68792.3175 1.0054.52917.37041.26458.79375.44979 1.2435.55562.52917.10584.87312-.0265 1.27-.42333.68792-.71437 1.561-1.1642 2.5929-1.0319.39687.0529.71437-.0265.92604-.34396.18521-.26458.42333-.37042.74083-.39688.26458 0 .55563-.0529.79375-.1852.18521-.0794.29104-.0529.44979 0 .29104.13229.58209.26458.89959.37041.29104.10584.55562.42334.89958.15875.42333-.3175.92604-.58208 1.0848-1.1642.0265-.1323.0794-.26459.0794-.39688 0-.71437 0-1.4288.50271-2.0638.10583-.13229.0794-.34396.0265-.55562-.21167-.79375-.13229-.97896.58208-1.3229.42333-.21167.71438-.52917.9525-.9525.18521-.37042.39688-.71438-.0265-1.1112.55563-.0794.87313-.3175 1.0848-.74083.15875-.34396.42334-.55563.87313-.635.55562-.10584.84666-.66146 1.1377-1.0848.34395-.47625.74083-.74083 1.2171-.97895.39687-.18521.74083-.37042.55562-.89959-.0529-.18521.0529-.3175.18521-.42333.9525-.84667 1.3229-2.0373 1.6933-3.175.35706-1.0967.93541-2.0213 1.735-2.916.95932-.7529.54256-.0499.48749.27038z" fill="#4b4b4b" fill-opacity=".1629" stroke-width=".26458"/>
 </g>
</svg>
