<?xml version="1.0" encoding="UTF-8" standalone="no"?>
<!-- Created with Inkscape (http://www.inkscape.org/) -->

<svg
   xmlns:dc="http://purl.org/dc/elements/1.1/"
   xmlns:cc="http://creativecommons.org/ns#"
   xmlns:rdf="http://www.w3.org/1999/02/22-rdf-syntax-ns#"
   xmlns:svg="http://www.w3.org/2000/svg"
   xmlns="http://www.w3.org/2000/svg"
   xmlns:sodipodi="http://sodipodi.sourceforge.net/DTD/sodipodi-0.dtd"
   xmlns:inkscape="http://www.inkscape.org/namespaces/inkscape"
   width="65.83316mm"
   height="52.305798mm"
   viewBox="0 0 65.83316 52.305799"
   version="1.1"
   id="svg16006"
   inkscape:version="0.92.3 (2405546, 2018-03-11)"
   sodipodi:docname="scratch4.svg">
  <defs
     id="defs16000" />
  <sodipodi:namedview
     id="base"
     pagecolor="#ffffff"
     bordercolor="#666666"
     borderopacity="1.0"
     inkscape:pageopacity="0.0"
     inkscape:pageshadow="2"
     inkscape:zoom="2.8"
     inkscape:cx="153.21818"
     inkscape:cy="156.83936"
     inkscape:document-units="mm"
     inkscape:current-layer="layer1"
     showgrid="false"
     fit-margin-top="0"
     fit-margin-left="0"
     fit-margin-right="0"
     fit-margin-bottom="0"
     inkscape:window-width="2558"
     inkscape:window-height="1418"
     inkscape:window-x="1600"
     inkscape:window-y="20"
     inkscape:window-maximized="1" />
  <metadata
     id="metadata16003">
    <rdf:RDF>
      <cc:Work
         rdf:about="">
        <dc:format>image/svg+xml</dc:format>
        <dc:type
           rdf:resource="http://purl.org/dc/dcmitype/StillImage" />
        <dc:title></dc:title>
      </cc:Work>
    </rdf:RDF>
  </metadata>
  <g
     inkscape:label="Layer 1"
     inkscape:groupmode="layer"
     id="layer1"
     transform="translate(-87.507984,-136.41562)">
    <path
       inkscape:connector-curvature="0"
       id="path16648"
       style="fill:#000000;fill-opacity:0.94117647;stroke-width:0.26458332"
       d="m 100.76349,148.26677 c 0.18521,0.15875 0.29104,0.39687 0.55562,0.26458 0.0794,-0.0265 0.1323,-0.13229 0.0794,-0.18521 -0.13229,-0.18521 -0.3175,-0.26458 -0.635,-0.0794 z m 52.44049,-11.24491 c -0.47625,0.8202 -0.79375,1.69333 -0.92605,2.64583 -0.0529,0.55562 -0.10582,1.11125 -0.60854,1.50812 -0.3175,0.26459 -0.29103,0.635 -0.18521,0.97896 0.10583,0.39688 -0.0265,0.66146 -0.3175,0.82021 -0.47625,0.26458 -0.79375,0.52917 -0.55563,1.13771 0.0794,0.15875 -0.13229,0.39687 -0.23812,0.3175 -0.44979,-0.3175 -0.5027,0.10583 -0.66145,0.3175 -0.1323,0.15875 -0.26459,0.26458 -0.4498,0.34396 -0.37042,0.21166 -0.60854,0.52916 -0.71438,0.9525 -0.15875,0.58208 -0.44979,0.97896 -1.11125,0.97896 -0.10582,0 -0.23812,0.0529 -0.29104,0.13229 -0.44978,0.55562 -1.05833,1.00541 -1.24353,1.74625 -0.15875,0.60854 -0.47625,1.03187 -0.97896,1.42875 -0.71438,0.55562 -1.13771,1.32291 -0.97896,2.27541 0.0529,0.29105 -0.15875,0.4498 -0.3175,0.60855 -0.50271,0.52916 -0.76729,1.16416 -0.76729,1.905 -0.0265,0.15875 -0.0265,0.3175 -0.0529,0.5027 -0.0529,0.0529 -0.10584,0.1323 -0.15875,0.15875 -0.4498,0.23813 -0.4498,0.23813 -0.18521,0.68792 0.18521,0.3175 0.26458,0.60854 0.0794,0.97896 -0.18521,0.34396 -0.13229,0.66146 0.18521,0.92604 0.37041,0.3175 0.42333,0.82021 0.60854,1.24354 0.23812,0.52917 0.66146,0.97896 0.82021,1.53458 -0.37042,0.29105 -0.39688,-0.47625 -0.68792,-0.29104 -0.26458,0.50271 0.37042,0.635 0.3175,1.03188 -0.13229,0 -0.42333,-0.0265 -0.29104,0.15875 0.15875,0.21166 0.3175,0.47625 0.50271,0.66146 0.23812,0.23812 0.26458,-0.0529 0.3175,-0.21167 0.0529,-0.0794 0.13229,-0.15875 0.1852,-0.26458 0.37042,0.3175 0.26459,0.68791 0.10584,1.03187 0,0.0529 0,0.10583 -0.0265,0.15875 -0.10583,0 -0.23813,0.0265 -0.23813,0.13229 0,0.13229 0.1323,0.21167 0.26458,0.21167 0.18522,0.74083 0.29105,1.50812 0.9525,2.01083 0.0794,0.0529 0.1323,0.21167 0.10584,0.29104 -0.13229,0.79375 0.37041,1.34938 0.68791,1.98438 0.0794,0.18521 0.15875,0.29104 -0.10583,0.29104 -0.21167,0 -0.1852,0.23813 -0.29104,0.3175 -0.13229,0.13229 -0.26458,0.3175 -0.0265,0.44979 0.21167,0.10584 0.37042,0 0.47625,-0.15875 0.15875,-0.21166 0.10583,-0.47625 0.0794,-0.71437 0.23812,-0.13229 0.4498,-0.0265 0.68792,0.0265 -0.15875,0.5027 0.21166,0.58208 0.55563,0.66145 0.58207,0.15875 1.16415,0.18521 1.7727,0.18521 v 0 c -0.23813,0.29104 -0.0529,0.66146 -0.1852,0.9525 v 0 c -0.5821,-0.0794 -1.16418,-0.26458 -1.79918,-0.21166 -0.55562,0.0529 -1.1377,-0.29105 -1.69333,-0.4498 -0.0794,-0.0265 -0.21166,-0.13229 -0.21166,-0.21166 -0.0529,-0.68792 -0.68792,-0.82021 -1.11125,-1.13771 -0.1323,-0.10583 -0.42334,-0.0794 -0.37042,-0.39688 0.3175,-0.21166 0.58208,-0.44979 0.9525,-0.58208 0.10583,-0.0529 0.26458,-0.10583 0.23812,-0.29104 -0.0794,-0.34396 -0.0794,-0.74083 -0.39687,-1.00542 -0.44979,-0.34396 -0.82021,-0.21166 -1.00542,0.34396 -0.18521,0.58208 0,1.05833 0.23813,1.56104 -0.10584,0.0794 -0.18521,0.0265 -0.29104,-0.0265 -0.82021,-0.47625 -1.48167,-0.13229 -2.11667,0.39688 -0.55563,0.44979 -1.19063,0.82021 -1.69333,1.37583 -0.1323,0.15875 -0.3175,0.21167 -0.50271,0.21167 -0.87313,-0.0265 -1.32292,0.635 -1.87854,1.13771 -0.18521,0.18521 -0.10584,0.37041 0,0.58208 0.39687,0.76729 0.39687,0.9525 -0.18521,1.56104 -0.39688,0.39688 -0.635,0.87313 -0.76729,1.40229 -0.10584,0.50271 -0.21167,1.00542 -0.47625,1.45521 -0.0529,0.0794 -0.10584,0.21167 -0.0794,0.29104 0.21166,0.89959 -0.0529,1.74625 -0.29105,2.59292 -0.1852,0.635 0.0529,1.19063 0.29105,1.71979 0.26458,0.60854 0.52916,1.19063 0.13229,1.87854 -0.23813,0.42334 0.39687,0.23813 0.44979,0.47625 v 0.23813 c -0.15875,-0.10583 -0.29104,-0.10583 -0.42333,0.0529 -0.15875,0.23812 -0.26459,0.52916 -0.635,0.44979 -0.0529,0 -0.15875,0.15875 -0.15875,0.15875 0.34395,0.47625 -0.39688,0.9525 0,1.40229 0.0529,0.0529 0.0794,0.13229 0.0265,0.21167 -0.3175,0.42333 -0.29104,1.03187 -0.74084,1.42875 -0.60854,0.55562 -0.8202,1.21708 -0.52916,2.03729 h -0.66146 c 0.10583,-0.21167 0.23812,-0.47625 0.15875,-0.68792 -0.15875,-0.60854 0.15875,-1.03187 0.47625,-1.45521 0.3175,-0.44979 0.60854,-0.87312 0.68792,-1.42875 0,-0.0794 0.10583,-0.15875 0.0794,-0.21166 -0.34395,-0.7673 0.21167,-1.29646 0.52917,-1.905 0.29104,-0.55563 0.50271,-1.11125 0.15875,-1.82563 -0.29104,-0.60854 -0.58208,-1.27 -0.52917,-2.01083 0.0265,-0.3175 -0.15875,-0.39688 -0.39687,-0.39688 0.58208,-0.74083 0.635,-1.64041 0.68792,-2.54 0.0529,-0.58208 -0.0265,-1.16416 0.39687,-1.66687 0.13229,-0.15875 0.21167,-0.37042 0.15875,-0.60854 -0.0794,-0.55563 0.15875,-0.9525 0.55563,-1.27 0.23812,-0.18521 0.34395,-0.42334 0.44979,-0.74084 0.13229,-0.39687 -0.0265,-0.55562 -0.37042,-0.66146 v -0.15875 c 0.18521,-0.0529 0.47625,-0.0529 0.37042,-0.37041 -0.18521,-0.55563 0.18521,-0.92604 0.42333,-1.32292 0.18521,-0.34396 0.55563,-0.3175 0.87313,-0.23812 0.34395,0.0794 0.55562,-0.0265 0.79375,-0.23813 0.55562,-0.52917 1.1377,-0.97896 1.71979,-1.48167 0.18521,-0.15875 0.34396,-0.23812 0.58208,-0.21166 0.26458,0.0265 0.52917,0 0.82021,-0.0265 0.23812,-0.0265 0.39687,-0.13229 0.42333,-0.39688 0.0529,-0.42333 0.18521,-0.84666 0.26459,-1.27 0.0794,-0.44979 0.0529,-0.92604 0.71437,-0.97895 0.18521,-0.0265 0.23813,-0.18521 0.23813,-0.37042 0,-0.37042 -0.0265,-0.74083 -0.23813,-1.08479 -0.21167,-0.37042 -0.47625,-0.71438 -0.44979,-1.19063 0.0265,-0.29104 -0.3175,-0.34396 -0.44979,-0.52916 -0.0794,-0.1323 0.0265,-0.52917 -0.37042,-0.29105 -0.13229,0.0794 -0.18521,-0.15875 -0.23812,-0.26458 -0.18521,-0.50271 -0.47625,-0.97896 -0.68792,-1.45521 -0.21167,-0.50271 -0.26458,-1.08479 -0.47625,-1.5875 -0.0265,-0.0529 -0.0265,-0.18521 0.0265,-0.23812 0.13229,-0.0794 0.50271,0 0.34396,-0.26459 -0.18521,-0.34395 -0.39688,-0.76729 -0.79375,-0.92604 -1.11125,-0.5027 -2.2225,-0.55562 -3.36021,-0.0265 -0.52917,0.23813 -1.05833,0.52917 -1.66687,0.635 -0.68792,0.1323 -1.21709,0.58209 -1.79917,0.92605 -0.84667,0.5027 -1.66688,0.39687 -2.43417,-0.0794 -0.42333,-0.26458 -0.79375,-0.55562 -1.27,-0.71437 -0.15875,-0.0529 -0.29104,-0.15875 -0.37041,-0.3175 -0.1323,-0.26459 -0.34396,-0.39688 -0.60855,-0.47625 -0.3175,-0.0794 -0.42333,-0.23813 -0.47625,-0.60854 -0.0529,-0.4498 -0.37041,-0.89959 -0.68791,-1.24355 -0.21167,-0.23812 -0.60854,-0.3175 -0.9525,-0.29104 -0.13229,0 -0.23813,0.0529 -0.37042,-0.0529 -0.635,-0.52917 -1.34937,-0.52917 -2.11667,-0.39688 -0.37041,0.0794 -0.79375,0 -1.16416,-0.10583 -0.3175,-0.10584 -0.55563,-0.10584 -0.84667,0 -0.55563,0.21166 -1.08479,0.26458 -1.48167,-0.37042 -0.13229,-0.21167 -0.39687,-0.23812 -0.66146,-0.23812 -0.21166,0 -0.47625,0.0794 -0.635,-0.0265 -0.79375,-0.50271 -1.69333,-0.42334 -2.56645,-0.44979 -0.21167,0 -0.4498,0.0265 -0.635,-0.23813 -0.15875,-0.23812 -0.50271,-0.0529 -0.66146,0.0529 -0.68792,0.47625 -1.45521,0.3175 -2.19604,0.37041 -0.39688,0.0265 -0.79375,0.0265 -1.19063,0.0794 -0.44979,0.0794 -0.87312,-0.21167 -1.34937,-0.23813 -0.42334,-0.0265 -0.82021,-0.23812 -1.24355,0.0529 -0.1852,0.10583 -0.3175,-0.0265 -0.37041,-0.26458 -0.0529,-0.34396 -0.0794,-0.34396 -0.47625,-0.23813 -0.21167,0.0529 -0.23813,-0.15875 -0.18521,-0.23812 0.21167,-0.23813 0.10583,-0.47625 -0.0794,-0.52917 -0.44979,-0.10583 -0.44979,-0.42333 -0.50271,-0.76729 -0.0265,-0.26458 -0.13229,-0.52917 -0.21167,-0.79375 -0.0529,-0.15875 -0.0794,-0.39688 -0.23812,-0.39688 -0.55563,0 -0.79375,-0.66145 -1.37583,-0.55562 -0.0794,0.0265 -0.18521,0 -0.21167,-0.0529 -0.60854,-0.52916 -1.27,-0.47625 -1.98438,-0.34396 -0.34395,0.0529 -0.60854,0.18521 -0.84666,0.39688 -0.29104,0.23812 -0.60854,0.29104 -1.03188,0.29104 -0.66146,-0.0265 -1.24354,-0.0529 -1.79916,-0.50271 -0.39688,-0.29104 -0.978962,-0.29104 -1.296462,-0.82021 -0.15875,-0.26458 -0.58208,-0.37041 -0.9525,-0.3175 -1.03188,0.1323 -2.063752,0.26459 -3.095627,0.42334 -0.291042,0.0529 -0.529167,-0.0794 -0.767292,-0.15875 -0.502708,-0.18521 -0.714375,-0.0794 -0.767291,0.39687 -0.05292,0.66146 -0.238125,1.27 -0.449792,1.87854 -0.15875,0.50271 -0.105833,0.87313 0.211667,1.27 h -0.07937 l -0.02646,0.0794 c -0.185208,0.0265 -0.396875,0 -0.343958,0.29104 0.02646,0.15875 0.02646,0.3175 -0.05292,0.47625 -0.185208,-0.0265 -0.370416,-0.0529 -0.555625,-0.0794 l 0.02646,-0.0265 -0.02646,-0.0529 c 0,-0.66146 0.370417,-1.29646 0.3175,-1.98437 -0.02646,-0.26459 0.343959,-0.4498 0.449792,-0.74084 0.132292,-0.42333 0.238125,-0.82021 0,-1.24354 -0.105833,-0.18521 -0.15875,-0.39687 -0.132292,-0.635 0,-0.18521 -0.02646,-0.34396 -0.185208,-0.42333 -0.555625,-0.3175 -0.9525,-0.84667 -1.508125,-1.16417 -0.423333,-0.23812 -0.873125,-0.29104 -1.217083,-0.0529 -0.661459,0.4498 -1.322917,0.58209 -2.06375,0.42334 -0.105834,-0.0265 -0.211667,0.0265 -0.3175,0.0529 -0.05292,-0.0529 -0.105834,-0.0794 -0.15875,-0.13229 0.185208,-0.23812 0.423333,-0.26458 0.714375,-0.21166 0.608541,0.10583 1.190625,0.10583 1.613958,-0.4498 0.15875,-0.1852 0.423333,-0.23812 0.582083,-0.10583 0.423334,0.34396 0.767292,0.13229 1.11125,-0.0794 0.635,-0.37042 1.190625,-0.34396 1.719792,0.21166 0.05292,0.0529 0.15875,0.0265 0.132292,0.10584 -0.02646,0.0529 -0.15875,0.0264 -0.211667,0.0794 -0.02646,0.0265 -0.05292,0.10583 -0.05292,0.13229 0.211667,0.37042 0.47625,0.71438 0.661459,1.11125 0.05292,0.13229 0.3175,0.0529 0.449791,0 0.396875,-0.13229 0.740834,-0.10583 1.058334,0.18521 0.07937,0.0529 0.15875,0.18521 0.264583,0.10583 0.529167,-0.39687 1.243544,-0.23812 1.772704,-0.68791 0.4498,-0.34396 1.05834,-0.10584 1.48167,0.21166 0.44979,0.37042 0.87313,0.60855 1.455212,0.60855 0.44979,0 0.74083,0.29104 1.05833,0.52916 0.84667,0.60854 1.03188,0.635 1.82563,-0.0265 0.47625,-0.39687 1.00541,-0.58208 1.64041,-0.55562 0.39688,0 0.74084,0.0794 1.05834,0.34396 0.10583,0.0794 0.21166,0.18521 0.34396,0.21166 1.27,0.37042 1.66687,0.42334 1.82562,-0.97895 0.0265,-0.3175 0.15875,-0.635 0.34396,-0.89959 0.10583,0.0265 0.15875,0.10584 0.18521,0.18521 -0.15875,0.60854 -0.3175,1.19063 -0.47625,1.79917 -0.0794,0.29104 -0.0529,0.58208 0.10583,0.84666 0.3175,0.55563 0.60854,1.13771 0.87313,1.7198 0.15875,0.39687 0.39687,0.68791 1.00541,0.68791 0.89959,0 1.82563,0.15875 2.69875,0.42334 0.79375,0.23812 1.48167,0.0265 2.19605,-0.21167 0.44979,-0.15875 0.87312,-0.21167 1.37583,-0.18521 0.60854,0.0265 1.27,-0.0529 1.87854,-0.23812 0.18521,-0.0529 0.21167,-0.21167 0.23813,-0.37042 0.0794,-0.42333 0.26458,-0.82021 0.47625,-1.19063 0.23812,-0.5027 0.37041,-1.03187 0.3175,-1.56104 -0.0529,-0.50271 0.0264,-0.97896 0.23812,-1.40229 0.29104,-0.60854 0.18521,-1.34937 0.58208,-1.95792 0.0794,0 0.15875,-0.0265 0.21167,-0.0265 -0.0529,0.5027 -0.39687,0.97895 -0.0265,1.48166 v 0.0265 c -0.29104,0.66146 -0.58208,1.32292 -0.58208,2.06375 -0.0265,0.55563 -0.21167,1.11125 -0.52917,1.61396 -0.26458,0.42333 -0.44979,0.87312 -0.34396,1.40229 0.23813,0.13229 0.50271,0.0794 0.74083,0.23813 0.47625,0.3175 1.00542,0.5027 1.61396,0.1852 0.18521,-0.0794 0.39688,-0.10583 0.37042,0.29105 -0.0529,0.52916 0.0529,0.60854 0.60854,0.55562 0.66146,-0.0529 1.32292,-0.0794 2.01083,0.0265 0.15875,0.0265 0.21167,0.13229 0.3175,0.15875 0.79375,0.13229 1.48167,0.50271 2.30188,0.58208 0.9525,0.0794 1.87854,0.34396 2.19604,1.42875 0.0529,0.18521 0.21167,0.29104 0.39688,0.37042 0.15875,0.0529 0.26458,0.21167 0.42333,0.23812 0.52917,0.0794 -0.26458,0.92605 0.44979,0.79375 0.52917,-0.0794 0.68792,0.3175 1.00542,0.52917 0.37041,0.26458 0.79375,0.44979 1.24354,0.55562 0.52917,0.10584 0.87312,-0.0265 1.27,-0.42333 0.68792,-0.71437 1.56104,-1.16416 2.59292,-1.03187 0.39687,0.0529 0.71437,-0.0265 0.92604,-0.34396 0.18521,-0.26458 0.42333,-0.37042 0.74083,-0.39688 0.26458,0 0.55563,-0.0529 0.79375,-0.1852 0.18521,-0.0794 0.29104,-0.0529 0.44979,0 0.29104,0.13229 0.58209,0.26458 0.89959,0.37041 0.29104,0.10584 0.55562,0.42334 0.89958,0.15875 0.42333,-0.3175 0.92604,-0.58208 1.08479,-1.16416 0.0265,-0.1323 0.0794,-0.26459 0.0794,-0.39688 0,-0.71437 0,-1.42875 0.50271,-2.06375 0.10583,-0.13229 0.0794,-0.34396 0.0265,-0.55562 -0.21167,-0.79375 -0.13229,-0.97896 0.58208,-1.32292 0.42333,-0.21167 0.71438,-0.52917 0.9525,-0.9525 0.18521,-0.37042 0.39688,-0.71438 -0.0265,-1.11125 0.55563,-0.0794 0.87313,-0.3175 1.08479,-0.74083 0.15875,-0.34396 0.42334,-0.55563 0.87313,-0.635 0.55562,-0.10584 0.84666,-0.66146 1.13771,-1.0848 0.34395,-0.47625 0.74083,-0.74083 1.21708,-0.97895 0.39687,-0.18521 0.74083,-0.37042 0.55562,-0.89959 -0.0529,-0.18521 0.0529,-0.3175 0.18521,-0.42333 0.9525,-0.84667 1.32292,-2.03729 1.69334,-3.175 0.35706,-1.09671 0.93541,-2.02132 1.73502,-2.91603 0.95932,-0.7529 0.54256,-0.0499 0.48749,0.27038 z" />
  </g>
</svg>
