<?xml version="1.0" encoding="UTF-8" standalone="no"?>
<svg
   xmlns:dc="http://purl.org/dc/elements/1.1/"
   xmlns:cc="http://creativecommons.org/ns#"
   xmlns:rdf="http://www.w3.org/1999/02/22-rdf-syntax-ns#"
   xmlns:svg="http://www.w3.org/2000/svg"
   xmlns="http://www.w3.org/2000/svg"
   xmlns:sodipodi="http://sodipodi.sourceforge.net/DTD/sodipodi-0.dtd"
   xmlns:inkscape="http://www.inkscape.org/namespaces/inkscape"
   width="52.15mm"
   height="36.46mm"
   version="1.1"
   viewBox="0 0 52.15 36.46"
   id="svg856"
   sodipodi:docname="scratch0.svg"
   inkscape:version="0.92.3 (2405546, 2018-03-11)">
  <metadata
     id="metadata862">
    <rdf:RDF>
      <cc:Work
         rdf:about="">
        <dc:format>image/svg+xml</dc:format>
        <dc:type
           rdf:resource="http://purl.org/dc/dcmitype/StillImage" />
      </cc:Work>
    </rdf:RDF>
  </metadata>
  <defs
     id="defs860" />
  <sodipodi:namedview
     pagecolor="#ffffff"
     bordercolor="#666666"
     borderopacity="1"
     objecttolerance="10"
     gridtolerance="10"
     guidetolerance="10"
     inkscape:pageopacity="0"
     inkscape:pageshadow="2"
     inkscape:window-width="2558"
     inkscape:window-height="1418"
     id="namedview858"
     showgrid="false"
     inkscape:zoom="4.4774526"
     inkscape:cx="49.722042"
     inkscape:cy="58.845489"
     inkscape:window-x="1600"
     inkscape:window-y="20"
     inkscape:window-maximized="0"
     inkscape:current-layer="svg856" />
  <g
     transform="translate(-105.46 -128.34)"
     id="g854"
     style="fill:#000000;fill-opacity:1">
    <path
       class="st1"
       d="m153.77 128.76c.0265.1852.0529.37041.0529.55562-.0529.47625-.0265.87313.52917 1.0583.29104.10584.23812.4498.23812.71438 0 .15875.0265.34396.21167.39687.18521.0529.29104-.0794.42333-.1852.23813-.21167.39688-.4498.39688-.7673l.0265.0529.0529-.0265c0 .26459.0265.52917.42333.50271.21167 0 .42333.0529.635.0794.34396.0529.87313.44979.84668.76729-.0265.29105-.29105.29105-.52918.26459-.13229-.44979-.58207-.3175-.87312-.42334-.18521-.0794-.42334-.0265-.635-.0265-.76729 0-1.1112.42334-.9525 1.1642.10583.60854-.0265 1.0054-.55563 1.2965-.26458.13229-.34396.34396-.44979.58208-.39687.87313-.87312 1.7462-1.4817 2.5929.29105.10583.58209-.13229.82021.10583-.3175.0794-.47625.34396-.79375.39688-.34396.0529-.68791.44979-1.0054-.0529-.71438-.0265-1.4288-.21167-2.1431.0529-.18521.0794-.34396.15875-.52917.0529-.44979-.18521-.84666.0265-1.27.15875-.76729.21167-1.27.87312-1.9844 1.1377-.15875.0529-.23813.21166-.18521.39687.10583.42334-.13229.79375-.15875 1.1906-.0265.66146-.34396 1.27-.15875 1.9844.0794.34396-.0794.82021-.34396 1.1112-.50271.55563-.42333 1.1642-.34396 1.7992.0265.15875.10584.23812.23813.26458.18521.0529.37042-.0529.52917.0794-.1323.3175-.42334.34396-.68792.23813-1.1642-.50271-2.0108.15875-2.884.76729-.34396.23812-.34396.87312.0265 1.1112.34396.21166.37042.47625.34396.82021-.0529.58208.13229 1.1642-.0265 1.7462-.0265.0529.0265.1852.10584.1852.635-.0794-.10584.52917.29103.55563.0265 0 .0529.0529.10584.0794-.0529 0-.10584 0-.15875-.0265-.10584-.0529-.21167-.18521-.37042-.0794-.15875.47625.0794.82021.34396 1.1642.0794.0794.10584.1852.0265.29104-.0794.10583-.18521.13229-.29104.10583-.3175-.0529-.58209-.18521-.52917-.58208.0794-.37042-.0529-.68792-.0529-1.0583 0-.21166-.0529-.44979-.34396-.42333-.13229 0-.18521.0529-.13229-.13229.13229-.52917-.0265-1.0319-.0529-1.561-.0265-.39688-.15875-.71438-.44979-1.0054-.23813-.23812-.44979-.47625.0265-.74083.13229-.0794.18521-.3175.29104-.47625.15875-.3175.0529-.55563-.23812-.66146-1.0054-.39688-1.9844-.79375-3.0162-1.1642-.42334-.15875-.74084.15875-.9525.44979-.3175.42334-.60855.71438-1.1906.60855-.21167-.0265-.42333.10583-.60854.23812-.15875.10583-.34396.18521-.52917.13229-.58208-.21166-1.0583.0265-1.5346.26459-.26458.13229-.60854.21166-.84667 0-.37041-.34396-.68791-.18521-1.0054 0-.0794.0265-.15875.0529-.21167.10583-.79375.60854-1.7727.76729-2.6988 1.0319-.58208.18521-1.1377.55563-1.7992.26459-.0529-.0265-.15875.0265-.21166.0794-.34396.29104-.7673.34396-1.2171.34396-.47625.0265-.71437.26458-.68791.71437.0529.89958-.21167 1.7462-.39688 2.6194-.0265.1852-.0529.37041-.15875.55562-.13229-.26458-.3175-.52917-.21167-.82021.39688-1.0319.42334-2.0902.47625-3.175-.5027-.29104-1.0054.18521-1.5081.13229-.23813-.23812.18521-.44979-.0794-.68791-.23813-.0265-.52917 0-.79375.15875-.10583.0529-.3175.21166-.29104.23812.29104.66146-.3175.44979-.55563.52917-.34396.13229-.76729.10583-1.0319.42333-.34396.39688-.74084.42334-1.1906.29104-.29104-.10583-.55562-.10583-.84666.0265-.1323.0529-.3175.10584-.47625.0794-.92605-.1852-1.7198.34396-2.5929.47625-.21167.0265-.39688.15875-.55563.3175-.37041.29105-.76729.60855-1.1642.89959-.3175.21166-.42334.44979-.21167.82021.21167.37041.15875.71437-.18521 1.0054-.21166.18521-.37041.39688-.50271.635-.37041.74084-.97895 1.1906-1.614 1.6404-.47625.34396-.9525.66146-1.2171 1.27-.15875.34396-.52916.58208-.82021.87313-.3175.3175-.47625.60854-.1852 1.0583.29104.42333.0265.89958-.18521 1.1906-.44979.635-.34396 1.3758-.58209 2.0373-.0265.0529.0265.1852.0794.21166.58209.3175.4498.84667.39688 1.3494-.0265.26458.0529.55562-.10583.79375-.0794 0-.0794.0529-.0794.13229-.10584.13228-.23813.23812-.39688.29103-.0265-.0265-.0529-.0794-.0794-.10583.10583-.42333.15875-.8202-.15875-1.1642-.13229-.13229-.13229-.26458-.13229-.42333 0-.68792-.0265-.71438-.82021-.82021.0265-.0529.0265-.10583 0-.15875.58208-.37042.82021-.92604.71438-1.5875-.0529-.29104.0529-.44979.23812-.635.23813-.26458.42333-.55563.60854-.84667.10584-.15875.18521-.3175 0-.50271-.23812-.26458-.34396.0794-.52916.10584-.15875-.44979.0265-.92604.34395-1.0848.52917-.26459.68792-.74084.87313-1.1906s.50271-.79375.87312-1.0054c.47625-.29104.84667-.74083 1.3229-1.0054.3175-.15875.44979-.52917.635-.82021.13229-.0794.34396.0265.44979-.15875.87313-.39688.55563-1.3229 1.0054-1.9579-.29104-.0529-.44979.13229-.66146.15875-.13229-.0265-.18521-.0794-.21167-.21167.42334-.44979.89959-.84666 1.4817-1.1642-.15875-.47625-.635-.84667-.34396-1.4023-.34396-.58209-.50271-1.27-1.0848-1.6933-.34396-.23812-.60854-.52916-.58208-1.0054 0-.15875-.0794-.23813-.21167-.34396-.0265.0794-.0529.15875-.0529.21166-.0265.1323.26458.3175-.0265.37042-.21167.0265-.42333-.0265-.37042-.37042.0529-.5027-.0794-.9525-.3175-1.3758-.0794-.15875-.15875-.37041-.13229-.52916.10584-.39688-.15875-.66146-.3175-.9525.34396-.1323.23813-.3175.10584-.58209-.1323.21167-.0794.42334-.10584.58209-.3175-.0794-.44979-.29105-.39687-.58209.21166-1.2435.10583-2.4606-.37042-3.6512.10583 0 .23813 0 .34396.0265.15875.55563.39687 1.0583 1.0848 1.1377.0794 0 .26458.15875.23813.18521-.21167.44979.3175.79375.13229 1.2171-.13229.3175-.0794.58209.18521.79375.23812.21167.13229.55563.21166.82021.13229.34396.0794.71438.50271.92604.10583.0529.0529.21167.0529.3175.0529.50271.0794 1.0319.60854 1.3229.79375.42333 1.2435 1.1642 1.7198 1.8785.0529.0529.1323.13229.0794.21167-.34395.58208.0529 1.1642.0265 1.7727.97896-.34395 1.9315-.635 2.8046-1.1377.23812.1852.23812.5027.52916.66145.23813-.15875.47625-.3175.74084-.44979.21166-.10583.42333-.13229.68791-.0265.39688.18521.87313.21167 1.1906-.23812.3175-.47625.82021-.52917 1.2965-.47625.68791.10583 1.3229.0265 1.9844-.18521.55563-.15875 1.1642-.29104 1.7462-.0794.10584.0265.23813.0529.3175.0265.66146-.37042 1.4817-.26458 2.1167-.74083.23812-.18521.52917-.29105.82021-.29105.79375.0265 1.4288-.34395 2.0902-.68791.34395-.18521.76729-.635 1.1642-.0265.0529.0794.26459.0794.37042.0529.68792-.10584 1.4023-.0529 2.0902-.21167.29104-.0794.55562-.21167.79375-.37042.26458-.1852.55562-.34395.89958-.15875-.0794-.0265-.13229 0-.15875.0794-.0529.0265-.10583.0794-.13229.10584.0794.0794.15875.0529.23812 0 .52917-.21167.7673-.74084 1.1906-1.0848.23812-.21167.42333-.21167.71437-.10584.4498.15875.68792.68792 1.2171.68792.47625.66146 1.3494.42333 1.9315.89958.10583.10584.26458.0265.34395-.0794.37042-.42333.82021-.3175 1.27-.18521.1323.0265.23813.1323.37042.15875.39688.0794.66146-.10583.58208-.5027-.10583-.50271.0529-.89959.23813-1.3229.0794-.15875.15875-.3175.10583-.52917-.0794-.23812-.3175-.635.3175-.42333.10584.0529.10584-.15875.13229-.23813.0265-.15875-.0265-.3175.21167-.37041.15875-.0529.47625-.15875.3175-.34396-.18521-.23813.10583-.635-.29104-.76729-.13229-.0529-.21167-.18521-.3175-.23813-.29104-.15875-.3175-.42333-.21167-.68791.0265-.10584.10584-.18521.13229-.29104.10584-.37042-.13229-.92605.15875-1.1377.635-.47625 1.2171-1.0583 2.0373-1.2965.23812-.0794.47625-.15875.47625-.44979.0265-.0529.0794-.0794.10583-.13229.18521.10583.39687.1852.58208.29104.18521.0794.34396.13229.52917 0 .52917-.39688 1.1112-.3175 1.7198-.26459.15875 0 .3175.0529.47625.0794 1.0054.23813 1.614-.3175 2.1167-1.0583.44979-.66146.97896-1.2965 1.1906-2.0902.0529-.18521.18521-.23812.34396-.26458.34396-.0794.55563-.3175.76729-.58208.23813-.29105.29104-.55563.0794-.87313-.23812-.39687-.37041-.82021-.52916-1.2435-.21167-.52917-.60855-.97896-.9525-1.4288-.29105-.39688-.18521-.635 0-.92604.0529-.0794.15875-.13229.23812-.21167.0529.0794.10583.13229.18521.21167-.0794.26458-.23813.55562.13229.76729.21167-.39688.21167-.39688.58208-.50271-.0529-.10583.0529-.10583.10584-.0529zm-36.83 20.161c-.23812-.15875-.42333-.0265-.58208-.0794-.0529 0-.13229.0529-.23813.0794.37042.10583.37042.10583.82021 0z"
       fill="#4b4b4b"
       fill-opacity=".1629"
       stroke-width=".26458"
       id="path852"
       style="fill:#000000;fill-opacity:1" />
  </g>
</svg>
