<?xml version="1.0" encoding="UTF-8" standalone="no"?>
<svg
   xmlns:dc="http://purl.org/dc/elements/1.1/"
   xmlns:cc="http://creativecommons.org/ns#"
   xmlns:rdf="http://www.w3.org/1999/02/22-rdf-syntax-ns#"
   xmlns:svg="http://www.w3.org/2000/svg"
   xmlns="http://www.w3.org/2000/svg"
   xmlns:sodipodi="http://sodipodi.sourceforge.net/DTD/sodipodi-0.dtd"
   xmlns:inkscape="http://www.inkscape.org/namespaces/inkscape"
   width="26.198mm"
   height="26.968mm"
   version="1.1"
   viewBox="0 0 26.198 26.968"
   id="svg924"
   sodipodi:docname="scratch2.svg"
   inkscape:version="0.92.3 (2405546, 2018-03-11)">
  <metadata
     id="metadata930">
    <rdf:RDF>
      <cc:Work
         rdf:about="">
        <dc:format>image/svg+xml</dc:format>
        <dc:type
           rdf:resource="http://purl.org/dc/dcmitype/StillImage" />
      </cc:Work>
    </rdf:RDF>
  </metadata>
  <defs
     id="defs928" />
  <sodipodi:namedview
     pagecolor="#ffffff"
     bordercolor="#666666"
     borderopacity="1"
     objecttolerance="10"
     gridtolerance="10"
     guidetolerance="10"
     inkscape:pageopacity="0"
     inkscape:pageshadow="2"
     inkscape:window-width="2558"
     inkscape:window-height="1418"
     id="namedview926"
     showgrid="false"
     inkscape:zoom="2.3153985"
     inkscape:cx="-26.504803"
     inkscape:cy="50.96315"
     inkscape:window-x="1600"
     inkscape:window-y="20"
     inkscape:window-maximized="0"
     inkscape:current-layer="svg924" />
  <g
     transform="translate(-103.54 -131.07)"
     id="g922"
     style="fill:#000000;fill-opacity:1">
    <path
       class="st1"
       d="m120.6 145.95c-.89959.13229-1.614.68791-2.4077 1.0848-.26459.13229-.39688.29104-.23813.55562.13229.26459.0794.52917.0529.79375-.0529.34396 0 .635.3175.92605-.37042.0794-.60854.23812-.82021.44979-.0794.0794-.13229.18521-.0794.29104.0529.0794.15875.13229.29104.13229.21166 0 .39687-.0794.50271-.21167.29104-.37041.47625-.1852.60854.10584.0529.10583.18521.21166.13229.37041-.0794.34396.21167.3175.39687.34396.26459.0529.39688-.10583.39688-.37041-.18521.44979-.18521.55562.15875.71437.84667.37042 1.4552.97896 1.7992 1.8521.52916.0794.52916.66146.87312.9525.37042.3175.34396.7673.29104 1.1906-.0265.18521-.18521.15875-.3175.13229-.21166-.0529-.42333-.0794-.26458.23813.0794.1852.21167.34395-.0794.42333-.3175-.34396-.44979-.87313-.97895-1.0319-.15875-.0529-.18521-.23812-.26459-.39687-.15875-.26458-.26458-.52917-.42333-.76729-.68792-1.0319-.66146-.97896-1.7462-.42334-.635.34396-1.2965.66146-1.8785 1.0583-.29104.21166-.66146.26458-1.0054.15875-.26458-.0794-.50271-.0529-.66146.15875-.26458.42333-.71437.52916-1.1377.71437-.52916.23813-1.1112.39688-1.6404.71438-.37042.23812-.84667.0529-1.27.23812-.39688.18521-.84667.18521-1.2435.37042-.47625.21167-.9525.37042-1.4817.26458-.10583-.0265-.23813 0-.3175.0265-.71438.42334-1.614.4498-2.3283.89959-.21167.13229-.39688.21166-.60855 0-.13229-.13229-.29104-.0265-.44979 0-.29104.0794-.58208.10583-.87312.13229 0-.0794-.0265-.15875-.0265-.23813.52917-.0529 1.1377-.0265 1.5875-.1852.66146-.23813 1.3758-.29105 1.9579-.66146.44979-.26459.9525-.39688 1.4817-.26459.18521.0529.37042.0794.55563-.0265.82021-.44979 1.7462-.60854 2.6458-.82021.42333-.10583.79375-.34395 1.1906-.5027.34395-.1323.635-.42334 1.0583-.34396.26458.0529.0529-.21167.0794-.23813.39688-.29104.74084-.71437 1.3229-.60854.55563.10583 1.0054-.0794 1.4288-.42333.34396-.29104.66146-.55563 1.1112-.60854.18521-.0265.34396-.15875.50271-.26459.23812-.15875.60854-.26458.58208-.60854 0-.37042-.44979-.3175-.66146-.47625-.15875-.10583-.34395-.15875-.47625-.29104-.13229-.10583-.23812-.23813 0-.42333.3175-.26459.1323-.4498-.15875-.58209-.10583-.0529-.1852-.0794-.29104-.13229-.82021-.23812-.84666-.29104-.74083-1.0848.0529-.44979.10583-.89958.39687-1.2965.15875-.10583.39688-.21167.26459-.42333-.13229-.21167-.37042-.18521-.50271.0794.13229-.13229.10583-.26459-.0265-.3175-.18521-.10584-.34396-.26459-.50271-.37042-.71437-.37042-.87312-.97896-.92604-1.6933-.0529-.58209-.50271-.89959-.84667-1.2965-.10583-.13229-.3175-.0265-.44979.0265-.55562.15875-1.0848.3175-1.6404.44979-.10584-.10583-.0794-.34396-.3175-.3175-.87313-.13229-1.6669.34396-2.54.3175-.42334-.0265-.82021-.0265-1.1377-.29104-.3175-.26458-.79375-.0265-1.0583-.26458-.23812-.21167-.1852-.66146-.52916-.84667-.52917-.29104-.66146-.79375-.68792-1.2965 0-.34396-.15875-.42333-.37042-.60854-.58208-.50271-1.3229-.71438-1.905-1.1906-.29104-.23812-.58208-.47625-.74083-.8202 0-.0794.0265-.18521.0265-.26459.84667.55563 1.8256.79375 2.7252 1.1906.23812.10583.29104.10583.18521.42333-.1323.44979.3175.76729.60854 1.0583.23812.23813.58208.39688.66146.7673.0264.0794.0529.13229.15875.15875 1.1377.21166 2.2754.55562 3.4396.37041.44979-.0794.92604-.13229 1.2965-.34396.58208-.3175 1.0319-.1852 1.4552.23813.0794.0794.15875.13229.23812.21167.23813-.26459.37042-.60855.68792-.82021.18521.23812.37041.44979.58208.68791.23813.26459.44979.47625.37042.9525-.10584.50271.3175.9525.71437 1.2965.29104.23813.60854.47625.79375.79375.13229.23813.34396.29104.55563.18521.84666-.34396 1.7992-.60854 2.2754-1.4288.635-1.1112 1.7198-1.4552 2.7517-1.9315.79375-.37041 1.3758-.92604 1.5875-1.7992.0265-.15875-.0265-.34396.10583-.4498.29105-.1852.26459-.42333.15875-.71437-.15875-.50271 0-.9525.21167-1.4023.0794-.18521.18521-.37042.37042-.39688.60854-.13229.79375-.60854.84666-1.1377.0529-.5027.26459-.92604.58209-1.3229.21166-.26459.34396-.55563.84666-.39688.34396.10584.97896-.635.92605-1.0319-.0265-.21167-.10584-.42334 0-.635.15875-.34396.10583-.60854-.15875-.87313-.23813-.23812-.18521-.60854-.26459-.92604-.0265-.15875-.13229-.3175.0794-.42333.15875-.0794.3175-.0794.47625 0 .18521.10583.0529.26458.0265.39687-.0529.39688-.0529.82021.37041 1.1112.42334.26459.66146.635.37042 1.1377-.0265.0529-.0265.10583-.0529.15875-.10583.21167.34396.3175.13229.52917-.3175.29104-.52916.68791-.9525.84666-.3175.10584-.58208.4498-.97895.21167-.0529-.0265-.18521.0529-.15875.13229.1852.55563-.37042.82021-.4498 1.2965-.0794.44979-.58208.74083-.89958 1.1112-.26458.34396-.52917.71438-.44979 1.1642.0529.3175-.15875.47625-.26458.71437-.10584.23813-.10584.44979.26458.52917.66146.15875 1.27.42333 1.9579.37042l-.0265.0265.0265.0529c-.58209.10583-1.1642.10583-1.7462-.0794-.47625-.15875-.42334-.0794-.58209.44979-.23812.74083-.635 1.4023-1.4023 1.7462-.58208.26458-1.1642.55562-1.7462.82021-.0794-.0265-.13229-.0265-.15875.0529-.18521.0265-.37042.0265-.55562.0794-.39688.10583-.68792.34395-.60855.79375.0529.34395-.0794.55562-.26458.79375-.15875.15875-.0794.26458-.0794.37041zm2.0638 8.4138c-.0529-.13229-.15875-.18521-.29105-.26459-.10583-.0529-.26458-.0794-.3175.0794-.0264.0794.0529.18521.15875.23813.15875.0794.3175.0794.4498-.0529z"
       fill="#4b4b4b"
       fill-opacity=".1629"
       stroke-width=".26458"
       id="path920"
       style="fill:#000000;fill-opacity:1" />
  </g>
</svg>
