<?xml version="1.0" encoding="UTF-8"?>
<svg width="82.451mm" height="61.886mm" version="1.1" viewBox="0 0 82.451 61.886" xmlns="http://www.w3.org/2000/svg">
 <g transform="translate(-90.848 -120.15)">
  <path d="m99.19 167.27-.0529.0529c0 .0265.0265.0794.0529.10584l.0529-.0529c-.0265-.0529-.0529-.0794-.0529-.10583zm43.63-33.629c-.0265-.0529-.0265-.15875-.13229-.1323-.10583.0265-.18521.10584-.18521.23813 0 .0794.0265.15875.13229.13229.15875-.0265.1323-.15875.18521-.23812zm-.13229 12.065c.18521-.18521.21167-.39688.0529-.60855-.15875.1323-.13229.34396-.18521.50271-.0265.0529-.0794.10584-.0529.13229.0529.0794.13229.0265.18521-.0264zm14.473-18.15c-.0529-.0529-.10583-.10583-.15875-.0529-.0529.0529 0 .10584.0529.15875.10583.10584.1852.3175.34395.13229.0794-.10583-.10583-.1852-.23812-.23812zm-42.36 48.048c.0529.0529.13229.10584.18521 0 .0264-.0265-.0265-.0794-.0529-.13229-.0529-.0529-.13229-.10583-.18521-.15875-.0529-.0529-.10583-.10583-.15875-.0265-.0529.0529 0 .13229.0265.18521.0529.0529.13229.0794.18521.13229zm5.1065 3.8626c-.29105-.29104-.58209-.52917-1.0319-.3175-.21167.10583-.42333.0529-.635 0-.55562-.10583-.74083 0-.84667.55562-.15875.82021-.44979 1.5875-.79375 2.3283.23813-.76729-.10583-1.6404.34396-2.3812.15875-.26459-.34396-.15875-.23812-.44979.0794-.15875.0794-.37042-.0529-.52917-.13229-.13229-.23812-.3175-.21167-.50271.0265-.37042-.1852-.52917-.42333-.71437-.37042-.26459-.74083-.52917-.79375-1.0583-.0265-.23812-.15875-.47625-.50271-.18521-.15875.1323-.23812-.0794-.29104-.15875-.15875-.26458-.3175-.55562-.60854-.71437-.21167-.10583-.52917-.29104-.0794-.55563.0794-.0529 0-.23812-.10584-.23812-.52916-.0794-.5027-.47625-.5027-.87313.15875-.13229.3175.0529.44979-.0265.0794-.0265.10583-.0529.0794-.1323-.15875-.37041-.0529-.74083-.10584-1.1112-.0794-.71437-.52916-1.27-.71437-1.9314-.0265-.0794-.0529-.18521-.10583-.21167-.23813-.13229-.3175-.39688-.66146-.42333-.15875-.0265.0794-.37042-.18521-.55563-.21167-.13229-.34396-.42333-.52917-.60854-.13229-.13229-.23812-.34396-.42333-.34396-.37042.0265-.10583-.29104-.26458-.37042v-.3175c.5027.21167 1.0319.29105 1.3229.84667.0794.15875.23813.21167.42334.13229.26458-.10583.55562-.18521.84666-.0794.15875.0529.29104-.0794.39688-.21167.15875-.18521-.0265-.29104-.10584-.39687-.15875-.23813-.42333-.4498-.5027-.71438-.18521-.635-.66146-.74083-1.1642-.84667-.60854-.13229-1.4288.15875-1.7462.60855-.10583 0-.18521.0265-.29104.0265-.34396-.10583-.74084-.0529-1.0054.1323-.66146.44979-1.3494.39687-2.0902.23812-.44979-.10583-.89958-.10583-1.3494-.15875-.58209-.0794-1.1642-.13229-1.6933-.44979-.34395-.21167-.74083-.23813-1.1642-.10583-.82021.29104-1.614.58208-2.5135.52916-.23813-.0265-.4498.15875-.68792.23813-.18521.0794-.3175.29104-.60854.0529-.15875-.13229-.37042.21167-.39688.37042-.23812.9525-.84666 1.7462-1.0319 2.6988-.0265-.0265-.0794-.0265-.10584 0-.1852-.71437-.79375-.55562-1.2964-.635 0-.47625 0-.9525-.18521-1.4288s0-.92604.23812-1.3758c.21167-.39688.58209-.13229.89959-.23813-.0794.0794-.1323.13229-.18521.18521-.66146.60854-.82021 1.7198-.37042 2.4606.13229.23812.55563.26458.84667.0265.26458-.23812.47625-.52916.60854-.84666.23812-.52917.52917-1.0583.66146-1.6404.13229-.26458 0-.23812-.18521-.15875-.23813.0265-.44979.18521-.71438.0794.37042-.47625 1.2965-1.1112 1.9315-1.27 0 .37041-.34396.55562-.44979.84666-.0529.15875-.21167.34396-.0794.52917.15875.21167.34396.0265.50271-.0529.50271-.21166.92604-.50271 1.3494-.87312.42334-.39688 1.0054-.68792 1.6669-.52917.18521.0529.3175.0529.42333-.0794.15875-.18521.0529-.34396-.0265-.52917 0-.0265-.0265-.0529-.0265-.0794-.58208-.37041-.74083-.87312-.50271-1.5346.0529-.13229-.0794-.23812-.15875-.34396-.21166-.29104-.23812-.68791-.0529-.92604.4498-.55562.21167-1.1377.18521-1.6933-.0529-.79375-.37041-1.561-.15875-2.4077.10584-.39688-.44979-.92604-1.0054-1.0848-.1323-.0529-.26459-.0265-.39688-.0794-.55562-.23812-1.1906-.37041-1.1906-1.27 0-.52916-.37042-1.0848-.23813-1.6404.13229-.55563.37042-1.0583.39688-1.6404 0-.0794.0265-.15875.0529-.23813.23812-.5027-.50271-.89958-.1323-1.4288.34396-.5027-.0794-.97895-.13229-1.4552-.0265-.18521-.13229-.37042-.0794-.55563.34396-1.2171-.60854-1.6404-1.3229-2.196-.23813-.18521-.52917-.26458-.84667-.21167-.92604.15875-1.8785-.0794-2.7781.21167-.29104.0794-.68791.0265-.76729-.44979-.0265-.18521-.18521-.34396-.42333-.26459-.13229.0529-.39688.0265-.23813.34396.0529.0794-.10583.18521-.21166.13229-.66146-.34395-1.3758-.58208-1.9579-1.0848-.0265-.0265.0265-.10583.0529-.13229.3175.34396.52917-.3175.84667-.0794.23812.1852.47625.39687.76729.44979.84667.10583 1.6404.42333 2.54.15875.60854-.18521 1.3229-.10584 1.9844-.15875.3175-.0265.58209.0529.82021.26458.13229.13229.26459.26458.47625.29104.39688.10584.87313.34396 1.1377.0265.23813-.3175.37042-.82021.21167-1.2965-.0265-.10583-.0529-.21166-.10584-.29104-.44979-.635-.58208-1.3494-.60854-2.1167-.0265-.52916.10584-.92604.29104-1.3229.37042-.0794.42334.34396.74084.3175.13229-.0265.0794.15875.0265.23812-.15875.29104.13229.29104.26458.39688v.13229c-.44979.29104-.47625.74083-.50271 1.2171 0 .10584.0265.26459.15875.23813.58209-.0529.10584.58208.44979.66146-.42333.5027.0265.71437.3175.92604.26459.21166.39688.37041.0794.60854-.10583.0794-.13229.13229-.10583.26458.13229.76729-.0265 1.5081-.26458 2.196-.23813.71438-.0265 1.3494.29104 1.9579.10583.18521.15875.34396.0529.50271-.15875.23812-.10583.37042.0529.55562.10583.1323.0529 1.2171 0 1.3758-.26458.68791-.55563 1.3494-.76729 2.0373-.21167.635.10583 1.2435.79375 1.6933.52916.34396 1.0848.66146 1.6933.92604.37042.15875.55563.18521.58208-.26458 0-.0794.0529-.13229.18521-.21167-.0265.92605.34396 1.8256.29104 2.7252-.0529.66146.0529 1.3494-.29104 2.0108-.23812.47625-.10583 1.0583.0529 1.561.10584.37041.21167.71437.1323 1.0848-.0529.26458-.0265.55562.37041.47625l-.0265.0265c-.13229.39687.3175.66146.26459 1.0583-.0265.13229.26458.13229.3175-.10583.0529-.18521.13229-.13229.1852-.13229.58209.15875 1.1906.29104 1.7727.47625.44979.13229.87313.3175 1.2965 0 .10583-.0794.18521.0264.26458.0529.34396.13229.71438.18521 1.0583.34396.79375.3175 1.4552.0529 2.1431-.3175.13229-.0794.26459-.18521.42334-.23812.47625-.23813.8202-.1323 1.1112.3175.0529.0794.10583.21166.1852.23812.68792.37042.66146 1.1906 1.0848 1.7198.0529.0794.13229.21167.10583.29104-.0794.47625.10583.68792.55563.79375.15875.0265.3175.10584.39687.23813.37042.50271.92605.74083 1.4817.89958-.0794.0529-.0265.13229 0 .18521-.58208.13229-1.0319-.18521-1.3494-.55562-.52917-.60855-1.3229-.60855-1.905-1.0054-.0529-.0265-.15875-.0265-.21167.0265-.13229.10583-.13229.23812-.0529.37041.21167.42334.42334.87313.68792 1.27.23813.34396.42334.74084.37042 1.1377-.0529.68792.29104 1.3494.10583 2.0638-.0794.34396.26459.68792.55563.92604.55563.42334 1.1112.84667 1.6669 1.27.50271.37042 1.0583.71438.79375 1.4817-.0529.13229 0 .26458.29104.3175.5027.10583.84667 0 1.2965-.21167.82021-.37041 1.7727-.635 2.6458-.1852 1.0583.52916 1.9844.15875 2.9369-.21167.58208-.21167 1.0848-.58208 1.5875-.97896.50271-.39687.97896-.84667 1.1112-1.5081 0-.0529.0265-.10584.0529-.15875.47624-.635.58208-1.3229.34396-2.0902-.18521-.635.1852-1.2171.52916-1.7198.26458-.37042.68793-.635 1.1906-.34396.21167.13229.39688.0265.60855 0 .42333-.0529.79375-.29104 1.2435-.3175.34396-.0265.66146-.26459 1.0054.10583.21167.21167.55563-.0794.68792-.3175.13229-.21167.39688-.55562.0265-.76729-.23813-.13229-.29104-.15875-.0794-.39688.0794-.0794-.29104.10584-.34395-.15875.29104-.3175.47625-.71437.44979-1.1906-.0529-.97896.44979-1.7198.9525-2.4871.68791-1.0848 1.27-2.1696 1.27-3.4925 0-.18521.0794-.37042.10583-.55563.13229-.47625.34396-.9525.13229-1.4817-.0529-.13229-.0265-.3175.0265-.47625.15875-.52916.13229-1.0583-.0529-1.561l.0529-.0529-.0265-.0529c.26459-.0265.47625-.10583.47625-.42333-.0265-.55563.3175-.84667.74084-1.0583.23812-.13229.44979-.3175.55562-.55562.15875-.3175.3175-.58209.74083-.635.29105-.0529.39688-.37042.39688-.635 0-.37042.15875-.68792.37042-.97896.34395-.47625.34395-1.0848.74083-1.5346.13229-.1323 0-.29105-.10583-.42334-.21167-.23812-.47625-.44979-.82021-.50271-.9525-.15875-1.7727-.60854-2.4871-1.2435-.37041-.3175-.76729-.60854-1.27-.66146-.15875-.0265-.34395-.0794-.42333-.21166-.58208-.635-1.4023-.92604-2.0902-1.3758-.13229-.10583-.37041-.1852-.13229-.42333.47625.26458.89958.58208 1.4023.76729.21167.0794.37042.21167.50271.39688.21167.3175.52917.47625.87313.52916.5027.0794.92604.34396 1.27.66146.58208.58209 1.2964.87313 2.0638 1.0583.5027.13229.92604.29104 1.27.74083.23812-.29104.34395-.58208.26458-.84667-.10583-.42333.0794-.68791.21167-1.0583.23812-.60854.635-1.0319 1.1377-1.4023.55563-.44979.9525-1.0583 1.1112-1.7462.21167-.89959.82021-1.4817 1.4817-2.0638.13229-.13229.3175-.18521.47625-.29104.18521-.1323.26458-.26459.0794-.4498-.23813-.23812-.4498-.47625-.37042-.84666.0265-.15875-.10583-.13229-.21167-.10584-.21166.0529-.42333.0265-.44979-.21166-.0529-.50271-.37042-.68792-.76729-.82021-.3175-.10583-.37042-.37042-.37042-.66146 0-.44979-.0265-.89958-.34396-1.27-.10583-.10583-.15875-.29104-.0794-.44979.0265-.0794.13229-.15875.18521-.10583.39687.39687.39687-.3175.76729-.18521.13229.15875.29104.39687.47625.60854-.10583.0265-.26458-.0794-.3175.13229 0 .0529.0265.10583.0529.13229.21166.13229.26458-.0265.37041-.15875.29104-.21166.47625-.47625.60854-.82021-.29104-.23812-.58208-.47625-.87312-.68791-.15875-.21167-.29104-.47625-.635-.3175-.13229.0794-.23813.13229-.37042.0529-.37041-.15875-.44979.0265-.37041.34396.0794.3175-.1323.55563-.18521.84667-.15875 0-.26459-.0794-.23813-.18521.21167-.66146.13229-1.4023.52917-2.0108.15875-.23813.26458-.47625.18521-.76729-.13229-.37042-.0265-.71438.13229-1.0054.29104-.52917.21167-.97896-.23813-1.3758-.23812-.21167-.37041-.4498-.1852-.79375.0529-.10584.0794-.29105.0264-.39688-.52915-.89958 0-1.6933.34397-2.4606.21167-.50271.34396-.9525.3175-1.4817v-.15875c.21167-.82021 0-1.6404.10584-2.4606.0529-.3175.15875-.71438-.10584-.97896-.37041-.37042-.76729-.79375-1.3229-.87313-.23813-.0265-.55563 0-.66146-.23812-.2646-.58209-.68792-.82021-1.2965-.84667-.13229 0-.3175-.13229-.42333-.23812-.39688-.39688-.79375-.82021-1.1642-1.2171-.13229-.15875-.15875-.34396-.13229-.52916.0794 0 .15875-.0265.21165-.0265.21168.0265.39689.10583.47625.3175.0529.13229.15875.15875.29106.1852.0529.50271.44979.21167.68791.29105.44978.29104.89959.44979 1.3758-.0265.29104-.29105.3175-.26459.76729.13229-.79375.47625-.92604.71437-.82021 1.561.68792.0794.68792-.58208 1.0054-.97896.21166.47625.79375.55563 1.0054 1.0583.10584.23813.42334.29105.50271.68792.0529.29104.18521.58208.15875.89958-.0265.55563.23813 1.0848.0265 1.6404.26459.10583.50272.0794.66147-.0265.92603-.55562 2.0108-.37042 3.0162-.66146.74083-.21166 1.5081-.26458 2.196-.635.13229-.0529.26458-.10583.34396.0529.0794.13229-.0529.23813-.13229.34396-.42334.47625-.89959.79375-1.561.60854-.42333-.13229-.79375.0794-1.1642.18521-.55563.18521-1.0583.52917-1.6933.37042-.10583-.0265-.21166.0529-.29104.13229-.26459.26458-.55562.39687-.9525.39687-.37041 0-.50271.26459-.47625.60855.10584.9525-.21166 1.7992-.47625 2.6723-.13229.39687-.47625.76729-.10584 1.1906.10584.10584-.13228.15875-.13228.21167-.0265.29104-.34397.68792.23812.82021-.0529.0529.10584.29104-.0529.21166-.39688-.15875-.37042.0265-.23813.26459.21167.42333.55563.68791 1.0583.66146-.23811.37041-.50269.71437-.34394 1.2171.10583.34396-.10584.71437-.29106.97896-.34394.52916.21168.84666.21168 1.27.50271-.29104.79375.76729 1.3494.23812 1.1642-.18521 2.2489-.55562 3.175-1.3229.29104-.23813.66144-.34396 1.0583-.15875.60854.26458 1.0319.0529 1.4023-.4498.21167-.3175.52917-.52916.79375-.79375.26457-.26458.55563-.52916.68792-.89958.0794-.21167.21165-.34396.44979-.39687.82021-.23813 1.3758-.84667 1.8785-1.4817.42332-.52917.87313-1.0319 1.3229-1.5346.0794.26458-.21167.5027 0 .8202.34396-.0794.60854-.26458.6879-.635.21168-1.0848.635-2.1167.68793-3.2014 0-.10584-.0529-.21167-.0794-.3175.26458-.0265.3175-.0529.34395-.10584l-4e-5.00037c.1323.0265.29105.13229.37042.0794 1.2171-.42334 2.6723-.47625 3.3338-1.9315.23813-.50271.71438-.79375 1.0583-1.1906.26459-.29104.635-.44979.60855-.9525-.0265-.26458.3175-.47625.66145-.47625.29105 0 .55563-.0529.79375-.23812v-.0265c-.26458.0794-.15875.26458-.15875.50271.29105-.10584.66146.0529.82021-.37042.0529-.13229.21167-.18521.34396-.15875.79375.18521 1.5875 0 2.3548-.10583.23813-.0265.42334.0529.60854.15875.42334.23812.87313.21166 1.3229.29104.13229.0265.18521-.0794.21167-.18521h.15875c.0265.21167.0265.42333.3175.47625.26458.0529.21166-.18521.3175-.26458.23812-.15875.52916-.10584.76729-.0529.76729.23812 1.5875 0 2.3548.26458.0794.0265.18521-.0794.29104-.10583.15875.0265.47625-.37042.47625.15875-.3175.44979-.79375.52916-1.2965.39687-.44979-.13229-.84666-.0265-1.2964-.0265-.29105 0-.39688.21167-.26459.44979.3175.58209.42334 1.2171.55563 1.8521.0529.26458.10583.47625.0529.76729-.0794.42333-.1852.92604.15875 1.2435.4498.39687.29105.9525.50271 1.3758.13229.23813-.23812.3175-.18521.58209-.37041-.1323-.52916-.39688-.66145-.66146-.4498-.97896-.82021-1.9844-.55563-3.0956.18521-.76729-.23812-1.4817-.3175-2.2225 0-.10583-.10583-.18521-.23812-.21166-.55563-.0794-1.0583-.23813-1.6404-.23813-1.0054 0-2.0373.15875-3.0162.23813-1.2965.0794-2.5665.60854-3.3338 1.8521-.39688.635-.9525 1.1642-1.4552 1.6933-.74082.76729-1.7462 1.1642-2.5135 1.8785-.50272.47625-.9525.92605-1.1906 1.5875-.23812.74084-.71437 1.3229-1.27 1.8521-.52916.47625-1.0319.9525-1.4552 1.5346-.34396.47625-.87314.79375-1.3758 1.1112-.4498.29104-.87312.55562-1.0583 1.0848-.0265.10583-.13229.18521-.21167.23813-.52916.44979-1.1906.74083-1.5875 1.3494-.1323.18521-.37041.18521-.60855.10583-.635-.23812-1.1112 0-1.6669.3175-.74084.42334-1.5346.79375-2.4342.79375-.50272 0-.87313.26459-1.1642.635-.21166.29105-.34396.60855-.47625.9525.10584.23813.39688.10584.58209.29105-.39689.39687.13229.79375.0265 1.2171-.0265.0794.10584.10583.18521.13229.50271.0529.71438.44979.9525.79375.0529.0794.0794.21167.10584.21167.71437.0794.60854.92604 1.1112 1.1642-.68792 0-.68792 0-1.1642.58209-.50271.635-1.0319 1.2435-1.1112 2.0902 0 .0794-.0265.1852-.0794.23812-.60853.52917-.84665 1.3758-1.5081 1.8785-.92604.74084-1.5081 1.6669-1.8256 2.831-.15875.58209 0 1.2436-.21165 1.6933-.3175.66146-.0794 1.27-.3175 1.9579.9525-.10583 1.6404.10584 2.1431.82021.0529.0794.18521.13229.29103.13229 1.0054.15875 1.7992.92605 2.7781 1.1377.47625.10584.87311.44979 1.0848.92604.13229.29105.29104.52917.55563.68792.47625.26458.47625.71438.55562 1.1906-.44979-.4498-.92604-.87313-1.3494-1.3229-.66146-.74083-1.5346-1.0319-2.4077-1.2171-.55563-.10584-1.1112-.42334-1.7198-.34396h-.13231c-.10582-.66146-.74082-.34396-1.0583-.55563-.34396-.23812-.60854-.55562-1.0848-.66146-.76729-.1852-1.0319-.15875-1.4023.50271-.23813.44979-.66146.66146-.97896 1.0319-.23814.26458-.52917.47625-.74083.74083-.29106.37042-.21167.60854.18519.87313.23814.15875.34397.3175.21168.60854-.0794.15875-.13229.34396-.21168.52916-.18519.37042-.23811.74084-.15875 1.1642.0529.34396.2646.74083-.18519 1.0583-.21167.15875-.0529.50271-.0794.7673-.18521 1.0319-.60854 1.9579-1.0848 2.8575-.39688.71437-.58208 1.4817-.74083 2.249-.10584.42334.1852.84667-.15875 1.2436-.26459.3175-.3175.79375-.37042 1.2171-.0529.37042-.58208.76729-1.0319.74083-.39687 0-.74083.0529-1.0848.23813-.29103.18521-.635.13229-.9525.13229-.3704 0-.76728.0265-1.1377 0-.47625-.0265-.7673.15875-.7673.68792 1.1377.23812 2.1167.74083 2.6988 1.7992.0794.13229.15875.18521.29105.23813.66146.21166 1.0583.635 1.0319 1.3758-.15875-.0265-.3175-.0529-.21167.21167.0529.13229.15875.26458.3175.29104.0265.10583.21167.21167 0 .29104-.0529.0265-.13229-.0529-.21166-.0794-.10584-.0529-.23813-.18521-.3175-.0265-.0265.0794.0529.23812.0794.34396-.0794.0529-.13228.10583-.21166.13229-.13229-.0529-.26459-.15875-.26459-.29104.0529-.55563-.34395-.79375-.66145-1.1377-.52917-.58209-1.0848-1.1377-1.2436-1.9579-.0529-.34396-.34395-.44979-.55562-.66146-.26458-.29104-.55563-.0265-.79375-.0529-.635-.0529-.66145.3175-.68791.76729 0 .15875-.0529.3175-.10584.50271.66146.1852 1.3229.39687 1.9579.71437-.635.21167-1.27.10583-1.8521.26458-.60854.15875-.60854.15875-.50272.79375 0 .0529.0265.10584.0265.15875 0 .74084-.87314 1.9579-1.614 2.1167-.3175.0794-.52918.21167-.74083.44979-.71438.79375-1.561 1.2965-2.6458.79375-.74082-.34396-1.4023.0794-2.0902.0529-.44418.27625-.53386.007-.79375-.00018z" fill="#4b4b4b" fill-opacity=".1629" stroke-width=".26458"/>
 </g>
</svg>
