<?xml version="1.0" encoding="UTF-8"?>
<svg width="33.118mm" height="32.464mm" version="1.1" viewBox="0 0 33.118 32.464" xmlns="http://www.w3.org/2000/svg">
 <g transform="translate(-108.84 -131.84)">
  <path class="st1" d="m115.99 144.03c.58208.23813.87312.68792.8202 1.2965-.10583.89959.0265 1.7992 0 2.7252 0 1.0319-.15875 2.1167.37042 3.0956.0265.0529.0529.10583.0529.13229-.10583.26458-.23812.55562.0529.74083.18521.13229.47625-.0265.68792-.10583.52916-.21167.97896.3175 1.5081-.0794-.0265.39688-.0529.635-.0794.92604.58209-.0529 1.1377-.10583 1.7198-.15875-.0529-.37041-.13229-.66145-.47625-.84666.37042-.42334 1.0319-.10584 1.3758-.55563.10583-.13229.10583.0265.13229.0794.3175.50271.79375.44979 1.2171.26458.82021-.39687 1.6933-.47625 2.5929-.52917.37042-.0265.74083-.13229 1.1112-.23812.34396-.10583.76729-.37042.79375-.635.0265-.71438.55562-.60854.89958-.55563.71438.10584 1.4552-.10583 2.1431.15875.18521.0794.34396 0 .42333-.10583.26458-.34396.635-.34396 1.0319-.34396.635 0 1.2435-.23812 1.905-.10583.39687.0794.71437-.42333 1.0054-.68792.58209-.50271 1.2435-.79375 1.9579-1.0054.3175-.10584.68792-.0529 1.0054-.21167.1852-.0794.44979-.10583.635.0265.42333.3175.68791.13229 1.0583-.10584.47625-.29104.92604-.66145 1.561-.58208.26458.0265.39688.13229.44979.37042.0529.23812-.10583.39687-.37041.34396-.0265 0-.0529-.0265-.0529-.0529-.21167-.21167-.47625-.10583-.55563.0529-.13229.26458.0265.44979.3175.5027-.58208.0794-1.1642.1323-1.614.60855-.13229.13229-.21166.0529-.3175-.0794-.21166-.23812-.47625-.21167-.74083-.15875-.58208.15875-1.1377.3175-1.7198.34396-.13229 0-.26459.0794-.3175.21167-.0794.15875.29104.13229.15875.23812-.34396.26458-.60854.71438-1.1377.71438-.34396 0-.71438.0794-.84667.5027-.0529.15875-.18521.18521-.3175.15875-.92604-.15875-1.8521.26459-2.8046.0265-.18521-.0529-.3175.0794-.44979.15875-.79375.52917-1.6404.52917-2.4606.21167-.42333-.15875-.58208 0-.76729.3175-.47625.82021-1.2965 1.2435-2.2754 1.2171-.66145-.0265-1.27.15875-1.8785.39688-.44979.18521-.87312.26458-1.27-.13229-.10583-.1323-.23812-.15875-.42333-.0794-.44979.18521-.89958.37042-1.3494.52917-.13229.0529-.26458.13229-.37041.13229-.87313-.0794-1.6933.29104-2.5665.18521-.76729-.0794-1.5346.23812-2.3283.18521-.3175-.0265-.37042.21166-.4498.44979-.26458.84666-.52916 1.6933-.8202 2.54-.0529.13229-.0529.34396-.26459.37041.0265-.26458.13229-.55562-.21166-.76729-.18521.635-.18521.635.15875.79375-.0265.15875-.1323.29104-.29105.37042-.39687.18521-.5027.44979-.37041.84667.10583.34395-.0265.635-.29104.87312-.34396.3175-.71438.60853-.97896.9525-.74084.97896-1.3758 1.9844-1.0319 3.3073.13229.52917-.29104.74084-.635 1.0319-.0265-.47625-.0529-.92604.18521-1.3494.10583-.18521-.13229-.42333-.10583-.60854.10583-1.1377.3175-2.249 1.2965-3.0427.47625-.3704.79375-.89957 1.0583-1.4816.68792-1.4552.79375-3.0692 1.5081-4.4979.10584 0 .23813-.0265.34396-.0265.37042.10583.68792.0794.97896-.18521.0794-.0794.21167-.0794.29104-.15875.18521-.15875.60854-.0529.58209-.3175-.0794-.44979.39687-.92604-.0794-1.3758-.3175-.29104-.3175-.71438-.3175-1.1377.0265-.55562.0794-1.1377-.0529-1.6933-.0265-.13229-.0265-.26459.0529-.37042.39687-.58208.10583-1.1112-.23813-1.561-.15875-.21167-.29104-.44979-.47625-.635-.0794-.0794-.15875-.21167-.10583-.29104.47625-.60854-.23813-1.0848-.21167-1.6404 0-.29104-.26458-.21167-.42333-.0794-.23813.1852-.39688.15875-.60854-.0529-.21167-.21167-.47625-.3175-.7673-.42333-.26458-.0794-.52916-.18521-.68791-.47625-.15875-.3175-.47625-.10584-.74084-.1323 0-.10583-.0529-.1852-.15875-.21166-.39687-.47625-.92604-.635-1.5081-.635-.0529 0-.10583-.0265-.15875 0-.23813 0-.50271.10583-.68792-.13229-.13229-.15875-.55562.0794-.39687-.21167.15875-.29104-.15875-.44979.0529-.74083.42333.26458.89958.13229 1.3758.13229.29104 0 .68792-.60854.52917-.87313-.39688-.71437-.29104-1.3758.15875-2.0108.34396-.50271.74083-.97896.87312-1.614.0265-.15875.18521-.29104.21167-.42333.0529-.39688.84667-.44979.44979-1.0319.23813-.34396.42333-.68791.37042-1.1112-.0265-.0794 0-.13229.10583-.13229.50271 0 .68792-.23812.60854-.71437.47625-.3175.66146-.89959 1.1642-1.2171.18521.15875-.0529.29104 0 .44979.0529.26459.21167.0529.29104.0794.0265.0265.0529.0794.0794.10583-.13229.10584-.3175.15875-.37042.29104-.34395.84667-1.0054 1.5346-1.2435 2.4342-.0529.21167-.0794.42333-.23812.60854-.58209.58209-.89959 1.3494-1.3758 2.0108-.58208.8202-.76729 1.7198-.68791 2.7517.0529.58209-.0529 1.0848.71437 1.1906.68792.87312 1.7992 1.1112 2.6458 1.7198.15875.10583.29104.10583.44979 0 .29104-.23813.68791-.42333.79375-.76729.23812-.76729.84666-1.2965 1.2435-1.9579.18521.15875.10583.34396 0 .50271-.26458.44979-.52917.9525-.82021 1.3758-.37042.39688-.47625.89959-.26458 1.4023-.10584 0-.21167-.15875-.34396-.0264-.34396.42333-.23813.89958.26458 1.1642.34396-.34396.0794-.74083.0794-1.1377zm19.685 4.6038c.0529-.0529.13229-.10583.0529-.15875-.0529-.0794-.1323-.0264-.18521.0529-.0794.0529-.13229.13229-.0794.18521.10583.0794.18521 0 .21166-.0794zm-9.9748 3.2544c-.21166-.15875-.39687-.10583-.55562.0794-.0529.0794 0 .15875.0794.18521.23812.0529.39687 0 .47625-.26458z" fill="#4b4b4b" fill-opacity=".1629" stroke-width=".26458"/>
 </g>
</svg>
