<?xml version="1.0" encoding="UTF-8"?>
<svg width="13.721mm" height="10.707mm" version="1.1" viewBox="0 0 13.721 10.707" xmlns="http://www.w3.org/2000/svg">
 <g transform="translate(-100.22 -129.68)">
  <path transform="matrix(.26458 0 0 .26458 100.08 129.31)" d="m26.906 1.3926c-.10016 0-.30001.099609-.40039.099609l-.30078.30078c0 .10016.09906.20062.19922.30078.10016.20069.20062.20062.30078.30078v.00195c.10016 0 .20062-.10156.30078-.10156.10016-.10016.10156-.10009.10156-.30078 0-.10016-.0014-.098683-.10156-.19922 0-.20069.000548-.40234-.09961-.40234zm-19.348 5.1094c-.39967.051761-.81428.2578-1.1152.4082-.40123.30085-.60282.80314-.70312 1.3047 0 .80247-6.92e-5 1.4035.30078 1.8047h.00195c.10016.10016.39969.10064.5.20117.30085.20069.60337.40039.9043.40039.50154.10016 1.1027-.000479 1.5039-.20117l.30078-.30078c.10016 0 .10064-.09961.20117-.09961.40123.10016.80259-.10009 1.1035-.30078.30085-.30085.50125-.60267.60156-1.0039.10016-.40123-.000476-.80189-.20117-1.2031-.30085-.40123-.60193-.50055-1.1035-.70117-.30085-.10016-.70103-.0014742-1.002.19922-.20069-.20069-.4029-.39969-.60352-.5h-.30078c-.12539-.025039-.25545-.025066-.38867-.0078125zm-6.1309 2.1133c-.20069 0-.40164.20062-.50195.30078-.20069.10016-.30001.19985-.40039.40039 0 .10016.10064.30122.20117.50195.10016.20069.29931.20117.5.20117s.40164.000548.50195-.099609c.10016-.10016.10064-.30122.20117-.50195 0-.20069.0005481-.30196-.099609-.40234-.10016-.20069-.2018-.40039-.40234-.40039zm21.918.55078c-.42187-.028187-.87072.026882-1.0957.25195-.10016.10016-.10139.3005-.20117.40039-.70001-.10016-1.4.19955-2 .59961-.70001.50003-1.1988 1.1004-1.2988 1.9004-.10016.80001 6e-6 1.7008.5 2.3008.19994.19994.49921.30046.69922.40039.10016.10016.10139.19867.20117.29883-.09978.19994-.10102.3001-.20117.5 0 .3001.0014.69998.10156 1-.30009-.10016-.60037.20062-.90039.30078-.03586.02389-.06605.06309-.10156.08984-.41675-.01469-.85487.07679-1.1699.23438-.40123.30085-.60282.90275-.70312 1.4043-.10016.7022-.09968 1.3038.20117 1.7051.10016.10016.30126.20062.50195.30078.20069.20069.50056.20062.70117.30078h-.09961c-.20069.10016-.40039.40094-.40039.60156 0 .20069.10009.40095.30078.60156.10016.20069.29931.40039.5.40039.19736.0985.39646-.18808.59375-.29297.04166.12141.09869.23783.17578.35352.19994.3001.39924.39999.69922.5-.10016.70001-.000718 1.4016.19922 2.1016-.40002.10016-.99885.30006-1.2988.5-.49999.39999-.80002.99961-1 1.5996l-.30078-.30078h-.09961l.09961-.09961c.49999-.40003.90003-.9 1-1.5.10016-.6-.19994-1.1992-.5-1.6992l-.40039-.40039c-.30009-.19994-.49881-.39999-.79883-.5-.10016 0-.20062-.09961-.30078-.09961-.49999-.10016-1.2988.09861-1.7988.39844-.49999.39999-.70078 1.0016-.80078 1.6016-.06311.37808.0041.71342.1543 1.0371-.30741.04-.60629.13884-.83789.3125-.40127.30085-.60282.90275-.70312 1.4043-.0095.04741-.01202.09517-.01953.14258-.19794-.09681-.39574-.09683-.59375.002-.19994.10016-.3005.30006-.40039.5 0 .02468.01276.04953.01563.07422-.06669-.009-.1339-.01758-.20508-.01758-.20069 0-.30126.10064-.50195.20117-.20069.10016-.40039.2018-.40039.40234 0 .01649.0035.05653.0039.08203-.04969-.10021-.11418-.19234-.20508-.2832-.20069-.20069-.40094-.20062-.60156-.30078-.20069-.10016-.40095-.000548-.60156.09961-.30085.20069-.50195.40091-.50195.60156 0 .30085.0004789.50251.20117.70312.20069.20069.40025.20062.70117.30078.20069.10016.50125.000548.60156-.09961.20069-.20069.40164-.30251.50195-.60352.10016.20069.40094.20062.60156.30078.20069 0 .40164-.09868.50195-.19922.20069-.10016.20117-.30126.20117-.50195 0-.01218.0032-.023.0039-.03516.1069.10498.238.17578.38281.17578h.10157c-.10016.80001.19915 1.4996.69922 2.0996.19994.19994.3001.5012.5.70117.49999.40002.99961.49964 1.5996.59961.70001.19994 1.8004-.10016 2.4004-.5.49999-.39999.89963-.9 1.0996-1.5.10016.10016.0014.20062.10156.30078.49999.40002 1.0992.40003 1.6992.5.3001.10016.69962.10016 1.0996 0 .10016.10016.20117.19867.20117.29883.30009.49999.79844.80078 1.3984.80078.19994 0 .50116.10016.70117 0 .19994.19994.49924.19867.69922.29883.30009.10016.70038-.09889.90039-.29883.3001-.19994.69922-.5008.69922-.80078 0-.19994-.19922-.3996-.19922-.59961.3001-.19994.49921-.50076.69922-.80078.19994-.49999.3015-1 .10156-1.5.6-.19994 1.1988-.39884 1.7988-.79883.6-.39999 1.0004-1.0012 1.4004-1.7012.27281-.40918.49453-.86545.64258-1.3359.13199.03202.29863.01929.42773.08398h.20117l.09961.09961c.10016.20069.2011.40039.50195.40039.20069.10016.40164-.20062.50195-.30078.20069-.10016.20062-.19915.30078-.5 0-.20069.1007-.40164-.09961-.50195-.10016-.20069-.30122-.40234-.50195-.40234-.20069 0-.30196.0014-.40234.10156 0-.30085-.29931-.20062-.5-.30078-.14348 0-.2741.01223-.38086.04883-.03798-.23868-.0918-.47914-.0918-.69141.40002-.10016.80158-.3001 1.1016-.5.10016-.10016.29851-.09961.39844-.09961.49999.10016 1.1004-.19994 1.4004-.5 0 0 .10139-.10156.20117-.10156.19994.10016.3001.10156.5.10156.49999.10016 1.1-.10056 1.5-.40039.49999-.30009.79843-.80079.89844-1.3008.10016-.49999-.19994-1-.5-1.5-.10016-.10019-.19867-.3005-.29883-.40043-.10016-.10016-.20117-.099609-.20117-.099609v-.09961c.19994-.10016.3005-.20062.40039-.30078.19994-.10016.3001-.3001.5-.5.10016.19994.20062.50156.30078.60156.19994.19994.3005.3996.40039.59961 0 .49999.49997.69882 1 .79883.6.19994 1.4004-.2997 1.9004-.59961.6-.40002.9996-.99921 1.0996-1.6992.10016-.69997-.10013-1.4004-.5-1.9004-.19994-.19994-.20034-.39964-.40039-.59961-.30009-.19994-.70002-.39999-1-.5h-.30078c-.56393-.18792-1.3818-.10201-1.8945.24024.01384-.19637.08558-.44972-.0059-.54102-.09978-.19994-.3996-.09944-.59961-.19922-.19994 0-.3996-.10016-.59961 0-.19994.10016-.19922.39964-.19922.59961 0 .10016-.10156.30046-.10156.40039-.19994-.19994-.3992-.5-.69922-.5-.10016 0-.20062-.09961-.30078-.09961-.6-.10016-1.3988.09861-1.7988.39844-.50003.39999-.89999 1.0016-1 1.6016-.0062.03735-.0019.07718-.0059.11523-.15175.05993-.3065.12633-.42188.20312l-.10156.09961c-.10016-.10016 0-.29997 0-.40039-.20069-.20069-.60142-.10064-.90234-.20117-.10016 0-.10064-.20117-.20117-.20117-.50154-.10016-1.1027.10127-1.5039.40234-.40123.30085-.70242.80244-.80273 1.4043-.05075.20333-.04827.45679.0039.71094-.28785.20688-.57366.57928-.76562.86719-.19994-.10016-.3996-.20062-.59961-.30078-.19994-.10016-.3992 0-.69922 0h-.5c.39999-.49999.69882-1.0992.79883-1.6992.10016-.80001-.09977-1.8004-.59961-2.4004l-.59961-.59961c-.19994-.10016-.3001-.30006-.5-.5v-.10156c0-.19994-.19922-.49885-.19922-.79883.30009-.30009.59921-.69962.69922-1.0996.10016-.49999-.10052-1.0004-.40039-1.4004-.099693-.10016-.19858-.3005-.29874-.40039-.19994-.19994-.50116-.20062-.70117-.30078-.10016 0-.099439-.099609-.19922-.099609-.125-.025039-.26367-.043339-.4043-.052734zm27.42 1.2305c-.32444.02349-.66298.1737-.88867.32422-.20069.10016-.20062.40094-.30078.60156 0 0-.10064-.19922-.20117-.19922-.30085-.10016-.60142.20062-.90234.30078-.10016.10016-.20062.19985-.30078.40039-.30085.30085-.60086.60193-.70117 1.1035-.10016.50154.09931.90345.40039 1.3047.20069.20069.10009.30001.30078.40039.30085.20069.60263.20117 1.0039.20117.40124.10016 1.0031.09968 1.4043-.20117.40124-.30085.39969-.80189.5-1.2031.20069-.10016.40164-.20062.50195-.30078.50154-.10016.70312-.4008.70312-.90234.10016-.40123.19967-.90415-.10156-1.2051-.10016-.10016-.30001-.09868-.40039-.19922-.20069-.10016-.30126-.40234-.50195-.40234-.10016 0-.10064.10016-.20117 0-.10031-.02504-.20631-.03127-.31445-.02344zm-12.123.625c-.20069 0-.50125.0014-.60156.10156-.20069.10016-.30001.40094-.40039.60156 0 .20069.09868.50125.19922.60156.10016.20069.40094.09961.60156.09961.20069 0 .30196.000548.40234-.09961.20069-.10016.40039-.19985.40039-.40039 0-.20069.10108-.40094-.09961-.60156-.10016-.20069-.30126-.30274-.50195-.30274zm-4.0625.26172c-.15047-.0094-.30071.06551-.45117.14062-.20069.10016-.30001.29931-.40039.5 0 .20069.09868.50251.19922.70312.10016.20069.40095.30078.60156.30078.20069.10016.4029-.10064.60352-.20117.20069-.10016.30001-.29931.40039-.5 0-.20069.10071-.50251-.09961-.70312-.20069-.20069-.50251-.10064-.70312-.20117-.05017-.02504-.10023-.03593-.15039-.03906zm11.787 1.6445c-.20069 0-.30126.20062-.50195.30078-.20069.10016-.30078.2018-.30078.40234 0 0 .10064.10009.20117.30078.10016.20069.19985.30001.40039.40039.20069 0 .40164-.09868.50195-.19922.20069-.10016.40039-.2018.40039-.40234 0-.20069-.20062-.40164-.30078-.50195-.10016-.20069-.19985-.30078-.40039-.30078zm-9.7168 1.8906h.099609c.10016 0 .10139.09961.20117.09961-.09978 0-.10102.0014-.20117.10156 0-.10016-.19922-.10156-.19922-.10156zm15.008.27539c-.01798.0034-.03672.01615-.05469.0293.02276.03413.04698.14417-.02148.21289 0 .10016-.20014.30001-.09961.40039.10016.10016.30001 0 .40039 0h.20117c.10016-.10016.10156-.09868.10156-.19922 0-.10016.10054-.20258 0-.30273-.10016-.10016-.20258-.09961-.30274-.09961-.07512 0-.14938-.0551-.22461-.04102zm-.05469.0293c-.01054-.0158-.02148-.01998-.02148.01172.0071-.0071.0144-.0065.02148-.01172zm-39.543 1.1152c-.10016 0-.30078.09961-.30078.09961-.10016.10016-.20117.20062-.20117.30078v.40234c0 .10016.20062.10064.30078.20117.10016 0 .30196-.10156.40234-.10156.10016-.10016.20117-.20062.20117-.30078 0-.10016-.0014-.30001-.10156-.40039-.10016-.10016-.20062-.20117-.30078-.20117zm-8.2578.0625c-.35736-.0047-.77134.08776-1.0723.23828-.40123.30085-.70047.80314-.80078 1.3047 0 .50154-.0005481.9022.099609 1.2031-.20069.20069-.20117.60267-.20117 1.0039-.10016.40124-.098753.80259.10156 1.1035.20069.30085.60072.50125 1.002.60156.22318.0743.61108-.01845.87891-.15234.010873.0163.010154.03555.025391.05078.20069.20069.50055.20258.70117.30273.20069.10016.40095-.10204.60156-.30273.20069-.10016.40164-.19915.50195-.5-.10015-.2007-.20062-.50251-.30078-.70313-.20069-.20069-.40095-.40039-.60156-.40039-.079238-.039544-.1899-.025593-.30078.003907v-.20508c.10016-.10016.39969-.099609.5-.099609.40123-.30085.70243-.80314.80273-1.3047.10016-.50154-.19985-.90345-.40039-1.3047-.10016-.10016-.10064-.39969-.20117-.5-.20069-.20069-.50181-.20062-.80273-.30078h-.19922c-.10031-.02504-.21486-.0375-.33398-.03906zm29.346 2.4375v.08008h-.19922c-.04219 0-.06239-.02052-.08398-.04102.0932-.0044.18728-.01669.2832-.03906zm-11.898.080075v.10156c.30009.30009.79919.40003 1.1992.5h-.09961c-.40002.30009-.69998.79923-1 1.1992-.09978-.10016-.3005-.19922-.40039-.19922-.04786-.01597-.1116-.01961-.17188-.02539.19628-.23093.35508-.50351.41211-.8457.03681-.18436.02274-.38161-.01172-.57812.02364-.05171.04979-.10735.07227-.15234zm20.711 1.8926c-.04545.0047-.08234.01598-.10742.04102-.20069.10016-.30078.40094-.30078.60156 0 .20069-.000548.50321.09961.60352.10016.20069.40094.19922.60156.19922.20069 0 .50125.10016.60156 0 .20069-.10016.09961-.40094.09961-.60156 0-.20069.000548-.30126-.09961-.50195s-.19981-.30078-.40039-.30078c-.15052 0-.3578-.0551-.49414-.04102zm-3.7598.11914c-.2539.02349-.53602.1737-.76172.32422-.30085.20069-.60282.50111-.70312.90234-.10016.40123.10127.70298.40234 1.0039 0 0-.000548.09961.09961.09961v.09961c-.10016.50154-6.9e-5.90345.30078 1.3047.10016.20069.20062.20062.30078.30078.30085.20069.50111.30001.90234.40039.40123.10016 1.0038-.10009 1.3047-.30078.40124-.30085.70117-.70158.70117-1.2031 0-.40124-.19915-.80189-.5-1.2031-.10016-.20069-.10009-.20176-.30078-.40234-.10016-.10016-.30196-.09961-.40234-.09961 0-.20069-.09868-.40095-.19922-.60156-.30085-.30085-.50306-.50125-.9043-.60156-.07521-.02504-.1556-.03127-.24023-.02344zm-28.898 3.7246c-.14577.04706-.27633.23543-.35156.31055-.20069.10016-.40164.19985-.50195.40039 0 .20069.10064.40286.20117.60352.10016.20069.30126.30078.50195.30078.20069.10016.39969-.20062.5-.30078.20069-.10016.30192-.20176.40234-.40234 0-.20069-.001-.40094-.10156-.60156-.10016-.20069-.29931-.30078-.5-.30078-.050173-.02504-.1018-.02545-.15039-.0098zm-3.6621 2.418s-.20062.09868-.30078.19922c-.10016.10016.0005481.20062-.099609.30078 0 .10016-.0005481.20062.099609.30078.10016.10016.10064.30078.20117.30078.10016 0 .30001.000548.40039-.09961.10016-.10016.099609-.19985.099609-.40039 0-.10016.0005481-.20062-.099609-.30078-.10016-.10016-.20062-.30078-.30078-.30078zm23.23 1.5801c-.2539.02349-.53602.1737-.76172.32422-.30085.20069-.60156.50111-.60156.90234 0 .30085.10009.70298.30078 1.0039.20069.30085.50306.40164.9043.50195.50154 0 .9029-.000479 1.1035-.20117.30085-.20069.5-.50111.5-.90234 0-.30085-.10009-.70298-.30078-1.0039-.20069-.30085-.50111-.50125-.90234-.60156-.07521-.02504-.15756-.03127-.24219-.02344zm10.775.25c-.1003 0-.20047.02414-.30078.07422-.20069.10016-.30273.40094-.30273.60156.10016.20069.10064.50251.20117.70312.10054.20069.40094.20062.60156.30078.20069.10016.50321-.10064.60352-.20117.20069-.10016.30078-.30056.30078-.60156 0-.20069-.10064-.40095-.20117-.60156-.10016-.20069-.30056-.20117-.60156-.20117-.10035-.05008-.20048-.07422-.30078-.07422zm5.6172 1.3789c-.10016.10016 0 .30001 0 .40039 0 .10016-.2021.30196-.10156.40234.10016.10016.30196 0 .40234 0h.30078c.10016-.10016.20117-.10009.20117-.30078v-.40234c-.10016-.10016-.30192-.09961-.40234-.09961zm-32.752 1.4629c-.15047-.0094-.30071.06746-.45117.14258-.20069.20069-.50195.29927-.50195.5 0 .20069.20062.50251.30078.70312.20069.20069.30056.40164.60156.50195.20069.10016.60212-.0014.80273-.10156.20069-.20069.30192-.50056.40234-.70117 0-.30085-.000479-.60212-.20117-.80273-.20069-.20069-.50181-.10064-.80274-.20117-.05017-.02504-.10023-.03789-.15039-.04102zm21.064 1.7207c-.05015-.0047-.10024.0022-.15039.02734-.20069.10016-.09961.40094-.09961.60156 0 .20069-.000548.30126.09961.50195.10016.10016.2018.30078.40234.30078v-.002c.20069 0 .40094.000548.60156-.09961.20069-.10016.40039-.30126.40039-.50195s-.09868-.50125-.19922-.60156c-.10016-.20069-.40094-.09961-.60156-.09961-.15052 0-.30268-.11292-.45312-.12695zm-22.469.28711c-.15047-.0094-.30071.06551-.45117.14062-.20069.10016-.20117.30001-.20117.40039 0 .20069.0014.30196.10156.40234 0 0-.000548.09868.09961.19922l-.20117.10156s.10064-.000548.20117.09961h.09961l.05859.11719c.0047-.0094.01598-.01563.04102-.01563h.20117c.20069 0 .30126-.10064.50195-.20117.20069-.10016.30078-.2018.30078-.40234 0-.20069.10016-.40095 0-.60156-.10016-.20069-.40094-.20117-.60156-.20117-.05017-.02504-.10023-.03593-.15039-.03906zm-.29297 1.4629c-.01119.02866.04102.08203.04102.08203zm27.729.08203c-.20069 0-.40094.10064-.60156.20117-.20069.10054-.20062.29927-.30078.5 0 .20069.09868.40164.19922.50195.10016.20069.2018.40234.40234.40234.20069 0 .50125-.10064.60156-.20117.20069-.10016.30001-.30126.40039-.50195 0-.20069.000548-.50125-.09961-.60156-.20069-.20069-.40094-.20062-.60156-.30078zm-14.545.09961c-.10016 0-.20062.10064-.30078.20117-.10016.10016-.10156.10064-.10156.20117 0 .10016-.20014.20062-.09961.30078.10016.20069.19985.09961.40039.09961.10016 0 .30078.20014.30078.09961.10016-.10016.20117-.20062.20117-.30078 0-.10016-.20117-.20062-.20117-.30078-.10016-.10016-.09868-.20062-.19922-.30078zm-16.244.1582c-.043897.0047-.082345.01783-.10742.04297l-.099609.20117h-.10156c-.10016.10016-.19922.30001-.19922.40039.10016.20069.30001.40164.40039.50195.10016.20069.2018.30078.40234.30078.20069 0 .39969-.10064.5-.20117.20069-.10016.30273-.30001.30273-.40039 0-.20069-.000479-.40164-.20117-.50195-.10016-.20069-.30126-.20062-.50195-.30078-.075118 0-.26284-.05711-.39453-.04297zm21.068.10547c-.39967 1.8e-5-.81236.11225-1.1133.33789-.40123.30085-.50125.90275-.60156 1.4043-.10016.50154-6.9e-5 1.0031.30078 1.4043.10016.10054.10064.20117.20117.20117-.10016.20069-.20062.40094-.30078.60156-.10016.40123.10009.80259.30078 1.1035.30085.40124.60072.60212 1.002.80274.40124.10016.80255-.30126 1.1035-.50195.30085-.20069.60282-.50111.70312-.90234 0-.50154-.000479-.80134-.20117-1.002.40124-.30085.50125-.80314.60156-1.3047.10016-.50154.09968-1.1046-.20117-1.5059-.10016-.10016-.39969-.09868-.5-.19922-.20069-.20069-.40216-.30078-.70313-.30078-.10016 0-.10064-.10156-.20117-.10156-.12539-.02504-.2574-.03712-.39062-.03711zm5.1055 3.4492c-.20069 0-.40164.20062-.50195.30078-.20069.10016-.19922.19985-.19922.40039 0 .20069-.2021.40094-.10156.60156.10016.20069.4029.20117.60352.20117.10016.10016.29931.000548.5-.09961.20069-.10016.30078-.30126.30078-.50195s.000548-.40094-.09961-.60156c-.10016-.20069-.30126-.30078-.50195-.30078zm-14.211 1.9629c-.02038.0047-.0332.01793-.0332.04297-.10016.10016-.19922.20062-.19922.30078 0 .10016.09961.30001.09961.40039.10016.10016.19981.09961.40039.09961.10016 0 .30196.10016.40234 0 .10016-.10016 0-.30001 0-.40039 0-.10016.10016-.20062 0-.30078-.30085-.10016-.30196-.09961-.40234-.09961-.07512 0-.20644-.05705-.26758-.04297z"/>
 </g>
</svg>
