<?xml version="1.0" encoding="UTF-8"?>
<svg width="30.702mm" height="23.461mm" version="1.1" viewBox="0 0 30.702 23.461" xmlns="http://www.w3.org/2000/svg">
 <g transform="translate(-90.968 -123.91)">
  <path d="m98.917 125.92c-.35365.53248-.26699 1.2507.13859 1.7768.37404.48512.90816.61141 1.4818.53624.92811-.12162 1.6279-1.1549 1.289-2.0207-.2112-.53955-.96557-1.4245-1.4621-1.0578-.56043.41379-1.1715.35043-1.4472.76557z" style="paint-order:normal"/>
  <path d="m113.8 130.88c-1.6391-.13417-3.2642 1.2961-3.202 2.9843.0233.63243.18481 1.3184.64329 1.7389.46942.43052.9182.81909 1.6008.95963.96824.19935 2.0603.15998 2.8781-.41681.67033-.47281 1.1706-1.1909 1.278-2.0233.1357-1.0525-.57107-1.9637-1.2907-2.691-.95572-.96601-.79776-.4609-1.9075-.55174z" style="paint-order:normal"/>
  <path d="m108.75 124.64c-.45071-.0234-.9885.43721-1.0228.88723-.0307.403.54984.59535.7851.92399.0623.087.15602.16891.16452.27554.0628.78856-.16435 1.8644-.87853 2.2046-.56218.26777-1.166-.47446-1.7832-.55662-1.3088-.17423-2.7209-.31047-3.9584.15004-2.2369.83242-4.2129 2.5242-5.5919 4.4724-.35864.50665-.0383 1.5251-.6136 1.7582-.35402.14345-.67615-.67118-1.0242-.5139-1.5452.69818-1.1325 3.2317-1.2928 4.9197-.10264 1.0804-.42325 2.3742.21977 3.2485.74117 1.0078 2.3074.9763 3.4988 1.3575 1.3738.43953 2.7571 1.1986 4.1935 1.0672 1.0846-.0993 2.1168-.68745 2.9677-1.3674 1.0318-.82452 1.0927-3.2226 2.4112-3.1443 2.3282.13818 1.4831 4.9779 3.5712 6.017.73119.36385 1.6661.003 2.4349-.27308.75509-.27077 1.5069-.69355 2.017-1.3127.46921-.5695.84014-1.3143.83022-2.0521-.0164-1.2157-.62307-2.4598-1.4584-3.3432-.45518-.48139-1.4111-.34135-1.7744-.89534-1.0867-1.657-1.3873-4.2518-.34142-5.9348.33449-.53827 1.2446-.36054 1.7502-.74262.54896-.41484 1.0866-.95198 1.2945-1.6079.27916-.881.2778-1.9626-.1776-2.7668-.54158-.95636-1.6414-1.6298-2.7131-1.8736-.83082-.189-1.7522.75908-2.5247.3997-.24511-.11402-.2559-.47879-.41901-.69437-.16608-.2195-.2895-.58849-.56438-.60276z" style="paint-order:normal"/>
  <path d="m105.93 125.32c-.52052-.34701-1.4124.47287-1.1381 1.1447.29121.71308 1.22.67116 1.8406.43261.65311-.25105.67293-1.192.0821-1.481-.24234-.11856-.55492.0568-.78454-.0963-1e-5-1e-5-2e-5-1e-5-3e-5-2e-5z" style="paint-order:normal"/>
  <path d="m103.37 125.84c-.41614-.0363-.73036.54194-.28315.86094.50177.35791 1.0976-.49402.61391-.75992-.12363-.068-.21076-.0905-.33076-.10102z" style="paint-order:normal"/>
  <path d="m117.55 135.04c0 .5257-2.05.0989-1.979.53318.0728.44553-1.2962-.30481-1.6317.00076-.37282.33956 1.8106 1.7869 1.1886 1.8277-.7494.0491-1.0416 1.2474-.4926 1.8216.47751.49938 1.148.0799 1.735.30373.61354.23396 1.1242.53015 1.5993.0132.46652-.50764-.2837-1.1538-.20572-1.4287.13668-.48179.0182-1.0196.10576-1.1778.30945-.55934 1.18-.24966 1.3807-.95912.15836-.55997-.57089-.89414-1.1137-.9577-.24668-.0289-.58647-.30845-.58647.0232z" style="paint-order:normal"/>
  <path d="m104.04 142.08c-.68329-.004-1.314.66331-1.0505 1.3856.21092.57807 1.0338.98501 1.4769.61675.35558-.29547-.70454 1.1029-.12942 1.4923.54699.37031 1.4071.26161 1.8549-.29583.37408-.46568-.37197-.95031.44119-1.1104.78251-.15405.27127-1.0253-.32027-1.2497-.5935-.22522-1.1168.38546-1.3334-.45206-.0889-.34383-.57276-.38454-.93941-.38668z" style="paint-order:normal"/>
  <path d="m96.76 132.45c1.1742-.0672 1.9245-.49506 1.7439-1.2635-.17184-.73108 1.5632-.4443 1.4328-1.228-.11341-.68156-1.4711.0615-1.8301-.45395-.37528-.53882-.0632-1.8451-.74685-1.6854-.67138.15682-.41526 1.1133-.63449 1.2965-.38424.32119-.58921.83236-.75063.91381-.5707.28797-1.1158-.45815-1.6811.0152-.44618.37359-.15872 1.504.38111 1.4186 2.8832-.45612-.18857 1.117 2.0854.98681z" style="paint-order:normal"/>
  <path d="m115.47 130.23c-.41614-.0363-.73036.54194-.28315.86094.50177.35791 1.0976-.49402.61391-.75992-.12363-.068-.21076-.0905-.33076-.10102z" style="paint-order:normal"/>
  <path d="m117.02 129.77c-.41614-.0363-.73036.54194-.28315.86094.50177.35791 1.0976-.49402.61391-.75992-.12363-.068-.21076-.0905-.33076-.10102z" style="paint-order:normal"/>
  <path d="m116.98 129.08c-.44426.28121-.51501.86709.0848.73766.673-.14522.91401-1.1054.29984-.9166-.15698.0482-.25652.0979-.38462.17901z" style="paint-order:normal"/>
  <path d="m118.44 141.21c-.25594-.45928-.83695-.56266-.74124.0434.10737.68007 1.0526.97437.8984.3506-.0393-.15942-.0834-.26159-.15723-.39402z" style="paint-order:normal"/>
 </g>
</svg>
