<?xml version="1.0" encoding="UTF-8"?>
<svg width="30.702mm" height="23.461mm" version="1.1" viewBox="0 0 30.702 23.461" xmlns="http://www.w3.org/2000/svg">
 <g transform="translate(-90.968 -123.91)">
  <path d="m105.14 132.44c-.35365.53248-.26699 1.2507.13859 1.7768.37404.48512.90816.61141 1.4818.53624.92811-.12162 1.6279-1.1549 1.289-2.0207-.2112-.53955-.96557-1.4245-1.4621-1.0578-.56043.41379-1.1715.35043-1.4472.76557z" style="paint-order:normal"/>
  <path d="m113.8 130.88c-1.6391-.13417-3.2642 1.2961-3.202 2.9843.0233.63243.18481 1.3184.64329 1.7389.46942.43052.9182.81909 1.6008.95963.96824.19935 2.0603.15998 2.8781-.41681.67033-.47281 1.1706-1.1909 1.278-2.0233.1357-1.0525-.57107-1.9637-1.2907-2.691-.95572-.96601-.79776-.4609-1.9075-.55174z" style="paint-order:normal"/>
  <path d="m110.96 125.57c-.19225.40832-.99864.41353-1.0436.8626-.0403.40215.53549.60829.76284.94244.0602.0884.15195.17258.1579.27939.044.78983-.20875 1.86-.93084 2.183-.56841.25429-1.3416-1.0514-1.7695-.59898-.85981.90937 1.6328 2.2534 1.401 3.4833-.34297 1.8201-1.9936 3.672-3.8074 4.0468-2.5791.53302-4.8272-4.1658-7.2514-3.1367-.57139.24256-.07465 1.5238-.65535 1.7431-.35734.13497-.65995-.68711-1.0117-.53817-1.5614.66114-1.2092 3.2038-1.4098 4.8874-.12838 1.0777-.47974 2.3634.14225 3.2528.71693 1.0252 2.2834 1.031 3.4655 1.4406 1.3629.47216 2.7277 1.264 4.1668 1.1668 1.0867-.0734 2.1326-.63678 2.9994-1.2962 1.0512-.79968 1.3259-2.4536 2.4855-3.0859 2.1824-1.1902 6.9398 1.6524 7.4158-.78746.12686-.65025-1.4026-.3749-1.7526-.9374-1.0469-1.6824-1.2855-4.2836-.19981-5.9413.34723-.53014 1.2528-.33077 1.7674-.70068.55869-.40164 1.109-.9258 1.3324-1.5766.30009-.87409.32451-1.9554-.11158-2.7703-.51862-.969-1.6021-1.6685-2.6677-1.9378-.82607-.20876-1.7698.71709-2.5335.33939-.24232-.11984-.2444-.48476-.40233-.70416-.1608-.22339-.29267-.71413-.54985-.61605-1e-5 0 0 1e-5 0 2e-5z" style="paint-order:normal"/>
  <path d="m104.87 133.85c-.52052-.34701-1.4124.47287-1.1381 1.1447.29121.71308 1.22.67116 1.8406.43261.65311-.25105.67293-1.192.0821-1.481-.24234-.11856-.55492.0568-.78454-.0963-1e-5-1e-5-2e-5-1e-5-3e-5-2e-5z" style="paint-order:normal"/>
  <path d="m103.76 132.09c-.41614-.0363-.73036.54194-.28315.86094.50177.35791 1.0976-.49402.61391-.75992-.12363-.068-.21076-.0905-.33076-.10102z" style="paint-order:normal"/>
  <path d="m115.48 139.6c-.68329-.004-1.314.66331-1.0505 1.3856.21092.57807 1.0338.98501 1.4769.61675.35558-.29547-.70454 1.1029-.12942 1.4923.54699.37031 1.4071.26161 1.8549-.29583.37408-.46568-.37197-.95031.44119-1.1104.78251-.15405.27127-1.0253-.32027-1.2497-.5935-.22522-1.1168.38546-1.3334-.45206-.0889-.34383-.57276-.38454-.93941-.38668z" style="paint-order:normal"/>
  <path d="m101.69 131.62c.32632-.63939 1.1803-.81901 1.7439-1.2635.49388-.38951 1.5778-.61592 1.4328-1.228-.14496-.61158-1.3488-.0498-1.8301-.45395-.47063-.39513-.13246-1.6738-.74686-1.6854-.48106-.009-.16562 1.1885-.63449 1.2965-.82711.19061-1.216-1.8735-2.0074-1.5667-.78677.30502-.46396 1.6528-.42429 2.4957.02302.48908.06733 1.0427.38111 1.4186.49284.59033 1.4356 1.3982 2.0854.98681 1e-5-1e-5 0-2e-5 0-3e-5z" style="paint-order:normal"/>
  <path d="m103.83 131.32c-.41614-.0363-.73036.54194-.28315.86094.50177.35791 1.0976-.49402.61391-.75992-.12363-.068-.21076-.0905-.33076-.10102z" style="paint-order:normal"/>
  <path d="m105.9 130.53c-.41614-.0363-.73036.54194-.28315.86094.50177.35791 1.0976-.49402.61391-.75992-.12363-.068-.21076-.0905-.33076-.10102z" style="paint-order:normal"/>
  <path d="m104.63 130.34c.28283.44323.86896.51184.73734-.0875-.14767-.67246-1.1087-.90996-.91769-.29649.0488.15681.0988.25616.18042.38397z" style="paint-order:normal"/>
  <path d="m104.58 129.27c-.25594-.45928-.83695-.56266-.74124.0434.10737.68007 1.0526.97437.8984.3506-.0393-.15942-.0834-.26159-.15723-.39402z" style="paint-order:normal"/>
  <path d="m94.221 132.7c-.41614-.0363-.73036.54194-.28315.86094.50177.35791 1.0976-.49402.61391-.75992-.12363-.068-.21076-.0905-.33076-.10102z" style="paint-order:normal"/>
  <path d="m94.106 135.28c-.41614-.0363-.73036.54194-.28315.86094.50177.35791 1.0976-.49402.61391-.75992-.12363-.068-.21076-.0905-.33076-.10102z" style="paint-order:normal"/>
  <path d="m94.363 135.92c-.27319-.0238-.47948.35578-.18589.5652.32941.23497.72055-.32432.40303-.49888-.08116-.0446-.13836-.0594-.21714-.0663z" style="paint-order:normal"/>
  <path d="m108.98 125.46c.28283.44323.86896.51184.73734-.0875-.14767-.67246-1.1087-.90996-.91769-.29649.0488.15681.0988.25616.18042.38397z" style="paint-order:normal"/>
  <path d="m109.83 125.38c.11541.7561.56461 1.113.60803.20159.0487-1.0226-.65691-1.7859-.65658-.82802 6e-5.24483.0152.40838.0486.62643z" style="paint-order:normal"/>
  <path d="m109.26 144.44c.28283.44323.86896.51184.73734-.0875-.14767-.67246-1.1087-.90996-.91769-.29649.0488.15681.0988.25616.18042.38397z" style="paint-order:normal"/>
  <path d="m110.75 144.46c.20717.34774.63651.40157.5401-.0687-.10817-.5276-.81213-.71393-.67221-.23262.0358.12303.0724.20097.13216.30125z" style="paint-order:normal"/>
  <path d="m110.7 146.29c.34857.52248 1.0219.84211.83702.24603-.20749-.6688-1.3187-1.3051-1.0652-.6702.0648.16228.12757.27349.22825.42418z" style="paint-order:normal"/>
  <path d="m110.41 145.58c.28283.44323.86896.51184.73734-.0875-.14767-.67246-1.1087-.90996-.91769-.29649.0488.15681.0988.25616.18042.38397z" style="paint-order:normal"/>
 </g>
</svg>
