<?xml version="1.0" encoding="UTF-8"?>
<svg width="6.1108mm" height="6.1921mm" version="1.1" viewBox="0 0 6.1108 6.1921" xmlns="http://www.w3.org/2000/svg">
 <g transform="translate(-103.37 -131.72)">
  <path transform="matrix(.26458 0 0 .26458 103.37 131.72)" d="m10.766 0c-.89579.19094-1.5164 1.1627-1.5391 2.0449.026822.58947.55441.58221.96875.36133.27245.081031.56682.093925.73633-.14062l.001953.0019531c.018897-.051024.019024-.10957.003906-.16211-.042706-.096872-.1112-.17656-.18359-.25195.38819-.51067.76942-1.2629.29492-1.7832-.082772-.054425-.18456-.077872-.2832-.070312zm4.123.66602c-.33718.024038-.73372.37087-.83789.69336-.28876.5596-.59884 1.519.03125 1.9492.089953.03239.18979.02841.28125.0019531.80001-.37882 1.1668-1.431.99219-2.2656-.083381-.29231-.26449-.39333-.4668-.37891zm-3.7539 2.4238c-.1688.018567-.33401.088666-.45703.19336-.15093.14838-.024176.28465.13281.3457-.10433.12271-.18759.25711-.22461.38867-.2976.63394-.60299 1.7146.11523 2.166v.0019531c.10129.031748.21392.02425.31445-.0097657.12275-.063968.23163-.14623.33398-.23633-.055137.3082-.022529.61429.24024.80078v.0019531c.068031.026457.14454.022804.21484.0039063.6144-.27749.90881-1.0748.78711-1.7129-.064845-.24403-.22126-.31101-.39258-.28516.062709-.15301.077281-.3141-.027344-.45312-.024481-.0201-.057044-.022756-.087891-.029297.007398-.22233-.01091-.44354-.0625-.65039-.082396-.25215-.22991-.359-.39648-.38672-.00593-.0079478-.006516-.018235-.013672-.025391-.13546-.098835-.30776-.13185-.47656-.11328zm9.3418.79102c-.31191.063544-.59891.30058-.73242.58008-.14347.36548.37989.41334.5957.26367.27579-.13054.67658-.40903.56055-.75977-.024567-.039307-.063958-.068866-.10742-.083984-.10482-.02229-.21244-.021181-.31641 0zm-11.393 1.5117c-.68707-.089644-1.4329.29603-1.7227 1.0039-.054447-.084509-.12477-.15972-.22461-.21484-.073323-.020409-.15236-.010705-.22266.019531-.60147.35864-.81164 1.2162-.61133 1.8613.14151.36221.43672.29561.67578.10742.013968.55632.15412 1.1016.42773 1.5625-.86009.8333-.70436 2.6098.50195 3.0684.085642.032644.16968.041498.25391.054688-.075115.12557.011858.24223.13867.32617-.0013963.007909-.0045678.015514-.0058593.023437-1.2697-.82302-3.209-.65451-4.1836.56836-.45126.50587-.57784 1.1262-.47266 1.7168-.025373.010985-.055696.012999-.080078.025391-.46276.27826.036413.75088.40625.79688.36346.61944.96821 1.1135 1.6953 1.2383.38991.11894.81231.14546 1.2285.095703.13906.41858.36139.80273.64062 1.1387-.17725.31227.1662.85228.51367.99609.47668.29737 1.3005.63719 1.7422.13867.57901.020553 1.1362-.1562 1.6328-.44922.24353.048489.51629.028087.70508-.066406.61954-.19113 1.5504-.65463 1.4121-1.4277v-.001953c-.040063-.09033-.11695-.16136-.20312-.20898-.13857-.050955-.28269-.072856-.42773-.083984.13099-.36534.21709-.74618.19726-1.1445.000439-.25577-.036733-.50993-.091796-.75976.30357-.026202.59279-.11283.75-.3457.023906.28577.137.58429.30859.75976.075019.10743.1768.22372.27539.33789-.072344.00828-.14605.013066-.21289.035156-.37912.15613-.036302.58229.23242.63672.24073.091707.60462.16351.83398.011719.165.069287.33703.098123.50976.082031.32745.41345.91153.93848 1.4512.6875-.021872.27201.091114.60305.26953.77539.058532.078933.1375.16446.21289.24805-.14763-.021874-.29864-.013019-.45312.056641-.076346.059717-.12771.14883-.15039.24219-.033344.31388.038615.62386.17578.9082-.42798.020441-.8378.32941-1.002.71484-.14804.43011.4589.45945.70117.27539.21651-.11398.4865-.31607.58984-.56055.26116.31662.59779.57641.96484.70703.78803.21842.7728-.87253.41602-1.2871-.015741-.025924-.041362-.055203-.058593-.082031.47227.041 1.0785-.017939 1.2188-.51367.002645-.074079-.024076-.14694-.066407-.20703-.095125-.098926-.20919-.17335-.33008-.23438-.1674-.24889-.42602-.42747-.7207-.51953-.2662-.45586-.73726-.812-1.2305-.9375-.16844-.030313-.28875.002906-.375.070313-.053504-.66755-.61473-1.2311-1.2402-1.4492-.02841-.074483-.066595-.14546-.10352-.2168.01193-.009658.032202-.013221.042969-.023437.12925-.087388.26995-.20457.40234-.33398.34001.23734.8074.44876 1.1582.22656.5361.42244 1.398.89067 1.9688.35742.057827-.087307.077872-.19565.070313-.29883-.21128-.93581-1.2379-1.5746-2.1621-1.5859-.32104.018487-.46853.1788-.50586.38867-.03756-.018328-.074577-.037163-.11328-.052734-.012346-.053416-.023496-.10672-.050782-.16016-.053291-.061228-.12999-.10012-.20898-.11523-.53494-.030568-1.037.2911-1.3594.72656-.16136-.11784-.33275-.21728-.51172-.29297-.014417-.14187-.071837-.26895-.20898-.32617v-.001953c-.036662-.00378-.073406.00454-.10742.023437-.004152.003127-.005714.008492-.009766.011719-.003469-.043931-.019364-.084753-.041015-.12305.39441-.039024.77932-.1357 1.1484-.28125.17472-.033348.33576-.092779.45117-.20508 1.0177-.54754 1.7792-1.4967 1.7871-2.7285.001059-.51443-.1471-1.0275-.41016-1.4687-1.0075-1.6806-3.3023-2.1645-5.041-1.4238-.1414-.0024489-.28266.0085159-.42188.037109-.11111-.40001-.34209-.77229-.6543-1.0156-.24989-.16757-.44128-.094499-.56836.072266-.074866-.43104-.21841-.84985-.46094-1.2148-.24045-.46913-.64874-.71444-1.0859-.77148zm9.9395.025391c-.58328-.0067863-1.1256.30336-1.5195.74609-.036147-.0442-.069985-.088858-.11914-.12695-.08315-.037795-.17952-.038429-.26758-.019531-.77794.31264-1.184 1.2868-1.0664 2.0859.16585.74982 1.0629.25771 1.25-.2207.013173-.022113.025806-.052719.039063-.076172.34483.074973.81767-.062468 1.0508-.30469.5562-.4142 1.3279-1.2152.91211-1.9453-.072567-.077102-.17536-.11977-.2793-.13867zm-8.375 3.2715c.027561.069446.06932.13209.10352.19922-.062186.053793-.12489.10714-.18164.16602.036838-.12157.056485-.24335.078126-.36523zm-5.4375 2.3242c-.36209.004559-.72892.11782-1.0117.31445-.50971.41133.20822.91002.64453.87109.5074.038475 1.3201-.032335 1.4414-.63672-.0034015-.07748-.038757-.1516-.087891-.21094-.26704-.23754-.62424-.34245-.98633-.33789zm16.781.11914c-.57912-.032329-1.1892.17208-1.6172.5293-.6107.58847.37134 1.1506.92969 1.0508.65881-.008051 1.6994-.19301 1.7871-.98633-.013228-.099401-.06642-.19066-.13672-.26172-.2786-.20713-.61542-.31263-.96289-.33203zm-21.135 2.6074c-.13492.009804-.26662.04008-.38672.087891-.44254.21411-.0011986.70036.32422.74609.36446.11452.97087.20056 1.1621-.2207h-.0019531c.012472-.057071-.000887-.11814-.027344-.16992-.23227-.32882-.66554-.47277-1.0703-.44336zm12.973 1.2168c-.017872.035889-.027602.0765-.039062.11719-.006827-.012795-.00374-.029012-.011719-.041016-.022472-.024582-.050037-.041966-.074219-.064453.041862-.003548.084185-.004635.125-.011719zm-10.459 3.5078c-.44615.011477-.84616.32058-1.0703.71094-.005404-.002833-.0081882-.009075-.013672-.011719-.83032-.25417-1.7917.26768-2.2168.98828-.285.57295.33402.80048.82812.73242-.14682.22281-.25964.46309-.32617.70898-.17813.91287 1.0574.80037 1.4961.35938.58666-.42187 1.4049-1.2421.98438-2.0098-.041202-.044739-.093407-.077937-.14844-.10352.042532-.027807.094754-.04818.125-.082032.33162-.2668.78737-.77661.51562-1.2148-.046488-.044599-.10958-.070566-.17383-.078125zm3.3984.65234c-.63341-.038079-1.3083.27246-1.709.74219-.46424.63024.51729.98818 1.0098.81055.59819-.10961 1.5142-.43848 1.4707-1.1738-.027213-.088441-.089228-.16313-.16406-.2168-.19042-.096832-.39628-.14942-.60742-.16211zm3.4277 1.2988c-.37054.047807-.78637.45593-.88086.81836-.28354.63575-.56624 1.7155.15625 2.1504.10129.031748.2131.02217.3125-.015625.8586-.46859 1.1968-1.6527.95117-2.5625-.11048-.31734-.31674-.41931-.53906-.39062zm2.1582.11914c-.3402.01784-.6235.33738-.68359.66016-.034923.30992.37484.2392.50977.080079.18482-.15685.43482-.45393.27344-.69922-.026835-.026835-.061814-.03735-.099609-.041016zm-4.5527.041016c-.99269.11327-1.7672 1.1051-1.8848 2.0605-.046526.91423 1.142.63124 1.5078.14062.11376-.10927.2341-.24505.34961-.38867.08746.00842.1771-.000886.26562-.046875.041953-.037039.06874-.091303.080078-.14648.0046524-.092578-.022258-.18102-.044922-.26953.21954-.4113.31684-.85839.029297-1.2422v-.001953c-.083906-.067654-.19502-.10169-.30273-.10547z" style="paint-order:normal"/>
 </g>
</svg>
