<?xml version="1.0" encoding="UTF-8"?>
<svg width="12.9mm" height="12.122mm" version="1.1" viewBox="0 0 12.9 12.122" xmlns="http://www.w3.org/2000/svg">
 <g transform="translate(-100.08 -129.31)">
  <path d="m109.98 134.81c-.35365.53248-.26699 1.2507.13859 1.7768.37404.48512.90816.61141 1.4818.53624.92811-.12162 1.6279-1.1549 1.289-2.0207-.2112-.53955-.96557-1.4245-1.4621-1.0578-.56043.41379-1.1715.35043-1.4472.76557z" style="paint-order:normal"/>
  <path d="m107.71 131.47c-1.6391-.13417-3.2642 1.2961-3.202 2.9843.0233.63243.18481 1.3184.64329 1.7389.46942.43052.9182.81909 1.6008.95963.96824.19935 2.0603.15998 2.8781-.41681.67033-.47281 1.1706-1.1909 1.278-2.0233.1357-1.0525-.57107-1.9637-1.2907-2.691-.95572-.96601-.79776-.4609-1.9075-.55174z" style="paint-order:normal"/>
  <path d="m109.11 136.55c-.52052-.34701-1.4124.47287-1.1381 1.1447.29121.71308 1.22.67116 1.8406.43261.65311-.25105.67293-1.192.0821-1.481-.24234-.11856-.55492.0568-.78454-.0963-1e-5-1e-5-2e-5-1e-5-3e-5-2e-5z" style="paint-order:normal"/>
  <path d="m101.12 137.64c-.41614-.0363-.73036.54194-.28315.86094.50177.35791 1.0976-.49402.61391-.75992-.12363-.068-.21076-.0905-.33076-.10102z" style="paint-order:normal"/>
  <path d="m102.76 131.3c-.54435-.413-1.2278-.55419-1.212-.13743.0127.33352.55997.97434 1.013 1.1096.36351.10853-.85968-.0302-.50539.45522.33695.46166 1.053.94071 1.5607 1.0112.42414.0589-.0409-.56348.65143-.13107.66625.41614.49282-.20296.081-.63933-.41318-.43781-.99555-.53474-.94284-.96438.0217-.17637-.3537-.48225-.64586-.70378z" style="paint-order:normal"/>
  <path d="m108.53 135.79c.32632-.63939 1.1803-.81901 1.7439-1.2635.49388-.38951 1.5778-.61592 1.4328-1.228-.14496-.61158-1.3488-.0498-1.8301-.45395-.47063-.39513-.13246-1.6738-.74686-1.6854-.48106-.009-.16562 1.1885-.63449 1.2965-.82711.19061-1.216-1.8735-2.0074-1.5667-.78677.30502-.46396 1.6528-.42429 2.4957.023.48908.0673 1.0427.38111 1.4186.49284.59033 1.4356 1.3982 2.0854.98681 1e-5-1e-5 0-2e-5 0-3e-5z" style="paint-order:normal"/>
  <path d="m101.18 136.88c-.41614-.0363-.73036.54194-.28315.86094.50177.35791 1.0976-.49402.61391-.75992-.12363-.068-.21076-.0905-.33076-.10102z" style="paint-order:normal"/>
  <path d="m104.5 130.61c-.41614-.0363-.73036.54194-.28315.86094.50177.35791 1.0976-.49402.61391-.75992-.12363-.068-.21076-.0905-.33076-.10102z" style="paint-order:normal"/>
  <path d="m105.12 132.03c.28283.44323.86896.51184.73734-.0875-.14767-.67246-1.1087-.90996-.91769-.29649.0488.15681.0988.25616.18042.38397z" style="paint-order:normal"/>
  <path d="m101.94 134.83c-.25594-.45928-.83695-.56266-.74124.0434.10737.68007 1.0526.97437.8984.3506-.0393-.15942-.0834-.26159-.15723-.39402z" style="paint-order:normal"/>
  <path d="m110.13 137.69c-.41614-.0363-.73036.54194-.28315.86094.50177.35791 1.0976-.49402.61391-.75992-.12363-.068-.21076-.0905-.33076-.10102z" style="paint-order:normal"/>
  <path d="m109.78 130.68c-.41614-.0363-.73036.54194-.28315.86094.50177.35791 1.0976-.49402.61391-.75992-.12363-.068-.21076-.0905-.33076-.10102z" style="paint-order:normal"/>
  <path d="m110.04 131.32c-.27319-.0238-.47947.35578-.18588.5652.32941.23497.72055-.32432.40303-.49888-.0812-.0446-.13837-.0594-.21715-.0663z" style="paint-order:normal"/>
  <path d="m103.68 130.45c.28283.44323.86896.51184.73734-.0875-.14767-.67246-1.1087-.90996-.91769-.29649.0488.15681.0988.25616.18042.38397z" style="paint-order:normal"/>
  <path d="m104.53 130.37c.11541.7561.56461 1.113.60803.20159.0487-1.0226-.65691-1.7859-.65658-.82802 6e-5.24483.0152.40838.0486.62643z" style="paint-order:normal"/>
  <path d="m109.15 139.75c.28283.44323.86896.51184.73734-.0875-.14767-.67246-1.1087-.90996-.91769-.29649.0488.15681.0988.25616.18042.38397z" style="paint-order:normal"/>
  <path d="m102.56 139.59c-.37998.13949-.51206.55154-.0321.54351.53851-.009.85146-.66655.35259-.61779-.12752.0125-.21087.0341-.32045.0744z" style="paint-order:normal"/>
  <path d="m100.78 139.2c-.5778.24625-1.0161.84912-.39616.7773.69559-.0806 1.5259-1.0554.85513-.9233-.17145.0338-.29233.0749-.459.14611z" style="paint-order:normal"/>
  <path d="m110.3 140.89c.28283.44323.86896.51184.73734-.0875-.14767-.67246-1.1087-.90996-.91769-.29649.0488.15681.0988.25616.18042.38397z" style="paint-order:normal"/>
  <path d="m103.32 134.26c-1.0394-.12582-2.07 1.2154-2.0306 2.7985.0148.59306.1172 1.2364.40795 1.6307.29769.40372.58229.7681 1.0152.89989.61402.18694 1.3066.15002 1.8252-.39086.4251-.44338.74238-1.1168.81045-1.8973.0861-.98697-.36215-1.8415-.81851-2.5235-.60608-.90587-.50591-.43221-1.2096-.51739z" style="paint-order:normal"/>
  <path d="m104.67 136.63c-.93032.48038-1.0284 2.169-.10571 3.456.34569.48212.79207.95653 1.2542 1.1191.47318.16649.9134.3078 1.3455.1734.61288-.19064 1.1648-.61057 1.2896-1.3494.10225-.60567-.014-1.341-.39656-2.0247-.48373-.86459-1.3349-1.3192-2.0958-1.6267-1.0105-.40835-.66138-.073-1.2912.25227z" style="paint-order:normal"/>
  <path d="m110.53 138.72c-.31988-.0363-.56141.54194-.21765.86094.38569.35791.84367-.49402.47189-.75992-.095-.068-.162-.0905-.25424-.10102z" style="paint-order:normal"/>
  <path d="m111.2 138.34c-.28224-.1519-.63604.0396-.39777.34445.26732.34199.88139.10243.60533-.18723-.0706-.074-.12617-.11343-.20756-.15721z" style="paint-order:normal"/>
  <path d="m111.62 138.78c-.22347-.22978-.61849-.15359-.48297.20882.15205.40657.80974.36285.63361.004-.0451-.0918-.0862-.14614-.15065-.21237z" style="paint-order:normal"/>
 </g>
</svg>
