<?xml version="1.0" encoding="UTF-8"?>
<svg width="30.702mm" height="23.461mm" version="1.1" viewBox="0 0 30.702 23.461" xmlns="http://www.w3.org/2000/svg">
 <g transform="translate(-90.968 -123.91)">
  <path d="m99.248 124.77c-.35365.53248-.26699 1.2507.13859 1.7768.37404.48512.90816.61141 1.4818.53624.92811-.12162 1.6279-1.1549 1.289-2.0207-.2112-.53955-.96557-1.4245-1.4621-1.0578-.56043.41379-1.1715.35043-1.4472.76557z" style="paint-order:normal"/>
  <path d="m96.004 124.63c-1.6391-.13417-3.2642 1.2961-3.202 2.9843.02331.63243.18481 1.3184.64329 1.7389.46942.43052.9182.81909 1.6008.95963.96823.19935 2.0603.15998 2.8781-.41681.67033-.47281 1.1706-1.1909 1.278-2.0233.13571-1.0525-.57107-1.9637-1.2907-2.691-.95572-.96601-.79777-.4609-1.9075-.55174z" style="paint-order:normal"/>
  <path d="m108.75 124.64c-.36289-.0655-.93241.43217-1.0228.88723-.10622.53504.26033 1.018.7851.92399.12804-.0229.24427.20012.16452.27554-.58416.55244-.25565 1.6925-.87853 2.2046-.47097.38719-1.1875-.41637-1.7832-.55662-1.3069-.30765-2.6268.28731-3.9584.15004-3.4115-.3517-5.4632 1.3062-5.5919 4.4724-.02516.61892-.16432 1.6796-.6136 1.7582-.49438.0866-1.0552.29623-1.0242-.5139.02433-.63746-.7079-1.1115-1.3194-1.2764-.60405-.1629-1.1698-.0363-1.7272.21135-.5505.24455-.73442.89629-.797 1.4442-.07158.62672.77545.86607.16204 1.4809-.51167.51286.15754 1.3991.80972 1.5697.50464.13196 1.0404-.19765 1.1735.53193.08642.47365.81056.40999.40558.958-.69256.93716-.50403 2.3465.21977 3.2485.81267 1.0128 2.1853 1.6075 3.4988 1.3575.96684-.18404 1.4064-1.5574 2.4075-1.5787 1.657-.0353 3.0839 1.2396 4.7536 1.2784.66975.0156 1.7528-.52554 2.0474-.10161.42144.60657.66248 1.2884 1.2329 1.7587.78662.64853 1.7084 1.0655 2.702 1.2155.81873.12366 1.6444.0172 2.4349-.27308.77969-.28629 1.4839-.71075 2.017-1.3127.48716-.55005.75719-1.3124.83022-2.0521.12464-1.2624-.38688-2.6207-1.4584-3.3432-.54454-.36718-2.2156-.40149-1.7744-.89534 1.9331-2.1642 2.6643-4.1317-.34142-5.9348-.36818-.22087 1.2312-.37955 1.7502-.74262.58367-.40833 1.0264-.95257 1.2945-1.6079.36516-.8927.28483-1.9509-.1776-2.7668-.55362-.97675-1.5738-1.6378-2.7131-1.8736-.89429-.1851-1.6723.46749-2.5247.3997-.44096-.0351-.55771-.14715-.41901-.69437.0929-.36645-.24335-.54478-.56438-.60276z" style="paint-order:normal"/>
  <path d="m118.33 131.5c-.52052-.34701-1.4124.47287-1.1381 1.1447.29121.71308 1.22.67116 1.8406.43261.65311-.25105.67293-1.192.0821-1.481-.24234-.11856-.55492.0568-.78454-.0963-1e-5-1e-5-2e-5-1e-5-3e-5-2e-5z" style="paint-order:normal"/>
  <path d="m121.16 134.3c-.41614-.0363-.73036.54194-.28315.86094.50177.35791 1.0976-.49402.61391-.75992-.12363-.068-.21076-.0905-.33076-.10102z" style="paint-order:normal"/>
  <path d="m118.68 134.94c0 .5257-2.05.0989-1.979.53318.0728.44553-1.2962-.30481-1.6317.00076-.37282.33956 1.8106 1.7869 1.1886 1.8277-.7494.0491-1.0416 1.2474-.4926 1.8216.47751.49938 1.148.0799 1.735.30373.61354.23396 1.1242.53015 1.5993.0132.46652-.50764-.2837-1.1538-.20572-1.4287.13668-.48179.0182-1.0196.10576-1.1778.30945-.55934 1.18-.24966 1.3807-.95912.15836-.55997-.57089-.89414-1.1137-.9577-.24668-.0289-.58647-.30845-.58647.0232z" style="paint-order:normal"/>
  <path d="m117.23 141.09c-.68329-.004-1.314.66331-1.0505 1.3856.21092.57807 1.0338.98501 1.4769.61675.35558-.29547-.70454 1.1029-.12942 1.4923.54699.37031 1.4071.26161 1.8549-.29583.37408-.46568-.37197-.95031.44119-1.1104.78251-.15405.27127-1.0253-.32027-1.2497-.5935-.22522-1.1168.38546-1.3334-.45206-.0889-.34383-.57276-.38454-.93941-.38668z" style="paint-order:normal"/>
  <path d="m98.909 147.37c1.1742-.0672 1.9245-.49506 1.7439-1.2635-.17184-.73108 1.5632-.4443 1.4328-1.228-.11341-.68156-1.4711.0615-1.8301-.45395-.37528-.53882-.0632-1.8451-.74685-1.6854-.67138.15682-.41526 1.1133-.63449 1.2965-.38424.32119-.58921.83236-.75063.91381-.5707.28797-1.1158-.45815-1.6811.0152-.44618.37359-.15872 1.504.38111 1.4186 2.8832-.45612-.18857 1.117 2.0854.98681z" style="paint-order:normal"/>
 </g>
</svg>
