<?xml version="1.0" encoding="UTF-8"?>
<svg width="9.0311mm" height="8.187mm" version="1.1" viewBox="0 0 9.0311 8.187" xmlns="http://www.w3.org/2000/svg">
 <g transform="translate(-102.22 -131.6)">
  <g class="st0" transform="matrix(.14771 0 0 .14771 90.622 123.67)">
   <path d="m84 86.6-.1-.1c0-.1.2-.3.1-.4s-.3 0-.4-.1c-.1 0-.2-.1-.3-.1h-.2c-.2-.1-.3-.1-.5-.2-.4-.1-.7 0-1 .2-.5.2-1 .5-1.2 1s-.2 1.1 0 1.6c.2.4.6.9 1.1 1 .2.1.3.2.5.2.4.1.7.1 1.1 0 .5-.2.9-.6 1.1-1.1s.2-1.1 0-1.6c0-.1-.1-.3-.2-.4z"/>
   <path d="m120.2 73.9c.2.1.3.2.5.2.1 0 .2-.1.3-.1 0 .1 0 .1.1.2s0 .2.1.3c.1 0 .3 0 .3-.1.1-.1.1-.2.1-.3l.1-.1h.1c.5-.2 1-.6 1.2-1.1s.1-1.1-.1-1.6c0-.1 0-.2-.1-.3.1-.1.3-.2.3-.4s0-.5-.1-.6c-.1-.2-.4-.1-.6-.2s-.4-.1-.6 0c-.1.1-.2.1-.2.2-.1 0-.2.1-.3 0-.4-.1-.7-.2-1.1-.1-.5.2-.8.7-1 1.2s-.3 1-.1 1.5c.3.5.6 1.1 1.1 1.3z"/>
   <path d="m88.7 90.2c-.2-.1-.4 0-.6 0-.4-.1-.7 0-1 .1-.5.2-.9.5-1.1 1s-.3 1.1-.1 1.6c.2.4.6 1 1 1.1.2.1.4 0 .5.1.4.1.7.2 1.1 0 .5-.2.8-.7 1-1.1.2-.5.4-1.1.2-1.6-.1-.5-.5-1-1-1.2z"/>
   <path d="m90.3 71.5v-.4c0-.1-.2-.1-.3-.2-.1 0-.2-.1-.3-.1s-.1.2-.1.3-.1.2-.1.2c0 .1.1.2.2.2h.3c0 .1.2.1.3 0z"/>
   <path d="m79.1 80h-.3c-.1 0-.2.1-.3.2 0 .1.1.2.1.3s.1.2.2.3c.1 0 .2.1.4.1.1 0 .2-.2.2-.3s0-.2-.1-.3c-.1 0-.1-.2-.2-.3z"/>
   <path d="m83.1 81h.3c.1 0 .2-.1.2-.2s0-.2-.1-.3c0-.1 0-.3-.1-.3h-.3c-.1 0-.3 0-.3.1s.1.2.2.3c0 .2 0 .4.1.4z"/>
   <path d="m87 88.8c0-.1-.1-.3-.1-.4s-.1-.2-.2-.3c-.1 0-.2 0-.3.1-.1 0-.2.1-.3.2 0 .1-.1.3-.1.4s.2.2.3.3c.1 0 .2-.1.3-.2.2-.1.4 0 .4-.1z"/>
   <path d="m84 92.8c0-.1-.2-.3-.3-.4 0 0-.1 0-.2.1-.2 0-.4.2-.4.4s.1.3.1.5c0 .1.1.1.2.1.1.1.1.1.2.1.2 0 .3-.1.3-.3s.1-.4.1-.5z"/>
   <path d="m87.3 87.8c.2-.1.3-.2.4-.4s.2-.4.1-.6-.3-.2-.5-.3-.4-.3-.6-.2-.3.3-.4.4c-.1.2-.2.4-.1.6s.3.4.5.4c.2.2.4.2.6.1z"/>
   <path d="m92.3 71.5c.2.1.3.1.5 0s.3-.2.4-.3c.1-.2.2-.4.1-.5-.1-.2-.2-.4-.4-.5s-.4.1-.6.1c-.2.1-.4.1-.5.3s0 .4.1.6c.1.1.2.2.4.3z"/>
   <path d="m88.4 70.7c.2.1.4 0 .6.1.4.1.8.1 1.2-.1.6-.2 1.1-.6 1.4-1.2s.4-1.3.1-1.9c-.2-.5-.8-1.2-1.3-1.3-.2-.1-.4-.2-.6-.2-.4-.1-.9 0-1.3.1-.6.2-1.1.7-1.3 1.3-.3.6-.2 1.3 0 1.9.2.4.7 1.1 1.2 1.3z"/>
   <path d="m94 69.4c.1.1.1.3.3.4s.3.1.5.1c.2-.1.3-.2.4-.3.1-.2 0-.3-.1-.5-.1-.1-.1-.4-.3-.4-.2-.1-.3 0-.5 0-.2.1-.3.2-.4.3s0 .2.1.4z"/>
   <path d="m79.9 86c-.2-.1-.4-.2-.5-.1-.2.1-.3.2-.4.4s-.1.4-.1.5c.1.1.2.3.4.3.2.1.3 0 .5 0 .2-.1.4-.1.4-.3.1-.2 0-.3-.1-.5 0 0-.1-.2-.2-.3z"/>
   <path d="m96.6 64c.2.1.3.3.5.2s.3-.3.4-.4c.1-.2.1-.4.1-.6-.1-.1-.3-.2-.4-.3-.2-.1-.3-.1-.5-.1-.2.1-.3.1-.4.3s-.1.4-.1.5c0 .3.2.4.4.4z"/>
   <path d="m87.1 74.1c-.4-.1-.7-.1-1.1 0-.3.1-.7.3-.9.6s0 .8.1 1.1.4.6.7.7c.4.1.7.3 1.1.2.3-.1.6-.5.7-.8.2-.3.2-.7.1-1.1-.1-.2-.4-.6-.7-.7z"/>
   <path d="m83.1 76.4c.2-.1.3-.2.4-.4s.1-.4.1-.5c-.1-.1-.3-.3-.4-.3-.2-.1-.3-.1-.5 0s-.3.2-.4.3c-.1.2-.1.3-.1.5.1.1.2.3.4.3s.4.2.5.1z"/>
   <path d="m100.3 67.7c.2.1.3-.1.5-.2s.4-.1.5-.2c.1-.2-.1-.4-.1-.5-.1-.1-.1-.4-.3-.4-.2-.1-.3.1-.5.1-.2.1-.3.1-.4.2-.1.2-.1.3 0 .5s.2.4.3.5z"/>
   <path d="m107.8 64.2c-.2-.1-.3-.1-.5 0s-.3.2-.4.4 0 .3.1.5c.1.1.1.3.3.4s.3.1.5.1c.2-.1.4-.1.5-.3s-.1-.4-.1-.6c-.2-.2-.3-.4-.4-.5z"/>
   <path d="m121.3 59c.2.1.4.2.5.1.2-.1.2-.3.3-.5s.2-.3.1-.5c-.1-.1-.2-.4-.3-.4-.2-.1-.4-.1-.6-.1-.2.1-.2.3-.2.5-.1.2-.1.3-.1.5 0 .1.1.3.3.4z"/>
   <path d="m119.9 73.9c-.2-.1-.3 0-.5.1s-.3.2-.4.3c-.1.2-.1.3 0 .5.1.1.2.3.3.4.2.1.4.2.6.1s.2-.3.3-.5.1-.3 0-.5c-.1-.1-.2-.3-.3-.4z"/>
   <path d="m117.9 69.6c-.2-.1-.3-.2-.5-.2-.2.1-.3.2-.4.4s0 .4.1.5.2.3.3.4c.2.1.4.2.6.1s.2-.3.3-.4c.1-.2 0-.3 0-.5-.2-.1-.3-.3-.4-.3z"/>
   <path d="m98.3 97.4c-.4-.1-.7-.2-1.1-.1-.3.1-.6.4-.7.8-.2.3-.1.7 0 1.1.1.3.3.8.6.9.4.1.7 0 1.1-.1.3-.1.6-.3.7-.7.2-.3.4-.8.2-1.1-.1-.4-.5-.7-.8-.8z"/>
   <path d="m122 105c-.4-.1-.8-.1-1.1 0s-.6.4-.8.7-.2.8-.1 1.1.4.7.8.8.7.1 1.1 0c.3-.1.7-.3.9-.7.2-.3.1-.8 0-1.1-.2-.2-.5-.7-.8-.8z"/>
   <path d="m137.5 107.4c-.1-.2-.2-.5-.4-.6-.3-.1-.5 0-.7.1s-.3.2-.4.5c-.1.2-.2.4-.1.7.1.2.2.6.4.6.3.1.5.1.8 0 .2-.1.4-.3.5-.6.1-.2 0-.5-.1-.7z"/>
   <path d="m137.7 103.7c.3.1.5.3.8.2.2-.1.3-.4.4-.6s.3-.5.2-.7-.3-.5-.5-.6c-.3-.1-.5 0-.7.1s-.4.2-.5.4-.2.5-.1.7c0 .2.2.5.4.5z"/>
   <path d="m137.3 96.8c.2-.4.2-.8 0-1.3-.1-.4-.4-.9-.8-1-.1 0-.3-.1-.4-.1-.3 0-.6.1-.9.2-.1 0-.2.1-.3.1-.3-.3-.6-.7-.9-1l-1.2-.6c-.3-.1-.4-.2-.7-.3.2-.1.2-.2.2-.4.1-.2.1-.4 0-.7-.1-.2-.2-.4-.4-.5-.3-.1-.5-.2-.7-.1s-.3.4-.4.6-.2.5-.1.7c0 0 0 .1.1.1-.5-.1-1-.2-1.4-.1-.5 0-1 .2-1.4.3.1-.2.3-.5.4-.8v-.2h.2c.1.1.1.2.2.3.1 0 .3 0 .4-.1s.2-.2.2-.3.1-.3 0-.4-.3-.1-.4-.1-.2-.1-.3 0c.2-.5.4-1.1.4-1.6v-1.7c-.1-.6-.4-1.1-.6-1.6-.2-.3-.3-.7-.5-1 .5-.2 1-.6 1.2-1.1.3-.6.5-1.2.2-1.8-.1-.3-.5-.5-.7-.8h.2c.1-.1 0-.2 0-.3v-.2c-.1-.1-.1-.1-.2-.1h-.2c-.1.1-.1.1-.1.2l-.1-.1-.1.2c-.2-.1-.4-.1-.6-.2-.2 0-.4-.1-.6-.1 0-.2.1-.5 0-.7.2 0 .3-.1.5-.1.5-.2.9-.6 1.1-1.1s.4-1.1.2-1.6c.2-.1.2-.3.3-.4.1-.2.2-.5.1-.8-.1-.2-.3-.5-.5-.6-.3-.1-.5-.1-.8 0-.2.1-.4.3-.5.5-.1 0-.1-.1-.2-.1-.4-.1-.8 0-1.1.1-.5.2-1 .6-1.2 1.1-.1.2-.1.5-.1.7h-.1c-.1 0-.1-.1-.1-.1.1-.4 0-.7-.2-1.1s-.5-1-1-1.1c-.2-.1-.3-.2-.5-.2-.4-.1-.7 0-1.1.1-.5.2-.9.6-1.1 1.1s-.1 1 .1 1.5c.1.1 0 .4.1.5v-.1c-.2-.1-.5-.2-.7-.3-.3-.1-.6 0-.9.1v-.4.1c.1 0 .3 0 .4-.1s0-.2 0-.3.1-.2 0-.3-.2 0-.3 0c0 0-.1-.1-.2-.1 0-.6 0-1.2-.1-1.8s-.4-1.1-.6-1.7l-.6-1.2c-.2-.4-.4-.8-.7-1.2s-.6-.8-.9-1.2c.3-.1.7-.1 1-.2.4-.2.8-.5 1.2-.7h.1c.1.1 0 .2.1.3.1 0 .3 0 .4-.1s.1-.2.2-.3c0-.1 0-.2-.1-.3h-.1c.3-.3.5-.6.7-.9s.4-.6.6-1c.2-.5.3-1.1.3-1.7.1 0 .3.1.3 0 .1-.1 0-.2 0-.3s.1-.2 0-.3-.2-.1-.3-.1c0-.6.1-1.3-.1-1.9v.1c.1 0 .2 0 .3-.1s.2-.1.2-.2-.1-.2-.2-.2c-.1-.1-.1 0-.2-.1-.1 0-.1-.1-.2 0-.1 0-.1.1-.1.2-.2-.4-.4-.7-.6-1.1-.3-.4-.7-.7-1.1-1s-.7-.7-1.2-.9h-.3c.6-.3.9-.8 1.2-1.4.1-.2.3-.5.3-.7.2 0 .4 0 .5-.1.4-.2.8-.5 1-.9s.1-.9 0-1.3-.4-.9-.8-1c-.1 0-.3 0-.5-.1-.3 0-.6-.1-.9 0l-.6.3c-.1-.1-.3-.1-.4-.1-.3-.1-.5-.2-.7-.3-.5-.1-1 .1-1.5.3-.7.3-1.4.7-1.7 1.4-.2.4-.1.8-.2 1.2 0 .4-.1.8 0 1.2.2.4.6.8 1 1.2-.3.1-.6.2-.9.3-.5.2-.9.4-1.2.7-.4.3-.8.5-1.1.9s-.5.8-.7 1.3-.5.9-.6 1.4-.2 1-.1 1.5c0 .5.2 1 .4 1.5.1.1.1.2.2.3-.5-.1-1.1-.2-1.6-.2s-1.1.2-1.6.3-1.1.1-1.6.2c0-.2.1-.5 0-.7v-.1c.2-.5.2-1.1 0-1.6-.2-.4-.5-1.1-1-1.2-.2-.1-.4-.1-.5-.1h-.3c.1-.2.2-.4.1-.6s-.3-.4-.4-.4c-.2-.1-.4-.1-.6 0s-.3.3-.3.5c-.1.2-.2.4-.2.6 0 .1.3.3.4.3-.3.2-.6.5-.8.8-.2.5-.2 1.1 0 1.6.1.2.2.5.4.7 0 .2-.1.5 0 .7l.1.1c-.1 0-.2 0-.4.1-.3.1-.5.3-.7.6-.3-.1-.6-.3-.9-.4-.8-.1-1.5.1-2.3.3-.1-.1-.1-.2-.2-.2-.2-.1-.3 0-.5.1s-.3.1-.4.3c0 .1-.1.1-.1.2-.5.3-.8.8-1.2 1.2s-.9.7-1.1 1.3c-.2.5-.3 1-.3 1.5-.2 0-.5 0-.7.1-.5.2-1 .6-1.3 1.1-.2-.1-.3-.2-.5-.2-.4-.1-.7.1-1.1.2-.5.2-.9.6-1.1 1s-.3.8-.2 1.2c-.1 0-.1.1-.2.2-.4.2-.7.5-.9.9s-.2.8-.1 1.2c-.4-.1-.8 0-1.1.1-.5.2-1 .4-1.3.9-.2.5-.2 1.1 0 1.7.2.4.6 1 1.1 1.2.1 0 .3 0 .5.1h-.1c-.1.1-.3.2-.3.4 0 .1.1.3.2.4l.1.1c-.2.2-.5.4-.6.7-.2.4-.3.8-.2 1.2-.1 0-.2 0-.2.1-.1.1-.1.2-.1.2 0 .1-.1.2 0 .3s.2.1.3.1.2.1.3 0v-.1c.2.4.5.7.9.9.2.1.3.1.5.2h.5c0 .1 0 .3.1.4.2.4.4.8.7 1.3.2.4.5.8.7 1.2.4.6.9 1 1.4 1.5-.1-.6-.2-.4-.2-.2-.2.5-.5 1.1-.3 1.6.2.4.7.8 1.2 1 .2.1.3.1.5.2.1 0 .1.2.1.2h.1c.1.1.2.2.3.2s.3.1.4 0 .2-.2.2-.3c.5-.2.8-.7 1-1.2.5.1 1 .4 1.5.6 0 .3 0 .5.1.8.2.4.6 1 1.1 1.2.2.1.3.2.5.2.4.1.8 0 1.1-.2.5-.2.8-.7 1-1.1.1-.1.2-.3.2-.5.6-.1 1.3-.1 1.9-.2h.1c-.1.4-.1.7 0 1-.4.2-.7.5-1 .8s-.5.6-.7 1-.3.8-.3 1.3-.2.9 0 1.4c.1.4.4.8.7 1.1s.7.7 1.1.8c.3.1.6 0 .9.1.6.1 1.2.1 1.8-.1l.1-.1c.3.5.7 1.1 1.2 1.5-.1.1-.1.1-.1.2v.3c.1.1.2 0 .3.1.1 0 .3.1.3.1.1 0 .1-.1.1-.2h.2c.4.1.7.3 1.1.4s.7.1 1 0c-.1.2-.2.3-.3.5-.2.4-.2.9-.2 1.4s-.1 1 .1 1.4c.2.5.6 1.1 1 1.5-.1 0-.1-.1-.1 0-.1.1-.2.2-.2.3s0 .3.1.4.2.2.3.2.3-.1.4-.2.1-.2.1-.3.1-.1.1-.2c.1 0 .2.1.3.2l.1.1v.1c.2.1.5 0 .7 0 .6.1 1.2 0 1.8-.2.3-.1.7-.1 1-.4h.1c.1.1 0 .3.1.3s.2-.2.3-.2c.1-.1.1-.1.1-.2s.1-.2.1-.3c-.1-.1-.3-.1-.3-.1.2-.2.5-.5.6-.8s.2-.7.3-1h.3s-.1-.2-.1-.3l.1.1c.1 0 .2-.1.3-.1.1-.1.1-.1.1-.2s.1-.2 0-.3-.2-.1-.2-.1c0-.1 0-.2-.1-.2-.1-.2-.2-.2-.4-.3h-.2c0-.1.1-.3 0-.4-.1-.4-.5-.7-.8-1.1s-.7-.6-1.1-.8c-.3-.1-.6-.2-.9-.3h-.3c.3-.3.3-.8.5-1.2.1-.2.2-.4.2-.6h.4c.5-.2 1-.5 1.2-1v-.2c.6-.1 1.1-.3 1.7-.5.4-.1.8-.4 1.1-.6.3.4.6.7 1 .8.2.1.4.3.6.3.5.1 1 0 1.4-.1.6-.2 1.2-.8 1.5-1.4.1-.3.1-.5.2-.8.2 0 .4 0 .6-.1.1.1.2 0 .2 0 .1 0 .2.2.3.1.1 0 0-.3 0-.3h.6c-.1.2-.2.4-.3.7-.2.5-.5 1-.7 1.6-.1.6 0 1.1 0 1.7-.1 0-.2.1-.2.1-.1.1-.2.2-.2.3s0 .3.1.4l.3.3c.1.5.2 1 .4 1.5.3.6.7 1.1 1 1.7.4.6.9 1.2 1.5 1.7h-.1c0 .1.1.3.1.3.1.1.2.1.3.1s.2-.1.2-.1.1 0 .1-.1c.3.2.6.3.9.4.2.1.4.3.6.3 0 .1.1.2.1.3.1.2.3.5.5.6.3.1.5.1.8 0 .2-.1.4-.3.5-.5.6.1 1.1-.1 1.7-.1.6-.1 1.1-.2 1.6-.4s.9-.4 1.3-.6c.4-.3.8-.5 1.1-.9.4-.3.8-.6 1.1-1s.5-.8.7-1.3c.2-.4.2-.9.3-1.4s.4-.9.4-1.4-.2-1-.3-1.4c-.1-.5 0-.9-.2-1.4.2-.4.2-.6.3-.9z"/>
   <path d="m129.6 89c-.1.2 0 .5.1.7s.2.5.4.6c.3.1.5.2.8.1.2-.1.3-.4.4-.6s.3-.5.2-.7-.3-.5-.5-.6c-.3-.1-.5 0-.7.1-.3.1-.6.2-.7.4z"/>
   <path d="m121.6 68c.3.1.5.1.8 0 .2-.1.5-.3.6-.5s0-.5-.1-.7-.2-.6-.4-.6c-.3-.1-.5.1-.7.2s-.4.2-.5.4-.2.5-.1.7c0 .1.1.5.4.5z"/>
   <path d="m116.9 99.6c-.3-.1-.5-.1-.8 0-.2.1-.5.3-.6.5s-.1.5 0 .8c.1.2.3.5.5.6.3.1.5.1.8 0 .2-.1.3-.3.4-.6.1-.2.2-.4.1-.7 0-.3-.2-.5-.4-.6z"/>
   <path d="m121.3 102.1c-.1-.2-.2-.5-.5-.6s-.5 0-.8.1c-.2.1-.3.3-.4.5s-.2.5-.1.7.3.4.5.5c.3.1.4.1.7 0 .2-.1.4-.2.5-.5.1-.2.1-.5.1-.7z"/>
   <path d="m108.8 60.8c.3.1.4 0 .7-.1.2-.1.4-.2.5-.4s.1-.5 0-.7-.3-.4-.5-.5c-.3-.1-.4-.1-.7 0-.2.1-.4.2-.5.4s-.1.4 0 .7.2.6.5.6z"/>
   <path d="m90.7 101.6c-.3-.1-.4-.1-.7 0-.2.1-.4.2-.5.4s-.2.5-.1.7.3.3.5.4c.3.1.5.3.7.2s.4-.3.5-.5 0-.5-.1-.7c0-.2-.1-.5-.3-.5z"/>
   <path d="m93.2 96.1c-.3-.1-.5-.1-.8 0-.2.1-.4.3-.5.6-.1.2-.1.5 0 .7s.2.4.5.5.4.2.7.1c.2-.1.3-.3.4-.5s.1-.4 0-.7c0-.3-.1-.6-.3-.7z"/>
   <path d="m90.5 95.6c-.1 0-.2-.1-.4-.1-.1 0-.3.1-.3.2-.1.1-.1.3-.1.4s.2.2.3.3c.1 0 .3.1.4.1s.2-.2.2-.3c.1-.1 0-.2-.1-.3.1-.1.1-.2 0-.3z"/>
   <path d="m139.2 94.9c-.1 0-.2-.1-.3 0-.1 0-.2.1-.2.2-.1.1-.1.2 0 .3 0 .1.1.2.2.3.1 0 .3.1.4.1s.2-.2.2-.3c.1-.1.2-.3.1-.4s-.3-.1-.4-.2z"/>
   <path d="m131.3 83.1c.1 0 .2-.1.4-.1.1 0 .3-.1.3-.2.1-.1 0-.3 0-.4s-.1-.3-.2-.3h-.4c-.1 0-.1.1-.2.3-.1.1-.1.2-.1.3.1.2.1.4.2.4z"/>
   <path d="m104.8 61.7c0 .1.2.1.3.2.1 0 .2.1.3 0 .1 0 .1-.1.2-.2 0-.1.2-.2.2-.3v-.3c0-.1-.2-.2-.3-.3-.1 0-.3-.1-.4 0-.1 0-.2.2-.2.3s-.1.2-.1.3c-.1.1-.1.2 0 .3z"/>
   <path d="m84.9 82.7c-.1 0-.2 0-.3.1s-.3.1-.3.2.1.3.1.4c.1.1.2.2.3.2s.2-.1.3-.2.2-.1.2-.2-.1-.2-.1-.3c-.1-.1-.1-.2-.2-.2z"/>
   <path d="m84.4 84.8c-.1.1-.1.2-.1.3s0 .2.1.3.2.1.3.1.3.2.4.1.1-.3.1-.4.1-.3 0-.4-.3 0-.4-.1c-.2.1-.3 0-.4.1z"/>
   <path d="m90 90.4c.1-.1.2-.3.2-.4s-.1-.3-.1-.4c-.1-.1-.2-.1-.4-.1-.1 0-.2 0-.3.1s-.3.1-.3.2.1.2.1.3c.1.1.1.2.3.2.2.1.4.1.5.1z"/>
   <path d="m95.3 94.1c-.1 0-.3 0-.4.1l-.3.3c0 .1.1.2.2.3s.1.3.2.3.2-.2.3-.3.3-.1.3-.2-.1-.3-.1-.4c0 0-.1 0-.2-.1z"/>
   <path d="m96.1 95.5c-.1 0-.3-.1-.4 0s-.1.2-.2.3c0 .1.1.2.1.3.1.1.1.2.2.2h.4c.1-.1.1-.2.1-.4 0-.1.1-.3 0-.4.1.1 0 .1-.2 0z"/>
   <path d="m98.3 96.3c.1-.1.2-.1.3-.2 0-.1-.1-.2-.1-.3-.1-.1-.1-.2-.3-.2-.1 0-.2.1-.3.2s-.2.1-.2.2-.1.3 0 .4.2.2.3.2c.1-.1.2-.3.3-.3z"/>
   <path d="m85 89.4h-.3c-.1.1-.1.2-.1.3s-.1.2-.1.3c.1.1.2.1.3.1h.3c.1-.1.2-.1.2-.2s-.1-.2-.2-.3c.1-.2 0-.2-.1-.2z"/>
   <path d="m88.9 73.5c.1 0 .2-.1.3-.1.1-.1.2-.1.3-.2 0-.1-.1-.2-.2-.2-.1-.1-.1-.1-.2-.1s-.2-.1-.3 0-.1.2-.2.2v.3c.1 0 .2.1.3.1z"/>
   <path d="m86.1 72.3h.2c.1-.1.1-.1.1-.2s.1-.2 0-.2l-.2-.2c-.1 0-.1.1-.2.1-.1.1-.1.1-.1.2v.2c.1.1.1.1.2.1z"/>
   <path d="m94.1 67.2c.1 0 .2.1.3 0s0-.2 0-.3.2-.2.1-.3-.2-.1-.3-.2c-.1 0-.2.1-.2.2-.1.1-.1.1-.1.2s-.1.2-.1.3c.1.1.2.1.3.1z"/>
   <path d="m116.5 98.8c.1-.1 0-.2 0-.3s.1-.2.1-.3c-.1-.1-.2 0-.3 0s-.2-.1-.3 0 0 .2-.1.3c0 .1-.1.2-.1.3.1.1.2.1.3.2.1-.1.3-.1.4-.2z"/>
   <path d="m120.7 99.2c.1-.1 0-.2 0-.3s.1-.2.1-.3l-.2-.2c-.1 0-.3 0-.4.1s-.2.2-.2.3.1.2.2.3.1 0 .2.1c.2-.1.3.1.3 0z"/>
   <path d="m129.4 87.6h.3c.1-.1 0-.2.1-.3 0-.1 0-.1-.1-.2s0-.2-.1-.3h-.3c-.1.1 0 .2 0 .3s-.2.2-.1.3c-.1.2.1.1.2.2z"/>
   <path d="m123.9 73.7c.1 0 .3.1.3.1.1-.1.2-.2.2-.3s-.2-.2-.2-.2c-.1-.1 0-.3-.1-.3s-.2.2-.2.2c-.1.1-.2 0-.2.1v.3c-.1.1.1 0 .2.1z"/>
   <path d="m102.6 102.5c-.1 0-.1 0-.2.1l-.2.2c0 .1 0 .1.1.2s.1.2.1.2c.1 0 .3.1.3 0 .1-.1.1-.2.1-.3s-.1-.1-.1-.2 0-.2-.1-.2z"/>
   <path d="m100.1 100.1c-.1 0-.2.1-.3.2s-.3.1-.3.2.1.2.2.3.1.2.2.3c.1 0 .3 0 .4-.1s.2-.2.2-.4c0-.1-.1-.3-.1-.4-.1 0-.2-.1-.3-.1z"/>
   <path d="m107.5 105.1c-.1 0-.2-.1-.3-.1-.1.1-.2.1-.2.2s.2.1.3.2 0 .3.1.3.3-.1.3-.1c.1-.1.2-.2.2-.3s-.1-.2-.2-.3c0 .1-.1.1-.2.1z"/>
   <path d="m113.7 100.7c-.1.1-.1.1-.1.2s-.1.2 0 .3.1.1.2.1h.3c.1-.1.1-.1.1-.2s0-.2-.1-.3-.1-.2-.2-.2c0 0-.1.1-.2.1z"/>
   <path d="m104.2 105.8c-.1 0-.2.2-.2.2-.1.1-.2 0-.2.1s.1.2.1.2c.1.1 0 .2.1.3.1 0 .3 0 .4-.1s.2-.2.2-.3 0-.3-.1-.3-.3-.1-.3-.1z"/>
   <path d="m116.2 102.3c-.1.1-.2.1-.2.2s.1.1.2.2.1.1.2.1h.2c.1-.1.2-.1.2-.2s-.1-.1-.2-.2 0-.2-.1-.2c-.1-.1-.2 0-.3.1z"/>
   <path d="m116 107.1c-.1 0-.2.1-.3.1-.1.1-.1.1-.1.2v.3c.1.1.2.1.2.1h.3c.1-.1 0-.2 0-.3v-.2c-.1 0 0-.2-.1-.2z"/>
  </g>
 </g>
</svg>
