<?xml version="1.0" encoding="UTF-8"?>
<svg width="9.9562mm" height="9.5681mm" version="1.1" viewBox="0 0 9.9562 9.5681" xmlns="http://www.w3.org/2000/svg">
 <g transform="translate(-101.68 -130.82)">
  <g stroke-width=".26458">
   <path d="m106.44 132.4c-.0265 0-.0794.0264-.10594.0264l-.0796.0796c0 .0265.0262.0531.0527.0796.0265.0531.0531.0531.0796.0796v.00052c.0265 0 .0531-.0269.0796-.0269.0265-.0265.0269-.0265.0269-.0796 0-.0265-.00037-.0261-.0269-.0527 0-.0531.00015-.10645-.0264-.10645z"/>
   <path d="m103.94 131.96c-.10574.0137-.21544.0682-.29507.10801-.10616.0796-.1595.21249-.18604.34519 0 .21232-1e-5.37133.0796.47749h.00051c.0265.0265.10575.0266.13229.0532.0796.0531.15965.10594.23927.10594.1327.0265.29174-.00013.3979-.0532l.0796-.0796c.0265 0 .0266-.0264.0532-.0264.10616.0265.21235-.0265.29197-.0796.0796-.0796.13263-.15945.15917-.26561.0265-.10616-.00013-.21217-.0532-.31833-.0796-.10616-.15926-.13244-.29197-.18552-.0796-.0265-.18548-.00039-.2651.0527-.0531-.0531-.1066-.10575-.15968-.13229h-.0796c-.0332-.007-.0676-.007-.10284-.002z"/>
   <path d="m106.05 130.82c-.0531 0-.10627.0531-.13281.0796-.0531.0265-.0794.0529-.10594.10594 0 .0265.0266.0797.0532.1328.0265.0531.0792.0532.13229.0532.0531 0 .10627.00015.13281-.0264.0265-.0265.0266-.0797.0532-.13281 0-.0531.00014-.0799-.0264-.10646-.0265-.0531-.0534-.10593-.10645-.10593z"/>
   <path d="m104.67 132.34c-.10198.046-.19989.11476-.22436.19533-.0109.0359.0138.0828.003.11852-.17587.0638-.30191.221-.39212.38914-.10109.20393-.14271.40621-.0664.6054.0763.19921.21191.39698.40337.47473.0716.0218.15396.008.21309.006.0359.0109.0484.0337.0842.0447.002.0591.0138.0826.0153.14177.0374.07.0875.16321.1483.22076-.0825.014-.11514.12163-.17269.18239-.005.01-.008.023-.0125.0336-.0991.0485-.18997.12444-.24387.20047-.0562.12022-.0282.28582.0108.41539.0641.17638.13918.31675.2594.37292.0359.0109.0953.009.15463.008.0718.0218.14184-.0155.20114-.0172l-.0233.0124c-.0344.0484-.0435.14347-.0185.1903.025.0468.0733.0811.14516.10293.0484.0344.11975.0562.16659.0312.0583-.002.0691-.0933.10209-.14235.0249.0231.0527.0432.0851.0606.0841.0451.14303.0436.22551.0296.0638.17587.17446.32724.30833.46571-.0809.0732-.19575.19448-.24086.27853-.0669.15565-.0622.33299-.0341.49796l-.10768-.0327-.0233.0124.0108-.0357c.0669-.15567.098-.32221.0465-.47471-.0514-.15253-.19609-.25501-.32842-.33433l-.14334-.0436c-.095-.009-.16626-.0312-.24875-.0172-.0234.0125-.0592.002-.0826.0142-.12918.0389-.29088.18484-.37022.31712-.0669.15566-.0388.32109.0126.4736.0324.0961.0898.166.16523.22284-.0668.0476-.12422.10795-.15664.17734-.0562.12022-.0282.28582.0109.41538.004.0122.009.0237.0132.0357-.0583.002-.10443.0267-.13834.0744-.0342.0483-.0328.10748-.0312.16659.003.006.009.01.0129.0154-.0167.006-.0335.0126-.0501.0214-.0468.025-.0578.061-.0921.10949-.0344.0484-.0683.097-.0433.1438.002.004.008.0128.0111.0187-.0241-.0172-.0506-.0307-.0832-.0405-.0718-.0218-.11858.003-.17788.005s-.0937.0498-.128.0982c-.0452.0843-.0672.15612-.0422.20295.0375.0702.0627.11723.13456.13906.0718.0218.11842-.003.20114-.0172.0593-.002.11707-.0623.128-.0982.0218-.0718.0561-.12065.042-.20341.0484.0344.11858-.003.17789-.005.0468-.025.0814-.0731.0923-.10904.0344-.0484.009-.0954-.0156-.14223-.002-.003-.002-.006-.003-.009.038.0112.0775.0114.11126-.007l.0237-.0127c.0763.19921.23333.32522.42481.40296.0716.0218.13249.0796.20406.10136.16655.0311.29557-.008.44808-.0593.1883-.0405.40775-.24769.49798-.41577.0669-.15566.0978-.32216.0698-.48713.0359.0109.0253.0467.0612.0576.16655.0311.30642-.0436.45892-.095.0825-.014.17578-.0638.25666-.137.0359.0109.0717.0213.0842.0447.13234.0793.28613.0874.42618.0127.0467-.0249.12946-.0391.16366-.0874.0716.0218.14129-.0158.20044-.0174.0825-.014.15116-.11035.17293-.18194.0451-.084.10081-.20401.0634-.27402-.0249-.0467-.0963-.0684-.12121-.11514.0451-.0841.0541-.17908.0634-.27403-.0156-.14161-.0542-.27098-.16318-.36277.11514-.12142.23013-.24246.32034-.41058.0902-.16811.10877-.35832.11492-.57155.0127-.1295.008-.26362-.0165-.39188.0348-.009.0721-.0327.1103-.0337l.047-.0251.0357.0108c.0484.0344.0968.0684.16705.0309.0593-.002.0687-.0969.0797-.13275.0344-.0484.022-.0715.008-.15418-.025-.0468-.0265-.10629-.0858-.10475-.0484-.0344-.12044-.0564-.16729-.0314-.0469.025-.0703.038-.0813.0738-.0375-.0702-.0949-.01-.15418-.008-.0335.0179-.0625.037-.0828.0589-.0386-.051-.0811-.1004-.10758-.14994.0809-.0732.14971-.16992.19483-.25395.0109-.0359.0573-.0605.0806-.0729.12918-.0389.23193-.18377.26457-.29118 0 0 .011-.0363.0343-.0488.0592-.002.0827-.0137.12936-.0386.12918-.0389.24422-.16052.30023-.28034.0793-.13235.0866-.2864.0476-.41556-.0389-.12918-.17126-.2085-.30359-.28782-.0359-.0109-.0838-.0454-.11964-.0562-.0359-.0109-.0594.002-.0594.002l-.0124-.0232c.0342-.0483.0451-.0843.056-.12009.0342-.0483.0327-.10744.0544-.179.0483.0342.10932.0921.14516.10293.0716.0218.11992.0558.16816.0901.0623.11671.20376.10082.33294.0619.16496-.0281.28953-.24444.36887-.37673.0902-.16813.10882-.35777.045-.53362-.0638-.17586-.19785-.3144-.35348-.38128-.0716-.0218-.0966-.0683-.16816-.0901-.095-.009-.21323-.006-.29571.008l-.0702.0375c-.15504.0264-.33523.14835-.41227.29212-.0212-.0476-.0361-.11563-.0688-.12555-.0482-.0342-.10566.0266-.16477.0282-.0467.0249-.10575.0264-.13996.0747-.0342.0483.003.1181.0282.16477.0125.0234.0137.0828.0262.10611-.0716-.0217-.15548-.067-.22551-.0296-.0234.0125-.0592.002-.0826.0142-.15253.0514-.31422.1973-.37023.31712-.0669.15566-.0853.34591-.0339.49841.003.009.009.0183.013.0276-.028.0329-.0558.0677-.0732.1l-.0113.0359c-.0358-.0109-.0374-.07-.0499-.0935-.0718-.0218-.15292.0514-.23568.0655-.0234.0125-.0486-.0344-.072-.0219-.12955.0391-.24476.16102-.3009.28128-.0562.12022-.064.27482-.0124.4278.0135.0538.0457.11263.0895.16545-.0414.0842-.0617.20669-.0707.29781-.0592.002-.11827.003-.17743.005-.0592.002-.0932.0497-.16321.0871l-.1167.0623c.0311-.16654.0262-.34364-.0253-.49615-.0763-.19921-.2476-.4078-.43902-.48557l-.21467-.0652c-.0591.002-.10743-.0327-.179-.0544l-.0126-.0237c-.0249-.0467-.10865-.0916-.14603-.16164.0327-.10743.0527-.23796.0262-.34378-.0389-.12918-.1481-.22098-.26793-.27698-.0358-.011-.0838-.0454-.11962-.0562-.0716-.0217-.14197.0156-.20113.0172-.0234.0125-.0356-.0109-.0589.002-.0323.01-.067.0227-.10094.0381z"/>
   <path d="m107.13 130.88c-.0858.006-.17542.046-.23513.0858-.0531.0265-.0531.10608-.0796.15916 0 0-.0266-.0527-.0532-.0527-.0796-.0265-.15912.0531-.23874.0796-.0265.0265-.0531.0529-.0796.10594-.0796.0796-.15897.15926-.18551.29197-.0265.1327.0263.23904.10593.3452.0531.0531.0265.0794.0796.10594.0796.0531.15945.0532.26562.0532.10616.0265.26539.0264.37155-.0532s.10576-.21217.1323-.31833c.0531-.0265.10627-.0531.1328-.0796.13271-.0265.18604-.10605.18604-.23875.0265-.10616.0528-.23922-.0269-.31884-.0265-.0265-.0794-.0261-.10594-.0527-.0531-.0265-.0797-.10646-.13281-.10646-.0265 0-.0266.0265-.0532 0-.0265-.007-.0546-.008-.0832-.006z"/>
  </g>
  <path transform="matrix(.26458 0 0 .26458 100.08 129.31)" d="m38.643 11.021c-.20069 0-.50125.0014-.60156.10156-.20069.10016-.30001.40094-.40039.60156 0 .20069.09868.50125.19922.60156.10016.20069.40094.09961.60156.09961.20069 0 .30196.000548.40234-.09961.20069-.10016.40039-.19985.40039-.40039 0-.20069.10108-.40094-.09961-.60156-.10016-.20069-.30126-.30274-.50195-.30274z"/>
  <path transform="matrix(.26458 0 0 .26458 100.08 129.31)" d="m34.58 11.283c-.15047-.0094-.30071.06551-.45117.14062-.20069.10016-.30001.29931-.40039.5 0 .20069.09868.50251.19922.70312.10016.20069.40095.30078.60156.30078.20069.10016.4029-.10064.60352-.20117.20069-.10016.30001-.29931.40039-.5 0-.20069.10071-.50251-.09961-.70312-.20069-.20069-.50251-.10064-.70312-.20117-.05017-.02504-.10023-.03593-.15039-.03906z"/>
  <g stroke-width=".26458">
   <path d="m111.45 132.86c-.0531 0-.0797.0531-.13281.0796-.0531.0265-.0796.0534-.0796.10645 0 0 .0266.0265.0532.0796.0265.0531.0529.0794.10593.10594.0531 0 .10627-.0261.13281-.0527.0531-.0265.10594-.0534.10594-.10645 0-.0531-.0531-.10627-.0796-.13281-.0265-.0531-.0529-.0796-.10594-.0796z"/>
   <path d="m103.16 132.03c-.005 9e-4-.01.004-.0145.008.006.009.0124.0381-.006.0563 0 .0265-.053.0794-.0264.10594.0265.0265.0794 0 .10593 0h.0532c.0265-.0265.0269-.0261.0269-.0527 0-.0265.0266-.0536 0-.0801-.0265-.0265-.0536-.0264-.0801-.0264-.0199 0-.0395-.0146-.0594-.0109z"/>
   <path d="m103.15 132.04c-.003-.004-.006-.005-.006.003.002-.002.004-.002.006-.003z"/>
  </g>
  <path transform="matrix(.26458 0 0 .26458 100.08 129.31)" d="m12.061 16.238c-.10016 0-.30078.09961-.30078.09961-.10016.10016-.20117.20062-.20117.30078v.40234c0 .10016.20062.10064.30078.20117.10016 0 .30196-.10156.40234-.10156.10016-.10016.20117-.20062.20117-.30078 0-.10016-.0014-.30001-.10156-.40039-.10016-.10016-.20062-.20117-.30078-.20117z"/>
  <path d="m104.07 134.28c-.0946-.001-.20409.0232-.28371.063-.10616.0796-.18533.2125-.21187.3452 0 .1327-.00015.23871.0263.31833-.0531.0531-.0532.15945-.0532.26561-.0265.10616-.0261.21236.0269.29198.0531.0796.15894.13262.2651.15916.0591.0197.16168-.005.23254-.0403.003.004.003.009.007.0134.0531.0531.13244.0536.18552.0801.0531.0265.10608-.027.15916-.0801.0531-.0265.10627-.0527.13281-.13229-.0265-.0531-.0531-.13296-.0796-.18604-.0531-.0531-.10608-.10594-.15916-.10594-.021-.0105-.0503-.007-.0796.001v-.0543c.0265-.0265.10576-.0264.1323-.0264.10616-.0796.18585-.2125.21239-.3452.0265-.1327-.0529-.23904-.10594-.3452-.0265-.0265-.0266-.10575-.0532-.13229-.0531-.0531-.13277-.0531-.21239-.0796h-.0527c-.0265-.007-.0568-.01-.0884-.0103z" stroke-width=".26458"/>
  <path transform="matrix(.26458 0 0 .26458 100.08 129.31)" d="m21.25 18.818v.10156c.30009.30009.79919.40003 1.1992.5h-.09961c-.40002.30009-.69998.79923-1 1.1992-.09978-.10016-.3005-.19922-.40039-.19922-.04786-.01597-.1116-.01961-.17188-.02539.19628-.23093.35508-.50351.41211-.8457.03681-.18436.02274-.38161-.01172-.57812.02364-.05171.04979-.10735.07227-.15234z"/>
  <g stroke-width=".26458">
   <path d="m109.75 135.06c-.012.001-.0218.004-.0284.0109-.0531.0265-.0796.10609-.0796.15917 0 .0531-.00015.13314.0264.15968.0265.0531.10609.0527.15917.0527.0531 0 .13262.0265.15916 0 .0531-.0265.0264-.10609.0264-.15917 0-.0531.00014-.0797-.0264-.13281-.0265-.0531-.0529-.0796-.10594-.0796-.0398 0-.0947-.0146-.13074-.0109z"/>
   <path d="m109.05 134.56c-.0672.006-.14183.046-.20154.0858-.0796.0531-.1595.13259-.18604.23875-.0265.10616.0268.186.10646.26562 0 0-.00015.0264.0264.0264v.0264c-.0265.1327-2e-5.23903.0796.34519.0265.0531.0531.0531.0796.0796.0796.0531.13258.0794.23874.10593.10616.0265.26558-.0265.3452-.0796.10616-.0796.18552-.18563.18552-.31833 0-.10616-.0527-.21216-.13229-.31832-.0265-.0531-.0265-.0534-.0796-.10646-.0265-.0265-.0799-.0264-.10645-.0264 0-.0531-.0261-.10609-.0527-.15917-.0796-.0796-.1331-.13262-.23926-.15916-.0199-.007-.0412-.008-.0636-.006z"/>
   <path d="m102.75 134.45c-.0386.0125-.0731.0623-.093.0822-.0531.0265-.10627.0529-.13281.10594 0 .0531.0266.10659.0532.15968.0265.0531.0797.0796.13281.0796.0531.0265.10575-.0531.13229-.0796.0531-.0265.0799-.0534.10646-.10645 0-.0531-.00027-.10609-.0269-.15917-.0265-.0531-.0792-.0796-.1323-.0796-.0133-.007-.0269-.007-.0398-.003z"/>
   <path d="m101.78 135.09s-.0531.0261-.0796.0527c-.0265.0265.00014.0531-.0264.0796 0 .0265-.00014.0531.0264.0796.0265.0265.0266.0796.0532.0796.0265 0 .0794.00014.10593-.0264.0265-.0265.0264-.0529.0264-.10593 0-.0265.00014-.0531-.0264-.0796-.0265-.0265-.0531-.0796-.0796-.0796z"/>
  </g>
  <path transform="matrix(.26458 0 0 .26458 100.08 129.31)" d="m28.871 28.553c-.2539.02349-.53602.1737-.76172.32422-.30085.20069-.60156.50111-.60156.90234 0 .30085.10009.70298.30078 1.0039.20069.30085.50306.40164.9043.50195.50154 0 .9029-.000479 1.1035-.20117.30085-.20069.5-.50111.5-.90234 0-.30085-.10009-.70298-.30078-1.0039-.20069-.30085-.50111-.50125-.90234-.60156-.07521-.02504-.15756-.03127-.24219-.02344z"/>
  <g stroke-width=".26458">
   <path d="m109.07 135.9c-.0265 0-.053.006-.0796.0196-.0531.0265-.0801.10609-.0801.15917.0265.0531.0266.13295.0532.18603.0266.0531.10608.0531.15916.0796.0531.0265.13314-.0266.15968-.0532.0531-.0265.0796-.0795.0796-.15917 0-.0531-.0266-.10608-.0532-.15916-.0265-.0531-.0795-.0532-.15916-.0532-.0266-.0132-.053-.0196-.0796-.0196z"/>
   <path d="m109.68 136.8c-.0265.0265 0 .0794 0 .10594 0 .0265-.0535.0799-.0269.10645.0265.0265.0799 0 .10646 0h.0796c.0265-.0265.0532-.0265.0532-.0796v-.10645c-.0265-.0265-.0799-.0264-.10646-.0264z"/>
   <path d="m104.24 137.82c-.0398-.002-.0796.0179-.11937.0377-.0531.0531-.13281.0792-.13281.13229 0 .0531.0531.13295.0796.18603.0531.0531.0795.10627.15917.13281.0531.0265.15931-.00037.21239-.0269.0531-.0531.0799-.13244.10645-.18552 0-.0796-.00012-.15931-.0532-.21239-.0531-.0531-.13277-.0266-.21239-.0532-.0133-.007-.0265-.01-.0398-.0109z"/>
  </g>
  <path d="m108.98 137.34c-.0233-.001-.0464.00058-.0697.007-.093.0265-.0462.10608-.0462.15917 0 .0531-.00024.0797.0462.1328.0464.0265.0935.0796.18642.0796v-.00053c.093 0 .18578.00014.27874-.0264.093-.0265.18553-.0797.18553-.13281 0-.0531-.0457-.13262-.0923-.15916-.0464-.0531-.18578-.0264-.27874-.0264-.0697 0-.14028-.0299-.20996-.0336z" stroke-width=".35014"/>
  <g stroke-width=".26458">
   <path d="m104 138.34c-.0398-.002-.0796.0173-.11937.0372-.0531.0265-.0532.0794-.0532.10594 0 .0531.00038.0799.0269.10645 0 0-.00015.0261.0263.0527l-.0532.0269s.0266-.00014.0532.0264h.0264l.0155.031c.001-.002.004-.004.0109-.004h.0532c.0531 0 .0797-.0266.13281-.0532.0531-.0265.0796-.0534.0796-.10645 0-.0531.0265-.10609 0-.15917-.0265-.0531-.10608-.0532-.15916-.0532-.0133-.007-.0265-.01-.0398-.0103z"/>
   <path d="m103.15 137.24c-.003.008.0108.0217.0108.0217z"/>
   <path d="m109.36 138.07c-.0531 0-.10608.0266-.15916.0532-.0531.0266-.0531.0792-.0796.13229 0 .0531.0261.10627.0527.13281.0265.0531.0534.10646.10646.10646.0531 0 .13262-.0266.15916-.0532.0531-.0265.0794-.0797.10594-.13281 0-.0531.00014-.13262-.0264-.15916-.0531-.0531-.10608-.0531-.15916-.0796z"/>
  </g>
  <path transform="matrix(.26458 0 0 .26458 100.08 129.31)" d="m23.998 35.297c-.10016 0-.20062.10064-.30078.20117-.10016.10016-.10156.10064-.10156.20117 0 .10016-.20014.20062-.09961.30078.10016.20069.19985.09961.40039.09961.10016 0 .30078.20014.30078.09961.10016-.10016.20117-.20062.20117-.30078 0-.10016-.20117-.20062-.20117-.30078-.10016-.10016-.09868-.20062-.19922-.30078z"/>
  <path d="m102.34 137.33c-.0116.001-.0218.005-.0284.0114l-.0264.0532h-.0269c-.0265.0265-.0527.0794-.0527.10593.0265.0531.0794.10627.10594.13281.0265.0531.0534.0796.10645.0796.0531 0 .10575-.0266.13229-.0532.0531-.0265.0801-.0794.0801-.10594 0-.0531-.00013-.10627-.0532-.13281-.0265-.0531-.0797-.0531-.1328-.0796-.0199 0-.0695-.0151-.10439-.0114z" stroke-width=".26458"/>
  <path d="m107.88 137.37c-.10575 0-.21494.0297-.29456.0894-.10616.0796-.13262.23885-.15916.37155-.0265.1327-2e-5.2654.0796.37156.0265.0266.0266.0532.0532.0532-.0265.0531-.0531.10609-.0796.15917-.0265.10616.0265.21235.0796.29197.0796.10616.15894.15931.2651.21239.10616.0265.21234-.0797.29197-.13281.0796-.0531.15949-.13259.18603-.23875 0-.1327-.00012-.21202-.0532-.2651.10616-.0796.13262-.21249.15916-.34519.0265-.1327.0264-.29227-.0532-.39843-.0265-.0265-.10575-.0261-.13229-.0527-.0531-.0531-.1064-.0796-.18603-.0796-.0265 0-.0266-.0269-.0532-.0269-.0332-.007-.0681-.01-.10335-.01z" stroke-width=".26458"/>
  <path transform="matrix(.26458 0 0 .26458 100.08 129.31)" d="m33.928 39.01c-.20069 0-.40164.20062-.50195.30078-.20069.10016-.19922.19985-.19922.40039 0 .20069-.2021.40094-.10156.60156.10016.20069.4029.20117.60352.20117.10016.10016.29931.000548.5-.09961.20069-.10016.30078-.30126.30078-.50195s.000548-.40094-.09961-.60156c-.10016-.20069-.30126-.30078-.50195-.30078z"/>
  <path transform="matrix(.26458 0 0 .26458 100.08 129.31)" d="m19.717 40.973c-.02038.0047-.0332.01793-.0332.04297-.10016.10016-.19922.20062-.19922.30078 0 .10016.09961.30001.09961.40039.10016.10016.19981.09961.40039.09961.10016 0 .30196.10016.40234 0 .10016-.10016 0-.30001 0-.40039 0-.10016.10016-.20062 0-.30078-.30085-.10016-.30196-.09961-.40234-.09961-.07512 0-.20644-.05705-.26758-.04297z"/>
 </g>
</svg>
