<?xml version="1.0" encoding="UTF-8" standalone="no"?>
<!-- Created with Inkscape (http://www.inkscape.org/) -->

<svg
   xmlns:dc="http://purl.org/dc/elements/1.1/"
   xmlns:cc="http://creativecommons.org/ns#"
   xmlns:rdf="http://www.w3.org/1999/02/22-rdf-syntax-ns#"
   xmlns:svg="http://www.w3.org/2000/svg"
   xmlns="http://www.w3.org/2000/svg"
   xmlns:xlink="http://www.w3.org/1999/xlink"
   xmlns:sodipodi="http://sodipodi.sourceforge.net/DTD/sodipodi-0.dtd"
   xmlns:inkscape="http://www.inkscape.org/namespaces/inkscape"
   width="74.11956mm"
   height="39.973438mm"
   viewBox="0 0 74.11956 39.973438"
   version="1.1"
   id="svg6565"
   inkscape:version="0.92.3 (2405546, 2018-03-11)"
   sodipodi:docname="controller.svg">
  <defs
     id="defs6559">
    <linearGradient
       inkscape:collect="always"
       id="linearGradient9517">
      <stop
         style="stop-color:#272727;stop-opacity:1;"
         offset="0"
         id="stop9513" />
      <stop
         style="stop-color:#4b4b4b;stop-opacity:1"
         offset="1"
         id="stop9515" />
    </linearGradient>
    <linearGradient
       inkscape:collect="always"
       xlink:href="#linearGradient9517"
       id="linearGradient9519"
       x1="99.016174"
       y1="86.683067"
       x2="81.836464"
       y2="57.497238"
       gradientUnits="userSpaceOnUse" />
  </defs>
  <sodipodi:namedview
     id="base"
     pagecolor="#ffffff"
     bordercolor="#666666"
     borderopacity="1.0"
     inkscape:pageopacity="0.0"
     inkscape:pageshadow="2"
     inkscape:zoom="2.8284271"
     inkscape:cx="190.39739"
     inkscape:cy="141.98759"
     inkscape:document-units="mm"
     inkscape:current-layer="layer1"
     showgrid="false"
     showguides="false"
     inkscape:window-width="2558"
     inkscape:window-height="1418"
     inkscape:window-x="1600"
     inkscape:window-y="20"
     inkscape:window-maximized="1"
     fit-margin-top="0"
     fit-margin-left="0"
     fit-margin-right="0"
     fit-margin-bottom="0" />
  <metadata
     id="metadata6562">
    <rdf:RDF>
      <cc:Work
         rdf:about="">
        <dc:format>image/svg+xml</dc:format>
        <dc:type
           rdf:resource="http://purl.org/dc/dcmitype/StillImage" />
        <dc:title></dc:title>
      </cc:Work>
    </rdf:RDF>
  </metadata>
  <g
     inkscape:label="Layer 1"
     inkscape:groupmode="layer"
     id="layer1"
     transform="translate(-53.83426,-55.751661)">
    <path
       sodipodi:nodetypes="cssccsscc"
       inkscape:connector-curvature="0"
       id="path7112"
       d="m 102.82152,84.955355 c 8.40472,0 17.18991,14.837333 23.6579,9.470367 2.93113,-2.432176 0.57696,-16.026958 -2.43391,-22.270137 -4.95492,-10.27424 -8.17527,-16.271632 -19.5819,-16.271632 H 77.258333 c -11.406631,0 -14.560834,5.997392 -19.515754,16.271632 -3.010876,6.243179 -5.365054,19.837961 -2.433917,22.270137 6.467997,5.366966 15.253185,-9.470367 23.657904,-9.470367 z"
       style="fill:url(#linearGradient9519);fill-opacity:1;fill-rule:evenodd;stroke:#000000;stroke-width:0.26458333;stroke-linecap:butt;stroke-linejoin:miter;stroke-miterlimit:4;stroke-dasharray:none;stroke-opacity:1" />
    <g
       id="g9527"
       style="stroke:#ffff00;stroke-opacity:1">
      <path
         style="opacity:1;fill:#151515;fill-opacity:1;stroke:#ffff00;stroke-width:0.26458333;stroke-linecap:round;stroke-linejoin:miter;stroke-miterlimit:4;stroke-dasharray:none;stroke-opacity:1;paint-order:normal"
         d="M 83.544426,83.457072 H 97.765782 V 89.67478 H 83.544426 Z"
         id="rect7389"
         inkscape:connector-curvature="0" />
      <path
         id="circle7116"
         d="m 95.204033,76.890182 a 4.3099904,4.3099904 0 0 1 -4.30999,4.309991 4.3099904,4.3099904 0 0 1 -4.30999,-4.309991 4.3099904,4.3099904 0 0 1 4.30999,-4.30999 4.3099904,4.3099904 0 0 1 4.30999,4.30999 z"
         style="opacity:1;fill:#151515;fill-opacity:1;stroke:#ffff00;stroke-width:0.26458333;stroke-linecap:round;stroke-linejoin:miter;stroke-miterlimit:4;stroke-dasharray:none;stroke-opacity:1;paint-order:normal" />
      <path
         id="circle7133"
         d="m 111.09251,75.448853 a 3.6327159,3.6327159 0 0 1 -3.63272,3.632715 3.6327159,3.6327159 0 0 1 -3.63271,-3.632715 3.6327159,3.6327159 0 0 1 3.63271,-3.632716 3.6327159,3.6327159 0 0 1 3.63272,3.632716 z"
         style="opacity:1;fill:#151515;fill-opacity:1;stroke:#ffff00;stroke-width:0.28151664;stroke-linecap:round;stroke-linejoin:miter;stroke-miterlimit:4;stroke-dasharray:none;stroke-opacity:1;paint-order:normal"
         inkscape:connector-curvature="0" />
      <path
         style="opacity:1;fill:#151515;fill-opacity:1;stroke:#ffff00;stroke-width:0.26458333;stroke-linecap:round;stroke-linejoin:miter;stroke-miterlimit:4;stroke-dasharray:none;stroke-opacity:1;paint-order:normal"
         d="m 102.51055,83.457072 h 10.9473 v 6.217704 h -10.9473 z"
         id="rect7391"
         inkscape:connector-curvature="0" />
      <path
         inkscape:connector-curvature="0"
         id="path7418"
         d="m 90.831045,81.225729 v 2.209984"
         style="fill:#424242;fill-rule:evenodd;stroke:#ffff00;stroke-width:0.26458333;stroke-linecap:butt;stroke-linejoin:miter;stroke-opacity:1;stroke-miterlimit:4;stroke-dasharray:none;fill-opacity:1" />
      <path
         inkscape:connector-curvature="0"
         id="path7420"
         d="m 107.42892,79.064376 v 4.324527"
         style="fill:#424242;fill-opacity:1;fill-rule:evenodd;stroke:#ffff00;stroke-width:0.26458332;stroke-linecap:butt;stroke-linejoin:miter;stroke-miterlimit:4;stroke-dasharray:none;stroke-opacity:1"
         sodipodi:nodetypes="cc" />
    </g>
    <g
       id="text7383"
       style="font-style:normal;font-variant:normal;font-weight:normal;font-stretch:normal;font-size:5.29166651px;line-height:125%;font-family:Roboto;-inkscape-font-specification:Roboto;text-align:center;letter-spacing:0px;word-spacing:0px;text-anchor:middle;fill:#f6f6f6;fill-opacity:1;stroke:none;stroke-width:0.5291667;stroke-linecap:butt;stroke-linejoin:miter;stroke-miterlimit:4;stroke-dasharray:none;stroke-opacity:1"
       aria-label="Start"
       transform="matrix(0.89109805,0,0,0.89109805,1.9152767,10.250707)">
      <path
         inkscape:connector-curvature="0"
         id="path9479"
         style="fill:#f6f6f6;fill-opacity:1;stroke-width:0.5291667;stroke-miterlimit:4;stroke-dasharray:none"
         d="M 95.417084,85.662188 Q 94.77888,85.478737 94.486908,85.212603 94.19752,84.943886 94.19752,84.551145 q 0,-0.444417 0.353984,-0.733805 0.356567,-0.291972 0.925008,-0.291972 0.387573,0 0.68988,0.149862 0.304891,0.149861 0.470256,0.413411 0.167948,0.26355 0.167948,0.576192 h -0.498678 q 0,-0.341064 -0.217041,-0.534851 -0.217041,-0.19637 -0.612365,-0.19637 -0.366903,0 -0.573609,0.16278 -0.204122,0.160197 -0.204122,0.447002 0,0.22996 0.193787,0.390157 0.196371,0.157613 0.664042,0.289388 0.470256,0.131774 0.733806,0.291971 0.266133,0.157614 0.39274,0.369487 0.129191,0.211873 0.129191,0.498677 0,0.457337 -0.356567,0.733806 -0.356567,0.273885 -0.95343,0.273885 -0.387573,0 -0.72347,-0.147278 -0.335897,-0.149862 -0.519348,-0.408244 -0.180868,-0.258382 -0.180868,-0.586527 h 0.498678 q 0,0.341064 0.250631,0.540018 0.253214,0.196371 0.674377,0.196371 0.392741,0 0.60203,-0.160197 0.20929,-0.160197 0.20929,-0.436666 0,-0.276469 -0.193787,-0.42633 -0.193786,-0.152446 -0.702799,-0.299724 z" />
      <path
         inkscape:connector-curvature="0"
         id="path9481"
         style="fill:#f6f6f6;fill-opacity:1;stroke-width:0.5291667;stroke-miterlimit:4;stroke-dasharray:none"
         d="m 98.02416,83.866432 v 0.676962 h 0.521932 V 84.91288 H 98.02416 v 1.733744 q 0,0.167949 0.06976,0.253215 0.06976,0.08268 0.237712,0.08268 0.08268,0 0.227376,-0.03101 v 0.387573 q -0.188619,0.05168 -0.366903,0.05168 -0.320394,0 -0.483174,-0.193787 Q 97.54615,87.003189 97.54615,86.646621 V 84.91288 h -0.50901 v -0.369486 h 0.509013 v -0.676962 z" />
      <path
         inkscape:connector-curvature="0"
         id="path9483"
         style="fill:#f6f6f6;fill-opacity:1;stroke-width:0.5291667;stroke-miterlimit:4;stroke-dasharray:none"
         d="m 100.82761,87.339088 q -0.0413,-0.08268 -0.0672,-0.294555 -0.33332,0.346232 -0.79582,0.346232 -0.413412,0 -0.679545,-0.232544 -0.26355,-0.235128 -0.26355,-0.594279 0,-0.436666 0.330729,-0.676961 0.333313,-0.242879 0.935346,-0.242879 h 0.46509 v -0.219625 q 0,-0.250631 -0.14987,-0.397909 -0.14986,-0.149861 -0.44183,-0.149861 -0.255798,0 -0.428914,0.129191 -0.173116,0.129191 -0.173116,0.312642 h -0.480591 q 0,-0.20929 0.147278,-0.403076 0.149862,-0.196371 0.403076,-0.310059 0.255798,-0.113688 0.560687,-0.113688 0.48318,0 0.75706,0.242879 0.27389,0.240296 0.28422,0.664042 v 1.286744 q 0,0.384989 0.0982,0.612365 v 0.04134 z m -0.79324,-0.364318 q 0.2248,0 0.42633,-0.116272 0.20154,-0.116272 0.29198,-0.302307 v -0.573609 h -0.37466 q -0.878498,0 -0.878498,0.514181 0,0.224792 0.149862,0.351399 0.149861,0.126608 0.384986,0.126608 z" />
      <path
         inkscape:connector-curvature="0"
         id="path9485"
         style="fill:#f6f6f6;fill-opacity:1;stroke-width:0.5291667;stroke-miterlimit:4;stroke-dasharray:none"
         d="m 103.3365,84.972308 q -0.10852,-0.01809 -0.23513,-0.01809 -0.47026,0 -0.6382,0.400492 v 1.984375 h -0.47801 v -2.795694 h 0.46509 l 0.008,0.322977 q 0.23513,-0.374654 0.66662,-0.374654 0.13953,0 0.21188,0.03617 z" />
      <path
         inkscape:connector-curvature="0"
         id="path9487"
         style="fill:#f6f6f6;fill-opacity:1;stroke-width:0.5291667;stroke-miterlimit:4;stroke-dasharray:none"
         d="m 104.55606,83.866432 v 0.676962 h 0.52193 v 0.369486 h -0.52193 v 1.733744 q 0,0.167949 0.0698,0.253215 0.0698,0.08268 0.23772,0.08268 0.0827,0 0.22737,-0.03101 v 0.387573 q -0.18862,0.05168 -0.3669,0.05168 -0.32039,0 -0.48318,-0.193787 -0.16278,-0.193786 -0.16278,-0.550354 V 84.91288 h -0.50901 v -0.369486 h 0.50901 v -0.676962 z" />
    </g>
    <circle
       style="opacity:1;fill:#424242;fill-opacity:1;stroke:#d7d7d7;stroke-width:0.26458333;stroke-linecap:round;stroke-linejoin:miter;stroke-miterlimit:4;stroke-dasharray:none;stroke-opacity:1;paint-order:normal"
       id="path7114"
       cx="75.444252"
       cy="68.377647"
       r="8.4657621" />
    <circle
       r="3.6327159"
       cy="63.64505"
       cx="107.45979"
       id="circle7116-7"
       style="opacity:1;fill:#424242;fill-opacity:1;stroke:#d7d7d7;stroke-width:0.28151664;stroke-linecap:round;stroke-linejoin:miter;stroke-miterlimit:4;stroke-dasharray:none;stroke-opacity:1;paint-order:normal" />
    <circle
       style="opacity:1;fill:#424242;fill-opacity:1;stroke:#d7d7d7;stroke-width:0.28151664;stroke-linecap:round;stroke-linejoin:miter;stroke-miterlimit:4;stroke-dasharray:none;stroke-opacity:1;paint-order:normal"
       id="circle7157"
       cx="69.546951"
       cy="-113.3617"
       r="3.6327159"
       transform="rotate(90)" />
    <circle
       r="3.6327159"
       cy="-101.55789"
       cx="69.546951"
       id="circle7159"
       style="opacity:1;fill:#424242;fill-opacity:1;stroke:#d7d7d7;stroke-width:0.28151664;stroke-linecap:round;stroke-linejoin:miter;stroke-miterlimit:4;stroke-dasharray:none;stroke-opacity:1;paint-order:normal"
       transform="rotate(90)" />
    <g
       id="g7292"
       style="fill:#fdfdfd;fill-opacity:1">
      <path
         sodipodi:nodetypes="cccc"
         inkscape:connector-curvature="0"
         id="rect7181"
         d="m 73.713745,63.528893 1.730508,-1.730507 1.730507,1.730507 z"
         style="opacity:1;fill:#fdfdfd;fill-opacity:1;stroke:none;stroke-width:0.26458332;stroke-linecap:round;stroke-linejoin:miter;stroke-miterlimit:4;stroke-dasharray:none;stroke-opacity:1;paint-order:normal" />
      <path
         style="opacity:1;fill:#fdfdfd;fill-opacity:1;stroke:none;stroke-width:0.26458332;stroke-linecap:round;stroke-linejoin:miter;stroke-miterlimit:4;stroke-dasharray:none;stroke-opacity:1;paint-order:normal"
         d="m 73.713745,73.226402 1.730508,1.730507 1.730507,-1.730507 z"
         id="path7206"
         inkscape:connector-curvature="0"
         sodipodi:nodetypes="cccc" />
      <path
         style="opacity:1;fill:#fdfdfd;fill-opacity:1;stroke:none;stroke-width:0.26458332;stroke-linecap:round;stroke-linejoin:miter;stroke-miterlimit:4;stroke-dasharray:none;stroke-opacity:1;paint-order:normal"
         d="m 80.293007,66.64714 1.730507,1.730508 -1.730507,1.730507 z"
         id="path7212"
         inkscape:connector-curvature="0"
         sodipodi:nodetypes="cccc" />
      <path
         sodipodi:nodetypes="cccc"
         inkscape:connector-curvature="0"
         id="path7214"
         d="m 70.595498,66.64714 -1.730507,1.730508 1.730507,1.730507 z"
         style="opacity:1;fill:#fdfdfd;fill-opacity:1;stroke:none;stroke-width:0.26458332;stroke-linecap:round;stroke-linejoin:miter;stroke-miterlimit:4;stroke-dasharray:none;stroke-opacity:1;paint-order:normal" />
      <path
         style="opacity:1;fill:#fdfdfd;fill-opacity:1;stroke:none;stroke-width:0.26458332;stroke-linecap:round;stroke-linejoin:miter;stroke-miterlimit:4;stroke-dasharray:none;stroke-opacity:1;paint-order:normal"
         d="m 89.285513,75.159675 3.811868,1.730508 -3.811868,1.730507 z"
         id="path7212-1"
         inkscape:connector-curvature="0"
         sodipodi:nodetypes="cccc" />
    </g>
    <g
       id="g7365"
       style="fill:#ffffff;fill-opacity:1">
      <g
         id="text7239"
         style="font-style:normal;font-variant:normal;font-weight:normal;font-stretch:normal;font-size:6.03736019px;line-height:125%;font-family:Roboto;-inkscape-font-specification:Roboto;text-align:center;letter-spacing:0px;word-spacing:0px;text-anchor:middle;fill:#ffffff;fill-opacity:1;stroke:none;stroke-width:0.30186799px;stroke-linecap:butt;stroke-linejoin:miter;stroke-opacity:1"
         aria-label="A">
        <path
           id="path7354"
           style="stroke-width:0.30186799px;fill:#ffffff;fill-opacity:1"
           d="m 108.35743,76.292827 h -1.79824 l -0.40386,1.120213 h -0.58369 l 1.63905,-4.292186 h 0.49525 l 1.642,4.292186 h -0.58075 z m -1.62726,-0.465773 h 1.45923 l -0.73109,-2.00754 z" />
      </g>
      <g
         id="text7243"
         style="font-style:normal;font-variant:normal;font-weight:normal;font-stretch:normal;font-size:6.03736019px;line-height:125%;font-family:Roboto;-inkscape-font-specification:Roboto;text-align:center;letter-spacing:0px;word-spacing:0px;text-anchor:middle;fill:#ffffff;fill-opacity:1;stroke:none;stroke-width:0.30186799px;stroke-linecap:butt;stroke-linejoin:miter;stroke-opacity:1"
         aria-label="B">
        <path
           id="path7351"
           style="stroke-width:0.30186799px;fill:#ffffff;fill-opacity:1"
           d="m 112.0829,71.693039 v -4.292186 h 1.40321 q 0.69866,0 1.04947,0.288897 0.35375,0.288897 0.35375,0.8549 0,0.300689 -0.17098,0.533575 -0.17098,0.229939 -0.46578,0.3567 0.34786,0.09728 0.54832,0.371439 0.20341,0.271209 0.20341,0.648544 0,0.577795 -0.37439,0.907963 -0.37439,0.330168 -1.05831,0.330168 z m 0.566,-2.00754 v 1.544715 h 0.93449 q 0.39503,0 0.62202,-0.203407 0.22994,-0.206355 0.22994,-0.566003 0,-0.775305 -0.84311,-0.775305 z m 0,-0.453981 h 0.8549 q 0.37144,0 0.59253,-0.18572 0.22405,-0.18572 0.22405,-0.504096 0,-0.353752 -0.20636,-0.51294 -0.20635,-0.162136 -0.62791,-0.162136 h -0.83721 z" />
      </g>
      <g
         id="text7247"
         style="font-style:normal;font-variant:normal;font-weight:normal;font-stretch:normal;font-size:6.03736019px;line-height:125%;font-family:Roboto;-inkscape-font-specification:Roboto;text-align:center;letter-spacing:0px;word-spacing:0px;text-anchor:middle;fill:#ffffff;fill-opacity:1;stroke:none;stroke-width:0.30186799px;stroke-linecap:butt;stroke-linejoin:miter;stroke-opacity:1"
         aria-label="Y">
        <path
           id="path7348"
           style="stroke-width:0.30186799px;fill:#ffffff;fill-opacity:1"
           d="M 107.45978,63.769649 108.58,61.614713 h 0.64265 l -1.47986,2.69146 v 1.600725 h -0.56601 v -1.600725 l -1.47986,-2.69146 h 0.64855 z" />
      </g>
      <g
         id="text7251"
         style="font-style:normal;font-variant:normal;font-weight:normal;font-stretch:normal;font-size:6.03736019px;line-height:125%;font-family:Roboto;-inkscape-font-specification:Roboto;text-align:center;letter-spacing:0px;word-spacing:0px;text-anchor:middle;fill:#ffffff;fill-opacity:1;stroke:none;stroke-width:0.30186799px;stroke-linecap:butt;stroke-linejoin:miter;stroke-opacity:1"
         aria-label="X">
        <path
           id="path7345"
           style="stroke-width:0.30186799px;fill:#ffffff;fill-opacity:1"
           d="m 101.55936,69.045798 1.02883,-1.644945 h 0.66623 l -1.35605,2.128405 1.38848,2.163781 h -0.67213 l -1.05536,-1.674424 -1.06125,1.674424 h -0.669182 l 1.391422,-2.163781 -1.358995,-2.128405 h 0.663285 z" />
      </g>
    </g>
    <g
       id="text7387"
       style="font-style:normal;font-variant:normal;font-weight:normal;font-stretch:normal;font-size:5.29166651px;line-height:125%;font-family:Roboto;-inkscape-font-specification:Roboto;text-align:center;letter-spacing:0px;word-spacing:0px;text-anchor:middle;fill:#f6f6f6;fill-opacity:1;stroke:none;stroke-width:0.5291667;stroke-linecap:butt;stroke-linejoin:miter;stroke-miterlimit:4;stroke-dasharray:none;stroke-opacity:1"
       aria-label="Fire"
       transform="matrix(0.89109805,0,0,0.89109805,3.8024606,10.250705)">
      <path
         inkscape:connector-curvature="0"
         id="path9491"
         style="fill:#f6f6f6;fill-opacity:1;stroke-width:0.5291667;stroke-miterlimit:4;stroke-dasharray:none"
         d="m 114.90367,85.677691 h -1.57871 v 1.661397 h -0.49609 v -3.762044 h 2.3306 v 0.408244 h -1.83451 v 1.286743 h 1.57871 z" />
      <path
         inkscape:connector-curvature="0"
         id="path9493"
         style="fill:#f6f6f6;fill-opacity:1;stroke-width:0.5291667;stroke-miterlimit:4;stroke-dasharray:none"
         d="m 116.19817,87.339088 h -0.47801 v -2.795694 h 0.47801 z m -0.51677,-3.537251 q 0,-0.116272 0.0698,-0.196371 0.0723,-0.0801 0.21187,-0.0801 0.13953,0 0.21187,0.0801 0.0724,0.0801 0.0724,0.196371 0,0.116272 -0.0724,0.193786 -0.0723,0.07752 -0.21187,0.07752 -0.13953,0 -0.21187,-0.07752 -0.0698,-0.07751 -0.0698,-0.193786 z" />
      <path
         inkscape:connector-curvature="0"
         id="path9495"
         style="fill:#f6f6f6;fill-opacity:1;stroke-width:0.5291667;stroke-miterlimit:4;stroke-dasharray:none"
         d="m 118.31173,84.972308 q -0.10852,-0.01809 -0.23512,-0.01809 -0.47026,0 -0.63821,0.400492 v 1.984375 h -0.478 v -2.795694 h 0.46508 l 0.008,0.322977 q 0.23512,-0.374654 0.66662,-0.374654 0.13953,0 0.21187,0.03617 z" />
      <path
         inkscape:connector-curvature="0"
         id="path9497"
         style="fill:#f6f6f6;fill-opacity:1;stroke-width:0.5291667;stroke-miterlimit:4;stroke-dasharray:none"
         d="m 119.90854,87.390765 q -0.56844,0 -0.92501,-0.37207 -0.35657,-0.374655 -0.35657,-0.999939 v -0.08785 q 0,-0.415996 0.15761,-0.741557 0.1602,-0.328145 0.44442,-0.511597 0.28681,-0.186035 0.62012,-0.186035 0.54518,0 0.84749,0.359151 0.30231,0.359151 0.30231,1.028361 v 0.198955 h -1.89394 q 0.0103,0.413411 0.24029,0.669209 0.23255,0.253215 0.58911,0.253215 0.25322,0 0.42892,-0.103353 0.1757,-0.103353 0.30747,-0.273885 l 0.29198,0.227376 q -0.3514,0.540019 -1.0542,0.540019 z m -0.0594,-2.506307 q -0.28939,0 -0.48576,0.211873 -0.19637,0.20929 -0.24288,0.589112 h 1.40043 v -0.03617 q -0.0207,-0.364319 -0.19637,-0.563273 -0.1757,-0.201538 -0.47542,-0.201538 z" />
    </g>
  </g>
</svg>
