<?xml version="1.0" encoding="UTF-8"?>
<svg enable-background="new 0 0 251.9 289.4" version="1.1" viewBox="0 0 251.9 289.4" xmlns="http://www.w3.org/2000/svg" xmlns:xlink="http://www.w3.org/1999/xlink">
 <defs>
  <linearGradient id="l">
   <stop stop-opacity=".342" offset="0"/>
   <stop stop-opacity=".767" offset=".574"/>
   <stop stop-opacity=".653" offset=".784"/>
   <stop stop-opacity=".339" offset="1"/>
  </linearGradient>
  <linearGradient id="k">
   <stop offset="0"/>
   <stop stop-opacity="0" offset="1"/>
  </linearGradient>
  <radialGradient id="SVGID_1_" cx="124.24" cy="245.24" r="8.839" gradientTransform="rotate(180 125.06 149.23)" gradientUnits="userSpaceOnUse">
   <stop stop-color="#A0A0A0" offset="0"/>
   <stop stop-color="#323232" offset="1"/>
  </radialGradient>
  <filter id="p" x="-.024" y="-.024" width="1.048" height="1.048" color-interpolation-filters="sRGB">
   <feGaussianBlur stdDeviation=".818"/>
  </filter>
  <linearGradient id="b" x1="-39.905" x2="-1.598" y1="-73.59" y2="-53.311" gradientTransform="translate(.07 -.212)" gradientUnits="userSpaceOnUse" xlink:href="#k"/>
  <radialGradient id="a" cx="199.6" cy="52.2" r="41.262" gradientUnits="userSpaceOnUse" xlink:href="#l"/>
  <filter id="f" x="-.357" y="-.358" width="1.715" height="1.716" color-interpolation-filters="sRGB">
   <feGaussianBlur stdDeviation="8.509"/>
  </filter>
  <filter id="t" x="-.099" y="-.073" width="1.198" height="1.146" color-interpolation-filters="sRGB">
   <feGaussianBlur stdDeviation="2.359"/>
  </filter>
  <filter id="e" x="-.357" y="-.358" width="1.715" height="1.716" color-interpolation-filters="sRGB">
   <feGaussianBlur stdDeviation="8.509"/>
  </filter>
  <filter id="o" x="-.024" y="-.024" width="1.048" height="1.048" color-interpolation-filters="sRGB">
   <feGaussianBlur stdDeviation=".818"/>
  </filter>
  <filter id="s" x="-.099" y="-.073" width="1.198" height="1.146" color-interpolation-filters="sRGB">
   <feGaussianBlur stdDeviation="2.359"/>
  </filter>
  <filter id="d" x="-.357" y="-.358" width="1.715" height="1.716" color-interpolation-filters="sRGB">
   <feGaussianBlur stdDeviation="8.509"/>
  </filter>
  <filter id="n" x="-.024" y="-.024" width="1.048" height="1.048" color-interpolation-filters="sRGB">
   <feGaussianBlur stdDeviation=".818"/>
  </filter>
  <filter id="r" x="-.099" y="-.073" width="1.198" height="1.146" color-interpolation-filters="sRGB">
   <feGaussianBlur stdDeviation="2.359"/>
  </filter>
  <filter id="c" x="-.357" y="-.358" width="1.715" height="1.716" color-interpolation-filters="sRGB">
   <feGaussianBlur stdDeviation="8.509"/>
  </filter>
  <filter id="m" x="-.024" y="-.024" width="1.048" height="1.048" color-interpolation-filters="sRGB">
   <feGaussianBlur stdDeviation=".818"/>
  </filter>
  <filter id="q" x="-.099" y="-.073" width="1.198" height="1.146" color-interpolation-filters="sRGB">
   <feGaussianBlur stdDeviation="2.359"/>
  </filter>
 </defs>
 <style>.st0{fill:#232323}.st1{fill:#fff200}.st4{fill:#6e6e6e}.st5{fill:#444}.st7{fill:none;stroke:#000;stroke-width:.3969;stroke-miterlimit:10}.st8{fill:#fff}.st11,.st9{fill:none;stroke:#000;stroke-width:1.873;stroke-miterlimit:10}.st11{stroke-linecap:round;stroke-linejoin:round}</style>
 <g id="drone">
  <path class="st0" d="m112.8 230s-16.2 1.8-19.4 13 13.7 45.2 13.7 45.2-26.2-34.1-17.6-47.6 26-23.4 26-23.4-4.2 9.8-2.7 12.8" fill="#232323"/>
  <path class="st1" d="m113.5 233.3s-14.3 2.5-17.3 9.3c-3 6.7 3.4 34.3 10.9 45.7-7-11.4-20.2-36-13.6-47.3s19.3-11 19.3-11l.7 3.3" fill="#fff200"/>
  <path d="m124.1 212.9s-49.9 20.6-33.1 48.8 16.1 26.6 16.1 26.6-16.8-37.9-10.6-46.2 22.8-9.2 22.8-9.2l4.8-20" fill="none" stroke="#000" stroke-linecap="round" stroke-linejoin="round" stroke-miterlimit="10" stroke-width="2.286"/>
  <path class="st0" d="m139.2 230s16.2 1.8 19.4 13-13.7 45.2-13.7 45.2 26.2-34.1 17.6-47.6-26-23.4-26-23.4 4.2 9.8 2.7 12.8" fill="#232323"/>
  <path class="st1" d="m138.5 233.3s14.3 2.5 17.3 9.3c3 6.7-3.4 34.3-10.9 45.7 7-11.4 20.2-36 13.6-47.3-6.5-11.3-19.3-11-19.3-11l-.7 3.3" fill="#fff200"/>
  <path d="m127.8 212.9s49.9 20.6 33.1 48.8-16.1 26.6-16.1 26.6 16.8-37.9 10.6-46.2c-6.1-8.3-23.4-9.8-23.4-9.8l-4.2-19.4" fill="none" stroke="#000" stroke-linecap="round" stroke-linejoin="round" stroke-miterlimit="10" stroke-width="1.828"/>
  <g fill="#6e6e6e">
   <path class="st4" d="m168 83.4c.7-1.9 1.8-3.5 2.9-5 .6-.7 1.2-1.5 1.8-2.1.6-.7 1.3-1.3 2.1-1.9 1.5-1.1 3.3-1.9 4.7-3.2 1.4-1.2 2.6-2.7 3.6-4.3.5-.8 1-1.6 1.6-2.4s1.2-1.5 1.8-2.2c1.2-1.4 2.4-2.9 3.8-4.1 1.4-1.3 2.8-2.4 4.4-3.5.8-.5 1.6-1.1 2.4-1.6s1.7-1 2.6-1.4l.3.3c-.4.9-.9 1.8-1.4 2.6s-1 1.6-1.6 2.4c-1.1 1.5-2.3 3-3.5 4.4-1.3 1.4-2.7 2.6-4.1 3.8-.7.6-1.4 1.2-2.2 1.8s-1.6 1.1-2.4 1.6c-1.6 1-3.1 2.2-4.3 3.6s-2.1 3.2-3.2 4.7c-.6.8-1.2 1.4-1.9 2.1l-2.1 1.8c-1.5 1.1-3.1 2.2-5 2.9l-.3-.3"/>
   <path class="st4" d="m83.7 83.7c-1.9-.7-3.5-1.8-5-2.9-.7-.6-1.5-1.2-2.1-1.8-.7-.6-1.3-1.3-1.9-2.1-1.1-1.5-1.9-3.3-3.2-4.7-1.2-1.4-2.7-2.6-4.3-3.6-.8-.5-1.6-1-2.4-1.6s-1.5-1.2-2.2-1.8c-1.4-1.2-2.9-2.4-4.1-3.8-1.3-1.4-2.4-2.8-3.5-4.4-.5-.8-1.1-1.6-1.6-2.4s-1-1.7-1.4-2.6l.3-.3c.9.4 1.8.9 2.6 1.4s1.6 1 2.4 1.6c1.5 1.1 3 2.3 4.4 3.5 1.4 1.3 2.6 2.7 3.8 4.1.6.7 1.2 1.4 1.8 2.2s1.1 1.6 1.6 2.4c1 1.6 2.2 3.1 3.6 4.3s3.2 2.1 4.7 3.2c.8.6 1.4 1.2 2.1 1.9l1.8 2.1c1.1 1.5 2.2 3.1 2.9 5l-.3.3"/>
   <path class="st4" d="m168.3 168.1c1.9.7 3.5 1.8 5 2.9.7.6 1.5 1.2 2.1 1.8.7.6 1.3 1.3 1.9 2.1 1.1 1.5 1.9 3.3 3.2 4.7 1.2 1.4 2.7 2.6 4.3 3.6.8.5 1.6 1 2.4 1.6s1.5 1.2 2.2 1.8c1.4 1.2 2.9 2.4 4.1 3.8 1.3 1.4 2.4 2.8 3.5 4.4.5.8 1.1 1.6 1.6 2.4s1 1.7 1.4 2.6l-.3.3c-.9-.4-1.8-.9-2.6-1.4s-1.6-1-2.4-1.6c-1.5-1.1-3-2.3-4.4-3.5-1.4-1.3-2.6-2.7-3.8-4.1-.6-.7-1.2-1.4-1.8-2.2s-1.1-1.6-1.6-2.4c-1-1.6-2.2-3.1-3.6-4.3s-3.2-2.1-4.7-3.2c-.8-.6-1.4-1.2-2.1-1.9l-1.8-2.1c-1.1-1.5-2.2-3.1-2.9-5l.3-.3"/>
   <path class="st4" d="m83.9 168.4c-.7 1.9-1.8 3.5-2.9 5-.6.7-1.2 1.5-1.8 2.1-.6.7-1.3 1.3-2.1 1.9-1.5 1.1-3.3 1.9-4.7 3.2-1.4 1.2-2.6 2.7-3.6 4.3-.5.8-1 1.6-1.6 2.4s-1.2 1.5-1.8 2.2c-1.2 1.4-2.4 2.9-3.8 4.1-1.4 1.3-2.8 2.4-4.4 3.5-.8.5-1.6 1.1-2.4 1.6s-1.7 1-2.6 1.4l-.3-.3c.4-.9.9-1.8 1.4-2.6s1-1.6 1.6-2.4c1.1-1.5 2.3-3 3.5-4.4 1.3-1.4 2.7-2.6 4.1-3.8.7-.6 1.4-1.2 2.2-1.8s1.6-1.1 2.4-1.6c1.6-1 3.1-2.2 4.3-3.6s2.1-3.2 3.2-4.7c.6-.8 1.2-1.4 1.9-2.1l2.1-1.8c1.5-1.1 3.1-2.2 5-2.9l.3.3"/>
  </g>
  <path class="st0" d="M52.2 104.2c2.3 0 4.6-.2 6.9-.5-1.1 7.1-1.7 14.5-1.7 22 0 7.8.6 15.3 1.8 22.5-2.3-.3-4.6-.5-7-.5C23.4 147.7.1 171 .1 199.8s23.3 52.1 52.1 52.1c20.5 0 38.2-11.8 46.7-29l27.1 18 27.2-18.1c8.5 17.2 26.2 29 46.7 29 28.8 0 52.1-23.3 52.1-52.1s-23.3-52.1-52.1-52.1c-2.4 0-4.7.2-7 .5 1.2-7.2 1.8-14.8 1.8-22.5 0-7.6-.6-14.9-1.7-22 2.3.3 4.6.5 6.9.5 28.8 0 52.1-23.3 52.1-52.1S228.7-.1 199.9-.1c-22.2 0-41.2 13.9-48.7 33.6-7.8-4.4-16.3-6.8-25.1-6.8s-17.3 2.4-25.1 6.8C93.4 13.9 74.4 0 52.2 0 23.4 0 .1 23.3.1 52.1s23.3 52.1 52.1 52.1M52 243c-23.7 0-42.9-19.2-42.9-42.9s19.2-42.9 42.9-42.9 42.9 19.2 42.9 42.9S75.7 243 52 243M199.6 9.2c23.7 0 42.9 19.2 42.9 42.9S223.3 95 199.6 95s-42.9-19.2-42.9-42.9 19.2-42.9 42.9-42.9m0 147.9c23.7 0 42.9 19.2 42.9 42.9s-19.2 43-42.9 43c-17.3 0-32.2-10.2-39-24.9h-.1c-2.5-5.5-3.9-11.5-3.9-17.9.1-23.8 19.3-43.1 43-43.1M52 9.2c23.7 0 43 19.2 43 42.9S75.7 95 52 95 9.1 75.8 9.1 52.1 28.3 9.2 52 9.2" fill="#232323"/>
  <path class="st5" d="M126 26.7c-8.9 0-17.3 2.4-25.1 6.8C93.4 13.9 74.4 0 52.1 0 23.4 0 0 23.3 0 52.1s23.3 52.1 52.1 52.1c2.3 0 4.6-.2 6.9-.5-1.1 7.1-1.7 14.5-1.7 22 0 7.8.6 15.3 1.8 22.5-2.3-.3-4.6-.5-7-.5-28.7.1-52.1 23.5-52.1 52.2C0 228.6 23.3 252 52.1 252c20.5 0 38.2-11.8 46.7-29l27.1 18 .1-214.3M52 243c-23.7 0-42.9-19.2-42.9-42.9s19.2-42.9 42.9-42.9 42.9 19.2 42.9 42.9S75.7 243 52 243M52 9.2c23.7 0 42.9 19.2 42.9 42.9S75.7 95 52 95 9.1 75.8 9.1 52.1 28.3 9.2 52 9.2" fill="#444"/>
  <g fill="#232323">
   <path class="st0" d="M52.1 252.2c28.8 0 52.1-23.3 52.1-52.1S80.9 148 52.1 148 0 171.3 0 200.1s23.3 52.1 52.1 52.1m0-95c23.7 0 42.9 19.2 42.9 42.9S75.8 243 52.1 243 9.2 223.8 9.2 200.1s19.2-42.9 42.9-42.9"/>
   <path class="st0" d="M52.1 104.3c28.8 0 52.1-23.3 52.1-52.1S80.9.1 52.1.1 0 23.4 0 52.2s23.3 52.1 52.1 52.1m0-95C75.8 9.3 95 28.5 95 52.2S75.8 95.1 52.1 95.1 9.2 75.9 9.2 52.2 28.4 9.3 52.1 9.3"/>
   <path class="st0" d="M199.6 104.3c28.8 0 52.1-23.3 52.1-52.1S228.4.1 199.6.1s-52.1 23.3-52.1 52.1 23.4 52.1 52.1 52.1m0-95c23.7 0 42.9 19.2 42.9 42.9s-19.2 42.9-42.9 42.9-42.9-19.2-42.9-42.9 19.2-42.9 42.9-42.9"/>
   <path class="st0" d="m199.6 252.2c28.8 0 52.1-23.3 52.1-52.1s-23.3-52.1-52.1-52.1-52.1 23.3-52.1 52.1 23.4 52.1 52.1 52.1m0-95c23.7 0 42.9 19.2 42.9 42.9s-19.2 42.9-42.9 42.9-42.9-19.2-42.9-42.9 19.2-42.9 42.9-42.9"/>
  </g>
  <path d="m125.9 241.1 24.4-32.4-24.3-182-.1 214.4" fill="#444"/>
  <path d="m126 241.1-24.5-32.4 24.5-182v214.4" fill="#232323"/>
  <path d="m179.1 131.4h10c.3 0 .6-.3.6-.6v-10c0-.3-.3-.6-.6-.6h-10c-.3 0-.6.3-.6.6v10c0 .4.3.6.6.6"/>
  <path class="st1" d="M167.7 125v1.8c0 .1 0 .1.1.1h.8c.1 0 .1 0 .1-.1V125c0-.1 0-.1-.1-.1h-.8c-.1 0-.1 0-.1.1" fill="#fff200"/>
  <path d="m178.7 125.9h-10" fill="none" stroke="#000" stroke-miterlimit="10" stroke-width=".794"/>
  <path class="st7" d="m184.1 131.4s-5.3 6.1.8 6.8c3 .3-1.7 5.8 1 8s7.3-.2 7.3-.2" fill="none" stroke="#000" stroke-miterlimit="10" stroke-width=".397"/>
  <path d="m193.6 144.7h-.9c-.1 0-.1.1-.1.1v2.5c0 .1.1.1.1.1h.9c.1 0 .1-.1.1-.1v-2.5c0-.1 0-.1-.1-.1"/>
  <path class="st1" d="m183.2 131.9h1.8c.1 0 .1 0 .1-.1v-.8c0-.1 0-.1-.1-.1h-1.8c-.1 0-.1 0-.1.1v.8c0 .1 0 .1.1.1" fill="#fff200"/>
  <path class="st7" d="m184.1 120.3s-5.3-6.1.8-6.8c3-.3-1.7-5.8 1-8s7.3.2 7.3.2" fill="none" stroke="#000" stroke-miterlimit="10" stroke-width=".397"/>
  <path d="m193.6 107.1h-.9c-.1 0-.1-.1-.1-.1v-2.5c0-.1.1-.1.1-.1h.9c.1 0 .1.1.1.1v2.5s0 .1-.1.1"/>
  <path class="st1" d="m183.2 120.8h1.8c.1 0 .1 0 .1-.1v-.8c0-.1 0-.1-.1-.1h-1.8c-.1 0-.1 0-.1.1v.8c0 .1 0 .1.1.1" fill="#fff200"/>
  <path class="st1" d="M178.1 125v1.8c0 .1 0 .1.1.1h.8c.1 0 .1 0 .1-.1V125c0-.1 0-.1-.1-.1h-.8c-.1 0-.1 0-.1.1" fill="#fff200"/>
  <path d="M73 131.4H63c-.3 0-.6-.3-.6-.6v-10c0-.3.3-.6.6-.6h10c.3 0 .6.3.6.6v10c-.1.4-.3.6-.6.6"/>
  <path class="st1" d="M84.4 125v1.8c0 .1 0 .1-.1.1h-.8c-.1 0-.1 0-.1-.1V125c0-.1 0-.1.1-.1h.8c.1 0 .1 0 .1.1" fill="#fff200"/>
  <path d="m73.3 125.9h10.1" fill="none" stroke="#000" stroke-miterlimit="10" stroke-width=".794"/>
  <path class="st7" d="m68 131.4s5.3 6.1-.8 6.8c-3 .3 1.7 5.8-1 8s-7.3-.2-7.3-.2" fill="none" stroke="#000" stroke-miterlimit="10" stroke-width=".397"/>
  <path class="st1" d="m68.9 131.9h-1.8c-.1 0-.1 0-.1-.1v-.8c0-.1 0-.1.1-.1h1.8c.1 0 .1 0 .1.1v.8c0 .1-.1.1-.1.1" fill="#fff200"/>
  <path class="st7" d="m68 120.3s5.3-6.1-.8-6.8c-3-.3 1.7-5.8-1-8s-7.3.2-7.3.2" fill="none" stroke="#000" stroke-miterlimit="10" stroke-width=".397"/>
  <path d="m58.4 107.1h.9c.1 0 .1-.1.1-.1v-2.5c0-.1-.1-.1-.1-.1h-.9c-.1 0-.1.1-.1.1v2.5l.1.1"/>
  <path class="st1" d="m68.9 120.8h-1.8c-.1 0-.1 0-.1-.1v-.8c0-.1 0-.1.1-.1h1.8c.1 0 .1 0 .1.1v.8c0 .1-.1.1-.1.1" fill="#fff200"/>
  <path class="st1" d="M74 125v1.8c0 .1 0 .1-.1.1h-.8c-.1 0-.1 0-.1-.1V125c0-.1 0-.1.1-.1h.8c.1 0 .1 0 .1.1" fill="#fff200"/>
  <path class="st0" d="m126 85.5c22.3 0 40.4 18.1 40.4 40.4s-18.1 40.4-40.4 40.4-40.4-18.1-40.4-40.4 18.2-40.4 40.4-40.4" fill="#232323"/>
  <path d="m161.9 125.9a35.9 35.9 0 11-71.8 0 35.9 35.9 0 0171.8 0" fill="#444"/>
  <path class="st8" d="m126 165.1c-21.6 0-39.2-17.5-39.2-39.2s17.5-39.2 39.2-39.2c21.6 0 39.2 17.5 39.2 39.2s-17.5 39.2-39.2 39.2m0 2.4c23 0 41.6-18.7 41.6-41.6s-18.6-41.7-41.6-41.7-41.6 18.7-41.6 41.6 18.7 41.7 41.6 41.7" fill="#fff"/>
  <g id="prop1">
   <animateTransform attributeName="transform" attributeType="XML" dur="250ms" from="360 200 52.2" repeatCount="indefinite" to="0 200 52.2" type="rotate"/>
   <g id="prop1-full" transform="matrix(-1 0 0 1 399.2 0)">
    <circle cx="199.6" cy="52.2" r="41.262" fill="url(#a)" opacity=".46" stroke-linecap="round" stroke-linejoin="round" stroke-miterlimit="10" stroke-width=".647"/>
    <g transform="matrix(.63652 0 0 .63652 72.55 18.973)" filter="url(#c)">
     <path class="st0" d="m228.05 24-27 26.6s.7 1.9 4.8-.9c6.7-5.4 21.9-21.9 22.2-25.7" fill="#232323"/>
     <path class="st5" d="m228.05 24-27 26.6s-1.9-2.1 1.7-5.4 10.8-12.1 19.8-18.6c3.2-2.5 4.8-3.2 5.5-2.6" fill="#444"/>
     <path class="st0" d="m171.15 80.4 27.1-26.6s-.7-1.9-4.8.9c-6.8 5.4-22 21.9-22.3 25.7" fill="#232323"/>
     <path class="st5" d="m171.15 80.4 27.1-26.6s1.9 2.1-1.7 5.4-10.8 12.1-19.8 18.6c-3.3 2.5-4.9 3.2-5.6 2.6" fill="#444"/>
     <path class="st9" d="m198.05 53.7c1.2 1.2 1.5 2.8-6.1 10.4-10.3 10.3-19.6 17.7-20.8 16.5s6.2-10.5 16.5-20.8c7.7-7.1 9.2-7.3 10.4-6.1" fill="none" stroke="#000" stroke-miterlimit="10" stroke-width="1.873"/>
     <path class="st9" d="m201.05 50.8c-1.2-1.2-1.5-2.8 6.1-10.4 10.4-10.4 19.7-17.8 20.9-16.6s-6.2 10.5-16.5 20.8c-7.7 7.2-9.3 7.4-10.5 6.2" fill="none" stroke="#000" stroke-miterlimit="10" stroke-width="1.873"/>
    </g>
    <g transform="scale(.63652) rotate(60 230.78 165.81)" filter="url(#c)">
     <path class="st0" d="m228.05 24-27 26.6s.7 1.9 4.8-.9c6.7-5.4 21.9-21.9 22.2-25.7" fill="#232323"/>
     <path class="st5" d="m228.05 24-27 26.6s-1.9-2.1 1.7-5.4 10.8-12.1 19.8-18.6c3.2-2.5 4.8-3.2 5.5-2.6" fill="#444"/>
     <path class="st0" d="m171.15 80.4 27.1-26.6s-.7-1.9-4.8.9c-6.8 5.4-22 21.9-22.3 25.7" fill="#232323"/>
     <path class="st5" d="m171.15 80.4 27.1-26.6s1.9 2.1-1.7 5.4-10.8 12.1-19.8 18.6c-3.3 2.5-4.9 3.2-5.6 2.6" fill="#444"/>
     <path class="st9" d="m198.05 53.7c1.2 1.2 1.5 2.8-6.1 10.4-10.3 10.3-19.6 17.7-20.8 16.5s6.2-10.5 16.5-20.8c7.7-7.1 9.2-7.3 10.4-6.1" fill="none" stroke="#000" stroke-miterlimit="10" stroke-width="1.873"/>
     <path class="st9" d="m201.05 50.8c-1.2-1.2-1.5-2.8 6.1-10.4 10.4-10.4 19.7-17.8 20.9-16.6s-6.2 10.5-16.5 20.8c-7.7 7.2-9.3 7.4-10.5 6.2" fill="none" stroke="#000" stroke-miterlimit="10" stroke-width="1.873"/>
    </g>
   </g>
   <g id="prop1-half" transform="matrix(-1 0 0 1 251.7 0)">
    <g filter="url(#m)">
     <path id="g" transform="rotate(135)" d="m40.96-73.751a40.89 40.89 0 01-20.443 35.411 40.89 40.89 0 01-40.89 0 40.89 40.89 0 01-20.447-35.411" fill="url(#b)" stroke-linecap="round" stroke-linejoin="round" stroke-miterlimit="10" stroke-width=".647"/>
     <use transform="rotate(180 52.1 52.2)" width="100%" height="100%" xlink:href="#g"/>
    </g>
    <g filter="url(#q)">
     <g transform="rotate(-30 53.095 51.433)" opacity=".103">
      <path class="st0" d="m80.3 23.4-27 26.6s.7 1.9 4.8-.9c6.7-5.4 21.9-21.9 22.2-25.7" fill="#232323"/>
      <path class="st5" d="m80.3 23.4-27 26.6s-1.9-2.1 1.7-5.4 10.8-12.1 19.8-18.6c3.2-2.5 4.8-3.2 5.5-2.6" fill="#444"/>
      <path class="st0" d="m23.4 79.8 27.1-26.6s-.7-1.9-4.8.9c-6.8 5.4-22 21.9-22.3 25.7" fill="#232323"/>
      <path class="st5" d="m23.4 79.8 27.1-26.6s1.9 2.1-1.7 5.4-10.8 12.1-19.8 18.6c-3.3 2.5-4.9 3.2-5.6 2.6" fill="#444"/>
      <path class="st9" d="m50.3 53.1c1.2 1.2 1.5 2.8-6.1 10.4-10.3 10.3-19.6 17.7-20.8 16.5s6.2-10.5 16.5-20.8c7.7-7.1 9.2-7.3 10.4-6.1" fill="none" stroke="#000" stroke-miterlimit="10" stroke-width="1.873"/>
      <path class="st9" d="m53.3 50.2c-1.2-1.2-1.5-2.8 6.1-10.4 10.4-10.4 19.7-17.8 20.9-16.6s-6.2 10.5-16.5 20.8c-7.7 7.2-9.3 7.4-10.5 6.2" fill="none" stroke="#000" stroke-miterlimit="10" stroke-width="1.873"/>
     </g>
     <g transform="rotate(-20 53.676 51.191)" opacity=".235">
      <path class="st0" d="m80.3 23.4-27 26.6s.7 1.9 4.8-.9c6.7-5.4 21.9-21.9 22.2-25.7" fill="#232323"/>
      <path class="st5" d="m80.3 23.4-27 26.6s-1.9-2.1 1.7-5.4 10.8-12.1 19.8-18.6c3.2-2.5 4.8-3.2 5.5-2.6" fill="#444"/>
      <path class="st0" d="m23.4 79.8 27.1-26.6s-.7-1.9-4.8.9c-6.8 5.4-22 21.9-22.3 25.7" fill="#232323"/>
      <path class="st5" d="m23.4 79.8 27.1-26.6s1.9 2.1-1.7 5.4-10.8 12.1-19.8 18.6c-3.3 2.5-4.9 3.2-5.6 2.6" fill="#444"/>
      <path class="st9" d="m50.3 53.1c1.2 1.2 1.5 2.8-6.1 10.4-10.3 10.3-19.6 17.7-20.8 16.5s6.2-10.5 16.5-20.8c7.7-7.1 9.2-7.3 10.4-6.1" fill="none" stroke="#000" stroke-miterlimit="10" stroke-width="1.873"/>
      <path class="st9" d="m53.3 50.2c-1.2-1.2-1.5-2.8 6.1-10.4 10.4-10.4 19.7-17.8 20.9-16.6s-6.2 10.5-16.5 20.8c-7.7 7.2-9.3 7.4-10.5 6.2" fill="none" stroke="#000" stroke-miterlimit="10" stroke-width="1.873"/>
     </g>
     <g transform="rotate(-10 55.404 50.471)" opacity=".467">
      <path class="st0" d="m80.3 23.4-27 26.6s.7 1.9 4.8-.9c6.7-5.4 21.9-21.9 22.2-25.7" fill="#232323"/>
      <path class="st5" d="m80.3 23.4-27 26.6s-1.9-2.1 1.7-5.4 10.8-12.1 19.8-18.6c3.2-2.5 4.8-3.2 5.5-2.6" fill="#444"/>
      <path class="st0" d="m23.4 79.8 27.1-26.6s-.7-1.9-4.8.9c-6.8 5.4-22 21.9-22.3 25.7" fill="#232323"/>
      <path class="st5" d="m23.4 79.8 27.1-26.6s1.9 2.1-1.7 5.4-10.8 12.1-19.8 18.6c-3.3 2.5-4.9 3.2-5.6 2.6" fill="#444"/>
      <path class="st9" d="m50.3 53.1c1.2 1.2 1.5 2.8-6.1 10.4-10.3 10.3-19.6 17.7-20.8 16.5s6.2-10.5 16.5-20.8c7.7-7.1 9.2-7.3 10.4-6.1" fill="none" stroke="#000" stroke-miterlimit="10" stroke-width="1.873"/>
      <path class="st9" d="m53.3 50.2c-1.2-1.2-1.5-2.8 6.1-10.4 10.4-10.4 19.7-17.8 20.9-16.6s-6.2 10.5-16.5 20.8c-7.7 7.2-9.3 7.4-10.5 6.2" fill="none" stroke="#000" stroke-miterlimit="10" stroke-width="1.873"/>
     </g>
     <g transform="translate(.25 .6)">
      <path class="st0" d="m80.3 23.4-27 26.6s.7 1.9 4.8-.9c6.7-5.4 21.9-21.9 22.2-25.7" fill="#232323"/>
      <path class="st5" d="m80.3 23.4-27 26.6s-1.9-2.1 1.7-5.4 10.8-12.1 19.8-18.6c3.2-2.5 4.8-3.2 5.5-2.6" fill="#444"/>
      <path class="st0" d="m23.4 79.8 27.1-26.6s-.7-1.9-4.8.9c-6.8 5.4-22 21.9-22.3 25.7" fill="#232323"/>
      <path class="st5" d="m23.4 79.8 27.1-26.6s1.9 2.1-1.7 5.4-10.8 12.1-19.8 18.6c-3.3 2.5-4.9 3.2-5.6 2.6" fill="#444"/>
      <path class="st9" d="m50.3 53.1c1.2 1.2 1.5 2.8-6.1 10.4-10.3 10.3-19.6 17.7-20.8 16.5s6.2-10.5 16.5-20.8c7.7-7.1 9.2-7.3 10.4-6.1" fill="none" stroke="#000" stroke-miterlimit="10" stroke-width="1.873"/>
      <path class="st9" d="m53.3 50.2c-1.2-1.2-1.5-2.8 6.1-10.4 10.4-10.4 19.7-17.8 20.9-16.6s-6.2 10.5-16.5 20.8c-7.7 7.2-9.3 7.4-10.5 6.2" fill="none" stroke="#000" stroke-miterlimit="10" stroke-width="1.873"/>
     </g>
    </g>
   </g>
  </g>
  <g transform="translate(-.372 -.395)">
   <path d="m203.44 49.13a4.9 4.9 0 11-6.93 6.93 4.9 4.9 0 016.93-6.93" fill="#fff" stroke="#000" stroke-miterlimit="10" stroke-width="1.873"/>
   <path d="m202.16 50.403a3.1 3.1 0 11-4.384 4.384 3.1 3.1 0 014.384-4.384" fill="#fff200"/>
   <path d="m200.54 52.029a.8.8 0 11-1.131 1.131.8.8 0 011.131-1.131"/>
  </g>
  <path d="m58.4 144.7h.9c.1 0 .1.1.1.1v2.5c0 .1-.1.1-.1.1h-.9c-.1 0-.1-.1-.1-.1v-2.5c0-.1.1-.1.1-.1"/>
  <g id="prop3">
   <animateTransform attributeName="transform" attributeType="XML" dur="250ms" from="360 52.1 200.1" repeatCount="indefinite" to="0 52.1 200.1" type="rotate"/>
   <g id="prop3-full" transform="matrix(-1 0 0 1 251.7 147.9)">
    <circle cx="199.6" cy="52.2" r="41.262" fill="url(#a)" opacity=".46" stroke-linecap="round" stroke-linejoin="round" stroke-miterlimit="10" stroke-width=".647"/>
    <g transform="matrix(.63652 0 0 .63652 72.55 18.973)" filter="url(#e)">
     <path class="st0" d="m228.05 24-27 26.6s.7 1.9 4.8-.9c6.7-5.4 21.9-21.9 22.2-25.7" fill="#232323"/>
     <path class="st5" d="m228.05 24-27 26.6s-1.9-2.1 1.7-5.4 10.8-12.1 19.8-18.6c3.2-2.5 4.8-3.2 5.5-2.6" fill="#444"/>
     <path class="st0" d="m171.15 80.4 27.1-26.6s-.7-1.9-4.8.9c-6.8 5.4-22 21.9-22.3 25.7" fill="#232323"/>
     <path class="st5" d="m171.15 80.4 27.1-26.6s1.9 2.1-1.7 5.4-10.8 12.1-19.8 18.6c-3.3 2.5-4.9 3.2-5.6 2.6" fill="#444"/>
     <path class="st9" d="m198.05 53.7c1.2 1.2 1.5 2.8-6.1 10.4-10.3 10.3-19.6 17.7-20.8 16.5s6.2-10.5 16.5-20.8c7.7-7.1 9.2-7.3 10.4-6.1" fill="none" stroke="#000" stroke-miterlimit="10" stroke-width="1.873"/>
     <path class="st9" d="m201.05 50.8c-1.2-1.2-1.5-2.8 6.1-10.4 10.4-10.4 19.7-17.8 20.9-16.6s-6.2 10.5-16.5 20.8c-7.7 7.2-9.3 7.4-10.5 6.2" fill="none" stroke="#000" stroke-miterlimit="10" stroke-width="1.873"/>
    </g>
    <g transform="scale(.63652) rotate(60 230.78 165.81)" filter="url(#e)">
     <path class="st0" d="m228.05 24-27 26.6s.7 1.9 4.8-.9c6.7-5.4 21.9-21.9 22.2-25.7" fill="#232323"/>
     <path class="st5" d="m228.05 24-27 26.6s-1.9-2.1 1.7-5.4 10.8-12.1 19.8-18.6c3.2-2.5 4.8-3.2 5.5-2.6" fill="#444"/>
     <path class="st0" d="m171.15 80.4 27.1-26.6s-.7-1.9-4.8.9c-6.8 5.4-22 21.9-22.3 25.7" fill="#232323"/>
     <path class="st5" d="m171.15 80.4 27.1-26.6s1.9 2.1-1.7 5.4-10.8 12.1-19.8 18.6c-3.3 2.5-4.9 3.2-5.6 2.6" fill="#444"/>
     <path class="st9" d="m198.05 53.7c1.2 1.2 1.5 2.8-6.1 10.4-10.3 10.3-19.6 17.7-20.8 16.5s6.2-10.5 16.5-20.8c7.7-7.1 9.2-7.3 10.4-6.1" fill="none" stroke="#000" stroke-miterlimit="10" stroke-width="1.873"/>
     <path class="st9" d="m201.05 50.8c-1.2-1.2-1.5-2.8 6.1-10.4 10.4-10.4 19.7-17.8 20.9-16.6s-6.2 10.5-16.5 20.8c-7.7 7.2-9.3 7.4-10.5 6.2" fill="none" stroke="#000" stroke-miterlimit="10" stroke-width="1.873"/>
    </g>
   </g>
   <g id="prop3-half" transform="matrix(-1 0 0 1 104.2 147.9)">
    <g filter="url(#o)">
     <path id="i" transform="rotate(135)" d="m40.96-73.751a40.89 40.89 0 01-20.443 35.411 40.89 40.89 0 01-40.89 0 40.89 40.89 0 01-20.447-35.411" fill="url(#b)" stroke-linecap="round" stroke-linejoin="round" stroke-miterlimit="10" stroke-width=".647"/>
     <use transform="rotate(180 52.1 52.2)" width="100%" height="100%" xlink:href="#i"/>
    </g>
    <g filter="url(#s)">
     <g transform="rotate(-30 53.095 51.433)" opacity=".103">
      <path class="st0" d="m80.3 23.4-27 26.6s.7 1.9 4.8-.9c6.7-5.4 21.9-21.9 22.2-25.7" fill="#232323"/>
      <path class="st5" d="m80.3 23.4-27 26.6s-1.9-2.1 1.7-5.4 10.8-12.1 19.8-18.6c3.2-2.5 4.8-3.2 5.5-2.6" fill="#444"/>
      <path class="st0" d="m23.4 79.8 27.1-26.6s-.7-1.9-4.8.9c-6.8 5.4-22 21.9-22.3 25.7" fill="#232323"/>
      <path class="st5" d="m23.4 79.8 27.1-26.6s1.9 2.1-1.7 5.4-10.8 12.1-19.8 18.6c-3.3 2.5-4.9 3.2-5.6 2.6" fill="#444"/>
      <path class="st9" d="m50.3 53.1c1.2 1.2 1.5 2.8-6.1 10.4-10.3 10.3-19.6 17.7-20.8 16.5s6.2-10.5 16.5-20.8c7.7-7.1 9.2-7.3 10.4-6.1" fill="none" stroke="#000" stroke-miterlimit="10" stroke-width="1.873"/>
      <path class="st9" d="m53.3 50.2c-1.2-1.2-1.5-2.8 6.1-10.4 10.4-10.4 19.7-17.8 20.9-16.6s-6.2 10.5-16.5 20.8c-7.7 7.2-9.3 7.4-10.5 6.2" fill="none" stroke="#000" stroke-miterlimit="10" stroke-width="1.873"/>
     </g>
     <g transform="rotate(-20 53.676 51.191)" opacity=".235">
      <path class="st0" d="m80.3 23.4-27 26.6s.7 1.9 4.8-.9c6.7-5.4 21.9-21.9 22.2-25.7" fill="#232323"/>
      <path class="st5" d="m80.3 23.4-27 26.6s-1.9-2.1 1.7-5.4 10.8-12.1 19.8-18.6c3.2-2.5 4.8-3.2 5.5-2.6" fill="#444"/>
      <path class="st0" d="m23.4 79.8 27.1-26.6s-.7-1.9-4.8.9c-6.8 5.4-22 21.9-22.3 25.7" fill="#232323"/>
      <path class="st5" d="m23.4 79.8 27.1-26.6s1.9 2.1-1.7 5.4-10.8 12.1-19.8 18.6c-3.3 2.5-4.9 3.2-5.6 2.6" fill="#444"/>
      <path class="st9" d="m50.3 53.1c1.2 1.2 1.5 2.8-6.1 10.4-10.3 10.3-19.6 17.7-20.8 16.5s6.2-10.5 16.5-20.8c7.7-7.1 9.2-7.3 10.4-6.1" fill="none" stroke="#000" stroke-miterlimit="10" stroke-width="1.873"/>
      <path class="st9" d="m53.3 50.2c-1.2-1.2-1.5-2.8 6.1-10.4 10.4-10.4 19.7-17.8 20.9-16.6s-6.2 10.5-16.5 20.8c-7.7 7.2-9.3 7.4-10.5 6.2" fill="none" stroke="#000" stroke-miterlimit="10" stroke-width="1.873"/>
     </g>
     <g transform="rotate(-10 55.404 50.471)" opacity=".467">
      <path class="st0" d="m80.3 23.4-27 26.6s.7 1.9 4.8-.9c6.7-5.4 21.9-21.9 22.2-25.7" fill="#232323"/>
      <path class="st5" d="m80.3 23.4-27 26.6s-1.9-2.1 1.7-5.4 10.8-12.1 19.8-18.6c3.2-2.5 4.8-3.2 5.5-2.6" fill="#444"/>
      <path class="st0" d="m23.4 79.8 27.1-26.6s-.7-1.9-4.8.9c-6.8 5.4-22 21.9-22.3 25.7" fill="#232323"/>
      <path class="st5" d="m23.4 79.8 27.1-26.6s1.9 2.1-1.7 5.4-10.8 12.1-19.8 18.6c-3.3 2.5-4.9 3.2-5.6 2.6" fill="#444"/>
      <path class="st9" d="m50.3 53.1c1.2 1.2 1.5 2.8-6.1 10.4-10.3 10.3-19.6 17.7-20.8 16.5s6.2-10.5 16.5-20.8c7.7-7.1 9.2-7.3 10.4-6.1" fill="none" stroke="#000" stroke-miterlimit="10" stroke-width="1.873"/>
      <path class="st9" d="m53.3 50.2c-1.2-1.2-1.5-2.8 6.1-10.4 10.4-10.4 19.7-17.8 20.9-16.6s-6.2 10.5-16.5 20.8c-7.7 7.2-9.3 7.4-10.5 6.2" fill="none" stroke="#000" stroke-miterlimit="10" stroke-width="1.873"/>
     </g>
     <g transform="translate(.25 .6)">
      <path class="st0" d="m80.3 23.4-27 26.6s.7 1.9 4.8-.9c6.7-5.4 21.9-21.9 22.2-25.7" fill="#232323"/>
      <path class="st5" d="m80.3 23.4-27 26.6s-1.9-2.1 1.7-5.4 10.8-12.1 19.8-18.6c3.2-2.5 4.8-3.2 5.5-2.6" fill="#444"/>
      <path class="st0" d="m23.4 79.8 27.1-26.6s-.7-1.9-4.8.9c-6.8 5.4-22 21.9-22.3 25.7" fill="#232323"/>
      <path class="st5" d="m23.4 79.8 27.1-26.6s1.9 2.1-1.7 5.4-10.8 12.1-19.8 18.6c-3.3 2.5-4.9 3.2-5.6 2.6" fill="#444"/>
      <path class="st9" d="m50.3 53.1c1.2 1.2 1.5 2.8-6.1 10.4-10.3 10.3-19.6 17.7-20.8 16.5s6.2-10.5 16.5-20.8c7.7-7.1 9.2-7.3 10.4-6.1" fill="none" stroke="#000" stroke-miterlimit="10" stroke-width="1.873"/>
      <path class="st9" d="m53.3 50.2c-1.2-1.2-1.5-2.8 6.1-10.4 10.4-10.4 19.7-17.8 20.9-16.6s-6.2 10.5-16.5 20.8c-7.7 7.2-9.3 7.4-10.5 6.2" fill="none" stroke="#000" stroke-miterlimit="10" stroke-width="1.873"/>
     </g>
    </g>
   </g>
  </g>
  <g transform="translate(-.08 .183)">
   <path d="m55.645 196.45a4.9 4.9 0 11-6.93 6.93 4.9 4.9 0 016.93-6.93" fill="#fff" stroke="#000" stroke-miterlimit="10" stroke-width="1.873"/>
   <path d="m54.37 197.73a3.1 3.1 0 11-4.385 4.384 3.1 3.1 0 014.384-4.384" fill="#fff200"/>
   <path d="m52.743 199.36a.8.8 0 11-1.131 1.131.8.8 0 011.131-1.131"/>
  </g>
  <g id="prop2">
   <animateTransform attributeName="transform" attributeType="XML" dur="250ms" from="0 200, 200.1" repeatCount="indefinite" to="360 200, 200.1" type="rotate"/>
   <g id="prop2-full" transform="translate(0 147.9)">
    <circle cx="199.6" cy="52.2" r="41.262" fill="url(#a)" opacity=".46" stroke-linecap="round" stroke-linejoin="round" stroke-miterlimit="10" stroke-width=".647"/>
    <g transform="matrix(.63652 0 0 .63652 72.55 18.973)" filter="url(#f)">
     <path class="st0" d="m228.05 24-27 26.6s.7 1.9 4.8-.9c6.7-5.4 21.9-21.9 22.2-25.7" fill="#232323"/>
     <path class="st5" d="m228.05 24-27 26.6s-1.9-2.1 1.7-5.4 10.8-12.1 19.8-18.6c3.2-2.5 4.8-3.2 5.5-2.6" fill="#444"/>
     <path class="st0" d="m171.15 80.4 27.1-26.6s-.7-1.9-4.8.9c-6.8 5.4-22 21.9-22.3 25.7" fill="#232323"/>
     <path class="st5" d="m171.15 80.4 27.1-26.6s1.9 2.1-1.7 5.4-10.8 12.1-19.8 18.6c-3.3 2.5-4.9 3.2-5.6 2.6" fill="#444"/>
     <path class="st9" d="m198.05 53.7c1.2 1.2 1.5 2.8-6.1 10.4-10.3 10.3-19.6 17.7-20.8 16.5s6.2-10.5 16.5-20.8c7.7-7.1 9.2-7.3 10.4-6.1" fill="none" stroke="#000" stroke-miterlimit="10" stroke-width="1.873"/>
     <path class="st9" d="m201.05 50.8c-1.2-1.2-1.5-2.8 6.1-10.4 10.4-10.4 19.7-17.8 20.9-16.6s-6.2 10.5-16.5 20.8c-7.7 7.2-9.3 7.4-10.5 6.2" fill="none" stroke="#000" stroke-miterlimit="10" stroke-width="1.873"/>
    </g>
    <g transform="scale(.63652) rotate(60 230.78 165.81)" filter="url(#f)">
     <path class="st0" d="m228.05 24-27 26.6s.7 1.9 4.8-.9c6.7-5.4 21.9-21.9 22.2-25.7" fill="#232323"/>
     <path class="st5" d="m228.05 24-27 26.6s-1.9-2.1 1.7-5.4 10.8-12.1 19.8-18.6c3.2-2.5 4.8-3.2 5.5-2.6" fill="#444"/>
     <path class="st0" d="m171.15 80.4 27.1-26.6s-.7-1.9-4.8.9c-6.8 5.4-22 21.9-22.3 25.7" fill="#232323"/>
     <path class="st5" d="m171.15 80.4 27.1-26.6s1.9 2.1-1.7 5.4-10.8 12.1-19.8 18.6c-3.3 2.5-4.9 3.2-5.6 2.6" fill="#444"/>
     <path class="st9" d="m198.05 53.7c1.2 1.2 1.5 2.8-6.1 10.4-10.3 10.3-19.6 17.7-20.8 16.5s6.2-10.5 16.5-20.8c7.7-7.1 9.2-7.3 10.4-6.1" fill="none" stroke="#000" stroke-miterlimit="10" stroke-width="1.873"/>
     <path class="st9" d="m201.05 50.8c-1.2-1.2-1.5-2.8 6.1-10.4 10.4-10.4 19.7-17.8 20.9-16.6s-6.2 10.5-16.5 20.8c-7.7 7.2-9.3 7.4-10.5 6.2" fill="none" stroke="#000" stroke-miterlimit="10" stroke-width="1.873"/>
    </g>
   </g>
   <g id="prop2-half" transform="translate(147.5 147.9)">
    <g filter="url(#p)">
     <path id="j" transform="rotate(135)" d="m40.96-73.751a40.89 40.89 0 01-20.443 35.411 40.89 40.89 0 01-40.89 0 40.89 40.89 0 01-20.447-35.411" fill="url(#b)" stroke-linecap="round" stroke-linejoin="round" stroke-miterlimit="10" stroke-width=".647"/>
     <use transform="rotate(180 52.1 52.2)" width="100%" height="100%" xlink:href="#j"/>
    </g>
    <g filter="url(#t)">
     <g transform="rotate(-30 53.095 51.433)" opacity=".103">
      <path class="st0" d="m80.3 23.4-27 26.6s.7 1.9 4.8-.9c6.7-5.4 21.9-21.9 22.2-25.7" fill="#232323"/>
      <path class="st5" d="m80.3 23.4-27 26.6s-1.9-2.1 1.7-5.4 10.8-12.1 19.8-18.6c3.2-2.5 4.8-3.2 5.5-2.6" fill="#444"/>
      <path class="st0" d="m23.4 79.8 27.1-26.6s-.7-1.9-4.8.9c-6.8 5.4-22 21.9-22.3 25.7" fill="#232323"/>
      <path class="st5" d="m23.4 79.8 27.1-26.6s1.9 2.1-1.7 5.4-10.8 12.1-19.8 18.6c-3.3 2.5-4.9 3.2-5.6 2.6" fill="#444"/>
      <path class="st9" d="m50.3 53.1c1.2 1.2 1.5 2.8-6.1 10.4-10.3 10.3-19.6 17.7-20.8 16.5s6.2-10.5 16.5-20.8c7.7-7.1 9.2-7.3 10.4-6.1" fill="none" stroke="#000" stroke-miterlimit="10" stroke-width="1.873"/>
      <path class="st9" d="m53.3 50.2c-1.2-1.2-1.5-2.8 6.1-10.4 10.4-10.4 19.7-17.8 20.9-16.6s-6.2 10.5-16.5 20.8c-7.7 7.2-9.3 7.4-10.5 6.2" fill="none" stroke="#000" stroke-miterlimit="10" stroke-width="1.873"/>
     </g>
     <g transform="rotate(-20 53.676 51.191)" opacity=".235">
      <path class="st0" d="m80.3 23.4-27 26.6s.7 1.9 4.8-.9c6.7-5.4 21.9-21.9 22.2-25.7" fill="#232323"/>
      <path class="st5" d="m80.3 23.4-27 26.6s-1.9-2.1 1.7-5.4 10.8-12.1 19.8-18.6c3.2-2.5 4.8-3.2 5.5-2.6" fill="#444"/>
      <path class="st0" d="m23.4 79.8 27.1-26.6s-.7-1.9-4.8.9c-6.8 5.4-22 21.9-22.3 25.7" fill="#232323"/>
      <path class="st5" d="m23.4 79.8 27.1-26.6s1.9 2.1-1.7 5.4-10.8 12.1-19.8 18.6c-3.3 2.5-4.9 3.2-5.6 2.6" fill="#444"/>
      <path class="st9" d="m50.3 53.1c1.2 1.2 1.5 2.8-6.1 10.4-10.3 10.3-19.6 17.7-20.8 16.5s6.2-10.5 16.5-20.8c7.7-7.1 9.2-7.3 10.4-6.1" fill="none" stroke="#000" stroke-miterlimit="10" stroke-width="1.873"/>
      <path class="st9" d="m53.3 50.2c-1.2-1.2-1.5-2.8 6.1-10.4 10.4-10.4 19.7-17.8 20.9-16.6s-6.2 10.5-16.5 20.8c-7.7 7.2-9.3 7.4-10.5 6.2" fill="none" stroke="#000" stroke-miterlimit="10" stroke-width="1.873"/>
     </g>
     <g transform="rotate(-10 55.404 50.471)" opacity=".467">
      <path class="st0" d="m80.3 23.4-27 26.6s.7 1.9 4.8-.9c6.7-5.4 21.9-21.9 22.2-25.7" fill="#232323"/>
      <path class="st5" d="m80.3 23.4-27 26.6s-1.9-2.1 1.7-5.4 10.8-12.1 19.8-18.6c3.2-2.5 4.8-3.2 5.5-2.6" fill="#444"/>
      <path class="st0" d="m23.4 79.8 27.1-26.6s-.7-1.9-4.8.9c-6.8 5.4-22 21.9-22.3 25.7" fill="#232323"/>
      <path class="st5" d="m23.4 79.8 27.1-26.6s1.9 2.1-1.7 5.4-10.8 12.1-19.8 18.6c-3.3 2.5-4.9 3.2-5.6 2.6" fill="#444"/>
      <path class="st9" d="m50.3 53.1c1.2 1.2 1.5 2.8-6.1 10.4-10.3 10.3-19.6 17.7-20.8 16.5s6.2-10.5 16.5-20.8c7.7-7.1 9.2-7.3 10.4-6.1" fill="none" stroke="#000" stroke-miterlimit="10" stroke-width="1.873"/>
      <path class="st9" d="m53.3 50.2c-1.2-1.2-1.5-2.8 6.1-10.4 10.4-10.4 19.7-17.8 20.9-16.6s-6.2 10.5-16.5 20.8c-7.7 7.2-9.3 7.4-10.5 6.2" fill="none" stroke="#000" stroke-miterlimit="10" stroke-width="1.873"/>
     </g>
     <g transform="translate(.25 .6)">
      <path class="st0" d="m80.3 23.4-27 26.6s.7 1.9 4.8-.9c6.7-5.4 21.9-21.9 22.2-25.7" fill="#232323"/>
      <path class="st5" d="m80.3 23.4-27 26.6s-1.9-2.1 1.7-5.4 10.8-12.1 19.8-18.6c3.2-2.5 4.8-3.2 5.5-2.6" fill="#444"/>
      <path class="st0" d="m23.4 79.8 27.1-26.6s-.7-1.9-4.8.9c-6.8 5.4-22 21.9-22.3 25.7" fill="#232323"/>
      <path class="st5" d="m23.4 79.8 27.1-26.6s1.9 2.1-1.7 5.4-10.8 12.1-19.8 18.6c-3.3 2.5-4.9 3.2-5.6 2.6" fill="#444"/>
      <path class="st9" d="m50.3 53.1c1.2 1.2 1.5 2.8-6.1 10.4-10.3 10.3-19.6 17.7-20.8 16.5s6.2-10.5 16.5-20.8c7.7-7.1 9.2-7.3 10.4-6.1" fill="none" stroke="#000" stroke-miterlimit="10" stroke-width="1.873"/>
      <path class="st9" d="m53.3 50.2c-1.2-1.2-1.5-2.8 6.1-10.4 10.4-10.4 19.7-17.8 20.9-16.6s-6.2 10.5-16.5 20.8c-7.7 7.2-9.3 7.4-10.5 6.2" fill="none" stroke="#000" stroke-miterlimit="10" stroke-width="1.873"/>
     </g>
    </g>
   </g>
  </g>
  <g transform="translate(-.18 .988)">
   <path d="m203.25 195.65a4.9 4.9 0 11-6.93 6.93 4.9 4.9 0 016.93-6.93" fill="#fff" stroke="#000" stroke-miterlimit="10" stroke-width="1.873"/>
   <path d="m201.97 196.92a3.1 3.1 0 11-4.384 4.384 3.1 3.1 0 014.384-4.384" fill="#fff200"/>
   <path d="m200.35 198.55a.8.8 0 11-1.132 1.13.8.8 0 011.132-1.13"/>
  </g>
  <path class="st8" d="m101.4 191.3c8.4 0 15.8 6 17.4 14.3.9 4.7 0 9.4-2.6 13.4s-6.7 6.6-11.3 7.6c-1.2.2-2.3.3-3.5.3-8.4 0-15.8-6-17.4-14.3-1.9-9.6 4.3-19 14-20.9 1-.3 2.2-.4 3.4-.4" fill="#fff"/>
  <path d="m101.4 225.6c-7.9 0-14.7-5.6-16.2-13.3-.9-4.3 0-8.8 2.5-12.4 2.5-3.7 6.2-6.2 10.5-7.1 1.1-.2 2.2-.3 3.3-.3 7.9 0 14.7 5.6 16.2 13.3 1.8 9-4 17.7-13 19.5-1.2.2-2.3.3-3.3.3m0 2.5c1.2 0 2.5-.1 3.7-.4 10.3-2.1 17-12.1 14.9-22.4-1.8-9-9.7-15.3-18.6-15.3-1.2 0-2.5.1-3.7.4-10.3 2.1-17 12.1-14.9 22.4 1.7 9 9.7 15.3 18.6 15.3"/>
  <path d="m108.54 207.56a7.3 7.3 0 11-14.317 2.862 7.3 7.3 0 0114.317-2.862"/>
  <g fill="none" stroke="#000" stroke-linecap="round" stroke-linejoin="round" stroke-miterlimit="10" stroke-width="1.873">
   <path class="st11" d="m107.1 217.4c1.1-.7 2-1.7 2.7-2.8"/>
   <path class="st11" d="m91.4 211c.3 1.4.8 2.6 1.6 3.7"/>
   <path class="st11" d="m103.4 199.1c-1.3-.3-2.7-.3-4 0-1.4.3-2.6.8-3.7 1.6-1.1.7-2 1.7-2.7 2.8"/>
   <path class="st11" d="m111.3 207.1c-.3-1.4-.8-2.6-1.6-3.7"/>
   <path class="st11" d="m98.2 222.8c1.8.4 3.6.4 5.4 0"/>
   <path class="st11" d="m89.4 201.3c-1.1 1.6-1.8 3.3-2.2 5.1"/>
   <path class="st11" d="m112.7 201.5c-1-1.5-2.3-2.9-3.9-4s-3.3-1.8-5.1-2.2-3.6-.4-5.4 0"/>
   <path class="st11" d="m112.5 217c1.1-1.6 1.8-3.3 2.2-5.1"/>
  </g>
  <path d="m112.7 185.2-42.6 18.2h-.1l-1.6-3.8v-.1l42.6-18.2h.1l1.6 3.9"/>
  <path class="st8" d="m150.3 191c1.2 0 2.3.1 3.5.3 9.6 1.9 15.9 11.3 14 20.9-1.7 8.3-9 14.3-17.4 14.3-1.2 0-2.3-.1-3.5-.3-4.7-.9-8.7-3.6-11.3-7.6s-3.6-8.7-2.6-13.4c1.6-8.2 8.9-14.2 17.3-14.2" fill="#fff"/>
  <path d="m150.4 227.8v-2.5c-1.1 0-2.2-.1-3.3-.3-9-1.8-14.8-10.5-13-19.5 1.5-7.7 8.4-13.3 16.2-13.3 1.1 0 2.2.1 3.3.3 4.3.9 8.1 3.4 10.5 7.1 2.5 3.7 3.3 8.1 2.5 12.4-1.5 7.7-8.4 13.3-16.2 13.3v2.5c8.9 0 16.8-6.3 18.6-15.3 2.1-10.3-4.6-20.3-14.9-22.4-1.3-.3-2.5-.4-3.7-.4-8.9 0-16.8 6.3-18.6 15.3-2.1 10.3 4.6 20.3 14.9 22.4 1.2.2 2.4.4 3.7.4"/>
  <path d="m151.74 201.53a7.3 7.3 0 11-2.862 14.317 7.3 7.3 0 012.862-14.317"/>
  <g fill="none" stroke="#000" stroke-linecap="round" stroke-linejoin="round" stroke-miterlimit="10" stroke-width="1.873">
   <path class="st11" d="m144.7 217.1c-1.1-.7-2-1.7-2.7-2.8"/>
   <path class="st11" d="m160.3 210.7c-.3 1.4-.8 2.6-1.6 3.7"/>
   <path class="st11" d="m148.3 198.8c1.3-.3 2.7-.3 4 0 1.4.3 2.6.8 3.7 1.6 1.1.7 2 1.7 2.7 2.8"/>
   <path class="st11" d="m140.4 206.8c.3-1.4.8-2.6 1.6-3.7"/>
   <path class="st11" d="m153.5 222.5c-1.8.4-3.6.4-5.4 0"/>
   <path class="st11" d="m162.3 201c1.1 1.6 1.8 3.3 2.2 5.1"/>
   <path class="st11" d="m139 201.2c1-1.5 2.3-2.9 3.9-4s3.3-1.8 5.1-2.2 3.6-.4 5.4 0"/>
   <path class="st11" d="m139.2 216.7c-1.1-1.6-1.8-3.3-2.2-5.1"/>
  </g>
  <path d="M139.1 184.9l42.6 18.2h.1l1.6-3.8v-.1L140.8 181h-.1l-1.6 3.9c-.1-.1-.1 0 0 0"/>
  <path d="m140.3 53.2a14.4 14.4 0 11-28.8 0 14.4 14.4 0 0128.8 0" fill="#828282"/>
  <g fill="#3c3c3c">
   <path d="m127 64.8a1.1 1.1 0 11-2.2 0 1.1 1.1 0 012.2 0"/>
   <path d="m127 41.7a1.1 1.1 0 11-2.2 0 1.1 1.1 0 012.2 0"/>
   <path d="m134.82 44.343a1.1 1.1 0 11-1.556 1.555 1.1 1.1 0 011.556-1.555"/>
   <path d="m118.5 60.63a1.1 1.1 0 11-1.556 1.555 1.1 1.1 0 011.556-1.556"/>
   <path d="m138.5 53.2a1.1 1.1 0 11-2.2 0 1.1 1.1 0 012.2 0"/>
   <path d="m115.4 53.2a1.1 1.1 0 11-2.2 0 1.1 1.1 0 012.2 0"/>
   <path d="m134.81 60.652a1.1 1.1 0 11-1.555 1.556 1.1 1.1 0 011.555-1.556"/>
   <path d="m118.51 44.32a1.1 1.1 0 11-1.555 1.555 1.1 1.1 0 011.555-1.556"/>
  </g>
  <path d="m134.7 53.2a8.8 8.8 0 11-17.6 0 8.8 8.8 0 0117.6 0" fill="url(#SVGID_1_)"/>
  <g id="prop0">
   <animateTransform attributeName="transform" attributeType="XML" dur="250ms" from="0 52.1 52.2" repeatCount="indefinite" to="360 52.1 52.2" type="rotate"/>
   <g id="prop0-full" transform="translate(-147.5)">
    <circle cx="199.6" cy="52.2" r="41.262" fill="url(#a)" opacity=".46" stroke-linecap="round" stroke-linejoin="round" stroke-miterlimit="10" stroke-width=".647"/>
    <g transform="matrix(.63652 0 0 .63652 72.55 18.973)" filter="url(#d)">
     <path class="st0" d="m228.05 24-27 26.6s.7 1.9 4.8-.9c6.7-5.4 21.9-21.9 22.2-25.7" fill="#232323"/>
     <path class="st5" d="m228.05 24-27 26.6s-1.9-2.1 1.7-5.4 10.8-12.1 19.8-18.6c3.2-2.5 4.8-3.2 5.5-2.6" fill="#444"/>
     <path class="st0" d="m171.15 80.4 27.1-26.6s-.7-1.9-4.8.9c-6.8 5.4-22 21.9-22.3 25.7" fill="#232323"/>
     <path class="st5" d="m171.15 80.4 27.1-26.6s1.9 2.1-1.7 5.4-10.8 12.1-19.8 18.6c-3.3 2.5-4.9 3.2-5.6 2.6" fill="#444"/>
     <path class="st9" d="m198.05 53.7c1.2 1.2 1.5 2.8-6.1 10.4-10.3 10.3-19.6 17.7-20.8 16.5s6.2-10.5 16.5-20.8c7.7-7.1 9.2-7.3 10.4-6.1" fill="none" stroke="#000" stroke-miterlimit="10" stroke-width="1.873"/>
     <path class="st9" d="m201.05 50.8c-1.2-1.2-1.5-2.8 6.1-10.4 10.4-10.4 19.7-17.8 20.9-16.6s-6.2 10.5-16.5 20.8c-7.7 7.2-9.3 7.4-10.5 6.2" fill="none" stroke="#000" stroke-miterlimit="10" stroke-width="1.873"/>
    </g>
    <g transform="scale(.63652) rotate(60 230.78 165.81)" filter="url(#d)">
     <path class="st0" d="m228.05 24-27 26.6s.7 1.9 4.8-.9c6.7-5.4 21.9-21.9 22.2-25.7" fill="#232323"/>
     <path class="st5" d="m228.05 24-27 26.6s-1.9-2.1 1.7-5.4 10.8-12.1 19.8-18.6c3.2-2.5 4.8-3.2 5.5-2.6" fill="#444"/>
     <path class="st0" d="m171.15 80.4 27.1-26.6s-.7-1.9-4.8.9c-6.8 5.4-22 21.9-22.3 25.7" fill="#232323"/>
     <path class="st5" d="m171.15 80.4 27.1-26.6s1.9 2.1-1.7 5.4-10.8 12.1-19.8 18.6c-3.3 2.5-4.9 3.2-5.6 2.6" fill="#444"/>
     <path class="st9" d="m198.05 53.7c1.2 1.2 1.5 2.8-6.1 10.4-10.3 10.3-19.6 17.7-20.8 16.5s6.2-10.5 16.5-20.8c7.7-7.1 9.2-7.3 10.4-6.1" fill="none" stroke="#000" stroke-miterlimit="10" stroke-width="1.873"/>
     <path class="st9" d="m201.05 50.8c-1.2-1.2-1.5-2.8 6.1-10.4 10.4-10.4 19.7-17.8 20.9-16.6s-6.2 10.5-16.5 20.8c-7.7 7.2-9.3 7.4-10.5 6.2" fill="none" stroke="#000" stroke-miterlimit="10" stroke-width="1.873"/>
    </g>
   </g>
   <g id="prop0-half">
    <g filter="url(#n)">
     <path id="h" transform="rotate(135)" d="m40.96-73.751a40.89 40.89 0 01-20.443 35.411 40.89 40.89 0 01-40.89 0 40.89 40.89 0 01-20.447-35.411" fill="url(#b)" stroke-linecap="round" stroke-linejoin="round" stroke-miterlimit="10" stroke-width=".647"/>
     <use transform="rotate(180 52.1 52.2)" width="100%" height="100%" xlink:href="#h"/>
    </g>
    <g filter="url(#r)">
     <g transform="rotate(-30 53.095 51.433)" opacity=".103">
      <path class="st0" d="m80.3 23.4-27 26.6s.7 1.9 4.8-.9c6.7-5.4 21.9-21.9 22.2-25.7" fill="#232323"/>
      <path class="st5" d="m80.3 23.4-27 26.6s-1.9-2.1 1.7-5.4 10.8-12.1 19.8-18.6c3.2-2.5 4.8-3.2 5.5-2.6" fill="#444"/>
      <path class="st0" d="m23.4 79.8 27.1-26.6s-.7-1.9-4.8.9c-6.8 5.4-22 21.9-22.3 25.7" fill="#232323"/>
      <path class="st5" d="m23.4 79.8 27.1-26.6s1.9 2.1-1.7 5.4-10.8 12.1-19.8 18.6c-3.3 2.5-4.9 3.2-5.6 2.6" fill="#444"/>
      <path class="st9" d="m50.3 53.1c1.2 1.2 1.5 2.8-6.1 10.4-10.3 10.3-19.6 17.7-20.8 16.5s6.2-10.5 16.5-20.8c7.7-7.1 9.2-7.3 10.4-6.1" fill="none" stroke="#000" stroke-miterlimit="10" stroke-width="1.873"/>
      <path class="st9" d="m53.3 50.2c-1.2-1.2-1.5-2.8 6.1-10.4 10.4-10.4 19.7-17.8 20.9-16.6s-6.2 10.5-16.5 20.8c-7.7 7.2-9.3 7.4-10.5 6.2" fill="none" stroke="#000" stroke-miterlimit="10" stroke-width="1.873"/>
     </g>
     <g transform="rotate(-20 53.676 51.191)" opacity=".235">
      <path class="st0" d="m80.3 23.4-27 26.6s.7 1.9 4.8-.9c6.7-5.4 21.9-21.9 22.2-25.7" fill="#232323"/>
      <path class="st5" d="m80.3 23.4-27 26.6s-1.9-2.1 1.7-5.4 10.8-12.1 19.8-18.6c3.2-2.5 4.8-3.2 5.5-2.6" fill="#444"/>
      <path class="st0" d="m23.4 79.8 27.1-26.6s-.7-1.9-4.8.9c-6.8 5.4-22 21.9-22.3 25.7" fill="#232323"/>
      <path class="st5" d="m23.4 79.8 27.1-26.6s1.9 2.1-1.7 5.4-10.8 12.1-19.8 18.6c-3.3 2.5-4.9 3.2-5.6 2.6" fill="#444"/>
      <path class="st9" d="m50.3 53.1c1.2 1.2 1.5 2.8-6.1 10.4-10.3 10.3-19.6 17.7-20.8 16.5s6.2-10.5 16.5-20.8c7.7-7.1 9.2-7.3 10.4-6.1" fill="none" stroke="#000" stroke-miterlimit="10" stroke-width="1.873"/>
      <path class="st9" d="m53.3 50.2c-1.2-1.2-1.5-2.8 6.1-10.4 10.4-10.4 19.7-17.8 20.9-16.6s-6.2 10.5-16.5 20.8c-7.7 7.2-9.3 7.4-10.5 6.2" fill="none" stroke="#000" stroke-miterlimit="10" stroke-width="1.873"/>
     </g>
     <g transform="rotate(-10 55.404 50.471)" opacity=".467">
      <path class="st0" d="m80.3 23.4-27 26.6s.7 1.9 4.8-.9c6.7-5.4 21.9-21.9 22.2-25.7" fill="#232323"/>
      <path class="st5" d="m80.3 23.4-27 26.6s-1.9-2.1 1.7-5.4 10.8-12.1 19.8-18.6c3.2-2.5 4.8-3.2 5.5-2.6" fill="#444"/>
      <path class="st0" d="m23.4 79.8 27.1-26.6s-.7-1.9-4.8.9c-6.8 5.4-22 21.9-22.3 25.7" fill="#232323"/>
      <path class="st5" d="m23.4 79.8 27.1-26.6s1.9 2.1-1.7 5.4-10.8 12.1-19.8 18.6c-3.3 2.5-4.9 3.2-5.6 2.6" fill="#444"/>
      <path class="st9" d="m50.3 53.1c1.2 1.2 1.5 2.8-6.1 10.4-10.3 10.3-19.6 17.7-20.8 16.5s6.2-10.5 16.5-20.8c7.7-7.1 9.2-7.3 10.4-6.1" fill="none" stroke="#000" stroke-miterlimit="10" stroke-width="1.873"/>
      <path class="st9" d="m53.3 50.2c-1.2-1.2-1.5-2.8 6.1-10.4 10.4-10.4 19.7-17.8 20.9-16.6s-6.2 10.5-16.5 20.8c-7.7 7.2-9.3 7.4-10.5 6.2" fill="none" stroke="#000" stroke-miterlimit="10" stroke-width="1.873"/>
     </g>
     <g transform="translate(.25 .6)">
      <path class="st0" d="m80.3 23.4-27 26.6s.7 1.9 4.8-.9c6.7-5.4 21.9-21.9 22.2-25.7" fill="#232323"/>
      <path class="st5" d="m80.3 23.4-27 26.6s-1.9-2.1 1.7-5.4 10.8-12.1 19.8-18.6c3.2-2.5 4.8-3.2 5.5-2.6" fill="#444"/>
      <path class="st0" d="m23.4 79.8 27.1-26.6s-.7-1.9-4.8.9c-6.8 5.4-22 21.9-22.3 25.7" fill="#232323"/>
      <path class="st5" d="m23.4 79.8 27.1-26.6s1.9 2.1-1.7 5.4-10.8 12.1-19.8 18.6c-3.3 2.5-4.9 3.2-5.6 2.6" fill="#444"/>
      <path class="st9" d="m50.3 53.1c1.2 1.2 1.5 2.8-6.1 10.4-10.3 10.3-19.6 17.7-20.8 16.5s6.2-10.5 16.5-20.8c7.7-7.1 9.2-7.3 10.4-6.1" fill="none" stroke="#000" stroke-miterlimit="10" stroke-width="1.873"/>
      <path class="st9" d="m53.3 50.2c-1.2-1.2-1.5-2.8 6.1-10.4 10.4-10.4 19.7-17.8 20.9-16.6s-6.2 10.5-16.5 20.8c-7.7 7.2-9.3 7.4-10.5 6.2" fill="none" stroke="#000" stroke-miterlimit="10" stroke-width="1.873"/>
     </g>
    </g>
   </g>
  </g>
  <g transform="translate(-.075 .976)">
   <path d="m55.64 47.762a4.9 4.9 0 11-6.93 6.93 4.9 4.9 0 016.93-6.93" fill="#fff" stroke="#000" stroke-miterlimit="10" stroke-width="1.873"/>
   <path d="m54.367 49.034a3.1 3.1 0 11-4.384 4.385 3.1 3.1 0 014.384-4.385" fill="#fff200"/>
   <path d="m52.74 50.66a.8.8 0 11-1.13 1.132.8.8 0 011.13-1.131"/>
  </g>
 </g>
</svg>
