<?xml version="1.0" encoding="UTF-8"?>
<svg enable-background="new 0 0 251.9 289.4" version="1.1" viewBox="0 0 251.9 289.4" xml:space="preserve" xmlns="http://www.w3.org/2000/svg">
	<defs>
		<radialGradient id="SVGID_1_" cx="124.24" cy="245.24" r="8.8394" gradientTransform="rotate(180 125.06 149.23)" gradientUnits="userSpaceOnUse">
			<stop stop-color="#A0A0A0" offset="0"/>
			<stop stop-color="#323232" offset="1"/>
		</radialGradient>

	</defs>
	<style type="text/css">
		.st0 {
			fill: #232323;
		}
		.st1 {
			fill: #FFF200;
		}
		.st2 {
			fill: none;
			stroke: #000000;
			stroke-width: 2.2855;
			stroke-linecap: round;
			stroke-linejoin: round;
			stroke-miterlimit: 10;
		}
		.st3 {
			fill: none;
			stroke: #000000;
			stroke-width: 1.8284;
			stroke-linecap: round;
			stroke-linejoin: round;
			stroke-miterlimit: 10;
		}
		.st4 {
			fill: #6E6E6E;
		}
		.st5 {
			fill: #444444;
		}
		.st6 {
			fill: none;
			stroke: #000000;
			stroke-width: 0.7938;
			stroke-miterlimit: 10;
		}
		.st7 {
			fill: none;
			stroke: #000000;
			stroke-width: 0.3969;
			stroke-miterlimit: 10;
		}
		.st8 {
			fill: #FFFFFF;
		}
		.st9 {
			fill: none;
			stroke: #000000;
			stroke-width: 1.873;
			stroke-miterlimit: 10;
		}
		.st10 {
			fill: #FFFFFF;
			stroke: #000000;
			stroke-width: 1.873;
			stroke-miterlimit: 10;
		}
		.st11 {
			fill: none;
			stroke: #000000;
			stroke-width: 1.873;
			stroke-linecap: round;
			stroke-linejoin: round;
			stroke-miterlimit: 10;
		}
		.st12 {
			fill: #828282;
		}
		.st13 {
			fill: #3C3C3C;
		}
		.st14 {
			fill: url("#SVGID_1_");
		}
	</style>
	<path class="st0" d="m112.8 230s-16.2 1.8-19.4 13 13.7 45.2 13.7 45.2-26.2-34.1-17.6-47.6 26-23.4 26-23.4-4.2 9.8-2.7 12.8" fill="#232323"/>
	<path class="st1" d="m113.5 233.3s-14.3 2.5-17.3 9.3c-3 6.7 3.4 34.3 10.9 45.7-7-11.4-20.2-36-13.6-47.3s19.3-11 19.3-11l.7 3.3" fill="#fff200"/>
	<path class="st2" d="m124.1 212.9s-49.9 20.6-33.1 48.8 16.1 26.6 16.1 26.6-16.8-37.9-10.6-46.2 22.8-9.2 22.8-9.2l4.8-20" fill="none" stroke="#000" stroke-linecap="round" stroke-linejoin="round" stroke-miterlimit="10" stroke-width="2.2855"/>
	<path class="st0" d="m139.2 230s16.2 1.8 19.4 13-13.7 45.2-13.7 45.2 26.2-34.1 17.6-47.6-26-23.4-26-23.4 4.2 9.8 2.7 12.8" fill="#232323"/>
	<path class="st1" d="m138.5 233.3s14.3 2.5 17.3 9.3c3 6.7-3.4 34.3-10.9 45.7 7-11.4 20.2-36 13.6-47.3-6.5-11.3-19.3-11-19.3-11l-.7 3.3" fill="#fff200"/>
	<path class="st3" d="m127.8 212.9s49.9 20.6 33.1 48.8-16.1 26.6-16.1 26.6 16.8-37.9 10.6-46.2c-6.1-8.3-23.4-9.8-23.4-9.8l-4.2-19.4" fill="none" stroke="#000" stroke-linecap="round" stroke-linejoin="round" stroke-miterlimit="10" stroke-width="1.8284"/>
	<g fill="#6e6e6e">
		<path class="st4" d="m168 83.4c.7-1.9 1.8-3.5 2.9-5 .6-.7 1.2-1.5 1.8-2.1.6-.7 1.3-1.3 2.1-1.9 1.5-1.1 3.3-1.9 4.7-3.2 1.4-1.2 2.6-2.7 3.6-4.3.5-.8 1-1.6 1.6-2.4s1.2-1.5 1.8-2.2c1.2-1.4 2.4-2.9 3.8-4.1 1.4-1.3 2.8-2.4 4.4-3.5.8-.5 1.6-1.1 2.4-1.6s1.7-1 2.6-1.4l.3.3c-.4.9-.9 1.8-1.4 2.6s-1 1.6-1.6 2.4c-1.1 1.5-2.3 3-3.5 4.4-1.3 1.4-2.7 2.6-4.1 3.8-.7.6-1.4 1.2-2.2 1.8s-1.6 1.1-2.4 1.6c-1.6 1-3.1 2.2-4.3 3.6s-2.1 3.2-3.2 4.7c-.6.8-1.2 1.4-1.9 2.1l-2.1 1.8c-1.5 1.1-3.1 2.2-5 2.9l-.3-.3"/><path class="st4" d="m83.7 83.7c-1.9-.7-3.5-1.8-5-2.9-.7-.6-1.5-1.2-2.1-1.8-.7-.6-1.3-1.3-1.9-2.1-1.1-1.5-1.9-3.3-3.2-4.7-1.2-1.4-2.7-2.6-4.3-3.6-.8-.5-1.6-1-2.4-1.6s-1.5-1.2-2.2-1.8c-1.4-1.2-2.9-2.4-4.1-3.8-1.3-1.4-2.4-2.8-3.5-4.4-.5-.8-1.1-1.6-1.6-2.4s-1-1.7-1.4-2.6l.3-.3c.9.4 1.8.9 2.6 1.4s1.6 1 2.4 1.6c1.5 1.1 3 2.3 4.4 3.5 1.4 1.3 2.6 2.7 3.8 4.1.6.7 1.2 1.4 1.8 2.2s1.1 1.6 1.6 2.4c1 1.6 2.2 3.1 3.6 4.3s3.2 2.1 4.7 3.2c.8.6 1.4 1.2 2.1 1.9.6.7 1.2 1.4 1.8 2.1 1.1 1.5 2.2 3.1 2.9 5l-.3.3"/><path class="st4" d="m168.3 168.1c1.9.7 3.5 1.8 5 2.9.7.6 1.5 1.2 2.1 1.8.7.6 1.3 1.3 1.9 2.1 1.1 1.5 1.9 3.3 3.2 4.7 1.2 1.4 2.7 2.6 4.3 3.6.8.5 1.6 1 2.4 1.6s1.5 1.2 2.2 1.8c1.4 1.2 2.9 2.4 4.1 3.8 1.3 1.4 2.4 2.8 3.5 4.4.5.8 1.1 1.6 1.6 2.4s1 1.7 1.4 2.6l-.3.3c-.9-.4-1.8-.9-2.6-1.4s-1.6-1-2.4-1.6c-1.5-1.1-3-2.3-4.4-3.5-1.4-1.3-2.6-2.7-3.8-4.1-.6-.7-1.2-1.4-1.8-2.2s-1.1-1.6-1.6-2.4c-1-1.6-2.2-3.1-3.6-4.3s-3.2-2.1-4.7-3.2c-.8-.6-1.4-1.2-2.1-1.9-.6-.7-1.2-1.4-1.8-2.1-1.1-1.5-2.2-3.1-2.9-5l.3-.3"/><path class="st4" d="m83.9 168.4c-.7 1.9-1.8 3.5-2.9 5-.6.7-1.2 1.5-1.8 2.1-.6.7-1.3 1.3-2.1 1.9-1.5 1.1-3.3 1.9-4.7 3.2-1.4 1.2-2.6 2.7-3.6 4.3-.5.8-1 1.6-1.6 2.4s-1.2 1.5-1.8 2.2c-1.2 1.4-2.4 2.9-3.8 4.1-1.4 1.3-2.8 2.4-4.4 3.5-.8.5-1.6 1.1-2.4 1.6s-1.7 1-2.6 1.4l-.3-.3c.4-.9.9-1.8 1.4-2.6s1-1.6 1.6-2.4c1.1-1.5 2.3-3 3.5-4.4 1.3-1.4 2.7-2.6 4.1-3.8.7-.6 1.4-1.2 2.2-1.8s1.6-1.1 2.4-1.6c1.6-1 3.1-2.2 4.3-3.6s2.1-3.2 3.2-4.7c.6-.8 1.2-1.4 1.9-2.1l2.1-1.8c1.5-1.1 3.1-2.2 5-2.9l.3.3"/>
	</g><path class="st0" d="m52.2 104.2c2.3 0 4.6-.2 6.9-.5-1.1 7.1-1.7 14.5-1.7 22 0 7.8.6 15.3 1.8 22.5-2.3-.3-4.6-.5-7-.5-28.8 0-52.1 23.3-52.1 52.1s23.3 52.1 52.1 52.1c20.5 0 38.2-11.8 46.7-29l27.1 18 27.2-18.1c8.5 17.2 26.2 29 46.7 29 28.8 0 52.1-23.3 52.1-52.1s-23.3-52.1-52.1-52.1c-2.4 0-4.7.2-7 .5 1.2-7.2 1.8-14.8 1.8-22.5 0-7.6-.6-14.9-1.7-22 2.3.3 4.6.5 6.9.5 28.8 0 52.1-23.3 52.1-52.1s-23.3-52.1-52.1-52.1c-22.2 0-41.2 13.9-48.7 33.6-7.8-4.4-16.3-6.8-25.1-6.8s-17.3 2.4-25.1 6.8c-7.6-19.6-26.6-33.5-48.8-33.5-28.8 0-52.1 23.3-52.1 52.1s23.3 52.1 52.1 52.1m-.2 138.8c-23.7 0-42.9-19.2-42.9-42.9s19.2-42.9 42.9-42.9 42.9 19.2 42.9 42.9-19.2 42.9-42.9 42.9m147.6-233.8c23.7 0 42.9 19.2 42.9 42.9s-19.2 42.9-42.9 42.9-42.9-19.2-42.9-42.9 19.2-42.9 42.9-42.9m0 147.9c23.7 0 42.9 19.2 42.9 42.9s-19.2 43-42.9 43c-17.3 0-32.2-10.2-39-24.9h-.1c-2.5-5.5-3.9-11.5-3.9-17.9.1-23.8 19.3-43.1 43-43.1m-147.6-147.9c23.7 0 43 19.2 43 42.9s-19.3 42.9-43 42.9-42.9-19.2-42.9-42.9 19.2-42.9 42.9-42.9" fill="#232323"/>
	<path class="st5" d="m126 26.7c-8.9 0-17.3 2.4-25.1 6.8-7.5-19.6-26.5-33.5-48.8-33.5-28.7 0-52.1 23.3-52.1 52.1s23.3 52.1 52.1 52.1c2.3 0 4.6-.2 6.9-.5-1.1 7.1-1.7 14.5-1.7 22 0 7.8.6 15.3 1.8 22.5-2.3-.3-4.6-.5-7-.5-28.7.1-52.1 23.5-52.1 52.2s23.3 52.1 52.1 52.1c20.5 0 38.2-11.8 46.7-29l27.1 18 .1-214.3m-74 216.3c-23.7 0-42.9-19.2-42.9-42.9s19.2-42.9 42.9-42.9 42.9 19.2 42.9 42.9-19.2 42.9-42.9 42.9m0-233.8c23.7 0 42.9 19.2 42.9 42.9s-19.2 42.9-42.9 42.9-42.9-19.2-42.9-42.9 19.2-42.9 42.9-42.9" fill="#444"/>
	<g fill="#232323">
		<path class="st0" d="m52.1 252.2c28.8 0 52.1-23.3 52.1-52.1s-23.3-52.1-52.1-52.1-52.1 23.3-52.1 52.1 23.3 52.1 52.1 52.1m0-95c23.7 0 42.9 19.2 42.9 42.9s-19.2 42.9-42.9 42.9-42.9-19.2-42.9-42.9 19.2-42.9 42.9-42.9"/><path class="st0" d="m52.1 104.3c28.8 0 52.1-23.3 52.1-52.1s-23.3-52.1-52.1-52.1-52.1 23.3-52.1 52.1 23.3 52.1 52.1 52.1m0-95c23.7 0 42.9 19.2 42.9 42.9s-19.2 42.9-42.9 42.9-42.9-19.2-42.9-42.9 19.2-42.9 42.9-42.9"/><path class="st0" d="m199.6 104.3c28.8 0 52.1-23.3 52.1-52.1s-23.3-52.1-52.1-52.1-52.1 23.3-52.1 52.1 23.4 52.1 52.1 52.1m0-95c23.7 0 42.9 19.2 42.9 42.9s-19.2 42.9-42.9 42.9-42.9-19.2-42.9-42.9 19.2-42.9 42.9-42.9"/><path class="st0" d="m199.6 252.2c28.8 0 52.1-23.3 52.1-52.1s-23.3-52.1-52.1-52.1-52.1 23.3-52.1 52.1 23.4 52.1 52.1 52.1m0-95c23.7 0 42.9 19.2 42.9 42.9s-19.2 42.9-42.9 42.9-42.9-19.2-42.9-42.9 19.2-42.9 42.9-42.9"/>
	</g><path d="m125.9 241.1 24.4-32.4-24.3-182-.1 214.4" fill="#444"/>
	<path d="m126 241.1-24.5-32.4 24.5-182v214.4" fill="#232323"/>
	<path d="m179.1 131.4h10c.3 0 .6-.3.6-.6v-10c0-.3-.3-.6-.6-.6h-10c-.3 0-.6.3-.6.6v10c0 .4.3.6.6.6"/>
	<path class="st1" d="m167.7 125v1.8c0 .1 0 .1.1.1h.8c.1 0 .1 0 .1-.1v-1.8c0-.1 0-.1-.1-.1h-.8c-.1 0-.1 0-.1.1" fill="#fff200"/>
	<path d="m178.7 125.9h-10" fill="none" stroke="#000" stroke-miterlimit="10" stroke-width=".7938"/>
	<path class="st7" d="m184.1 131.4s-5.3 6.1.8 6.8c3 .3-1.7 5.8 1 8s7.3-.2 7.3-.2" fill="none" stroke="#000" stroke-miterlimit="10" stroke-width=".3969"/>
	<path d="m193.6 144.7h-.9c-.1 0-.1.1-.1.1v2.5c0 .1.1.1.1.1h.9c.1 0 .1-.1.1-.1v-2.5c0-.1 0-.1-.1-.1"/>
	<path class="st1" d="m183.2 131.9h1.8c.1 0 .1 0 .1-.1v-.8c0-.1 0-.1-.1-.1h-1.8c-.1 0-.1 0-.1.1v.8c0 .1 0 .1.1.1" fill="#fff200"/>
	<path class="st7" d="m184.1 120.3s-5.3-6.1.8-6.8c3-.3-1.7-5.8 1-8s7.3.2 7.3.2" fill="none" stroke="#000" stroke-miterlimit="10" stroke-width=".3969"/>
	<path d="m193.6 107.1h-.9c-.1 0-.1-.1-.1-.1v-2.5c0-.1.1-.1.1-.1h.9c.1 0 .1.1.1.1v2.5s0 .1-.1.1"/>
	<path class="st1" d="m183.2 120.8h1.8c.1 0 .1 0 .1-.1v-.8c0-.1 0-.1-.1-.1h-1.8c-.1 0-.1 0-.1.1v.8c0 .1 0 .1.1.1" fill="#fff200"/>
	<path class="st1" d="m178.1 125v1.8c0 .1 0 .1.1.1h.8c.1 0 .1 0 .1-.1v-1.8c0-.1 0-.1-.1-.1h-.8c-.1 0-.1 0-.1.1" fill="#fff200"/>
	<path d="m73 131.4h-10c-.3 0-.6-.3-.6-.6v-10c0-.3.3-.6.6-.6h10c.3 0 .6.3.6.6v10c-.1.4-.3.6-.6.6"/>
	<path class="st1" d="m84.4 125v1.8c0 .1 0 .1-.1.1h-.8c-.1 0-.1 0-.1-.1v-1.8c0-.1 0-.1.1-.1h.8c.1 0 .1 0 .1.1" fill="#fff200"/>
	<path d="m73.3 125.9h10.1" fill="none" stroke="#000" stroke-miterlimit="10" stroke-width=".7938"/>
	<path class="st7" d="m68 131.4s5.3 6.1-.8 6.8c-3 .3 1.7 5.8-1 8s-7.3-.2-7.3-.2" fill="none" stroke="#000" stroke-miterlimit="10" stroke-width=".3969"/>

	<path class="st1" d="m68.9 131.9h-1.8c-.1 0-.1 0-.1-.1v-.8c0-.1 0-.1.1-.1h1.8c.1 0 .1 0 .1.1v.8c0 .1-.1.1-.1.1" fill="#fff200"/>
	<path class="st7" d="m68 120.3s5.3-6.1-.8-6.8c-3-.3 1.7-5.8-1-8s-7.3.2-7.3.2" fill="none" stroke="#000" stroke-miterlimit="10" stroke-width=".3969"/>
	<path d="m58.4 107.1h.9c.1 0 .1-.1.1-.1v-2.5c0-.1-.1-.1-.1-.1h-.9c-.1 0-.1.1-.1.1v2.5l.1.1"/>
	<path class="st1" d="m68.9 120.8h-1.8c-.1 0-.1 0-.1-.1v-.8c0-.1 0-.1.1-.1h1.8c.1 0 .1 0 .1.1v.8c0 .1-.1.1-.1.1" fill="#fff200"/>
	<path class="st1" d="m74 125v1.8c0 .1 0 .1-.1.1h-.8c-.1 0-.1 0-.1-.1v-1.8c0-.1 0-.1.1-.1h.8c.1 0 .1 0 .1.1" fill="#fff200"/>
	<path class="st0" d="m126 85.5c22.3 0 40.4 18.1 40.4 40.4s-18.1 40.4-40.4 40.4-40.4-18.1-40.4-40.4 18.2-40.4 40.4-40.4" fill="#232323"/>
	<path d="m161.9 125.9c0 9.5213-3.7823 18.653-10.515 25.385-6.7326 6.7326-15.864 10.515-25.385 10.515s-18.653-3.7823-25.385-10.515c-6.7326-6.7326-10.515-15.864-10.515-25.385s3.7823-18.653 10.515-25.385c6.7326-6.7326 15.864-10.515 25.385-10.515s18.653 3.7823 25.385 10.515c6.7326 6.7326 10.515 15.864 10.515 25.385" fill="#444"/>
	<path class="st8" d="m126 165.1c-21.6 0-39.2-17.5-39.2-39.2s17.5-39.2 39.2-39.2c21.6 0 39.2 17.5 39.2 39.2s-17.5 39.2-39.2 39.2m0 2.4c23 0 41.6-18.7 41.6-41.6s-18.6-41.7-41.6-41.7-41.6 18.7-41.6 41.6 18.7 41.7 41.6 41.7" fill="#fff"/>

	<g id="prop1">
		<g>
			<animateTransform attributeName="transform" attributeType="XML" dur="500ms" from="360 200 52.2" repeatCount="indefinite" to="0 200 52.2" type="rotate"/>
			<path class="st0" d="m227.85 80.7s-26.6-27.1-26.6-27.1-1.9.7.9 4.8c5.4 6.7 21.8 21.9 25.7 22.3" fill="#232323"/>
			<path class="st5" d="m227.85 80.7s-26.6-27.1-26.6-27.1 2.1-1.9 5.4 1.7 12.1 10.8 18.6 19.8c2.5 3.2 3.1 4.8 2.6 5.6" fill="#444"/>
			<path class="st0" d="m171.35 23.7s26.6 27.1 26.6 27.1 1.9-.7-.9-4.8c-5.4-6.7-21.8-21.9-25.7-22.3" fill="#232323"/>
			<path class="st5" d="m171.35 23.7s26.6 27.1 26.6 27.1-2.1 1.9-5.4-1.7-12.1-10.8-18.6-19.8c-2.5-3.2-3.1-4.8-2.6-5.6" fill="#444"/>
			<path class="st9" d="m198.15 50.7c-1.2 1.2-2.8 1.5-10.4-6.1-10.3-10.3-17.7-19.6-16.5-20.8s10.5 6.2 20.8 16.5c7.1 7.7 7.3 9.2 6.1 10.4" fill="none" stroke="#000" stroke-miterlimit="10" stroke-width="1.873"/><path class="st9" d="m201.05 53.7c1.2-1.2 2.8-1.5 10.4 6.1 10.3 10.3 17.7 19.6 16.5 20.8s-10.5-6.2-20.8-16.5c-7.1-7.7-7.3-9.2-6.1-10.4" fill="none" stroke="#000" stroke-miterlimit="10" stroke-width="1.873"/>
		</g>
		<g transform="translate(-.37231 -.39457)">
			<path d="m203.44 49.13c.91893.91893 1.4352 2.1653 1.4352 3.4648 0 1.2996-.51625 2.5459-1.4352 3.4648-.91892.91893-2.1653 1.4352-3.4648 1.4352s-2.5459-.51625-3.4648-1.4352-1.4352-2.1653-1.4352-3.4648c0-1.2996.51625-2.5459 1.4352-3.4648.91893-.91893 2.1653-1.4352 3.4648-1.4352s2.5459.51625 3.4648 1.4352" fill="#fff" stroke="#000" stroke-miterlimit="10" stroke-width="1.873"/><path d="m202.16 50.403c.58136.58136.90797 1.3699.90797 2.192s-.32661 1.6107-.90797 2.192c-.58136.58136-1.3699.90797-2.192.90797s-1.6107-.32661-2.192-.90797c-.58136-.58136-.90797-1.3699-.90797-2.192s.32661-1.6107.90797-2.192c.58136-.58136 1.3699-.90797 2.192-.90797s1.6107.32661 2.192.90797" fill="#fff200" stroke-width=".99999"/><path d="m200.54 52.029c.15002.15003.23431.35351.23431.56568s-.0843.41565-.23432.56568c-.15003.15003-.35351.23431-.56568.23431s-.41565-.08429-.56568-.23431c-.15003-.15003-.23431-.35351-.23431-.56568s.0843-.41565.23431-.56568c.15003-.15003.35351-.23432.56568-.23432.21217-2e-6.41566.08428.56569.23431" stroke-width=".99999"/></g>
	</g>

	<path d="m58.4 144.7h.9c.1 0 .1.1.1.1v2.5c0 .1-.1.1-.1.1h-.9c-.1 0-.1-.1-.1-.1v-2.5c0-.1.1-.1.1-.1"/>
	<g id="prop3">
		<g transform="translate(.25 .5)">
			<animateTransform attributeName="transform" attributeType="XML" dur="500ms" from="360 52.1 200.1" repeatCount="indefinite" to="0 52.1 200.1" type="rotate"/>
			<path class="st0" d="m80.1 228-26.6-27s-1.9.7.9 4.8c5.4 6.7 21.8 21.9 25.7 22.2" fill="#232323"/><path class="st5" d="m80.1 228-26.6-27s2.1-1.9 5.4 1.7 12.1 10.8 18.6 19.8c2.5 3.2 3.1 4.8 2.6 5.5" fill="#444"/><path class="st0" d="m23.6 171.1s26.6 27.1 26.6 27.1 1.9-.7-.9-4.8c-5.4-6.8-21.8-21.9-25.7-22.3" fill="#232323"/><path class="st5" d="m23.6 171.1s26.6 27.1 26.6 27.1-2.1 1.9-5.4-1.7-12.1-10.8-18.6-19.8c-2.5-3.3-3.1-4.9-2.6-5.6" fill="#444"/><path class="st9" d="m50.4 198.1c-1.2 1.2-2.8 1.5-10.4-6.1-10.3-10.3-17.7-19.6-16.5-20.8s10.5 6.2 20.8 16.5c7.1 7.6 7.3 9.2 6.1 10.4" fill="none" stroke="#000" stroke-miterlimit="10" stroke-width="1.873"/><path class="st9" d="m53.3 201.1c1.2-1.2 2.8-1.5 10.4 6.1 10.3 10.3 17.7 19.6 16.5 20.8s-10.5-6.2-20.8-16.5c-7.1-7.7-7.3-9.2-6.1-10.4" fill="none" stroke="#000" stroke-miterlimit="10" stroke-width="1.873"/></g>
		<g transform="translate(-.080238 .18253)"><path d="m55.645 196.45c.91893.91893 1.4352 2.1653 1.4352 3.4648s-.51625 2.5459-1.4352 3.4648c-.91893.91892-2.1653 1.4352-3.4648 1.4352s-2.5459-.51625-3.4648-1.4352c-.91893-.91893-1.4352-2.1653-1.4352-3.4648s.51625-2.5459 1.4352-3.4648c.91893-.91893 2.1653-1.4352 3.4648-1.4352s2.5459.51625 3.4648 1.4352" fill="#fff" stroke="#000" stroke-miterlimit="10" stroke-width="1.873"/><path d="m54.369 197.73c1.2106 1.2106 1.2106 3.1734 0 4.3841-.58136.58136-1.3699.90797-2.192.90797-.82217 0-1.6107-.32661-2.192-.90797-.58136-.58136-.90797-1.3699-.90797-2.192s.32661-1.6107.90797-2.192c1.2106-1.2106 3.1734-1.2106 4.3841 0" fill="#fff200" stroke-width=".99999"/><path d="m52.743 199.35c.15003.15003.23431.35351.23431.56568s-.08428.41565-.23431.56568-.35351.23431-.56568.23431-.41565-.0843-.56568-.23431c-.15003-.15003-.23431-.35351-.23431-.56568s.08429-.41565.23431-.56568c.15003-.15002.35351-.23431.56568-.23431s.41565.0843.56568.23431" stroke-width=".99999"/></g>
	</g>

	<g id="prop2">
		<g transform="translate(.2 .65)">
			<animateTransform attributeName="transform" attributeType="XML" dur="500ms" from="0 200, 200.1" repeatCount="indefinite" to="360 200, 200.1" type="rotate"/><path class="st0" d="m227.9 171.3-27.1 26.6s.7 1.9 4.8-.9c6.8-5.4 21.9-21.9 22.3-25.7" fill="#232323"/><path class="st5" d="m227.9 171.3-27.1 26.6s-1.9-2.1 1.7-5.4 10.8-12.1 19.8-18.6c3.3-2.5 4.9-3.2 5.6-2.6" fill="#444"/><path class="st9" d="m200.9 198c-1.2-1.2-1.5-2.8 6.1-10.4 10.3-10.3 19.6-17.7 20.8-16.5s-6.2 10.5-16.5 20.8c-7.7 7.1-9.2 7.3-10.4 6.1" fill="none" stroke="#000" stroke-miterlimit="10" stroke-width="1.873"/><path class="st0" d="m170.9 227.7 27.1-26.6s-.7-1.9-4.8.9c-6.7 5.4-21.9 21.9-22.3 25.7" fill="#232323"/><path class="st5" d="m170.9 227.7 27.1-26.6s1.9 2.1-1.7 5.4-10.8 12.1-19.8 18.6c-3.2 2.5-4.8 3.2-5.6 2.6" fill="#444"/><path class="st9" d="m197.9 200.9c1.2 1.2 1.5 2.8-6.1 10.4-10.3 10.3-19.6 17.7-20.8 16.5s6.2-10.5 16.5-20.8c7.7-7.1 9.2-7.2 10.4-6.1" fill="none" stroke="#000" stroke-miterlimit="10" stroke-width="1.873"/></g>
		<g transform="translate(-.18086 .98778)"><path d="m203.25 195.65c.91893.91892 1.4352 2.1653 1.4352 3.4648s-.51625 2.5459-1.4352 3.4648-2.1653 1.4352-3.4648 1.4352-2.5459-.51625-3.4648-1.4352c-.91893-.91893-1.4352-2.1653-1.4352-3.4648s.51625-2.5459 1.4352-3.4648c.91892-.91893 2.1653-1.4352 3.4648-1.4352s2.5459.51625 3.4648 1.4352" fill="#fff" stroke="#000" stroke-miterlimit="10" stroke-width="1.873"/><path d="m201.97 196.92c.58136.58136.90797 1.3699.90797 2.192s-.32661 1.6107-.90797 2.192c-1.2106 1.2106-3.1734 1.2106-4.3841 0-.58137-.58136-.90797-1.3699-.90797-2.192s.3266-1.6107.90797-2.192c.58136-.58137 1.3699-.90797 2.192-.90797s1.6107.3266 2.192.90797" fill="#fff200" stroke-width=".99999"/><path d="m200.35 198.55c.15003.15003.23432.35351.23432.56568 0 .21218-.0843.41566-.23431.56569-.15003.15003-.35351.23431-.56568.23431s-.41566-.0843-.56568-.23432c-.15003-.15003-.23431-.35351-.23431-.56568s.0843-.41565.23431-.56568c.15002-.15002.35351-.23431.56568-.23431s.41565.0843.56567.23431" stroke-width=".99999"/></g>
	</g>
	<path class="st8" d="m101.4 191.3c8.4 0 15.8 6 17.4 14.3.9 4.7 0 9.4-2.6 13.4s-6.7 6.6-11.3 7.6c-1.2.2-2.3.3-3.5.3-8.4 0-15.8-6-17.4-14.3-1.9-9.6 4.3-19 14-20.9 1-.3 2.2-.4 3.4-.4" fill="#fff"/>
	<path d="m101.4 225.6c-7.9 0-14.7-5.6-16.2-13.3-.9-4.3 0-8.8 2.5-12.4 2.5-3.7 6.2-6.2 10.5-7.1 1.1-.2 2.2-.3 3.3-.3 7.9 0 14.7 5.6 16.2 13.3 1.8 9-4 17.7-13 19.5-1.2.2-2.3.3-3.3.3m0 2.5c1.2 0 2.5-.1 3.7-.4 10.3-2.1 17-12.1 14.9-22.4-1.8-9-9.7-15.3-18.6-15.3-1.2 0-2.5.1-3.7.4-10.3 2.1-17 12.1-14.9 22.4 1.7 9 9.7 15.3 18.6 15.3"/>
	<path d="m108.54 207.56c.37947 1.8985-.010796 3.87-1.0849 5.4808-1.0741 1.6108-2.7442 2.7289-4.6427 3.1084-1.8985.37947-3.87-.010796-5.4808-1.0849-1.6108-1.0741-2.7289-2.7442-3.1084-4.6427-.37947-1.8985.010796-3.87 1.0849-5.4808 1.0741-1.6108 2.7442-2.7289 4.6427-3.1084 1.8985-.37947 3.87.010796 5.4808 1.0849 1.6108 1.0741 2.7289 2.7442 3.1084 4.6427"/>
	<g fill="none" stroke="#000" stroke-linecap="round" stroke-linejoin="round" stroke-miterlimit="10" stroke-width="1.873">
		<path class="st11" d="m107.1 217.4c1.1-.7 2-1.7 2.7-2.8"/><path class="st11" d="m91.4 211c.3 1.4.8 2.6 1.6 3.7"/><path class="st11" d="m103.4 199.1c-1.3-.3-2.7-.3-4 0-1.4.3-2.6.8-3.7 1.6-1.1.7-2 1.7-2.7 2.8"/><path class="st11" d="m111.3 207.1c-.3-1.4-.8-2.6-1.6-3.7"/><path class="st11" d="m98.2 222.8c1.8.4 3.6.4 5.4 0"/><path class="st11" d="m89.4 201.3c-1.1 1.6-1.8 3.3-2.2 5.1"/><path class="st11" d="m112.7 201.5c-1-1.5-2.3-2.9-3.9-4s-3.3-1.8-5.1-2.2-3.6-.4-5.4 0"/><path class="st11" d="m112.5 217c1.1-1.6 1.8-3.3 2.2-5.1"/>

	</g><path class="st8" d="m150.3 191c1.2 0 2.3.1 3.5.3 9.6 1.9 15.9 11.3 14 20.9-1.7 8.3-9 14.3-17.4 14.3-1.2 0-2.3-.1-3.5-.3-4.7-.9-8.7-3.6-11.3-7.6s-3.6-8.7-2.6-13.4c1.6-8.2 8.9-14.2 17.3-14.2" fill="#fff"/>
	<path d="m150.4 227.8v-2.5c-1.1 0-2.2-.1-3.3-.3-9-1.8-14.8-10.5-13-19.5 1.5-7.7 8.4-13.3 16.2-13.3 1.1 0 2.2.1 3.3.3 4.3.9 8.1 3.4 10.5 7.1 2.5 3.7 3.3 8.1 2.5 12.4-1.5 7.7-8.4 13.3-16.2 13.3v2.5c8.9 0 16.8-6.3 18.6-15.3 2.1-10.3-4.6-20.3-14.9-22.4-1.3-.3-2.5-.4-3.7-.4-8.9 0-16.8 6.3-18.6 15.3-2.1 10.3 4.6 20.3 14.9 22.4 1.2.2 2.4.4 3.7.4"/>
	<path d="m151.74 201.53c1.8985.37947 3.5686 1.4976 4.6427 3.1084s1.4644 3.5823 1.0849 5.4808c-.37947 1.8985-1.4976 3.5686-3.1084 4.6427s-3.5823 1.4644-5.4808 1.0849c-3.9535-.7902-6.5178-4.6357-5.7276-8.5892.37947-1.8985 1.4976-3.5686 3.1084-4.6427s3.5823-1.4644 5.4808-1.0849"/>
	<g fill="none" stroke="#000" stroke-linecap="round" stroke-linejoin="round" stroke-miterlimit="10" stroke-width="1.873">
		<path class="st11" d="m144.7 217.1c-1.1-.7-2-1.7-2.7-2.8"/><path class="st11" d="m160.3 210.7c-.3 1.4-.8 2.6-1.6 3.7"/><path class="st11" d="m148.3 198.8c1.3-.3 2.7-.3 4 0 1.4.3 2.6.8 3.7 1.6 1.1.7 2 1.7 2.7 2.8"/><path class="st11" d="m140.4 206.8c.3-1.4.8-2.6 1.6-3.7"/><path class="st11" d="m153.5 222.5c-1.8.4-3.6.4-5.4 0"/><path class="st11" d="m162.3 201c1.1 1.6 1.8 3.3 2.2 5.1"/><path class="st11" d="m139 201.2c1-1.5 2.3-2.9 3.9-4s3.3-1.8 5.1-2.2 3.6-.4 5.4 0"/><path class="st11" d="m139.2 216.7c-1.1-1.6-1.8-3.3-2.2-5.1"/>
	</g><path d="m136.15 195.11s32.431-7.1263 32.431-7.1263l.056-.0525-.89528-4.0247s-.0471-.0838-.0471-.0838-32.431 7.1263-32.431 7.1263l-.056.0525.94245 4.1085c-.10308-.0312-.056.0525 0 0" stroke-width=".84663"/>
	<path d="m140.3 53.2c0 3.8191-1.5171 7.4818-4.2177 10.182-2.7005 2.7005-6.3632 4.2177-10.182 4.2177s-7.4818-1.5171-10.182-4.2177c-2.7005-2.7005-4.2177-6.3632-4.2177-10.182s1.5171-7.4818 4.2177-10.182c2.7005-2.7005 6.3632-4.2177 10.182-4.2177s7.4818 1.5171 10.182 4.2177c2.7005 2.7005 4.2177 6.3632 4.2177 10.182" fill="#828282"/>
	<g fill="#3c3c3c">
		<path d="m127 64.8c0 .29174-.11589.57153-.32218.77782s-.48608.32218-.77782.32218c-.60751 0-1.1-.49249-1.1-1.1s.49249-1.1 1.1-1.1c.29174 0 .57153.11589.77782.32218s.32218.48608.32218.77782"/><path d="m127 41.7c0 .29174-.11589.57153-.32218.77782s-.48608.32218-.77782.32218c-.60751 0-1.1-.49249-1.1-1.1s.49249-1.1 1.1-1.1c.29174 0 .57153.11589.77782.32218s.32218.48608.32218.77782"/><path d="m134.82 44.343c.20629.20629.32218.48608.32218.77782s-.11589.57153-.32218.77782-.48608.32218-.77782.32218-.57152-.11589-.77781-.32218-.32219-.48608-.32219-.77782.1159-.57153.32219-.77782.48607-.32218.77781-.32218.57153.11589.77782.32218" stroke-width=".99999"/><path d="m118.49 60.629c.20629.20629.32219.48608.32219.77782s-.1159.57153-.32219.77782-.48608.32218-.77781.32218c-.29174 0-.57153-.11589-.77782-.32218s-.32218-.48608-.32218-.77782.11589-.57153.32218-.77782.48608-.32218.77782-.32218c.29173 0 .57152.11589.77781.32218" stroke-width=".99999"/><path d="m138.5 53.2c0 .29174-.11589.57153-.32218.77782s-.48608.32218-.77782.32218-.57153-.11589-.77782-.32218-.32218-.48608-.32218-.77782.11589-.57153.32218-.77782.48608-.32218.77782-.32218.57153.11589.77782.32218.32218.48608.32218.77782"/><path d="m115.4 53.2c0 .60751-.49249 1.1-1.1 1.1-.29174 0-.57153-.11589-.77782-.32218s-.32218-.48608-.32218-.77782c0-.60751.49249-1.1 1.1-1.1s1.1.49249 1.1 1.1"/><path d="m134.81 60.652c.20629.20629.32218.48608.32218.77782s-.11589.57153-.32218.77782-.48608.32218-.77782.32218c-.29173 0-.57152-.11589-.77781-.32218s-.32219-.48608-.32219-.77782.1159-.57153.32219-.77782.48608-.32218.77781-.32218c.29174 0 .57153.11589.77782.32218" stroke-width=".99999"/><path d="m118.51 44.319c.20629.20629.32218.48608.32218.77782s-.11589.57153-.32218.77782-.48608.32218-.77782.32218-.57153-.11589-.77782-.32218-.32218-.48608-.32218-.77782.11589-.57153.32218-.77782.48608-.32218.77782-.32218.57153.11589.77782.32218" stroke-width=".99999"/>
	</g><path d="m134.7 53.2c0 2.3339-.92714 4.5722-2.5775 6.2225-1.6503 1.6503-3.8886 2.5775-6.2225 2.5775s-4.5722-.92714-6.2225-2.5775c-1.6503-1.6503-2.5775-3.8886-2.5775-6.2225s.92714-4.5722 2.5775-6.2225c1.6503-1.6503 3.8886-2.5775 6.2225-2.5775s4.5722.92714 6.2225 2.5775c1.6503 1.6503 2.5775 3.8886 2.5775 6.2225" fill="url(#SVGID_1_)"/>
	<g fill="#fff200">
		<path d="m112.3 123.1v-17.6l4.5 4.5v12l-2.8 2.8-1.7-1.7"/><path d="m136.6 104.7s-4.4 4.5-4.4 4.5h-14.6s-4.4-4.5-4.4-4.5h23.4"/><path d="m136.6 146.6h-23.5s4.4-4.5 4.4-4.5h14.6l4.5 4.5"/><path d="m132.7 123.4 2.3 2.2-2.3 2.2h-15.7l-2.2-2.2 2.2-2.2h15.7"/><path d="m137.5 128.2v17.6l-4.5-4.5v-12l2.9-2.8 1.6 1.7"/>
	</g>
	<g id="prop2-8">
		
			<animateTransform attributeName="transform" attributeType="XML" dur="500ms" from="0 52.1 52.2" repeatCount="indefinite" to="360 52.1 52.2" type="rotate"/>
         <path class="st0" d="m23.6 80.35 27.1-26.6s-.7-1.9-4.8.9c-6.8 5.4-21.9 21.9-22.3 25.7" fill="#232323"/><path class="st5" d="m23.6 80.35 27.1-26.6s1.9 2.1-1.7 5.4-10.8 12.1-19.8 18.6c-3.3 2.5-4.9 3.2-5.6 2.6" fill="#444"/><path class="st9" d="m50.6 53.65c1.2 1.2 1.5 2.8-6.1 10.4-10.3 10.3-19.6 17.7-20.8 16.5s6.2-10.5 16.5-20.8c7.7-7.1 9.2-7.3 10.4-6.1" fill="none" stroke="#000" stroke-miterlimit="10" stroke-width="1.873"/><path class="st0" d="m80.6 23.95-27.1 26.6s.7 1.9 4.8-.9c6.7-5.4 21.9-21.9 22.3-25.7" fill="#232323"/><path class="st5" d="m80.6 23.95-27.1 26.6s-1.9-2.1 1.7-5.4 10.8-12.1 19.8-18.6c3.2-2.5 4.8-3.2 5.6-2.6" fill="#444"/><path class="st9" d="m53.6 50.75c-1.2-1.2-1.5-2.8 6.1-10.4 10.3-10.3 19.6-17.7 20.8-16.5s-6.2 10.5-16.5 20.8c-7.7 7.1-9.2 7.2-10.4 6.1" fill="none" stroke="#000" stroke-miterlimit="10" stroke-width="1.873"/>
		<path d="m48.631 55.662c-.91893-.91892-1.4352-2.1653-1.4352-3.4648s.51625-2.5459 1.4352-3.4648 2.1653-1.4352 3.4648-1.4352 2.5459.51625 3.4648 1.4352c.91893.91893 1.4352 2.1653 1.4352 3.4648s-.51625 2.5459-1.4352 3.4648c-.91892.91893-2.1653 1.4352-3.4648 1.4352s-2.5459-.51625-3.4648-1.4352" fill="#fff" stroke="#000" stroke-miterlimit="10" stroke-width="1.873"/><path d="m49.911 54.392c-.58136-.58136-.90797-1.3699-.90797-2.192s.32661-1.6107.90797-2.192c1.2106-1.2106 3.1734-1.2106 4.3841 0 .58137.58136.90797 1.3699.90797 2.192s-.3266 1.6107-.90797 2.192c-.58136.58137-1.3699.90797-2.192.90797s-1.6107-.3266-2.192-.90797" fill="#fff200" stroke-width=".99999"/><path d="m51.531 52.762c-.15003-.15003-.23432-.35351-.23432-.56568 0-.21218.0843-.41566.23431-.56569.15003-.15003.35351-.23431.56568-.23431s.41566.0843.56568.23432c.15003.15003.23431.35351.23431.56568s-.0843.41565-.23431.56568c-.15002.15002-.35351.23431-.56568.23431s-.41565-.0843-.56567-.23431" stroke-width=".99999"/>
	</g><path d="m115.69 195.11s-32.431-7.1263-32.431-7.1263l-.056-.0525.89528-4.0247s.0471-.0838.0471-.0838 32.431 7.1263 32.431 7.1263l.056.0525-.94245 4.1085c.10308-.0312.056.0525 0 0" stroke-width=".84663"/><path d="m137.5 123.1v-17.6l-4.5 4.5v12l2.8 2.8 1.7-1.7" fill="#fff200"/></svg>
