<?xml version="1.0" encoding="UTF-8" standalone="no"?>
<svg
   xmlns:dc="http://purl.org/dc/elements/1.1/"
   xmlns:cc="http://creativecommons.org/ns#"
   xmlns:rdf="http://www.w3.org/1999/02/22-rdf-syntax-ns#"
   xmlns:svg="http://www.w3.org/2000/svg"
   xmlns="http://www.w3.org/2000/svg"
   xmlns:sodipodi="http://sodipodi.sourceforge.net/DTD/sodipodi-0.dtd"
   xmlns:inkscape="http://www.inkscape.org/namespaces/inkscape"
   width="63.991528mm"
   height="15.663271mm"
   version="1.1"
   viewBox="0 0 63.99153 15.663271"
   id="svg1027"
   sodipodi:docname="keyboard1.svg"
   inkscape:version="0.92.3 (2405546, 2018-03-11)">
  <metadata
     id="metadata1033">
    <rdf:RDF>
      <cc:Work
         rdf:about="">
        <dc:format>image/svg+xml</dc:format>
        <dc:type
           rdf:resource="http://purl.org/dc/dcmitype/StillImage" />
        <dc:title></dc:title>
      </cc:Work>
    </rdf:RDF>
  </metadata>
  <defs
     id="defs1031" />
  <sodipodi:namedview
     pagecolor="#ffffff"
     bordercolor="#666666"
     borderopacity="1"
     objecttolerance="10"
     gridtolerance="10"
     guidetolerance="10"
     inkscape:pageopacity="0"
     inkscape:pageshadow="2"
     inkscape:window-width="2558"
     inkscape:window-height="1418"
     id="namedview1029"
     showgrid="false"
     fit-margin-top="0"
     fit-margin-left="0"
     fit-margin-right="0"
     fit-margin-bottom="0"
     inkscape:zoom="5.6568542"
     inkscape:cx="157.82643"
     inkscape:cy="34.082984"
     inkscape:window-x="1600"
     inkscape:window-y="20"
     inkscape:window-maximized="1"
     inkscape:current-layer="svg1027" />
  <g
     id="g2242"
     transform="translate(-5.3284263,-14.005562)">
    <g
       id="g1388"
       transform="translate(-38.401903,-63.369941)">
      <g
         id="g1326"
         transform="matrix(0.19397,0,0,0.19397,42.467,74.992)"
         style="fill:#424242;stroke:#2c2c2c;stroke-linecap:round">
        <g
           id="g1318"
           style="fill:#424242;stroke:#2c2c2c">
          <path
             id="rect1312"
             d="m 58.1007,55.120998 h 27.590599 c 2.72219,0 4.913701,2.191511 4.913701,4.9137 v 27.5906 c 0,2.722189 -2.191511,4.9137 -4.913701,4.9137 H 58.1007 c -2.722189,0 -4.9137,-2.191511 -4.9137,-4.9137 v -27.5906 c 0,-2.722189 2.191511,-4.9137 4.9137,-4.9137 z"
             style="paint-order:normal"
             inkscape:connector-curvature="0" />
          <path
             id="rect1314"
             d="m 100.4337,55.120998 h 27.5906 c 2.72219,0 4.9137,2.191511 4.9137,4.9137 v 27.5906 c 0,2.722189 -2.19151,4.9137 -4.9137,4.9137 h -27.5906 c -2.722193,0 -4.913703,-2.191511 -4.913703,-4.9137 v -27.5906 c 0,-2.722189 2.19151,-4.9137 4.913703,-4.9137 z"
             style="paint-order:normal"
             inkscape:connector-curvature="0" />
          <path
             id="rect1316"
             d="m 142.76371,55.120998 h 27.5906 c 2.72219,0 4.9137,2.191511 4.9137,4.9137 v 27.5906 c 0,2.722189 -2.19151,4.9137 -4.9137,4.9137 h -27.5906 c -2.72219,0 -4.9137,-2.191511 -4.9137,-4.9137 v -27.5906 c 0,-2.722189 2.19151,-4.9137 4.9137,-4.9137 z"
             style="paint-order:normal"
             inkscape:connector-curvature="0" />
        </g>
        <path
           id="rect1320"
           d="m 185.1037,55.120998 h 27.5906 c 2.72219,0 4.9137,2.191511 4.9137,4.9137 v 27.5906 c 0,2.722189 -2.19151,4.9137 -4.9137,4.9137 h -27.5906 c -2.72219,0 -4.9137,-2.191511 -4.9137,-4.9137 v -27.5906 c 0,-2.722189 2.19151,-4.9137 4.9137,-4.9137 z"
           style="fill:#151515;stroke:#ffff00;paint-order:normal"
           inkscape:connector-curvature="0" />
        <path
           id="rect1322"
           d="M 89.850697,12.788 H 117.4413 c 2.72219,0 4.9137,2.19151 4.9137,4.9137 v 27.590599 c 0,2.72219 -2.19151,4.9137 -4.9137,4.9137 H 89.850697 c -2.72219,0 -4.913701,-2.19151 -4.913701,-4.9137 V 17.7017 c 0,-2.72219 2.191511,-4.9137 4.913701,-4.9137 z"
           style="fill:#424242;stroke:#2c2c2c;paint-order:normal"
           inkscape:connector-curvature="0" />
        <path
           id="rect1324"
           d="m 132.1837,12.788 h 27.5906 c 2.72219,0 4.9137,2.19151 4.9137,4.9137 v 27.590599 c 0,2.72219 -2.19151,4.9137 -4.9137,4.9137 h -27.5906 c -2.72219,0 -4.9137,-2.19151 -4.9137,-4.9137 V 17.7017 c 0,-2.72219 2.19151,-4.9137 4.9137,-4.9137 z"
           style="fill:#151515;stroke:#ffff00;paint-order:normal"
           inkscape:connector-curvature="0" />
      </g>
      <g
         id="g1352"
         word-spacing="0px"
         letter-spacing="0px"
         font-size="25.4px"
         transform="matrix(0.19397,0,0,0.19397,42.467,74.992)"
         style="font-size:25.39999962px;font-family:Roboto;letter-spacing:0px;word-spacing:0px;text-anchor:middle;fill:#f0f0f0;stroke-width:0.26458001px">
        <g
           id="text1330"
           style="line-height:125%;text-align:center"
           aria-label="W">
          <path
             id="path1947"
             style="font-size:25.39999962px;fill:#f0f0f0;stroke-width:0.26458001px"
             d="m 98.262871,34.832837 0.347265,2.38125 0.508497,-2.145605 3.571877,-12.600782 h 2.00918 l 3.48506,12.600782 0.49609,2.182812 0.38447,-2.430859 2.80293,-12.352735 h 2.39365 l -4.37802,18.057813 h -2.17041 l -3.72071,-13.158887 -0.28525,-1.37666 -0.28525,1.37666 -3.857133,13.158887 h -2.17041 L 93.029082,22.4677 h 2.38125 z"
             inkscape:connector-curvature="0" />
        </g>
        <g
           id="text1334"
           style="line-height:125%;text-align:center"
           aria-label="A">
          <path
             id="path1950"
             style="font-size:25.39999962px;fill:#f0f0f0;stroke-width:0.26458001px"
             d="m 75.672012,78.145958 h -7.565429 l -1.699121,4.712891 h -2.455664 l 6.895703,-18.057813 h 2.083593 L 79.8392,82.858849 h -2.443262 z m -6.846093,-1.95957 h 6.13916 l -3.075782,-8.445996 z"
             inkscape:connector-curvature="0" />
        </g>
        <g
           id="text1338"
           style="line-height:125%;text-align:center"
           aria-label="S">
          <path
             id="path1953"
             style="font-size:25.39999962px;fill:#f0f0f0;stroke-width:0.26458001px"
             d="m 114.0924,74.561681 q -3.06338,-0.880567 -4.46484,-2.158008 -1.38907,-1.289844 -1.38907,-3.175 0,-2.133203 1.69912,-3.522266 1.71153,-1.401464 4.44004,-1.401464 1.86036,0 3.31143,0.719336 1.46348,0.719335 2.25723,1.984374 0.80615,1.26504 0.80615,2.765723 h -2.39365 q 0,-1.637109 -1.0418,-2.567285 -1.0418,-0.942578 -2.93936,-0.942578 -1.76113,0 -2.75332,0.781348 -0.97978,0.768945 -0.97978,2.145605 0,1.103809 0.93017,1.872754 0.94258,0.756543 3.18741,1.389062 2.25722,0.63252 3.52226,1.401465 1.27744,0.756543 1.88516,1.773535 0.62012,1.016992 0.62012,2.393653 0,2.195214 -1.71153,3.522265 -1.71152,1.314649 -4.57646,1.314649 -1.86035,0 -3.47266,-0.706934 -1.6123,-0.719336 -2.49287,-1.95957 -0.86816,-1.240235 -0.86816,-2.815332 h 2.39365 q 0,1.637109 1.20303,2.59209 1.21542,0.942578 3.23701,0.942578 1.88515,0 2.88974,-0.768946 1.00459,-0.768945 1.00459,-2.095996 0,-1.32705 -0.93017,-2.046386 -0.93018,-0.731739 -3.37344,-1.438672 z"
             inkscape:connector-curvature="0" />
        </g>
        <g
           id="text1342"
           style="line-height:125%;text-align:center"
           aria-label="D">
          <path
             id="path1956"
             style="font-size:25.39999962px;fill:#f0f0f0;stroke-width:0.26458001px"
             d="M 150.03231,82.858849 V 64.801036 h 5.09737 q 2.35644,0 4.16718,1.041797 1.81074,1.041797 2.79053,2.96416 0.99219,1.922364 1.00459,4.415235 v 1.153418 q 0,2.554882 -0.99219,4.477246 -0.97978,1.922363 -2.81533,2.951757 -1.82314,1.029395 -4.254,1.0542 z m 2.38125,-16.098242 v 14.151074 h 2.50528 q 2.75332,0 4.2788,-1.711524 1.53789,-1.711523 1.53789,-4.874121 v -1.054199 q 0,-3.075781 -1.45107,-4.774902 -1.43867,-1.711524 -4.09277,-1.736328 z"
             inkscape:connector-curvature="0" />
        </g>
        <g
           id="text1346"
           style="line-height:125%;text-align:center"
           aria-label="F">
          <path
             id="path1959"
             style="font-size:25.39999962px;fill:#f0f0f0;stroke-width:0.26458001px"
             d="m 203.26115,74.884142 h -7.57783 v 7.974707 h -2.38125 V 64.801036 h 11.18691 v 1.959571 h -8.80566 v 6.176367 h 7.57783 z"
             inkscape:connector-curvature="0" />
        </g>
        <g
           id="text1350"
           style="line-height:125%;text-align:center"
           aria-label="E">
          <path
             id="path1962"
             style="font-size:25.39999962px;fill:#f0f0f0;stroke-width:0.26458001px"
             d="m 150.44986,32.178735 h -7.82588 v 6.39961 h 9.09092 v 1.947168 H 140.24273 V 22.4677 h 11.34815 v 1.959571 h -8.9669 v 5.804297 h 7.82588 z"
             inkscape:connector-curvature="0" />
        </g>
      </g>
      <g
         id="g1368"
         transform="translate(4.1672,-0.03354)">
        <path
           id="path1354"
           style="fill:#151515;stroke:#ffff00;stroke-width:0.26458001;stroke-linecap:round;paint-order:normal"
           d="m 80.245,78.026 h 14.221 v 6.2177 H 80.245 Z"
           inkscape:connector-curvature="0" />
        <g
           id="g1366"
           aria-label="Start"
           transform="matrix(0.8911,0,0,0.8911,-1.3846,4.8196)"
           style="fill:#f6f6f6;stroke-width:0.52916998">
          <path
             id="path1356"
             d="m 95.417,85.662 q -0.6382,-0.18345 -0.93018,-0.44958 -0.28939,-0.26872 -0.28939,-0.66146 0,-0.44442 0.35398,-0.7338 0.35657,-0.29197 0.92501,-0.29197 0.38757,0 0.68988,0.14986 0.30489,0.14986 0.47026,0.41341 0.16795,0.26355 0.16795,0.57619 h -0.49868 q 0,-0.34106 -0.21704,-0.53485 -0.21704,-0.19637 -0.61236,-0.19637 -0.3669,0 -0.57361,0.16278 -0.20412,0.1602 -0.20412,0.447 0,0.22996 0.19379,0.39016 0.19637,0.15761 0.66404,0.28939 0.47026,0.13177 0.73381,0.29197 0.26613,0.15761 0.39274,0.36949 0.12919,0.21187 0.12919,0.49868 0,0.45734 -0.35657,0.73381 -0.35657,0.27388 -0.95343,0.27388 -0.38757,0 -0.72347,-0.14728 -0.3359,-0.14986 -0.51935,-0.40824 -0.18087,-0.25838 -0.18087,-0.58653 h 0.49868 q 0,0.34106 0.25063,0.54002 0.25321,0.19637 0.67438,0.19637 0.39274,0 0.60203,-0.1602 0.20929,-0.1602 0.20929,-0.43667 0,-0.27647 -0.19379,-0.42633 -0.19379,-0.15245 -0.7028,-0.29972 z"
             inkscape:connector-curvature="0" />
          <path
             id="path1358"
             d="m 98.024,83.866 v 0.67696 h 0.52193 v 0.36949 H 98.024 v 1.7337 q 0,0.16795 0.06976,0.25322 0.06976,0.08268 0.23771,0.08268 0.08268,0 0.22738,-0.03101 v 0.38757 q -0.18862,0.05168 -0.3669,0.05168 -0.32039,0 -0.48317,-0.19379 Q 97.546,87.00271 97.546,86.64615 v -1.7337 H 97.03699 V 84.54296 H 97.546 V 83.866 Z"
             inkscape:connector-curvature="0" />
          <path
             id="path1360"
             d="m 100.83,87.339 q -0.0413,-0.08268 -0.0672,-0.29456 -0.33332,0.34623 -0.79582,0.34623 -0.41341,0 -0.67954,-0.23254 -0.26355,-0.23513 -0.26355,-0.59428 0,-0.43667 0.33073,-0.67696 0.33331,-0.24288 0.93535,-0.24288 h 0.46509 v -0.21962 q 0,-0.25063 -0.14987,-0.39791 -0.14986,-0.14986 -0.44183,-0.14986 -0.2558,0 -0.42891,0.12919 -0.17311,0.12919 -0.17312,0.31264 h -0.48059 q 0,-0.20929 0.14728,-0.40308 0.14986,-0.19637 0.40308,-0.31006 0.2558,-0.11369 0.56069,-0.11369 0.48318,0 0.75706,0.24288 0.27389,0.2403 0.28422,0.66404 v 1.2867 q 0,0.38499 0.0982,0.61236 v 0.04134 z m -0.79324,-0.36432 q 0.2248,0 0.42633,-0.11627 0.20154,-0.11627 0.29198,-0.30231 v -0.57361 h -0.37466 q -0.8785,0 -0.8785,0.51418 0,0.22479 0.14986,0.3514 0.14986,0.12661 0.38499,0.12661 z"
             inkscape:connector-curvature="0" />
          <path
             id="path1362"
             d="m 103.34,84.972 q -0.10852,-0.01809 -0.23513,-0.01809 -0.47026,0 -0.6382,0.40049 v 1.9844 h -0.47801 v -2.7957 h 0.46509 l 0.008,0.32298 q 0.23513,-0.37465 0.66662,-0.37465 0.13953,0 0.21188,0.03617 z"
             inkscape:connector-curvature="0" />
          <path
             id="path1364"
             d="m 104.56,83.866 v 0.67696 h 0.52193 v 0.36949 H 104.56 v 1.7337 q 0,0.16795 0.0698,0.25322 0.0698,0.08268 0.23772,0.08268 0.0827,0 0.22737,-0.03101 v 0.38757 q -0.18862,0.05168 -0.3669,0.05168 -0.32039,0 -0.48318,-0.19379 -0.16278,-0.19379 -0.16278,-0.55035 v -1.7337 h -0.50901 v -0.36949 h 0.50901 V 83.866 Z"
             inkscape:connector-curvature="0" />
        </g>
      </g>
      <g
         id="g1382"
         transform="translate(-15.957,-0.52017)">
        <path
           id="path1370"
           style="fill:#151515;stroke:#ffff00;stroke-width:0.26458001;stroke-linecap:round;paint-order:normal"
           d="m 103.64,86.724 h 10.947 v 6.2177 H 103.64 Z"
           inkscape:connector-curvature="0" />
        <g
           id="g1380"
           aria-label="Fire"
           transform="matrix(0.8911,0,0,0.8911,4.9344,13.518)"
           style="fill:#f6f6f6;stroke-width:0.52916998">
          <path
             id="path1372"
             d="m 114.9,85.678 h -1.5787 v 1.6614 h -0.49609 v -3.762 h 2.3306 v 0.40824 h -1.8345 v 1.2867 h 1.5787 z"
             inkscape:connector-curvature="0" />
          <path
             id="path1374"
             d="m 116.2,87.339 h -0.47801 V 84.5433 H 116.2 Z m -0.51677,-3.5373 q 0,-0.11627 0.0698,-0.19637 0.0723,-0.0801 0.21187,-0.0801 0.13953,0 0.21187,0.0801 0.0724,0.0801 0.0724,0.19637 0,0.11627 -0.0724,0.19379 -0.0723,0.07752 -0.21187,0.07752 -0.13953,0 -0.21187,-0.07752 -0.0698,-0.07751 -0.0698,-0.19379 z"
             inkscape:connector-curvature="0" />
          <path
             id="path1376"
             d="m 118.31,84.972 q -0.10852,-0.01809 -0.23512,-0.01809 -0.47026,0 -0.63821,0.40049 v 1.9844 h -0.478 v -2.7957 h 0.46508 l 0.008,0.32298 q 0.23512,-0.37465 0.66662,-0.37465 0.13953,0 0.21187,0.03617 z"
             inkscape:connector-curvature="0" />
          <path
             id="path1378"
             d="m 119.91,87.391 q -0.56844,0 -0.92501,-0.37207 -0.35657,-0.37466 -0.35657,-0.99994 v -0.08785 q 0,-0.416 0.15761,-0.74156 0.1602,-0.32814 0.44442,-0.5116 0.28681,-0.18604 0.62012,-0.18604 0.54518,0 0.84749,0.35915 0.30231,0.35915 0.30231,1.0284 v 0.19896 h -1.8939 q 0.0103,0.41341 0.24029,0.66921 0.23255,0.25322 0.58911,0.25322 0.25322,0 0.42892,-0.10335 0.1757,-0.10335 0.30747,-0.27388 l 0.29198,0.22738 q -0.3514,0.54002 -1.0542,0.54002 z m -0.0594,-2.5063 q -0.28939,0 -0.48576,0.21187 -0.19637,0.20929 -0.24288,0.58911 h 1.4004 v -0.03617 q -0.0207,-0.36432 -0.19637,-0.56327 -0.1757,-0.20154 -0.47542,-0.20154 z"
             inkscape:connector-curvature="0" />
        </g>
      </g>
      <path
         inkscape:connector-curvature="0"
         id="path1384"
         d="m 74.414062,80.873047 v 0.265625 h 9.962891 v -0.265625 z"
         style="color:#000000;font-style:normal;font-variant:normal;font-weight:normal;font-stretch:normal;font-size:medium;line-height:normal;font-family:sans-serif;font-variant-ligatures:normal;font-variant-position:normal;font-variant-caps:normal;font-variant-numeric:normal;font-variant-alternates:normal;font-feature-settings:normal;text-indent:0;text-align:start;text-decoration:none;text-decoration-line:none;text-decoration-style:solid;text-decoration-color:#000000;letter-spacing:normal;word-spacing:normal;text-transform:none;writing-mode:lr-tb;direction:ltr;text-orientation:mixed;dominant-baseline:auto;baseline-shift:baseline;text-anchor:start;white-space:normal;shape-padding:0;clip-rule:nonzero;display:inline;overflow:visible;visibility:visible;opacity:1;isolation:auto;mix-blend-mode:normal;color-interpolation:sRGB;color-interpolation-filters:linearRGB;solid-color:#000000;solid-opacity:1;vector-effect:none;fill:#ffff00;fill-opacity:1;fill-rule:nonzero;stroke:none;stroke-width:0.26499999;stroke-linecap:butt;stroke-linejoin:miter;stroke-miterlimit:4;stroke-dasharray:none;stroke-dashoffset:0;stroke-opacity:1;color-rendering:auto;image-rendering:auto;shape-rendering:auto;text-rendering:auto;enable-background:accumulate" />
      <path
         inkscape:connector-curvature="0"
         id="path1386"
         d="m 84.705078,89.199219 v 0.265625 h 2.923828 v -0.265625 z"
         style="color:#000000;font-style:normal;font-variant:normal;font-weight:normal;font-stretch:normal;font-size:medium;line-height:normal;font-family:sans-serif;font-variant-ligatures:normal;font-variant-position:normal;font-variant-caps:normal;font-variant-numeric:normal;font-variant-alternates:normal;font-feature-settings:normal;text-indent:0;text-align:start;text-decoration:none;text-decoration-line:none;text-decoration-style:solid;text-decoration-color:#000000;letter-spacing:normal;word-spacing:normal;text-transform:none;writing-mode:lr-tb;direction:ltr;text-orientation:mixed;dominant-baseline:auto;baseline-shift:baseline;text-anchor:start;white-space:normal;shape-padding:0;clip-rule:nonzero;display:inline;overflow:visible;visibility:visible;opacity:1;isolation:auto;mix-blend-mode:normal;color-interpolation:sRGB;color-interpolation-filters:linearRGB;solid-color:#000000;solid-opacity:1;vector-effect:none;fill:#ffff00;fill-opacity:1;fill-rule:nonzero;stroke:none;stroke-width:0.26499999;stroke-linecap:butt;stroke-linejoin:miter;stroke-miterlimit:4;stroke-dasharray:none;stroke-dashoffset:0;stroke-opacity:1;color-rendering:auto;image-rendering:auto;shape-rendering:auto;text-rendering:auto;enable-background:accumulate" />
    </g>
  </g>
</svg>
