<?xml version="1.0" encoding="UTF-8" standalone="no"?>
<svg
   xmlns:dc="http://purl.org/dc/elements/1.1/"
   xmlns:cc="http://creativecommons.org/ns#"
   xmlns:rdf="http://www.w3.org/1999/02/22-rdf-syntax-ns#"
   xmlns:svg="http://www.w3.org/2000/svg"
   xmlns="http://www.w3.org/2000/svg"
   xmlns:sodipodi="http://sodipodi.sourceforge.net/DTD/sodipodi-0.dtd"
   xmlns:inkscape="http://www.inkscape.org/namespaces/inkscape"
   width="63.991528mm"
   height="15.663271mm"
   version="1.1"
   viewBox="0 0 63.99153 15.663271"
   id="svg1027"
   sodipodi:docname="keyboard2.svg"
   inkscape:version="0.92.3 (2405546, 2018-03-11)">
  <metadata
     id="metadata1033">
    <rdf:RDF>
      <cc:Work
         rdf:about="">
        <dc:format>image/svg+xml</dc:format>
        <dc:type
           rdf:resource="http://purl.org/dc/dcmitype/StillImage" />
        <dc:title></dc:title>
      </cc:Work>
    </rdf:RDF>
  </metadata>
  <defs
     id="defs1031" />
  <sodipodi:namedview
     pagecolor="#ffffff"
     bordercolor="#666666"
     borderopacity="1"
     objecttolerance="10"
     gridtolerance="10"
     guidetolerance="10"
     inkscape:pageopacity="0"
     inkscape:pageshadow="2"
     inkscape:window-width="2558"
     inkscape:window-height="1418"
     id="namedview1029"
     showgrid="false"
     fit-margin-top="0"
     fit-margin-left="0"
     fit-margin-right="0"
     fit-margin-bottom="0"
     inkscape:zoom="5.6568542"
     inkscape:cx="157.82643"
     inkscape:cy="34.082984"
     inkscape:window-x="1600"
     inkscape:window-y="20"
     inkscape:window-maximized="1"
     inkscape:current-layer="svg1027" />
  <path
     style="fill:#424242;stroke:#2c2c2c;stroke-width:0.19396999;stroke-linecap:round;paint-order:normal"
     d="M 1.0500954,8.3083162 H 6.401844 c 0.5280231,0 0.9531104,0.4250873 0.9531104,0.9531104 v 5.3517484 c 0,0.528023 -0.4250873,0.953111 -0.9531104,0.953111 H 1.0500954 c -0.52802317,0 -0.9531104,-0.425088 -0.9531104,-0.953111 V 9.2614266 c 0,-0.5280231 0.42508723,-0.9531104 0.9531104,-0.9531104 z"
     id="rect949" />
  <path
     style="fill:#424242;stroke:#2c2c2c;stroke-width:0.19396999;stroke-linecap:round;paint-order:normal"
     d="m 9.2614266,8.3083162 h 5.3517484 c 0.528023,0 0.953111,0.4250873 0.953111,0.9531104 v 5.3517484 c 0,0.528023 -0.425088,0.953111 -0.953111,0.953111 H 9.2614266 c -0.5280231,0 -0.9531104,-0.425088 -0.9531104,-0.953111 V 9.2614266 c 0,-0.5280231 0.4250873,-0.9531104 0.9531104,-0.9531104 z"
     id="rect951" />
  <path
     style="fill:#424242;stroke:#2c2c2c;stroke-width:0.19396999;stroke-linecap:round;paint-order:normal"
     d="m 17.47218,8.3083162 h 5.351749 c 0.528023,0 0.95311,0.4250873 0.95311,0.9531104 v 5.3517484 c 0,0.528023 -0.425087,0.953111 -0.95311,0.953111 H 17.47218 c -0.528023,0 -0.95311,-0.425088 -0.95311,-0.953111 V 9.2614266 c 0,-0.5280231 0.425087,-0.9531104 0.95311,-0.9531104 z"
     id="rect953" />
  <path
     style="fill:#151515;stroke:#ffff00;stroke-width:0.19396999;stroke-linecap:round;paint-order:normal"
     d="m 31.19088,8.3083162 h 14.781926 c 0.528023,0 0.953111,0.4250873 0.953111,0.9531104 v 5.3517494 c 0,0.528023 -0.425088,0.95311 -0.953111,0.95311 H 31.19088 c -0.528023,0 -0.95311,-0.425087 -0.95311,-0.95311 V 9.2614266 c 0,-0.5280231 0.425087,-0.9531104 0.95311,-0.9531104 z"
     id="rect957" />
  <g
     id="g1100"
     transform="translate(2.0527976,-5.0338358e-4)">
    <path
       style="fill:#424242;stroke:#2c2c2c;stroke-width:0.19396999;stroke-linecap:round;paint-order:normal"
       d="m 7.2083394,0.09748838 h 5.3517486 c 0.528023,0 0.95311,0.42508724 0.95311,0.95311042 v 5.3517486 c 0,0.5280231 -0.425087,0.9531104 -0.95311,0.9531104 H 7.2083394 c -0.5280232,0 -0.9531104,-0.4250873 -0.9531104,-0.9531104 V 1.0505988 c 0,-0.52802318 0.4250872,-0.95311042 0.9531104,-0.95311042 z"
       id="rect959" />
  </g>
  <g
     aria-label="0"
     style="font-size:2.32764006px;line-height:125%;font-family:Roboto;text-align:center;letter-spacing:0px;word-spacing:0px;text-anchor:middle;fill:#f0f0f0;stroke-width:0.05132059px"
     id="text983">
    <path
       d="m 34.837974,12.194698 q 0,0.781847 -0.26703,1.161945 -0.267031,0.380098 -0.834772,0.380098 -0.560524,0 -0.829961,-0.370475 -0.269436,-0.372881 -0.279059,-1.111426 v -0.594203 q 0,-0.772224 0.267031,-1.147511 0.267031,-0.375286 0.837177,-0.375286 0.565336,0 0.832367,0.363258 0.26703,0.360852 0.274247,1.116237 z m -0.445051,-0.608637 q 0,-0.565336 -0.158775,-0.822744 -0.158775,-0.259813 -0.502788,-0.259813 -0.341607,0 -0.497976,0.257408 -0.156369,0.257408 -0.161181,0.791469 v 0.712082 q 0,0.567741 0.163587,0.839583 0.165992,0.269437 0.500382,0.269437 0.329578,0 0.488353,-0.255003 0.161181,-0.255002 0.168398,-0.803498 z"
       style="font-size:4.92683792px;fill:#f0f0f0;stroke-width:0.05132059px"
       id="path1177" />
  </g>
  <g
     id="g1095"
     transform="translate(1.1062787,-5.0338358e-4)">
    <path
       style="fill:#151515;stroke:#ffff00;stroke-width:0.19396999;stroke-linecap:round;paint-order:normal"
       d="m 30.084601,0.09748838 h 5.351749 c 0.528023,0 0.95311,0.42508724 0.95311,0.95311042 v 5.3517486 c 0,0.5280231 -0.425087,0.9531104 -0.95311,0.9531104 h -5.351749 c -0.528023,0 -0.95311,-0.4250873 -0.95311,-0.9531104 V 1.0505988 c 0,-0.52802318 0.425087,-0.95311042 0.95311,-0.95311042 z"
       id="rect961" />
    <g
       aria-label="1"
       style="font-size:2.32764006px;line-height:125%;font-family:Roboto;text-align:center;letter-spacing:0px;word-spacing:0px;text-anchor:middle;fill:#f0f0f0;stroke-width:0.05132059px"
       id="text987">
      <path
         d="M 33.009431,5.4777336 H 32.561974 V 2.511527 l -0.89732,0.3295785 V 2.4369508 L 32.939666,1.95822 h 0.06976 z"
         style="font-size:4.92683792px;fill:#f0f0f0;stroke-width:0.05132059px"
         id="path1181" />
    </g>
  </g>
  <g
     id="g1005"
     transform="translate(-30.60676,-77.409043)">
    <path
       inkscape:connector-curvature="0"
       id="path991"
       style="fill:#151515;stroke:#ffff00;stroke-width:0.26458001;stroke-linecap:round;paint-order:normal"
       d="m 80.245,78.026 h 14.221 v 6.2177 H 80.245 Z" />
    <g
       style="fill:#f6f6f6;stroke-width:0.52916998"
       id="g1003"
       aria-label="Start"
       transform="matrix(0.8911,0,0,0.8911,-1.3846,4.8196)">
      <path
         inkscape:connector-curvature="0"
         id="path993"
         d="m 95.417,85.662 q -0.6382,-0.18345 -0.93018,-0.44958 -0.28939,-0.26872 -0.28939,-0.66146 0,-0.44442 0.35398,-0.7338 0.35657,-0.29197 0.92501,-0.29197 0.38757,0 0.68988,0.14986 0.30489,0.14986 0.47026,0.41341 0.16795,0.26355 0.16795,0.57619 h -0.49868 q 0,-0.34106 -0.21704,-0.53485 -0.21704,-0.19637 -0.61236,-0.19637 -0.3669,0 -0.57361,0.16278 -0.20412,0.1602 -0.20412,0.447 0,0.22996 0.19379,0.39016 0.19637,0.15761 0.66404,0.28939 0.47026,0.13177 0.73381,0.29197 0.26613,0.15761 0.39274,0.36949 0.12919,0.21187 0.12919,0.49868 0,0.45734 -0.35657,0.73381 -0.35657,0.27388 -0.95343,0.27388 -0.38757,0 -0.72347,-0.14728 -0.3359,-0.14986 -0.51935,-0.40824 -0.18087,-0.25838 -0.18087,-0.58653 h 0.49868 q 0,0.34106 0.25063,0.54002 0.25321,0.19637 0.67438,0.19637 0.39274,0 0.60203,-0.1602 0.20929,-0.1602 0.20929,-0.43667 0,-0.27647 -0.19379,-0.42633 -0.19379,-0.15245 -0.7028,-0.29972 z" />
      <path
         inkscape:connector-curvature="0"
         id="path995"
         d="m 98.024,83.866 v 0.67696 h 0.52193 v 0.36949 H 98.024 v 1.7337 q 0,0.16795 0.06976,0.25322 0.06976,0.08268 0.23771,0.08268 0.08268,0 0.22738,-0.03101 v 0.38757 q -0.18862,0.05168 -0.3669,0.05168 -0.32039,0 -0.48317,-0.19379 Q 97.546,87.00271 97.546,86.64615 v -1.7337 H 97.03699 V 84.54296 H 97.546 V 83.866 Z" />
      <path
         inkscape:connector-curvature="0"
         id="path997"
         d="m 100.83,87.339 q -0.0413,-0.08268 -0.0672,-0.29456 -0.33332,0.34623 -0.79582,0.34623 -0.41341,0 -0.67954,-0.23254 -0.26355,-0.23513 -0.26355,-0.59428 0,-0.43667 0.33073,-0.67696 0.33331,-0.24288 0.93535,-0.24288 h 0.46509 v -0.21962 q 0,-0.25063 -0.14987,-0.39791 -0.14986,-0.14986 -0.44183,-0.14986 -0.2558,0 -0.42891,0.12919 -0.17311,0.12919 -0.17312,0.31264 h -0.48059 q 0,-0.20929 0.14728,-0.40308 0.14986,-0.19637 0.40308,-0.31006 0.2558,-0.11369 0.56069,-0.11369 0.48318,0 0.75706,0.24288 0.27389,0.2403 0.28422,0.66404 v 1.2867 q 0,0.38499 0.0982,0.61236 v 0.04134 z m -0.79324,-0.36432 q 0.2248,0 0.42633,-0.11627 0.20154,-0.11627 0.29198,-0.30231 v -0.57361 h -0.37466 q -0.8785,0 -0.8785,0.51418 0,0.22479 0.14986,0.3514 0.14986,0.12661 0.38499,0.12661 z" />
      <path
         inkscape:connector-curvature="0"
         id="path999"
         d="m 103.34,84.972 q -0.10852,-0.01809 -0.23513,-0.01809 -0.47026,0 -0.6382,0.40049 v 1.9844 h -0.47801 v -2.7957 h 0.46509 l 0.008,0.32298 q 0.23513,-0.37465 0.66662,-0.37465 0.13953,0 0.21188,0.03617 z" />
      <path
         inkscape:connector-curvature="0"
         id="path1001"
         d="m 104.56,83.866 v 0.67696 h 0.52193 v 0.36949 H 104.56 v 1.7337 q 0,0.16795 0.0698,0.25322 0.0698,0.08268 0.23772,0.08268 0.0827,0 0.22737,-0.03101 v 0.38757 q -0.18862,0.05168 -0.3669,0.05168 -0.32039,0 -0.48318,-0.19379 -0.16278,-0.19379 -0.16278,-0.55035 v -1.7337 h -0.50901 v -0.36949 h 0.50901 V 83.866 Z" />
    </g>
  </g>
  <g
     id="g1019"
     transform="translate(-50.72776,-77.895673)">
    <path
       inkscape:connector-curvature="0"
       id="path1007"
       style="fill:#151515;stroke:#ffff00;stroke-width:0.26458001;stroke-linecap:round;paint-order:normal"
       d="m 103.64,86.724 h 10.947 v 6.2177 H 103.64 Z" />
    <g
       style="fill:#f6f6f6;stroke-width:0.52916998"
       id="g1017"
       aria-label="Fire"
       transform="matrix(0.8911,0,0,0.8911,4.9344,13.518)">
      <path
         inkscape:connector-curvature="0"
         id="path1009"
         d="m 114.9,85.678 h -1.5787 v 1.6614 h -0.49609 v -3.762 h 2.3306 v 0.40824 h -1.8345 v 1.2867 h 1.5787 z" />
      <path
         inkscape:connector-curvature="0"
         id="path1011"
         d="m 116.2,87.339 h -0.47801 V 84.5433 H 116.2 Z m -0.51677,-3.5373 q 0,-0.11627 0.0698,-0.19637 0.0723,-0.0801 0.21187,-0.0801 0.13953,0 0.21187,0.0801 0.0724,0.0801 0.0724,0.19637 0,0.11627 -0.0724,0.19379 -0.0723,0.07752 -0.21187,0.07752 -0.13953,0 -0.21187,-0.07752 -0.0698,-0.07751 -0.0698,-0.19379 z" />
      <path
         inkscape:connector-curvature="0"
         id="path1013"
         d="m 118.31,84.972 q -0.10852,-0.01809 -0.23512,-0.01809 -0.47026,0 -0.63821,0.40049 v 1.9844 h -0.478 v -2.7957 h 0.46508 l 0.008,0.32298 q 0.23512,-0.37465 0.66662,-0.37465 0.13953,0 0.21187,0.03617 z" />
      <path
         inkscape:connector-curvature="0"
         id="path1015"
         d="m 119.91,87.391 q -0.56844,0 -0.92501,-0.37207 -0.35657,-0.37466 -0.35657,-0.99994 v -0.08785 q 0,-0.416 0.15761,-0.74156 0.1602,-0.32814 0.44442,-0.5116 0.28681,-0.18604 0.62012,-0.18604 0.54518,0 0.84749,0.35915 0.30231,0.35915 0.30231,1.0284 v 0.19896 h -1.8939 q 0.0103,0.41341 0.24029,0.66921 0.23255,0.25322 0.58911,0.25322 0.25322,0 0.42892,-0.10335 0.1757,-0.10335 0.30747,-0.27388 l 0.29198,0.22738 q -0.3514,0.54002 -1.0542,0.54002 z m -0.0594,-2.5063 q -0.28939,0 -0.48576,0.21187 -0.19637,0.20929 -0.24288,0.58911 h 1.4004 v -0.03617 q -0.0207,-0.36432 -0.19637,-0.56327 -0.1757,-0.20154 -0.47542,-0.20154 z" />
    </g>
  </g>
  <path
     style="color:#000000;font-style:normal;font-variant:normal;font-weight:normal;font-stretch:normal;font-size:medium;line-height:normal;font-family:sans-serif;font-variant-ligatures:normal;font-variant-position:normal;font-variant-caps:normal;font-variant-numeric:normal;font-variant-alternates:normal;font-feature-settings:normal;text-indent:0;text-align:start;text-decoration:none;text-decoration-line:none;text-decoration-style:solid;text-decoration-color:#000000;letter-spacing:normal;word-spacing:normal;text-transform:none;writing-mode:lr-tb;direction:ltr;text-orientation:mixed;dominant-baseline:auto;baseline-shift:baseline;text-anchor:start;white-space:normal;shape-padding:0;clip-rule:nonzero;display:inline;overflow:visible;visibility:visible;opacity:1;isolation:auto;mix-blend-mode:normal;color-interpolation:sRGB;color-interpolation-filters:linearRGB;solid-color:#000000;solid-opacity:1;vector-effect:none;fill:#ffff00;fill-opacity:1;fill-rule:nonzero;stroke:none;stroke-width:0.26499999;stroke-linecap:butt;stroke-linejoin:miter;stroke-miterlimit:4;stroke-dasharray:none;stroke-dashoffset:0;stroke-opacity:1;color-rendering:auto;image-rendering:auto;shape-rendering:auto;text-rendering:auto;enable-background:accumulate"
     d="m 37.449219,3.4980469 v 0.265625 h 12.210937 v -0.265625 z"
     id="path1021"
     inkscape:connector-curvature="0" />
  <path
     style="color:#000000;font-style:normal;font-variant:normal;font-weight:normal;font-stretch:normal;font-size:medium;line-height:normal;font-family:sans-serif;font-variant-ligatures:normal;font-variant-position:normal;font-variant-caps:normal;font-variant-numeric:normal;font-variant-alternates:normal;font-feature-settings:normal;text-indent:0;text-align:start;text-decoration:none;text-decoration-line:none;text-decoration-style:solid;text-decoration-color:#000000;letter-spacing:normal;word-spacing:normal;text-transform:none;writing-mode:lr-tb;direction:ltr;text-orientation:mixed;dominant-baseline:auto;baseline-shift:baseline;text-anchor:start;white-space:normal;shape-padding:0;clip-rule:nonzero;display:inline;overflow:visible;visibility:visible;opacity:1;isolation:auto;mix-blend-mode:normal;color-interpolation:sRGB;color-interpolation-filters:linearRGB;solid-color:#000000;solid-opacity:1;vector-effect:none;fill:#ffff00;fill-opacity:1;fill-rule:nonzero;stroke:none;stroke-width:0.26499999;stroke-linecap:butt;stroke-linejoin:miter;stroke-miterlimit:4;stroke-dasharray:none;stroke-dashoffset:0;stroke-opacity:1;color-rendering:auto;image-rendering:auto;shape-rendering:auto;text-rendering:auto;enable-background:accumulate"
     d="m 46.921875,11.824219 v 0.265625 h 5.982422 v -0.265625 z"
     id="path1023"
     inkscape:connector-curvature="0" />
  <g
     id="g1110"
     transform="translate(-1.2053397,0.03867049)"
     style="fill:none;stroke:#f0f0f0;stroke-opacity:1">
    <path
       style="color:#000000;font-style:normal;font-variant:normal;font-weight:normal;font-stretch:normal;font-size:medium;line-height:normal;font-family:sans-serif;font-variant-ligatures:normal;font-variant-position:normal;font-variant-caps:normal;font-variant-numeric:normal;font-variant-alternates:normal;font-feature-settings:normal;text-indent:0;text-align:start;text-decoration:none;text-decoration-line:none;text-decoration-style:solid;text-decoration-color:#000000;letter-spacing:normal;word-spacing:normal;text-transform:none;writing-mode:lr-tb;direction:ltr;text-orientation:mixed;dominant-baseline:auto;baseline-shift:baseline;text-anchor:start;white-space:normal;shape-padding:0;clip-rule:nonzero;display:inline;overflow:visible;visibility:visible;opacity:1;isolation:auto;mix-blend-mode:normal;color-interpolation:sRGB;color-interpolation-filters:linearRGB;solid-color:#000000;solid-opacity:1;vector-effect:none;fill:#f0f0f0;fill-opacity:1;fill-rule:evenodd;stroke:none;stroke-width:1.60000002;stroke-linecap:butt;stroke-linejoin:miter;stroke-miterlimit:4;stroke-dasharray:none;stroke-dashoffset:0;stroke-opacity:1;color-rendering:auto;image-rendering:auto;shape-rendering:auto;text-rendering:auto;enable-background:accumulate"
       d="M 45.117188 7.3144531 L 41.212891 12.208984 L 42.466797 13.205078 L 44.320312 10.880859 L 44.320312 20.851562 L 45.914062 20.851562 L 45.914062 10.880859 L 47.767578 13.205078 L 49.015625 12.208984 L 45.117188 7.3144531 z "
       transform="matrix(0.26458334,0,0,0.26458334,1.2053397,-0.03867049)"
       id="path1102" />
  </g>
  <g
     style="fill:none;stroke:#f0f0f0;stroke-opacity:1"
     transform="matrix(1,0,0,-1,-1.2050498,15.624601)"
     id="g1116">
    <path
       style="color:#000000;font-style:normal;font-variant:normal;font-weight:normal;font-stretch:normal;font-size:medium;line-height:normal;font-family:sans-serif;font-variant-ligatures:normal;font-variant-position:normal;font-variant-caps:normal;font-variant-numeric:normal;font-variant-alternates:normal;font-feature-settings:normal;text-indent:0;text-align:start;text-decoration:none;text-decoration-line:none;text-decoration-style:solid;text-decoration-color:#000000;letter-spacing:normal;word-spacing:normal;text-transform:none;writing-mode:lr-tb;direction:ltr;text-orientation:mixed;dominant-baseline:auto;baseline-shift:baseline;text-anchor:start;white-space:normal;shape-padding:0;clip-rule:nonzero;display:inline;overflow:visible;visibility:visible;opacity:1;isolation:auto;mix-blend-mode:normal;color-interpolation:sRGB;color-interpolation-filters:linearRGB;solid-color:#000000;solid-opacity:1;vector-effect:none;fill:#f0f0f0;fill-opacity:1;fill-rule:evenodd;stroke:none;stroke-width:1.60000002;stroke-linecap:butt;stroke-linejoin:miter;stroke-miterlimit:4;stroke-dasharray:none;stroke-dashoffset:0;stroke-opacity:1;color-rendering:auto;image-rendering:auto;shape-rendering:auto;text-rendering:auto;enable-background:accumulate"
       d="M 44.320312 38.347656 L 44.320312 48.314453 L 42.46875 45.994141 L 41.212891 46.992188 L 45.119141 51.886719 L 49.015625 46.992188 L 47.767578 45.994141 L 45.916016 48.316406 L 45.916016 38.347656 L 44.320312 38.347656 z "
       transform="matrix(0.26458334,0,0,-0.26458334,1.2050498,15.624601)"
       id="path1112" />
  </g>
  <g
     id="g1122"
     transform="matrix(0,-1,-1,0,23.835353,25.079652)"
     style="fill:none;stroke:#f0f0f0;stroke-opacity:1">
    <path
       style="color:#000000;font-style:normal;font-variant:normal;font-weight:normal;font-stretch:normal;font-size:medium;line-height:normal;font-family:sans-serif;font-variant-ligatures:normal;font-variant-position:normal;font-variant-caps:normal;font-variant-numeric:normal;font-variant-alternates:normal;font-feature-settings:normal;text-indent:0;text-align:start;text-decoration:none;text-decoration-line:none;text-decoration-style:solid;text-decoration-color:#000000;letter-spacing:normal;word-spacing:normal;text-transform:none;writing-mode:lr-tb;direction:ltr;text-orientation:mixed;dominant-baseline:auto;baseline-shift:baseline;text-anchor:start;white-space:normal;shape-padding:0;clip-rule:nonzero;display:inline;overflow:visible;visibility:visible;opacity:1;isolation:auto;mix-blend-mode:normal;color-interpolation:sRGB;color-interpolation-filters:linearRGB;solid-color:#000000;solid-opacity:1;vector-effect:none;fill:#f0f0f0;fill-opacity:1;fill-rule:evenodd;stroke:none;stroke-width:1.60000002;stroke-linecap:butt;stroke-linejoin:miter;stroke-miterlimit:4;stroke-dasharray:none;stroke-dashoffset:0;stroke-opacity:1;color-rendering:auto;image-rendering:auto;shape-rendering:auto;text-rendering:auto;enable-background:accumulate"
       d="M 78.023438 41.21875 L 77.027344 42.466797 L 79.347656 44.318359 L 69.380859 44.318359 L 69.380859 45.914062 L 79.349609 45.914062 L 77.027344 47.765625 L 78.023438 49.021484 L 82.917969 45.117188 L 78.023438 41.21875 z "
       transform="matrix(0,-0.26458334,-0.26458334,0,25.079652,23.835353)"
       id="path1118" />
  </g>
  <g
     style="fill:none;stroke:#f0f0f0;stroke-opacity:1"
     transform="rotate(-90,12.559161,12.520491)"
     id="g1128">
    <path
       style="color:#000000;font-style:normal;font-variant:normal;font-weight:normal;font-stretch:normal;font-size:medium;line-height:normal;font-family:sans-serif;font-variant-ligatures:normal;font-variant-position:normal;font-variant-caps:normal;font-variant-numeric:normal;font-variant-alternates:normal;font-feature-settings:normal;text-indent:0;text-align:start;text-decoration:none;text-decoration-line:none;text-decoration-style:solid;text-decoration-color:#000000;letter-spacing:normal;word-spacing:normal;text-transform:none;writing-mode:lr-tb;direction:ltr;text-orientation:mixed;dominant-baseline:auto;baseline-shift:baseline;text-anchor:start;white-space:normal;shape-padding:0;clip-rule:nonzero;display:inline;overflow:visible;visibility:visible;opacity:1;isolation:auto;mix-blend-mode:normal;color-interpolation:sRGB;color-interpolation-filters:linearRGB;solid-color:#000000;solid-opacity:1;vector-effect:none;fill:#f0f0f0;fill-opacity:1;fill-rule:evenodd;stroke:none;stroke-width:1.60000002;stroke-linecap:butt;stroke-linejoin:miter;stroke-miterlimit:4;stroke-dasharray:none;stroke-dashoffset:0;stroke-opacity:1;color-rendering:auto;image-rendering:auto;shape-rendering:auto;text-rendering:auto;enable-background:accumulate"
       d="M 12.208984 41.21875 L 7.3144531 45.117188 L 12.208984 49.021484 L 13.205078 47.765625 L 10.882812 45.914062 L 20.851562 45.914062 L 20.851562 44.318359 L 10.884766 44.318359 L 13.205078 42.466797 L 12.208984 41.21875 z "
       transform="matrix(0,0.26458334,-0.26458334,0,25.079652,-0.03867)"
       id="path1124" />
  </g>
</svg>
