<?xml version="1.0" encoding="UTF-8"?>
<svg width="46.079mm" height="15.664mm" version="1.1" viewBox="0 0 46.079 15.664" xmlns="http://www.w3.org/2000/svg">
 <g transform="translate(-52.687 -77.375)">
  <g transform="matrix(.19397 0 0 .19397 42.467 74.992)" fill="#424242" stroke="#2c2c2c" stroke-linecap="round">
   <g fill="#424242" stroke="#2c2c2c">
    <rect x="53.187" y="55.121" width="37.418" height="37.418" ry="4.9137" style="paint-order:normal"/>
    <rect x="95.52" y="55.121" width="37.418" height="37.418" ry="4.9137" style="paint-order:normal"/>
    <rect x="137.85" y="55.121" width="37.418" height="37.418" ry="4.9137" style="paint-order:normal"/>
   </g>
   <rect x="180.19" y="55.121" width="37.418" height="37.418" ry="4.9137" fill="#151515" stroke="#ff0" style="paint-order:normal"/>
   <rect x="84.937" y="12.788" width="37.418" height="37.418" ry="4.9137" fill="#424242" stroke="#2c2c2c" style="paint-order:normal"/>
   <rect x="127.27" y="12.788" width="37.418" height="37.418" ry="4.9137" fill="#151515" stroke="#ff0" style="paint-order:normal"/>
  </g>
  <g transform="matrix(.19397 0 0 .19397 42.467 74.992)" fill="#f0f0f0" font-family="Roboto" font-size="25.4px" letter-spacing="0px" stroke-width=".26458px" text-anchor="middle" word-spacing="0px">
   <text x="103.53387" y="40.525513" text-align="center" style="line-height:125%" xml:space="preserve"><tspan x="103.53387" y="40.525513" fill="#f0f0f0" font-size="25.4px" stroke-width=".26458px">W</tspan></text>
   <text x="71.889297" y="82.858849" text-align="center" style="line-height:125%" xml:space="preserve"><tspan x="71.889297" y="82.858849" fill="#f0f0f0" font-size="25.4px" stroke-width=".26458px">A</tspan></text>
   <text x="114.21642" y="82.610802" text-align="center" style="line-height:125%" xml:space="preserve"><tspan x="114.21642" y="82.610802" fill="#f0f0f0" font-size="25.4px" stroke-width=".26458px">S</tspan></text>
   <text x="156.27069" y="82.858849" text-align="center" style="line-height:125%" xml:space="preserve"><tspan x="156.27069" y="82.858849" fill="#f0f0f0" font-size="25.4px" stroke-width=".26458px">D</tspan></text>
   <text x="198.2258" y="82.858849" text-align="center" style="line-height:125%" xml:space="preserve"><tspan x="198.2258" y="82.858849" fill="#f0f0f0" font-size="25.4px" stroke-width=".26458px">F</tspan></text>
   <text x="145.3649" y="40.525513" text-align="center" style="line-height:125%" xml:space="preserve"><tspan x="145.3649" y="40.525513" fill="#f0f0f0" font-size="25.4px" stroke-width=".26458px">E</tspan></text>
  </g>
  <g transform="translate(4.1672 -.03354)">
   <path d="m80.245 78.026h14.221v6.2177h-14.221z" fill="#151515" stroke="#ff0" stroke-linecap="round" stroke-width=".26458" style="paint-order:normal"/>
   <g transform="matrix(.8911 0 0 .8911 -1.3846 4.8196)" fill="#f6f6f6" stroke-width=".52917" aria-label="Start">
    <path d="m95.417 85.662q-.6382-.18345-.93018-.44958-.28939-.26872-.28939-.66146 0-.44442.35398-.7338.35657-.29197.92501-.29197.38757 0 .68988.14986.30489.14986.47026.41341.16795.26355.16795.57619h-.49868q0-.34106-.21704-.53485-.21704-.19637-.61236-.19637-.3669 0-.57361.16278-.20412.1602-.20412.447 0 .22996.19379.39016.19637.15761.66404.28939.47026.13177.73381.29197.26613.15761.39274.36949.12919.21187.12919.49868 0 .45734-.35657.73381-.35657.27388-.95343.27388-.38757 0-.72347-.14728-.3359-.14986-.51935-.40824-.18087-.25838-.18087-.58653h.49868q0 .34106.25063.54002.25321.19637.67438.19637.39274 0 .60203-.1602.20929-.1602.20929-.43667t-.19379-.42633q-.19379-.15245-.7028-.29972z"/>
    <path d="m98.024 83.866v.67696h.52193v.36949h-.52193v1.7337q0 .16795.06976.25322.06976.08268.23771.08268.08268 0 .22738-.03101v.38757q-.18862.05168-.3669.05168-.32039 0-.48317-.19379-.16278-.19379-.16278-.55035v-1.7337h-.50901v-.36949h.50901v-.67696z"/>
    <path d="m100.83 87.339q-.0413-.08268-.0672-.29456-.33332.34623-.79582.34623-.41341 0-.67954-.23254-.26355-.23513-.26355-.59428 0-.43667.33073-.67696.33331-.24288.93535-.24288h.46509v-.21962q0-.25063-.14987-.39791-.14986-.14986-.44183-.14986-.2558 0-.42891.12919t-.17312.31264h-.48059q0-.20929.14728-.40308.14986-.19637.40308-.31006.2558-.11369.56069-.11369.48318 0 .75706.24288.27389.2403.28422.66404v1.2867q0 .38499.0982.61236v.04134zm-.79324-.36432q.2248 0 .42633-.11627.20154-.11627.29198-.30231v-.57361h-.37466q-.8785 0-.8785.51418 0 .22479.14986.3514.14986.12661.38499.12661z"/>
    <path d="m103.34 84.972q-.10852-.01809-.23513-.01809-.47026 0-.6382.40049v1.9844h-.47801v-2.7957h.46509l.008.32298q.23513-.37465.66662-.37465.13953 0 .21188.03617z"/>
    <path d="m104.56 83.866v.67696h.52193v.36949h-.52193v1.7337q0 .16795.0698.25322.0698.08268.23772.08268.0827 0 .22737-.03101v.38757q-.18862.05168-.3669.05168-.32039 0-.48318-.19379-.16278-.19379-.16278-.55035v-1.7337h-.50901v-.36949h.50901v-.67696z"/>
   </g>
  </g>
  <g transform="translate(-15.957 -.52017)">
   <path d="m103.64 86.724h10.947v6.2177h-10.947z" fill="#151515" stroke="#ff0" stroke-linecap="round" stroke-width=".26458" style="paint-order:normal"/>
   <g transform="matrix(.8911 0 0 .8911 4.9344 13.518)" fill="#f6f6f6" stroke-width=".52917" aria-label="Fire">
    <path d="m114.9 85.678h-1.5787v1.6614h-.49609v-3.762h2.3306v.40824h-1.8345v1.2867h1.5787z"/>
    <path d="m116.2 87.339h-.47801v-2.7957h.47801zm-.51677-3.5373q0-.11627.0698-.19637.0723-.0801.21187-.0801.13953 0 .21187.0801.0724.0801.0724.19637 0 .11627-.0724.19379-.0723.07752-.21187.07752-.13953 0-.21187-.07752-.0698-.07751-.0698-.19379z"/>
    <path d="m118.31 84.972q-.10852-.01809-.23512-.01809-.47026 0-.63821.40049v1.9844h-.478v-2.7957h.46508l.008.32298q.23512-.37465.66662-.37465.13953 0 .21187.03617z"/>
    <path d="m119.91 87.391q-.56844 0-.92501-.37207-.35657-.37466-.35657-.99994v-.08785q0-.416.15761-.74156.1602-.32814.44442-.5116.28681-.18604.62012-.18604.54518 0 .84749.35915t.30231 1.0284v.19896h-1.8939q.0103.41341.24029.66921.23255.25322.58911.25322.25322 0 .42892-.10335t.30747-.27388l.29198.22738q-.3514.54002-1.0542.54002zm-.0594-2.5063q-.28939 0-.48576.21187-.19637.20929-.24288.58911h1.4004v-.03617q-.0207-.36432-.19637-.56327-.1757-.20154-.47542-.20154z"/>
   </g>
  </g>
  <path d="m84.377 81.006h-9.9625" fill="none" stroke="#ff0" stroke-width=".265"/>
  <path d="m87.628 89.332h-2.9233" fill="none" stroke="#ff0" stroke-width=".265"/>
 </g>
</svg>
