<?xml version="1.0" encoding="UTF-8"?>
<svg width="14.77mm" height="14.77mm" version="1.1" viewBox="0 0 14.77 14.77" xmlns="http://www.w3.org/2000/svg">
 <defs>
  <filter id="a" x="-.0864" y="-.0864" width="1.1728" height="1.1728" color-interpolation-filters="sRGB">
   <feGaussianBlur stdDeviation="0.45339012"/>
  </filter>
 </defs>
 <g transform="translate(-139.88 -221.04)" stroke-width=".26458">
  <path d="m147.26 234.32c-1.5875 0-3.0692-.60855-4.1804-1.7198s-1.7198-2.5929-1.7198-4.1804.60854-3.0692 1.7198-4.1804 2.5929-1.7198 4.1804-1.7198 3.0692.60854 4.1804 1.7198 1.7198 2.5929 1.7198 4.1804-.60854 3.0692-1.7198 4.1804-2.5929 1.7198-4.1804 1.7198zm0-10.372c-2.4606 0-4.4715 2.0108-4.4715 4.4715 0 2.4606 2.0108 4.4715 4.4715 4.4715 2.4606 0 4.4714-2.0108 4.4714-4.4715 0-2.4606-1.9844-4.4715-4.4714-4.4715z"/>
  <path class="st0" d="m147.26 222.68c.76729 0 1.5346.15875 2.249.44979.68792.29104 1.2965.71438 1.8256 1.2435.52917.52917.9525 1.1377 1.2435 1.8256.29104.71437.44979 1.4552.44979 2.249s-.15875 1.5346-.44979 2.249c-.29104.68792-.71437 1.2965-1.2435 1.8256s-1.1377.9525-1.8256 1.2435c-.71437.29104-1.4552.44979-2.249.44979s-1.5346-.15875-2.249-.44979c-.68792-.29104-1.2965-.71437-1.8256-1.2435-.52916-.52917-.9525-1.1377-1.2435-1.8256-.29104-.71437-.44979-1.4552-.44979-2.249s.15875-1.5346.44979-2.249c.29104-.68792.71438-1.2965 1.2435-1.8256.52917-.52916 1.1377-.9525 1.8256-1.2435.71437-.3175 1.4817-.44979 2.249-.44979m0 10.372c2.5664 0 4.6302-2.0902 4.6302-4.6302s-2.0902-4.6302-4.6302-4.6302-4.6302 2.0902-4.6302 4.6302 2.0902 4.6302 4.6302 4.6302m0-10.927c-3.466 0-6.2971 2.831-6.2971 6.2971s2.831 6.2971 6.2971 6.2971c3.466 0 6.2971-2.831 6.2971-6.2971s-2.8046-6.2971-6.2971-6.2971zm0 10.16c-2.1431 0-3.8629-1.7462-3.8629-3.8629 0-2.1167 1.7462-3.8629 3.8629-3.8629 2.1167 0 3.8894 1.7198 3.8894 3.8629 0 2.1431-1.7462 3.8629-3.8894 3.8629z" fill="#e7f501"/>
  <path class="st0" d="m147.26 222.68c.76729 0 1.5346.15875 2.249.44979.68792.29104 1.2965.71438 1.8256 1.2435.52917.52917.9525 1.1377 1.2435 1.8256.29104.71437.44979 1.4552.44979 2.249s-.15875 1.5346-.44979 2.249c-.29104.68792-.71437 1.2965-1.2435 1.8256s-1.1377.9525-1.8256 1.2435c-.71437.29104-1.4552.44979-2.249.44979s-1.5346-.15875-2.249-.44979c-.68792-.29104-1.2965-.71437-1.8256-1.2435-.52916-.52917-.9525-1.1377-1.2435-1.8256-.29104-.71437-.44979-1.4552-.44979-2.249s.15875-1.5346.44979-2.249c.29104-.68792.71438-1.2965 1.2435-1.8256.52917-.52916 1.1377-.9525 1.8256-1.2435.71437-.3175 1.4817-.44979 2.249-.44979m0 10.372c2.5664 0 4.6302-2.0902 4.6302-4.6302s-2.0902-4.6302-4.6302-4.6302-4.6302 2.0902-4.6302 4.6302 2.0902 4.6302 4.6302 4.6302m0-10.927c-3.466 0-6.2971 2.831-6.2971 6.2971s2.831 6.2971 6.2971 6.2971c3.466 0 6.2971-2.831 6.2971-6.2971s-2.8046-6.2971-6.2971-6.2971zm0 10.16c-2.1431 0-3.8629-1.7462-3.8629-3.8629 0-2.1167 1.7462-3.8629 3.8629-3.8629 2.1167 0 3.8894 1.7198 3.8894 3.8629 0 2.1431-1.7462 3.8629-3.8894 3.8629z" fill="#e7f501" filter="url(#a)"/>
 </g>
</svg>
