<?xml version="1.0" encoding="UTF-8"?>
<svg width="6.3502mm" height="6.35mm" version="1.1" viewBox="0 0 6.3502 6.35" xmlns="http://www.w3.org/2000/svg">
 <g transform="translate(-103.41 -155.49)">
  <path class="st1" d="m104.63 156.52-.29104-.15875-.10584.10583-.0794.10584.18521.26458c-.10584.10583-.18521.23812-.26459.37042l-.3175-.0794-.1058.26458.23813.18521c-.0529.13229-.10584.29104-.1323.42334l-.3175.0265-.0265.1323v.13229l.29104.13229v.26458.0794.0794l-.29104.10584.053.26458.3175.0265c.0265.13229.0794.29104.13229.42333l-.29104.23813.0529.13229.0794.10583.3175-.0529c.0794.1323.15875.23813.23813.37042l-.18521.26458.0794.10584.0794.10583.29104-.15875c.10584.10583.21167.18521.34396.29104l-.10583.3175.13229.0265.10583.0794.21167-.23813c.13229.0529.26458.13229.42333.15875v.3175l.26459.053.13229-.29104h.0794.0794c.0794 0 .18521 0 .26458.0265l.10583.3175h.26459l.0529-.3175c.15875-.0265.29105-.0529.42334-.10583l.18521.26458.26458-.1058-.0529-.3175c.13229-.0529.26459-.13229.39688-.21167l.26458.21167.10583-.0794.10584-.0794-.13229-.29104c.10583-.10583.21166-.21167.29104-.3175l.29104.10583.1588-.21166-.21167-.23813c.0794-.13229.13229-.26458.18521-.39687l.3175.0265.1058-.26458-.26458-.15875c.0265-.13229.0529-.29104.0794-.44979l.3175-.0794v-.26458l-.3175-.0794c0-.15875-.0265-.29105-.0529-.4498l.26458-.15875-.0265-.13229-.0264-.13229-.3175.0265c-.0529-.13229-.10584-.26458-.18521-.39688l.21166-.23812-.0794-.10583-.0794-.10584-.29104.10584c-.0529-.0529-.10583-.10584-.13229-.15875-.0529-.0529-.10583-.10584-.15875-.15875l.13229-.29105-.10583-.10583-.10583-.0794-.26459.1852c-.13229-.0794-.23812-.15875-.37041-.23812l.0529-.3175-.13229-.0529-.13229-.0265-.18521.26459c-.13229-.0529-.29104-.0794-.42333-.10584l-.0529-.3175h-.26458l-.10584.3175c-.15875 0-.29104 0-.44979.0265l-.13229-.29104-.26458.053v.3175c-.13229.0529-.29104.10583-.42334.15875l-.21166-.23813-.10584.0794-.10583.0794.0794.3175c-.15875.0265-.26459.13229-.37042.21167zm.0794 3.8365c-.39687-.44979-.635-1.0054-.66145-1.561l.84666.0264c.79375.0265 1.4023.71438 1.3494 1.4817l-.0265.84667c-.55563-.0794-1.0848-.34396-1.5081-.79375zm1.5875-1.9844c.15875-.15875.42334-.13229.58209.0265.15875.15875.13229.42333-.0265.58208-.15875.15875-.42333.1323-.58208-.0264-.15875-.18521-.1323-.42334.0265-.58209zm2.7517.635c-.0794.55563-.34396 1.0848-.79375 1.5081-.44979.39687-1.0054.635-1.561.66146l.0265-.84667c.0265-.79375.71437-1.4023 1.4817-1.3494zm-.635-2.0373c.39688.44979.635 1.0054.66146 1.561l-.84667-.0265c-.79375-.0264-1.4023-.71437-1.3494-1.4817l.0265-.84667c.58208.0794 1.1112.34396 1.5081.79375zm-1.9579-.79375-.0265.84667c-.0265.79375-.71438 1.4023-1.4817 1.3494l-.84667-.0265c.0529-.58208.3175-1.1112.76729-1.5346.4498-.39687 1.0319-.60854 1.5875-.635z" fill="#777" stroke-width=".26458"/>
 </g>
</svg>
