<?xml version="1.0" encoding="UTF-8" standalone="no"?>
<!-- Created with Inkscape (http://www.inkscape.org/) -->

<svg
   xmlns:dc="http://purl.org/dc/elements/1.1/"
   xmlns:cc="http://creativecommons.org/ns#"
   xmlns:rdf="http://www.w3.org/1999/02/22-rdf-syntax-ns#"
   xmlns:svg="http://www.w3.org/2000/svg"
   xmlns="http://www.w3.org/2000/svg"
   xmlns:sodipodi="http://sodipodi.sourceforge.net/DTD/sodipodi-0.dtd"
   xmlns:inkscape="http://www.inkscape.org/namespaces/inkscape"
   width="6.2835498mm"
   height="6.28332mm"
   viewBox="0 0 6.2835498 6.2833199"
   version="1.1"
   id="svg10223"
   inkscape:version="0.92.3 (2405546, 2018-03-11)"
   sodipodi:docname="cog1.svg">
  <defs
     id="defs10217" />
  <sodipodi:namedview
     id="base"
     pagecolor="#ffffff"
     bordercolor="#666666"
     borderopacity="1.0"
     inkscape:pageopacity="0.0"
     inkscape:pageshadow="2"
     inkscape:zoom="22.627417"
     inkscape:cx="9.0383495"
     inkscape:cy="14.495999"
     inkscape:document-units="mm"
     inkscape:current-layer="layer1"
     showgrid="false"
     fit-margin-top="0"
     fit-margin-left="0"
     fit-margin-right="0"
     fit-margin-bottom="0"
     inkscape:window-width="2558"
     inkscape:window-height="1418"
     inkscape:window-x="1600"
     inkscape:window-y="20"
     inkscape:window-maximized="1" />
  <metadata
     id="metadata10220">
    <rdf:RDF>
      <cc:Work
         rdf:about="">
        <dc:format>image/svg+xml</dc:format>
        <dc:type
           rdf:resource="http://purl.org/dc/dcmitype/StillImage" />
        <dc:title></dc:title>
      </cc:Work>
    </rdf:RDF>
  </metadata>
  <g
     inkscape:label="Layer 1"
     inkscape:groupmode="layer"
     id="layer1"
     transform="translate(-103.43548,-155.4963)">
    <path
       inkscape:connector-curvature="0"
       class="st0"
       d="m 105.07468,156.1791 c -0.0683,0.0342 -0.20489,0 -0.27319,-0.1366 -0.0342,0.0342 -0.10247,0.0683 -0.13659,0.10248 0.10248,0.10247 0.10248,0.23903 0.0342,0.30732 -0.0683,0.0683 -0.20489,0.0342 -0.30734,-0.0683 -0.0341,0.0341 -0.0683,0.0683 -0.10248,0.10247 0.10248,0.10248 0.13659,0.23904 0.10248,0.30734 -0.0683,0.0341 -0.20489,0.0341 -0.30732,-0.0683 -0.0342,0.0342 -0.0683,0.0683 -0.10248,0.13659 0.10248,0.0683 0.17075,0.20489 0.1366,0.27319 -0.0342,0.0683 -0.17074,0.0683 -0.30734,0.0342 -0.0342,0.0342 -0.0342,0.10248 -0.0683,0.13659 0.13659,0.0683 0.20489,0.17073 0.17074,0.23903 -0.0342,0.0683 -0.17074,0.10248 -0.27319,0.0683 -0.0342,0.0342 -0.0342,0.10247 -0.0342,0.13658 0.1366,0.0342 0.20488,0.13659 0.17074,0.20489 -0.0341,0.0683 -0.13659,0.13659 -0.27318,0.10248 0,0.0683 -0.0342,0.10247 -0.0342,0.17075 0.13659,0.0342 0.20489,0.10247 0.20489,0.17073 0,0.0683 -0.10248,0.13659 -0.23904,0.13659 0,0.0683 0,0.10247 0,0.17074 0.13659,0 0.23904,0.0683 0.23904,0.1366 0,0.0683 -0.0683,0.17073 -0.20489,0.17073 0,0.0683 0,0.10248 0.0342,0.17074 0.13659,0 0.23904,0.0342 0.23904,0.10247 0.0341,0.0683 -0.0683,0.17075 -0.17075,0.20489 0,0.0342 0.0342,0.10248 0.0342,0.1366 0.1366,-0.0342 0.23904,0 0.27319,0.0683 0.0342,0.0683 -0.0342,0.17075 -0.13659,0.23904 0.0341,0.0342 0.0341,0.10248 0.0683,0.1366 0.10248,-0.0342 0.23904,-0.0342 0.27319,0.0342 0.0342,0.0683 0,0.17075 -0.10248,0.27319 0.0342,0.0342 0.0683,0.10247 0.10248,0.13659 0.10248,-0.0683 0.20489,-0.0683 0.27319,0 0.0683,0.0683 0.0341,0.17075 -0.0683,0.27318 0.0342,0.0342 0.0683,0.0683 0.10248,0.10248 0.10247,-0.0683 0.20488,-0.10248 0.27318,-0.0683 0.0683,0.0683 0.0683,0.17074 0,0.27319 0.0342,0.0342 0.0683,0.0683 0.13659,0.10248 0.0683,-0.10248 0.17075,-0.13659 0.23904,-0.10248 0.0683,0.0342 0.0683,0.17074 0.0342,0.27317 0.0342,0.0342 0.10247,0.0342 0.13659,0.0683 0.0683,-0.10248 0.17075,-0.17074 0.23903,-0.13659 0.0683,0.0342 0.10248,0.13659 0.0683,0.27317 0.0342,0.0342 0.10247,0.0342 0.13658,0.0342 0.0342,-0.13659 0.1366,-0.20489 0.20489,-0.17074 0.0683,0.0342 0.1366,0.13659 0.10248,0.27319 0.0683,0 0.10247,0.0341 0.17073,0.0341 0.0342,-0.13659 0.10248,-0.23903 0.17074,-0.20489 0.10247,0 0.13659,0.10248 0.13659,0.23904 0.0683,0 0.10247,0 0.17075,0 0,-0.13659 0.0683,-0.23904 0.13658,-0.23904 0.10248,0 0.17074,0.10248 0.20489,0.23904 0.0683,0 0.10247,0 0.17074,-0.0342 -0.0342,-0.13659 0.0342,-0.27318 0.10247,-0.27318 0.10248,-0.0342 0.17074,0.0683 0.23902,0.20489 0.0342,0 0.10248,-0.0342 0.1366,-0.0342 -0.0342,-0.13659 -0.0342,-0.27319 0.0683,-0.30734 0.0683,-0.0342 0.20489,0.0342 0.27318,0.17075 0.0342,-0.0342 0.10248,-0.0342 0.13659,-0.0683 -0.0683,-0.13659 -0.0683,-0.27319 0,-0.30734 0.0683,-0.0342 0.20489,0 0.27319,0.1366 0.0342,-0.0342 0.10247,-0.0683 0.13658,-0.10247 -0.10247,-0.10248 -0.10247,-0.23904 -0.0342,-0.30733 0.0683,-0.0683 0.20489,-0.0342 0.30733,0.10248 0,0 0,0 0,0 0.0342,-0.0342 0.0683,-0.0683 0.10247,-0.10248 0,0 0,0 0,0 -0.10247,-0.10247 -0.17075,-0.23903 -0.10247,-0.30733 0.0683,-0.0683 0.20488,-0.0683 0.30733,0.0342 0,0 0,0 0,0 0.0341,-0.0342 0.0683,-0.10248 0.10248,-0.13659 0,0 0,0 0,0 -0.13659,-0.0683 -0.20489,-0.20489 -0.13659,-0.27319 0.0342,-0.0683 0.20489,-0.0683 0.30733,0 0,0 0,0 0.0342,0 0.0342,-0.0342 0.0683,-0.10247 0.0683,-0.13658 0,0 0,0 -0.0342,0 -0.13659,-0.0683 -0.23904,-0.17074 -0.20489,-0.27319 0.0342,-0.10248 0.17074,-0.10248 0.30733,-0.0683 0,0 0.0342,0 0.0342,0 0.0342,-0.0683 0.0342,-0.10248 0.0683,-0.17074 0,0 0,0 -0.0342,0 -0.13659,-0.0342 -0.23904,-0.13659 -0.23904,-0.23904 0.0342,-0.10247 0.17074,-0.13658 0.30734,-0.10247 0,0 0.0342,0 0.0342,0 0,-0.0683 0.0342,-0.10248 0.0342,-0.17074 0,0 -0.0342,0 -0.0342,0 -0.1366,0 -0.27318,-0.10247 -0.27318,-0.17074 0,-0.10247 0.13658,-0.17075 0.27318,-0.1366 0,0 0.0342,0 0.0342,0 0,-0.0683 0,-0.10247 0,-0.17073 0,0 -0.0342,0 -0.0342,0 -0.1366,0 -0.27318,-0.0342 -0.27318,-0.13659 0,-0.10247 0.10247,-0.17074 0.27318,-0.20489 0,0 0.0342,0 0.0342,0 0,-0.0683 0,-0.10247 -0.0342,-0.17073 0,0 -0.0342,0 -0.0342,0 -0.1366,0.0342 -0.27319,0 -0.30734,-0.10248 -0.0342,-0.10247 0.0683,-0.20488 0.23904,-0.23903 0,0 0.0342,0 0.0342,0 0,-0.0683 -0.0342,-0.10248 -0.0683,-0.17074 0,0 -0.0342,0 -0.0342,0.0342 -0.13659,0.0683 -0.27318,0.0342 -0.30733,-0.0342 -0.0342,-0.10248 0.0342,-0.20489 0.17074,-0.27319 0,0 0.0342,0 0.0342,0 -0.0342,-0.0683 -0.0342,-0.10247 -0.0683,-0.17073 0,0 -0.0342,0.0342 -0.0342,0.0342 -0.13659,0.0683 -0.27318,0.0683 -0.30733,0 -0.0342,-0.0683 0,-0.20489 0.13659,-0.27319 0,0 0.0342,0 0.0342,-0.0341 -0.0342,-0.0342 -0.0683,-0.10248 -0.10248,-0.1366 0,0 -0.0342,0.0342 -0.0342,0.0342 -0.0342,0.13659 -0.20488,0.17074 -0.23903,0.10248 -0.0683,-0.0683 -0.0342,-0.20489 0.10247,-0.30734 0,0 0.0342,-0.0342 0.0342,-0.0342 -0.0342,-0.0342 -0.0683,-0.0683 -0.13658,-0.13659 0,0 0,0.0342 -0.0342,0.0342 -0.10248,0.13659 -0.23904,0.17074 -0.30733,0.10248 -0.0683,-0.0683 -0.0683,-0.20489 0.0342,-0.30733 0,0 0.0342,-0.0342 0.0342,-0.0342 -0.0342,-0.0342 -0.10248,-0.0683 -0.13659,-0.10247 0,0 0,0.0342 -0.0342,0.0342 -0.0683,0.1366 -0.20489,0.20489 -0.27319,0.1366 -0.0683,-0.0342 -0.0683,-0.20489 0,-0.30734 0,0 0,-0.0342 0.0342,-0.0342 -0.0342,-0.0342 -0.10247,-0.0342 -0.13658,-0.0683 0,0 0,0.0342 0,0.0342 -0.0683,0.1366 -0.17074,0.23903 -0.27319,0.20489 -0.10248,-0.0683 -0.13659,-0.20489 -0.0683,-0.34148 0,0 0,-0.0342 0,-0.0342 -0.0683,-0.0342 -0.10247,-0.0342 -0.17074,-0.0342 0,0 0,0.0342 0,0.0342 -0.0341,0.1366 -0.13659,0.23904 -0.23903,0.23904 -0.10247,-0.0342 -0.1366,-0.17074 -0.10247,-0.30733 0,0 0,-0.0342 0,-0.0342 -0.0683,0 -0.10248,-0.0342 -0.17074,-0.0342 0,0 0,0 0,0.0342 0,0.13659 -0.10248,0.27318 -0.17074,0.27318 -0.10247,0 -0.17073,-0.13659 -0.1366,-0.27318 0,0 0,-0.0342 0,-0.0342 -0.0683,0 -0.10247,0 -0.17073,0 0,0 0,0 0,0.0342 0,0.13659 -0.0342,0.27318 -0.13659,0.27318 -0.10248,0 -0.17074,-0.10248 -0.20489,-0.27318 0,0 0,0 0,-0.0342 -0.0683,0 -0.10247,0 -0.17073,0.0342 0,0 0,0 0,0 0.0342,0.13659 0,0.27318 -0.10248,0.30733 -0.10248,0.0342 -0.20489,-0.0683 -0.23904,-0.23904 0,0 0,0 0,0 -0.0683,0 -0.10247,0.0342 -0.13658,0.0683 0,0 0,0 0,0 0.10247,0.13659 0.0683,0.27319 0,0.30734 -0.10248,0.0342 -0.20489,-0.0342 -0.27319,-0.17075 0,0 0,0 0,0 -0.0341,0.0342 -0.10247,0.0342 -0.13659,0.0683 0.0683,0.10248 0.0683,0.27319 0,0.30734 z m -0.61466,1.29761 c 0.0342,-0.0683 0.13658,-0.10248 0.20488,-0.0683 0.0683,0.0342 0.10248,0.13659 0.0683,0.20489 -0.0342,0.0683 -0.1366,0.10248 -0.20489,0.0683 -0.10247,-0.0342 -0.10247,-0.13658 -0.0683,-0.20488 z m -0.0683,1.94643 c -0.10247,0.0683 -0.17073,0.13658 -0.20488,0.23903 -0.23903,-0.61466 -0.27318,-1.26347 -0.0683,-1.87813 0.0342,0.10248 0.13659,0.17074 0.23904,0.23904 0.13659,0.0683 0.27317,0.0683 0.40977,0.0342 -0.1366,0.40978 -0.10247,0.88785 0.0342,1.29762 -0.13658,-0.0342 -0.30732,-0.0342 -0.40977,0.0683 z m 1.40007,-2.11717 c 0.54636,-0.34147 1.26346,-0.30732 1.77568,0.0683 -0.27318,0.20488 -0.61466,0.34147 -0.95613,0.34147 -0.37564,0 -0.71711,-0.10248 -0.9903,-0.27319 0.0342,-0.0342 0.10248,-0.0683 0.17075,-0.13658 z m -1.26347,2.62938 c -0.0342,-0.0683 -0.0342,-0.17074 0.0342,-0.20489 0.0683,-0.0342 0.17074,-0.0342 0.20489,0.0342 0.0342,0.0683 0.0342,0.17074 -0.0342,0.20489 -0.0683,0.0683 -0.1366,0.0342 -0.20489,-0.0342 z m 0.75125,-0.47806 c -0.20489,-0.30734 -0.27319,-0.68296 -0.23904,-1.02444 0.30734,0.13659 0.58051,0.37563 0.7854,0.68295 0.20489,0.30734 0.27319,0.64881 0.27319,0.99028 -0.30733,-0.10247 -0.61466,-0.34147 -0.81955,-0.64879 z m 2.86841,-1.12689 c 0.13659,0.61466 -0.13658,1.26347 -0.68296,1.60495 -0.0683,0.0342 -0.13658,0.0683 -0.20488,0.10247 -0.0342,-0.34148 0.0342,-0.68296 0.20488,-1.02443 0.10248,-0.27319 0.37564,-0.54637 0.68296,-0.68296 z m -3.51722,2.04887 c 0.10248,0 0.20489,-0.0342 0.30734,-0.0683 0.13658,-0.0683 0.20488,-0.20489 0.23903,-0.34148 0.30733,0.34148 0.7171,0.54636 1.16102,0.61466 -0.10247,0.10248 -0.17073,0.23904 -0.13658,0.37563 0,0.10247 0.0341,0.20488 0.10247,0.30733 -0.64881,-0.10247 -1.22932,-0.37562 -1.67324,-0.88784 z m 2.08302,0.71711 c -0.0683,0 -0.13659,-0.0683 -0.13659,-0.1366 0,-0.0683 0.0683,-0.13659 0.13659,-0.13659 0.0683,0 0.13658,0.0683 0.13658,0.13659 0,0.0342 -0.0683,0.10248 -0.13658,0.1366 z m 1.67324,-0.922 c 0.10247,0.0683 0.20489,0.0683 0.30732,0.0683 -0.17073,0.23903 -0.40977,0.47806 -0.68294,0.64881 -0.27319,0.17073 -0.58051,0.30732 -0.88785,0.34147 0.0683,-0.10247 0.10247,-0.20489 0.10247,-0.30734 0,-0.13658 -0.0683,-0.27317 -0.17074,-0.37562 0.20488,-0.0342 0.40977,-0.13659 0.61466,-0.23903 0.20488,-0.13659 0.34148,-0.27318 0.47807,-0.44392 0.0342,0.10248 0.13659,0.23903 0.23903,0.30733 z m 0.37562,-0.40977 c -0.0342,0.0683 -0.13658,0.10248 -0.20488,0.0683 -0.0683,-0.0342 -0.10248,-0.13659 -0.0683,-0.20488 0.0342,-0.0683 0.1366,-0.10248 0.20489,-0.0683 0.10247,0.0683 0.1366,0.13659 0.0683,0.20489 z m 0.0683,-1.91228 c 0.10247,-0.0683 0.17073,-0.13659 0.20488,-0.23902 0.23904,0.61466 0.27318,1.26345 0.0683,1.87811 -0.0341,-0.10247 -0.13659,-0.17073 -0.23903,-0.23902 -0.1366,-0.0683 -0.27318,-0.0683 -0.40977,-0.0342 0.13659,-0.40977 0.10248,-0.88785 -0.0342,-1.29762 0.13659,0.0342 0.30732,0 0.40977,-0.0683 z m -0.1366,-0.51221 c 0.0342,0.0683 0.0342,0.17074 -0.0341,0.20489 -0.0683,0.0342 -0.17075,0.0342 -0.20488,-0.0342 -0.0342,-0.0683 -0.0342,-0.17074 0.0342,-0.20489 0.0683,-0.0683 0.17075,-0.0342 0.20489,0.0342 z m -1.6391,1.02443 c 0.17075,0.23904 0.0683,0.58051 -0.17073,0.7171 -0.23904,0.17075 -0.58051,0.0683 -0.7171,-0.17074 -0.17074,-0.23903 -0.0683,-0.58051 0.17074,-0.71709 0.23903,-0.17074 0.58051,-0.10248 0.71709,0.17073 z m 1.53666,-1.46835 c -0.10248,0 -0.20489,0.0342 -0.30734,0.0683 -0.13658,0.0683 -0.20488,0.20489 -0.23902,0.34148 -0.30734,-0.34148 -0.71711,-0.54636 -1.16103,-0.61466 0.10247,-0.10248 0.17073,-0.23904 0.1366,-0.37563 0,-0.10247 -0.0342,-0.20488 -0.10248,-0.30733 0.64881,0.0683 1.22932,0.37563 1.67324,0.88784 z m -2.08302,-0.7171 c 0.0683,0 0.13659,0.0683 0.13659,0.13659 0.0342,0.10247 -0.0341,0.17074 -0.10248,0.17074 -0.0683,0 -0.13658,-0.0683 -0.13658,-0.13659 -0.0342,-0.10248 0.0341,-0.17074 0.10247,-0.17074 z m -0.40977,-0.1366 c -0.0683,0.10248 -0.10248,0.20489 -0.10248,0.30734 0,0.13659 0.0683,0.27317 0.17074,0.37562 -0.20488,0.0342 -0.40977,0.13659 -0.61466,0.23904 -0.20488,0.13658 -0.34148,0.27317 -0.47807,0.44392 -0.0342,-0.1366 -0.13659,-0.27319 -0.27319,-0.34149 -0.10247,-0.0683 -0.20488,-0.0683 -0.30732,-0.0683 0.17074,-0.23904 0.40977,-0.47807 0.68296,-0.64881 0.30732,-0.1366 0.61466,-0.23904 0.92198,-0.30734 z"
       id="path9650"
       style="stroke-width:0.34147766;fill:#777777;fill-opacity:1" />
  </g>
</svg>
