<?xml version="1.0" encoding="UTF-8" standalone="no"?>
<!-- Created with Inkscape (http://www.inkscape.org/) -->

<svg
   xmlns:dc="http://purl.org/dc/elements/1.1/"
   xmlns:cc="http://creativecommons.org/ns#"
   xmlns:rdf="http://www.w3.org/1999/02/22-rdf-syntax-ns#"
   xmlns:svg="http://www.w3.org/2000/svg"
   xmlns="http://www.w3.org/2000/svg"
   xmlns:sodipodi="http://sodipodi.sourceforge.net/DTD/sodipodi-0.dtd"
   xmlns:inkscape="http://www.inkscape.org/namespaces/inkscape"
   width="6.3626399mm"
   height="6.4721498mm"
   viewBox="0 0 6.3626399 6.4721498"
   version="1.1"
   id="svg10223"
   inkscape:version="0.92.3 (2405546, 2018-03-11)"
   sodipodi:docname="cog2.svg">
  <defs
     id="defs10217" />
  <sodipodi:namedview
     id="base"
     pagecolor="#ffffff"
     bordercolor="#666666"
     borderopacity="1.0"
     inkscape:pageopacity="0.0"
     inkscape:pageshadow="2"
     inkscape:zoom="22.627417"
     inkscape:cx="8.9990046"
     inkscape:cy="15.236446"
     inkscape:document-units="mm"
     inkscape:current-layer="layer1"
     showgrid="false"
     fit-margin-top="0"
     fit-margin-left="0"
     fit-margin-right="0"
     fit-margin-bottom="0"
     inkscape:window-width="2558"
     inkscape:window-height="1418"
     inkscape:window-x="1600"
     inkscape:window-y="20"
     inkscape:window-maximized="1" />
  <metadata
     id="metadata10220">
    <rdf:RDF>
      <cc:Work
         rdf:about="">
        <dc:format>image/svg+xml</dc:format>
        <dc:type
           rdf:resource="http://purl.org/dc/dcmitype/StillImage" />
        <dc:title></dc:title>
      </cc:Work>
    </rdf:RDF>
  </metadata>
  <g
     inkscape:label="Layer 1"
     inkscape:groupmode="layer"
     id="layer1"
     transform="translate(-103.44589,-155.50338)">
    <path
       inkscape:connector-curvature="0"
       class="st0"
       d="m 103.9067,157.67535 c -0.0439,0.0878 -0.17553,0.1097 -0.30716,0.0658 -0.022,0.0439 -0.0439,0.10969 -0.0439,0.15358 0.13164,0.0439 0.24134,0.13163 0.2194,0.21939 -0.022,0.0878 -0.15358,0.13164 -0.28521,0.1097 0,0.0439 -0.022,0.1097 -0.022,0.15358 0.13164,0.022 0.24134,0.0877 0.24134,0.19746 0,0.0878 -0.13164,0.15357 -0.26328,0.15357 0,0.0439 0,0.10971 0,0.15358 0.13164,0 0.26328,0.0658 0.26328,0.15358 0,0.0878 -0.0878,0.17552 -0.24134,0.19746 0,0.0439 0.022,0.1097 0.022,0.15357 0.13163,-0.0219 0.26327,0.022 0.28521,0.10971 0.022,0.0878 -0.0658,0.17551 -0.19746,0.21939 0.022,0.0439 0.022,0.1097 0.0439,0.15358 0.13164,-0.0439 0.24133,-0.022 0.28522,0.0658 0.0439,0.0878 -0.0439,0.17552 -0.15358,0.24134 0.022,0.0439 0.0439,0.0878 0.0658,0.13164 0.10969,-0.0658 0.24133,-0.0439 0.28521,0.022 0.0439,0.0658 0,0.17552 -0.10969,0.26328 0.022,0.0439 0.0658,0.0878 0.0877,0.13164 0.1097,-0.0658 0.2194,-0.0878 0.28522,-0.022 0.0658,0.0658 0.022,0.17552 -0.0658,0.28522 0.0439,0.0439 0.0658,0.0658 0.10971,0.1097 0.0877,-0.0878 0.19745,-0.1097 0.26327,-0.0658 0.0658,0.0439 0.0658,0.17552 -0.022,0.28522 0.0439,0.022 0.0878,0.0658 0.13164,0.0877 0.0877,-0.0877 0.17552,-0.15358 0.26327,-0.10969 0.0658,0.0439 0.0878,0.15357 0.022,0.28521 0.0439,0.022 0.0877,0.0439 0.15357,0.0658 0.0658,-0.10969 0.15358,-0.17551 0.24134,-0.13164 0.0878,0.022 0.1097,0.15358 0.0658,0.26328 0.0439,0.022 0.1097,0.0439 0.15358,0.0439 0.0439,-0.1097 0.13164,-0.19746 0.2194,-0.17552 0.0878,0.022 0.13164,0.13163 0.1097,0.26327 0.0439,0 0.1097,0.022 0.15358,0.022 0.022,-0.13164 0.10969,-0.2194 0.17552,-0.19746 0.0877,0 0.15358,0.1097 0.15358,0.24134 0.0439,0 0.10969,0 0.15357,0 0,-0.13164 0.0658,-0.2194 0.15358,-0.24134 0.0878,0 0.15358,0.0878 0.19746,0.2194 0.0439,0 0.1097,-0.022 0.15358,-0.022 -0.022,-0.13163 0.022,-0.24133 0.10969,-0.26327 0.0878,-0.022 0.17553,0.0658 0.2194,0.17552 0.0439,-0.022 0.1097,-0.022 0.15358,-0.0439 -0.0439,-0.13164 -0.022,-0.24133 0.0658,-0.28522 0.0878,-0.0439 0.19745,0.0439 0.24133,0.15358 0.0439,-0.022 0.0878,-0.0439 0.15358,-0.0658 -0.0658,-0.1097 -0.0439,-0.24134 0.022,-0.28521 0.0658,-0.0439 0.19745,0 0.28521,0.10969 0.0439,-0.022 0.0878,-0.0658 0.13164,-0.0877 -0.0878,-0.10971 -0.0878,-0.24135 -0.022,-0.28522 0.0658,-0.0658 0.19746,-0.022 0.28522,0.0878 0.0439,-0.0439 0.0878,-0.0658 0.10971,-0.1097 -0.10971,-0.0878 -0.13165,-0.2194 -0.0878,-0.28522 0.0658,-0.0658 0.19746,-0.0439 0.30716,0.0439 0.0439,-0.0439 0.0658,-0.0878 0.0878,-0.13164 -0.1097,-0.0878 -0.17552,-0.19746 -0.13164,-0.28522 0.0439,-0.0878 0.19746,-0.0878 0.30716,0 0.022,-0.0439 0.0439,-0.0878 0.0658,-0.13164 -0.13164,-0.0658 -0.2194,-0.17552 -0.17551,-0.26328 0.0439,-0.0877 0.17551,-0.10969 0.32909,-0.0658 0.022,-0.0439 0.0439,-0.10969 0.0439,-0.15357 -0.15358,-0.0439 -0.24133,-0.13164 -0.2194,-0.2194 0.022,-0.0878 0.15358,-0.13164 0.30716,-0.1097 0,0 0,0 0,0 0.022,-0.0439 0.022,-0.10969 0.022,-0.15358 0,0 0,0 0,0 -0.15358,0 -0.26327,-0.0877 -0.26327,-0.19745 0,-0.0878 0.13164,-0.15358 0.28521,-0.15358 0,0 0,0 0.022,0 0,-0.0658 0,-0.1097 0,-0.17552 0,0 0,0 -0.022,0 -0.15357,0.022 -0.28521,-0.0439 -0.28521,-0.15358 0,-0.0878 0.10969,-0.17551 0.26327,-0.19745 0,0 0.022,0 0.022,0 0,-0.0658 -0.022,-0.1097 -0.022,-0.17552 0,0 -0.022,0 -0.022,0 -0.15358,0.0439 -0.28522,0 -0.30716,-0.1097 -0.022,-0.0878 0.0878,-0.19746 0.2194,-0.24134 0,0 0.022,0 0.022,0 -0.022,-0.0439 -0.022,-0.1097 -0.0439,-0.15358 0,0 -0.022,0 -0.022,0 -0.13164,0.0658 -0.28522,0.0439 -0.32909,-0.0439 -0.0439,-0.0878 0.0439,-0.19746 0.19745,-0.26328 0.022,0 0.022,0 0.0439,-0.022 -0.022,-0.0439 -0.0439,-0.10971 -0.0658,-0.15358 0,0 -0.022,0.022 -0.022,0.022 -0.13164,0.0878 -0.28521,0.0878 -0.32909,0 -0.0439,-0.0878 0.022,-0.2194 0.15358,-0.28522 0.022,0 0.022,-0.022 0.0439,-0.022 -0.0219,-0.0439 -0.0658,-0.0878 -0.10969,-0.13164 0,0 -0.0219,0.022 -0.0219,0.022 -0.1097,0.1097 -0.26327,0.13164 -0.3291,0.0439 -0.0658,-0.0658 -0.022,-0.2194 0.0878,-0.30715 0.022,0 0.022,-0.022 0.0439,-0.022 -0.0439,-0.0439 -0.0878,-0.0877 -0.13164,-0.13163 0,0.022 -0.022,0.022 -0.022,0.022 -0.0877,0.1097 -0.24133,0.15358 -0.30716,0.1097 -0.0658,-0.0658 -0.0439,-0.19746 0.0439,-0.3291 0,-0.0219 0.022,-0.0219 0.0439,-0.0439 -0.0439,-0.0439 -0.0878,-0.0658 -0.13164,-0.1097 0,0.0219 -0.022,0.0219 -0.022,0.0439 -0.0877,0.13164 -0.19745,0.19746 -0.28521,0.15358 -0.0878,-0.0439 -0.0878,-0.19745 0,-0.32909 0,-0.022 0.022,-0.022 0.022,-0.0439 -0.0439,-0.022 -0.1097,-0.0658 -0.15358,-0.0877 0,0.022 0,0.022 -0.022,0.0439 -0.0658,0.13164 -0.17552,0.2194 -0.26328,0.19746 -0.0878,-0.0439 -0.1097,-0.17552 -0.0658,-0.3291 0,-0.022 0.022,-0.022 0.022,-0.0439 -0.0658,-0.022 -0.1097,-0.0439 -0.17552,-0.0658 0,0.022 0,0.022 0,0.0439 -0.0439,0.15358 -0.13164,0.24134 -0.21939,0.24134 -0.0878,-0.022 -0.13164,-0.15358 -0.1097,-0.30716 0,-0.022 0,-0.022 0.0219,-0.0439 -0.0658,-0.022 -0.1097,-0.022 -0.17551,-0.022 0,0.022 0,0.022 0,0.0439 0,0.15357 -0.0878,0.26327 -0.19746,0.26327 -0.0878,0 -0.15358,-0.13164 -0.15358,-0.28521 0,-0.022 0,-0.022 0,-0.0439 -0.0658,0 -0.1097,0 -0.17551,0 0,0.022 0,0.022 0,0.0439 0.022,0.15357 -0.0439,0.28521 -0.15358,0.28521 -0.0878,0 -0.17552,-0.1097 -0.19747,-0.26327 0,-0.022 0,-0.022 0,-0.0439 -0.0658,0 -0.10969,0.022 -0.17551,0.022 0,0.022 0,0.022 0,0.0439 0.0439,0.15358 0,0.28522 -0.1097,0.30716 -0.0878,0.022 -0.19746,-0.0878 -0.24134,-0.2194 0,-0.022 0,-0.022 0,-0.0439 -0.0439,0.022 -0.1097,0.0439 -0.15358,0.0439 0,0 0,0.022 0.022,0.022 0.0658,0.13164 0.0439,0.28522 -0.0439,0.3291 -0.0878,0.0439 -0.19746,-0.0439 -0.26328,-0.19746 0,0 0,-0.022 -0.022,-0.022 -0.0439,0.022 -0.1097,0.0439 -0.15358,0.0878 0,0 0,0.022 0.022,0.022 0.0878,0.13164 0.0878,0.28522 0,0.32909 -0.0877,0.0439 -0.21939,-0.022 -0.28522,-0.15357 0,0 0,-0.0219 -0.022,-0.0219 -0.0439,0.0219 -0.0878,0.0658 -0.13164,0.1097 0,0 0,0 0.022,0.022 0.10969,0.10969 0.13163,0.26327 0.0439,0.32909 -0.0658,0.0658 -0.2194,0.022 -0.30716,-0.0878 0,0 0,0 -0.022,-0.022 -0.0439,0.0439 -0.0878,0.0877 -0.1097,0.10969 0,0 0,0 0,0 0.1097,0.0878 0.15358,0.24134 0.1097,0.30716 -0.0658,0.0658 -0.19745,0.0439 -0.32909,-0.0439 0,0 0,0 0,0 -0.022,0.0439 -0.0658,0.0877 -0.0878,0.13164 0,0 0,0 0,0 0.13164,0.0877 0.19746,0.19746 0.15358,0.28521 -0.0439,0.0878 -0.19745,0.0878 -0.32909,0 0,0 0,0 0,0 -0.022,0.0439 -0.0439,0.0878 -0.0658,0.15358 0.17552,0.1097 0.24134,0.2194 0.2194,0.30715 z m 0.61431,1.62354 c -0.13164,0.022 -0.24134,-0.0658 -0.26328,-0.19745 -0.022,-0.13164 0.0658,-0.24135 0.19745,-0.26328 0.13164,-0.022 0.24134,0.0658 0.26328,0.19745 0.022,0.1097 -0.0658,0.24134 -0.19745,0.26328 z m 1.14086,1.88682 c -0.78983,-0.3291 -1.40414,-1.03117 -1.25056,-1.44802 0.17551,-0.41686 1.03116,-0.35104 1.84294,-0.022 0.78983,0.3291 1.46995,0.87759 1.29444,1.29445 -0.17552,0.41685 -1.09699,0.48267 -1.88682,0.17552 z m 2.45726,-0.52655 c -0.10971,0.0877 -0.24135,0.0658 -0.3291,-0.0439 -0.0878,-0.1097 -0.0658,-0.24133 0.0439,-0.32909 0.1097,-0.0878 0.24134,-0.0658 0.32909,0.0439 0.0658,0.0878 0.0439,0.24133 -0.0439,0.3291 z m -0.022,-3.79558 c 0.43879,-0.0658 0.98729,0.70207 1.09698,1.55772 0.1097,0.85565 -0.17551,1.73324 -0.63625,1.79906 -0.43879,0.0658 -0.81177,-0.72401 -0.94341,-1.57966 -0.1097,-0.85565 0.0439,-1.7113 0.48268,-1.77712 z m -0.57043,-0.3291 c 0.10969,0.0439 0.17552,0.17552 0.13163,0.30716 -0.0439,0.1097 -0.17552,0.17551 -0.30716,0.13164 -0.10969,-0.0439 -0.17551,-0.17552 -0.13163,-0.30716 0.0658,-0.13164 0.19746,-0.17552 0.30716,-0.13164 z m -0.6582,1.64549 c 0.3291,0.13164 0.48267,0.50461 0.35104,0.8337 -0.13164,0.3291 -0.50462,0.48268 -0.83371,0.35104 -0.3291,-0.13163 -0.48268,-0.50462 -0.35104,-0.83371 0.13164,-0.3291 0.50462,-0.48267 0.83371,-0.35103 z m -1.84294,-1.44803 c 0.68014,-0.52655 1.60161,-0.70207 1.86488,-0.35104 0.28522,0.35104 -0.21939,1.07505 -0.89952,1.60161 -0.68014,0.52655 -1.49191,0.83371 -1.77713,0.48267 -0.26327,-0.35104 0.13164,-1.20668 0.81177,-1.73324 z"
       id="path10895"
       style="fill:#777777;fill-opacity:1;stroke-width:0.21939741" />
  </g>
</svg>
