<?xml version="1.0" encoding="UTF-8" standalone="no"?>
<!-- Created with Inkscape (http://www.inkscape.org/) -->

<svg
   xmlns:dc="http://purl.org/dc/elements/1.1/"
   xmlns:cc="http://creativecommons.org/ns#"
   xmlns:rdf="http://www.w3.org/1999/02/22-rdf-syntax-ns#"
   xmlns:svg="http://www.w3.org/2000/svg"
   xmlns="http://www.w3.org/2000/svg"
   xmlns:sodipodi="http://sodipodi.sourceforge.net/DTD/sodipodi-0.dtd"
   xmlns:inkscape="http://www.inkscape.org/namespaces/inkscape"
   width="6.4386401mm"
   height="6.2635999mm"
   viewBox="0 0 6.4386401 6.2635998"
   version="1.1"
   id="svg10223"
   inkscape:version="0.92.3 (2405546, 2018-03-11)"
   sodipodi:docname="cog3.svg">
  <defs
     id="defs10217" />
  <sodipodi:namedview
     id="base"
     pagecolor="#ffffff"
     bordercolor="#666666"
     borderopacity="1.0"
     inkscape:pageopacity="0.0"
     inkscape:pageshadow="2"
     inkscape:zoom="22.627417"
     inkscape:cx="8.8363338"
     inkscape:cy="14.035993"
     inkscape:document-units="mm"
     inkscape:current-layer="layer1"
     showgrid="false"
     fit-margin-top="0"
     fit-margin-left="0"
     fit-margin-right="0"
     fit-margin-bottom="0"
     inkscape:window-width="2558"
     inkscape:window-height="1418"
     inkscape:window-x="1600"
     inkscape:window-y="20"
     inkscape:window-maximized="1" />
  <metadata
     id="metadata10220">
    <rdf:RDF>
      <cc:Work
         rdf:about="">
        <dc:format>image/svg+xml</dc:format>
        <dc:type
           rdf:resource="http://purl.org/dc/dcmitype/StillImage" />
        <dc:title></dc:title>
      </cc:Work>
    </rdf:RDF>
  </metadata>
  <g
     inkscape:label="Layer 1"
     inkscape:groupmode="layer"
     id="layer1"
     transform="translate(-103.48893,-155.39431)">
    <path
       inkscape:connector-curvature="0"
       class="st0"
       d="m 104.05842,157.32165 h -0.30659 l 0.21899,0.21899 c 0.0876,0.0876 0.0439,0.21899 -0.0876,0.26279 l -0.30659,0.0876 0.26279,0.17521 c 0.0876,0.0876 0.0876,0.21899 -0.0439,0.26279 l -0.30659,0.13144 0.26279,0.13144 c 0.0876,0.0439 0.13144,0.17519 0,0.26279 l -0.26279,0.17519 0.30659,0.0876 c 0.13144,0.0439 0.13144,0.17519 0.0876,0.26279 l -0.21901,0.21899 0.3066,0.0439 c 0.13144,0 0.1752,0.13144 0.13144,0.21899 l -0.17521,0.26279 0.30659,-0.0439 c 0.13144,0 0.219,0.0876 0.17521,0.21899 l -0.13144,0.30659 0.3066,-0.0876 c 0.13143,-0.0437 0.21899,0.0876 0.17519,0.17521 l -0.0876,0.30659 0.26279,-0.13144 c 0.0876,-0.0439 0.21899,0.0439 0.21899,0.13144 v 0.30658 l 0.26279,-0.17519 c 0.0876,-0.0876 0.21899,0 0.26279,0.0876 l 0.0439,0.30659 0.21899,-0.219 c 0.0876,-0.0876 0.21899,-0.0439 0.2628,0.0439 l 0.0876,0.3066 0.1752,-0.26279 c 0.0439,-0.0876 0.21899,-0.0876 0.26279,0 l 0.17519,0.26279 0.13144,-0.3066 c 0.0437,-0.0876 0.17519,-0.13143 0.26279,-0.0439 l 0.21899,0.219 0.0439,-0.30659 c 0,-0.13144 0.17519,-0.17521 0.26279,-0.0876 l 0.2628,0.21899 v -0.30659 c 0,-0.13144 0.13143,-0.17519 0.21899,-0.13144 l 0.26279,0.13144 -0.0439,-0.21899 c 0,-0.13144 0.0876,-0.21899 0.21899,-0.17519 l 0.3066,0.0876 -0.13144,-0.3066 c -0.0437,-0.0876 0.0439,-0.21899 0.17521,-0.21899 l 0.30659,0.0437 -0.17521,-0.26279 c -0.0439,-0.0876 0,-0.21899 0.13144,-0.21899 h 0.3066 l -0.21901,-0.26279 c -0.0876,-0.0876 -0.0437,-0.21899 0.0876,-0.26279 l 0.30659,-0.0876 -0.26279,-0.17521 c -0.0876,-0.0876 -0.0876,-0.21899 0.0439,-0.26279 l 0.30659,-0.13144 -0.26279,-0.13144 c -0.0876,-0.0439 -0.13144,-0.17519 0,-0.26279 l 0.26279,-0.17519 -0.30659,-0.0876 c -0.13144,-0.0439 -0.13144,-0.17519 -0.0876,-0.26279 l 0.21899,-0.21899 -0.35038,-0.0439 c -0.13144,0 -0.17521,-0.13144 -0.13144,-0.21899 l 0.17519,-0.26279 -0.30658,0.0439 c -0.13143,0 -0.219,-0.0876 -0.1752,-0.21899 l 0.13144,-0.30659 -0.3066,0.0876 c -0.13144,0.0437 -0.21899,-0.0876 -0.17519,-0.17521 l 0.0876,-0.30659 -0.26279,0.13144 c -0.0876,0.0439 -0.21899,-0.0439 -0.21899,-0.13144 v -0.30658 l -0.26279,0.17519 c -0.0876,0.0876 -0.21899,0 -0.2628,-0.0876 l -0.0439,-0.30659 -0.21899,0.219 c -0.0876,0.0876 -0.219,0.0439 -0.2628,-0.0439 l -0.0876,-0.3066 -0.17519,0.26279 c -0.0439,0.0876 -0.21899,0.0876 -0.26279,0 l -0.17519,-0.26279 -0.13144,0.26279 c -0.0439,0.0876 -0.17519,0.13144 -0.26279,0.0439 l -0.21899,-0.21899 -0.0439,0.30658 c 0,0.13144 -0.17519,0.1752 -0.26279,0.0876 l -0.26279,-0.21899 v 0.30659 c 0,0.13144 -0.13144,0.17519 -0.21899,0.13144 l -0.2628,-0.13144 0.0439,0.3066 c 0,0.13143 -0.0876,0.21899 -0.21899,0.17519 l -0.30659,-0.0876 0.13143,0.30659 c 0.0439,0.0876 -0.0437,0.21899 -0.17518,0.21899 l -0.3066,-0.0439 0.17521,0.26279 c 0.0876,0.0876 0,0.21901 -0.0876,0.21901 z m 0.0876,1.62054 c -0.0439,-0.17519 -0.0439,-0.30658 -0.0439,-0.48178 0.21899,-0.0876 0.48178,-0.17519 0.74457,-0.26279 -0.0439,0.13143 -0.0439,0.30659 -0.0439,0.43799 -0.21899,0.0876 -0.43798,0.17519 -0.65697,0.30658 z m 0.30658,0.91978 c -0.0876,-0.13143 -0.13144,-0.26279 -0.21899,-0.43798 0.17521,-0.1752 0.3504,-0.35039 0.56939,-0.52558 0.0439,0.13143 0.0876,0.30657 0.13143,0.43798 -0.13143,0.17519 -0.30659,0.35039 -0.4818,0.52558 z m 0.70079,0.78838 c -0.13143,-0.0876 -0.26279,-0.21899 -0.35039,-0.30659 0.0876,-0.2628 0.21899,-0.48179 0.35039,-0.70078 0.0876,0.13144 0.17519,0.26279 0.3066,0.35038 -0.13144,0.17521 -0.2628,0.3942 -0.3066,0.65699 z m 0.43798,0.26279 c 0,-0.26279 0,-0.52558 0.0439,-0.78837 0.13144,0.0876 0.26279,0.17518 0.39418,0.21899 -0.0437,0.21899 -0.0437,0.48178 0,0.74457 -0.13143,-0.0876 -0.30657,-0.13144 -0.43798,-0.17519 z m 1.00737,0.21899 c -0.13143,-0.21899 -0.17519,-0.48178 -0.26279,-0.74457 0.13144,0.0439 0.30659,0.0439 0.438,0.0439 0.0439,0.21899 0.17519,0.43798 0.26279,0.65697 -0.13144,0.0439 -0.26279,0.0439 -0.438,0.0439 z m 0.96359,-0.13143 c -0.17521,-0.17521 -0.3504,-0.3504 -0.52559,-0.56939 0.13144,-0.0439 0.30658,-0.0876 0.43798,-0.13144 0.13144,0.17521 0.3066,0.3504 0.48179,0.52559 -0.0876,0.0439 -0.21899,0.0876 -0.39418,0.1752 z m 0.87596,-0.52559 c -0.26279,-0.0876 -0.48178,-0.21901 -0.70077,-0.35039 0.13143,-0.0876 0.21899,-0.17519 0.35039,-0.3066 0.21899,0.13144 0.43798,0.21899 0.65697,0.3066 -0.0876,0.13143 -0.17519,0.21899 -0.30659,0.35039 z m 0.74458,-1.27018 c -0.0437,0.17521 -0.0876,0.3066 -0.17519,0.438 -0.2628,0 -0.52559,0 -0.74458,-0.0439 0.0876,-0.13143 0.13144,-0.26279 0.21899,-0.39419 0.21899,0.0439 0.48179,0.0439 0.70078,0 z m 0.0876,-1.00736 c 0.0439,0.1752 0.0439,0.30659 0.0439,0.48178 -0.21899,0.13144 -0.48178,0.21901 -0.74457,0.26279 0.0439,-0.13144 0.0439,-0.30658 0.0439,-0.43798 0.21899,-0.0876 0.43798,-0.21899 0.65697,-0.30659 z m -0.3504,-0.96357 c 0.0876,0.13144 0.13144,0.26279 0.21901,0.43798 -0.17521,0.17521 -0.3504,0.3504 -0.56939,0.52559 -0.0439,-0.13144 -0.0876,-0.3066 -0.13144,-0.43799 0.17521,-0.13143 0.3504,-0.30659 0.48179,-0.52558 z m -0.65697,-0.74458 c 0.13144,0.0876 0.26279,0.21899 0.35039,0.3066 -0.0876,0.26279 -0.219,0.48178 -0.35039,0.70077 -0.0876,-0.13144 -0.17519,-0.26279 -0.3066,-0.35039 0.13144,-0.219 0.21899,-0.43799 0.3066,-0.65698 z m -0.0439,2.67173 c -0.3504,0.83216 -1.27016,1.22636 -2.10234,0.91976 -0.83218,-0.35039 -1.22636,-1.27016 -0.91976,-2.10234 0.35037,-0.83217 1.27016,-1.22635 2.10233,-0.91976 0.83217,0.30658 1.22636,1.27016 0.91977,2.10234 z m -0.43798,-2.93452 c 0,0.26279 0,0.52559 -0.0439,0.74458 -0.13144,-0.0876 -0.26279,-0.17519 -0.3942,-0.21899 0.0439,-0.219 0.0439,-0.48179 0,-0.7008 0.17521,0.0439 0.3066,0.0876 0.438,0.17521 z m -1.00737,-0.26279 c 0.13144,0.21899 0.17519,0.48178 0.26279,0.74457 -0.13144,-0.0439 -0.30659,-0.0439 -0.438,-0.0439 -0.0439,-0.21899 -0.17519,-0.43799 -0.26279,-0.65698 0.13144,-0.0439 0.3066,-0.0439 0.438,-0.0439 z m -0.96358,0.17519 c 0.1752,0.17519 0.35039,0.35039 0.52558,0.56938 -0.13144,0.0439 -0.30659,0.0876 -0.43798,0.13144 -0.13144,-0.17519 -0.30659,-0.35038 -0.48178,-0.52558 0.0876,-0.0876 0.26279,-0.13144 0.39418,-0.17519 z m -0.87597,0.52558 c 0.0439,0 0.0876,0.0439 0.17519,0.0439 0.17519,0.0876 0.3504,0.17519 0.52559,0.26279 -0.13144,0.0876 -0.2628,0.17519 -0.3504,0.3066 -0.21899,-0.13144 -0.43798,-0.21899 -0.65697,-0.2628 0.0876,-0.13143 0.17519,-0.26279 0.30659,-0.35039 z m -0.56938,0.78838 c 0.0439,0 0.13143,0 0.17519,0 0.21899,0 0.39419,0 0.61318,0.0439 -0.0876,0.13143 -0.1752,0.26279 -0.21899,0.39418 -0.219,-0.0439 -0.4818,-0.0439 -0.74459,0 0.0439,-0.13144 0.0876,-0.30658 0.17521,-0.43798 z"
       id="path10903"
       style="stroke-width:0.43798742;fill:#777777;fill-opacity:1" />
  </g>
</svg>
