<?xml version="1.0" encoding="UTF-8"?>
<svg width="7.2598mm" height="7.2762mm" version="1.1" viewBox="0 0 7.2598 7.2762" xmlns="http://www.w3.org/2000/svg">
 <g transform="translate(-100.7 -152.96)">
  <path class="st0" d="m102.27 153.57c-.0794.0529-.10583.15875-.0265.23813l.0529.0529c.0794.10584.0794.23813 0 .34396-.10584.13229-.29104.13229-.39688 0l-.0529-.0529c-.0529-.0794-.18521-.0794-.23813 0-.0265.0265-.0529.0794-.10583.10583-.0529.0794-.0529.18521.0265.23812l.0794.0529c.10583.0794.15875.21167.10583.3175-.0794.15875-.26458.21167-.39687.10583h-.0529c-.0794-.0529-.18521-.0264-.23812.0794-.0265.0529-.0529.0794-.0529.13229-.0265.0794 0 .18521.10583.21167l.0794.0264c.13229.0529.21167.18521.18521.3175.0794.10584-.0265.26459-.15875.21167l-.23813-.0794c-.10583-.0265-.18521.0264-.21166.13229 0 .0529-.0265.10583-.0265.15875 0 .10583.0529.18521.15875.18521h.0794c.13229 0 .26459.13229.26459.26458s-.1323.26458-.26459.26458h-.0794c-.10584 0-.18521.0794-.15875.18521 0 .0529.0265.10584.0265.15875.0264.10584.10583.15875.21166.13229l.0794-.0265c.13229-.0265.29104.0529.3175.1852.0265.13229-.0529.29104-.18521.3175h-.0794c-.10583.0265-.15875.13229-.10583.23813.0265.0529.0529.0794.0529.13229.0529.0794.15875.10583.23812.0794l.0794-.0529c.13229-.0794.29104-.0265.37041.0794.0794.1323.0265.29105-.0794.37042l-.0529.0265c-.0794.0529-.10583.15875-.0265.23812.0265.0265.0529.0794.10584.10584.0529.0794.18521.0794.23812 0l.0529-.0529c.0794-.10583.23812-.13229.34396-.0529.13229.0794.15875.29105.0529.39688l-.0529.0529c-.0794.0794-.0529.18521.0265.23813.0529.0265.0794.0529.13229.0794.0794.0529.18521.0265.23812-.0794l.0265-.0794c.0529-.13229.21167-.1852.34396-.13229.13229.0529.18521.21167.13229.34396l-.0265.0529c-.0529.0794 0 .18521.10584.23812.0529.0265.10583.0265.13229.0529.10583.0265.18521-.0265.21166-.13229l.0265-.0794c.0265-.13229.15875-.23812.29104-.21166.1323.0264.23813.15875.21167.29104v.0794c-.0265.10584.0529.18521.15875.18521h.15875c.10583 0 .15875-.0794.15875-.18521v-.0794c-.0265-.13229.0794-.26459.23813-.29104.13229-.0265.26458.0794.29104.23812v.0794c0 .10583.10583.15875.21166.13229.0529-.0265.10584-.0265.1323-.0529.10583-.0265.13229-.13229.10583-.21167l-.0265-.0794c-.0529-.13229 0-.29104.13229-.34396.13229-.0529.29104 0 .34396.13229l.0265.0529c.0529.0794.15875.13229.23812.0794.0529-.0264.0794-.0529.1323-.0794.0794-.0529.10583-.15875.0265-.23813l-.10583-.10583c-.10583-.10583-.0794-.26458.0265-.37041.10583-.10584.26458-.0794.37042.0264l.0529.0529c.0529.0794.18521.0794.23813 0 .0265-.0265.0529-.0794.10583-.10583.0529-.0794.0529-.18521-.0265-.23813l-.0794-.0529c-.13229-.0794-.15875-.23813-.0794-.37042.0794-.13229.23813-.15875.37042-.0794l.0529.0265c.0794.0529.1852.0265.23812-.0794.0265-.0529.0529-.0794.0529-.1323.0265-.0794 0-.1852-.10584-.21166l-.0794-.0265c-.13229-.0529-.21167-.18521-.18521-.3175-.0794-.10583.0265-.26458.15875-.21167l.23813.0794c.10583.0265.1852-.0265.21166-.13229 0-.0529.0265-.10584.0265-.15875 0-.10584-.0529-.18521-.15875-.18521h-.0794c-.1323 0-.23813-.10583-.26459-.21167-.0265-.15875.10584-.3175.26459-.3175h.0794c.10583 0 .18521-.0794.15875-.18521 0-.0529-.0265-.10583-.0265-.15875-.0265-.10583-.10583-.15875-.21166-.13229l-.0794.0265c-.13229.0265-.26458-.0265-.3175-.13229-.0794-.15875 0-.3175.15875-.37042l.0794-.0265c.10583-.0265.15875-.13229.10583-.23812-.0265-.0529-.0529-.0794-.0529-.13229-.0529-.0794-.15875-.10584-.23812-.0794l-.0794.0529c-.13229.0794-.29104.0265-.37041-.0794-.0794-.10583-.0265-.29104.0794-.37041l.0529-.0265c.0794-.0529.10583-.15875.0265-.23813-.0265-.0265-.0529-.0794-.10584-.10583-.0529-.0794-.18521-.0794-.23812 0l-.0265.10583c-.0794.10584-.23813.1323-.34396.0529-.13229-.0794-.15875-.29104-.0529-.39688l.0529-.0529c.0794-.0794.0529-.18521-.0265-.23813-.0529-.0265-.0794-.0529-.13229-.0794-.0794-.0529-.18521-.0265-.23812.0794l-.0265.0794c-.0529.10583-.18521.18521-.3175.15875-.15875-.0529-.23813-.21167-.15875-.37042l.0265-.0529c.0529-.0794 0-.18521-.10584-.23813-.0529-.0265-.10583-.0265-.13229-.0529-.10583-.0264-.18521.0265-.21167.1323v.0794c-.0264.13229-.13229.23812-.26458.23812-.15875 0-.29104-.13229-.26458-.29104v-.0794c.0265-.10583-.0529-.18521-.15875-.18521h-.15875c-.10584 0-.15875.0794-.15875.18521v.0794c.0265.1323-.0794.26459-.23813.29104-.10583.0794-.26458 0-.29104-.13229l-.0265-.15875c0-.10583-.10583-.15875-.21166-.13229-.0529.0265-.10584.0265-.1323.0529-.10583.0265-.13229.13229-.10583.21167l.0265.0794c.0529.15875-.0265.3175-.18521.37042-.13229.0264-.26458-.0265-.3175-.15875l-.0265-.0529c-.0529-.0794-.15875-.13229-.23812-.0794.0529 0 0 .0265-.0265.0529zm.0265 4.0746c-.13229.0794-.26459.0265-.3175-.10583l-.18521-1.1377c0-.15875.13229-.23812.26458-.21166l.3175.0794c.13229.0265.26459.18521.26459.3175l.0794.47625c.0529.13229-.0265.3175-.15875.39688zm2.249-2.3812-.10584.5027c-.15875-.0265-.34396 0-.47625.0794l-.26458-.42334c.26458-.15874.55562-.1852.84667-.15874zm-.71438.66145c-.13229.10584-.23812.23813-.29104.39688l-.47625-.10583c.0794-.29105.26458-.52917.50271-.71438zm-.82021.4498.47625.10583c-.0265.15875 0 .34396.0794.47625l-.42334.26458c-.13229-.26458-.15875-.58208-.13229-.84666zm2.0902 1.2964-.26458-.42333c.13229-.10583.23812-.23812.29104-.39687l.47625.10583c-.0794.29104-.26458.52916-.50271.71437zm-1.0054.21167.10584-.47625c.15875.0265.34396 0 .47625-.0794l.26458.42333c-.23812.15875-.55562.18521-.84667.13229zm-.42333-.79375c.10583.13229.23813.23813.39688.29104l-.10584.47625c-.29104-.0794-.52916-.26458-.71437-.50271zm-.29104 1.8521-.92604-.66145c-.10584-.10584-.0794-.26459.0265-.31751l.29104-.1852c.13229-.0794.3175-.0529.42333.0529l.39688.26459c.13229.0529.21166.23812.1852.37041l-.0794.3175c-.0265.15875-.18521.21167-.3175.15875zm1.9579-.0529-1.0848.21166c-.15875 0-.23812-.10583-.21166-.26458l.0794-.3175c.0265-.13229.18521-.26458.3175-.26458l.44979-.10584c.1323-.0529.3175 0 .39688.1323l.18521.29104c.0529.13229 0 .29104-.13229.3175zm1.1906-1.6669c.13229.0265.21167.15875.15875.3175l-.60854.87313c-.10583.10583-.23813.10583-.3175-.0265l-.18521-.29104c-.0794-.1323-.0529-.3175.0265-.42334l.23812-.34395c.0529-.1323.23813-.21167.37042-.18521zm-.18521-1.6933c.13229-.0794.26459-.0265.3175.10583l.18521 1.0319c0 .15875-.10583.23812-.26458.21166l-.3175-.0794c-.13229-.0265-.26459-.18521-.26459-.3175l-.0794-.37042c-.0529-.13229.0265-.3175.13229-.39687zm-.71437 1.27-.47625-.10583c.0265-.15875 0-.34396-.0794-.50271l.42334-.26459c.15875.29105.1852.60855.13229.87313zm-.635-.71438c-.10584-.13229-.23813-.23812-.39688-.29104l.10584-.47625c.29104.0794.52916.26458.71437.50271zm.37041-1.8256.84667.635c.10583.10583.0794.26458-.0265.34396l-.29104.1852c-.13229.0794-.3175.0529-.42333-.0529l-.3175-.23813c-.13229-.0794-.21167-.23812-.18521-.39687l.0794-.3175c.0265-.15875.18521-.21167.3175-.15875zm-1.9314-.0265 1.0583-.15875c.15875 0 .23812.13229.21167.26458l-.0794.3175c-.0265.1323-.18521.26459-.3175.26459l-.39687.0529c-.1323.0529-.3175-.0264-.39688-.15875l-.18521-.29104c-.0794-.13229-.0265-.26458.10584-.29104zm-.42334.47625.18521.26458c.0794.1323.0529.3175-.0529.42334l-.26458.34395c-.0794.1323-.23812.21167-.39687.18521l-.3175-.0794c-.1323-.0265-.21167-.15875-.1323-.29104l.66146-.89959c.10584-.10583.23813-.0794.3175.0529z" fill="#777" stroke-width=".26458"/>
 </g>
</svg>
