<?xml version="1.0" encoding="UTF-8"?>
<svg width="7.2717mm" height="7.2283mm" version="1.1" viewBox="0 0 7.2717 7.2283" xmlns="http://www.w3.org/2000/svg">
 <g transform="translate(-100.71 -152.96)">
  <path class="st1" d="m102.06 154.14c-.0871.0871-.21771.0436-.34834-.0871l-.13067.13067c.13067.0871.17416.26125.13067.34834-.0871.0871-.21771.0871-.34833-.0436-.0436.0436-.0871.0871-.0871.13067.13067.0871.21771.21771.17417.30478-.0436.0871-.21771.0871-.34833.0436-.0436.0436-.0436.13067-.0871.17418.13067.0436.21771.17417.21771.26126-.0436.0871-.17416.13067-.34834.0871 0 .0436-.0434.13066-.0434.17418.13067.0436.26125.13066.21771.26125 0 .0871-.17418.17416-.3048.13067 0 .0436 0 .13066-.0436.17416.13067 0 .26125.0871.26125.21772 0 .0871-.13066.17417-.26125.17417v.17416c.13067 0 .26125.0871.26125.17418 0 .0871-.0871.17417-.26125.21771 0 .0436 0 .13067.0436.17416.13067-.0436.26125.0436.3048.13067.0436.0871-.0436.21771-.21771.26126 0 .0434.0434.13066.0434.17416.13066-.0436.26125 0 .3048.0871.0436.0871-.0436.2177-.17417.26125.0436.0436.0436.0871.0871.17416.13067-.0436.26125-.0436.30478.0436.0436.0871 0 .21771-.0871.3048l.13067.13067c.13067-.0871.26126-.0871.3048-.0436.0436.0871.0436.21771-.0436.3048l.13067.13067c.087-.0871.21771-.13067.3048-.0871.087.0436.087.17416 0 .3048.0436.0436.087.0871.13066.0871.0871-.13066.21771-.17416.3048-.13066.0871.0436.0871.17416.0436.30479.0436.0436.0871.0436.17417.0871.0871-.13067.17416-.21771.26125-.17416.0871.0436.13067.17416.0871.3048.0434 0 .13066.0436.17416.0436.0436-.13067.13067-.21771.26125-.21771.0871 0 .13067.13067.13067.30478.0436 0 .13067 0 .17417.0436.0436-.13067.0871-.26125.2177-.26125.0871 0 .17417.13067.17417.26125h.17418c0-.13067.0436-.26125.17416-.3048.0871 0 .17416.0871.21771.26126.0436 0 .13067 0 .17418-.0435-.0436-.17418 0-.3048.13067-.3048.087-.0436.21771.0871.26125.21771.0436 0 .13067-.0436.17416-.0436-.0434-.13067-.0434-.3048.0436-.34834.0871-.0436.21771.0436.3048.17418.0436-.0436.13067-.0436.17417-.0871-.0871-.13067-.0871-.3048 0-.34834.0871-.0436.21771 0 .34834.13066.0436-.0436.0871-.0871.13067-.0871-.13067-.13067-.13067-.26126-.0436-.34833.0871-.0871.21771-.0436.34832.0871l.13067-.13067c-.13067-.0871-.17416-.26126-.13067-.34835.0871-.0871.21773-.0436.34835.0436l.13067-.13067c-.13067-.0871-.21773-.21771-.17418-.30478.0436-.0871.2177-.0871.34834 0 .0436-.0436.0436-.13067.0871-.17418-.17418-.0436-.26126-.17417-.21773-.3048.0436-.0871.21773-.13067.34834-.0871h.0436c0-.0436.0436-.13067.0436-.17418h-.0436c-.17417-.0434-.3048-.13067-.26126-.26125 0-.0871.17417-.17417.34835-.13067h.0434c0-.0436 0-.13067.0436-.17416h-.0436c-.17416 0-.30478-.0871-.30478-.21773 0-.0871.13067-.17416.30478-.17416h.0436v-.17417h-.0436c-.17416 0-.30478-.0436-.34833-.17418 0-.087.13067-.2177.3048-.2177h.0434c0-.0436 0-.13067-.0434-.17417h-.0436c-.17418.0436-.3048 0-.34834-.0871-.0436-.0871.0871-.2177.26125-.26125h.0436c0-.0436-.0436-.13067-.0436-.17416h-.0436c-.17416.0871-.3048.0436-.34833-.0436-.0436-.0871.0434-.21771.21771-.3048h.0436c-.0436-.0436-.0436-.13067-.0871-.17416 0 0-.0436 0-.0436.0436-.13067.0871-.3048.0871-.39188 0-.0436-.0871 0-.26126.17417-.34835 0 0 .0436 0 .0436-.0436-.0436-.0436-.0871-.0871-.13067-.17416l-.0436.0436c-.13067.13067-.30478.13067-.34833.0871-.0871-.0871-.0436-.21771.0871-.34833l.0436-.0436-.13067-.13067s0 .0436-.0436.0436c-.0871.13067-.26125.17418-.34834.13067-.0871-.0871-.0436-.21771.0436-.34834l.0436-.0436c-.0436-.0436-.0871-.087-.17418-.13066 0 0 0 .0436-.0435.0436-.087.13067-.2177.21771-.30479.17416-.0871-.0436-.0871-.21771 0-.34834 0 0 0-.0436.0436-.0436-.0436-.0435-.13067-.0435-.17418-.0871v.0436c-.0435.17416-.17417.26125-.30479.21771-.087-.0436-.13066-.21771-.087-.34834v-.0436c-.0436 0-.13067-.0436-.17417-.0436v.0436c-.0436.17418-.13066.30479-.26125.26125-.0871-.0436-.17418-.17416-.13067-.34833v-.0436c-.0436 0-.13067 0-.17416-.0436v.0436c0 .17416-.0871.3048-.21771.3048-.0871 0-.17418-.13067-.17418-.3048v-.0436h-.17416v.0436c0 .17416-.0436.3048-.17417.34833-.087 0-.21772-.13067-.21772-.30478v-.0436c-.0436 0-.13067.0436-.17417.0436.0436.17416 0 .30478-.0871.34832-.0871.0436-.21771-.0871-.26126-.26125v-.0436c-.0436 0-.13066.0436-.17416.0436.0871.17418.0436.3048-.0436.34834-.0871.0436-.21771-.0436-.3048-.21771-.13067.13067-.17416.17417-.21771.17417.0871.13067.0871.3048 0 .39189-.087.0434-.26125 0-.34832-.17418-.0436.0436-.0871.0871-.13067.13066.13067.13067.13067.3048.0436.34833zm-.0871 4.4413c-.65312-.78376-.8273-1.7852-.60958-2.6996l.82729.43542c-.0871.56605.0436 1.1756.43543 1.6546zm1.2192-3.2221c.6096-.56605 1.5675-.60959 2.1771-.0871l-1.3063.78376-1.3063-.17417c.13067-.17418.26126-.34834.43542-.5225zm-.13067 2.4384c-.3048-.34833-.47896-.78376-.43541-1.2192l1.1321.6096.52251 1.1756c-.47896-.0436-.87083-.26125-1.2192-.56605zm1.8288-.87083.91439-1.2192c.43542.69669.34833 1.6111-.3048 2.1771-.17418.17416-.39188.26125-.56605.34834zm-2.6996 1.8723.65314-.60959c.43542.43541 1.0015.60959 1.6111.56605l.39187.87083c-.95792.17418-1.9594-.087-2.6561-.82729zm5.0074-1.0886c-.17416.43541-.43541.8273-.78376 1.1756-.43541.39189-.91438.65314-1.4804.74021l-.0436-.91438c.3048-.0871.6096-.26125.87085-.47896s.43542-.47896.56604-.78376zm.13067-.3048-.87085-.26126c.13067-.60959 0-1.2627-.39187-1.7852l.56603-.74021c.69669.74021.9144 1.8288.69669 2.7867zm-2.7867-.56605c-.13067.13066-.34833.13066-.43542 0-.13067-.13067-.13067-.34835 0-.43542.13067-.13067.34834-.13067.43542 0 .13066.13067.13066.34833 0 .43542zm2.0465-2.3077-.78377.47896c-.47897-.43542-1.1321-.6096-1.7417-.52251l-.17416-.87085c.91438-.17416 1.9594.13067 2.6996.9144zm-3.0915-.87085.17418.87085c-.3048.0871-.60959.26125-.8273.47896-.26126.21771-.43542.52251-.56606.82731l-.91437-.0871c.17416-.52251.43541-1.0015.87083-1.3933.39189-.34834.82731-.56605 1.2627-.69669z" fill="#777" stroke-width=".43542"/>
 </g>
</svg>
