<?xml version="1.0" encoding="UTF-8"?>
<svg width="7.2135mm" height="7.2452mm" version="1.1" viewBox="0 0 7.2135 7.2452" xmlns="http://www.w3.org/2000/svg">
 <g transform="translate(-100.73 -152.99)">
  <path class="st0" d="m102.72 153.71-.31639-.18983.0317.34802c0 .12656-.12655.22147-.25311.18983l-.34802-.12655.0949.34801c.0317.12655-.0633.25311-.18982.22147l-.34802-.0633.15819.31639c.0632.12654-.0317.25309-.15819.25309h-.34803l.22147.28475c.0949.095.0317.2531-.0949.28474l-.34801.0633.28473.22146c.0949.095.0633.2531-.0632.28474l-.31638.12656.31638.18983c.12656.0633.12656.22146 0 .28474l-.31638.18983.34802.12654c.12656.0317.15819.22147.0632.28475l-.25311.25311.34802.0633c.12656.0317.18983.15819.095.28475l-.22147.28473h.34801c.12656 0 .22147.12656.15819.25311l-.15819.31638.34802-.0633c.12656-.0317.25311.0949.18983.22146l-.0949.34803.31637-.12656c.12656-.0633.25311.0633.25311.18983v.31639l.31638-.18983c.0949-.0633.25311 0 .25311.12655l.0317.34801.25309-.2531c.095-.0949.25311-.0317.28475.0949l.0949.34802.22147-.28474c.0632-.0949.2531-.0949.28474.0317l.15819.31639.15819-.31639c.0633-.12655.22147-.12655.28475-.0317l.22146.28474.0949-.34802c.0317-.12655.18983-.15819.28474-.0949l.25311.2531.0317-.34801c0-.12655.15818-.18983.2531-.12655l.31638.18983-.0317-.34803c0-.12655.12655-.22146.25311-.18983l.34802.12656-.0949-.34802c-.0317-.12656.0632-.25311.18982-.22147l.34803.0633-.1582-.31638c-.0632-.12655.0317-.25311.1582-.25311h.34802l-.25311-.28473c-.0949-.095-.0317-.25311.0949-.28475l.34801-.0633-.28475-.22147c-.0949-.0949-.0632-.25311.0633-.28475l.34802-.12654-.31638-.18983c-.12656-.0633-.12656-.22147 0-.28474l.31638-.18983-.34802-.12656c-.12655-.0317-.15819-.22147-.0633-.28474l.25311-.25311-.34801-.0633c-.12657-.0316-.18983-.15819-.0949-.28474l.22147-.28475h-.34802c-.12655 0-.22147-.12655-.15819-.25309l.15819-.31639-.34801.0633c-.12656.0317-.25311-.0949-.18983-.22147l.0949-.34801-.31638.12655c-.12654.0632-.25311-.0633-.25311-.18983l.0317-.34802-.31637.18983c-.095.0633-.25311 0-.25311-.12655l-.0317-.34802-.2531.2531c-.0949.0949-.25311.0317-.28475-.0949l-.0949-.31638-.22147.28474c-.0633.0949-.25311.0949-.28475-.0317l-.15819-.31638-.15819.31638c-.0632.12656-.22146.12656-.28475.0317l-.22145-.28474-.0949.34802c-.0317.12654-.18982.15818-.28473.0949l-.25311-.2531-.0317.34802c-.0317.12655-.15819.22147-.28474.12655zm.34801 3.67c-.44293-.69604-.22146-1.6136.47457-2.0565.69605-.44294 1.6136-.22147 2.0565.47456.44293.69604.22146 1.6136-.47457 2.0565-.69603.44294-1.6136.22147-2.0565-.47457zm2.8791.15819c.0633-.0949.15819-.12655.2531-.0949l.44294.0949c.15819.0317.22147.18983.15819.31638-.22147.4113-.53785.79095-.98079 1.0757-1.0757.6644-2.4361.50621-3.322-.31639-.12656-.0949-.0949-.28473.0317-.34801l.37965-.25311c.095-.0633.18983-.0316.2531.0317.60113.50621 1.487.56948 2.183.15818.25309-.18982.44292-.41128.60112-.66439zm-.31638-3.3853c.41129.22146.79095.53784 1.0757.98078.28474.44292.41128.98077.41128 1.4554 0 .15819-.12654.25311-.28473.22147l-.44294-.0949c-.0949-.0317-.15819-.0949-.18983-.22147 0-.31637-.0949-.63275-.28474-.9175-.15818-.2531-.37965-.47456-.63276-.60113-.0949-.0633-.12655-.15818-.0949-.25309l.0949-.44294c.0317-.12655.18983-.18983.34802-.12655zm-1.2655-.31639c.15818 0 .2531.12656.22146.28475l-.0949.44293c-.0317.0949-.0949.15819-.22147.18983-.31638 0-.63275.0949-.9175.28474-.72768.44294-1.044 1.3288-.79096 2.1198.0317.0949 0 .18983-.0949.25311l-.37966.2531c-.12655.0633-.28475.0317-.34802-.12655-.44293-1.2022 0-2.5627 1.139-3.2587.47456-.31637.98078-.44293 1.487-.44293z" fill="#777" stroke-width=".31638"/>
 </g>
</svg>
